<?xml version="1.0" encoding="utf-8"?>
<!-- Generator: Adobe Illustrator 18.1.1, SVG Export Plug-In . SVG Version: 6.00 Build 0)  -->
<svg version="1.1" baseProfile="basic" xmlns="http://www.w3.org/2000/svg" xmlns:xlink="http://www.w3.org/1999/xlink" x="0px"
	 y="0px" width="100.7px" height="100px" viewBox="0 0 100.7 100" xml:space="preserve">
<g id="Layer_1">
</g>
<g id="background">
</g>
<g id="Spekaers">
	<path fill="#333333" d="M64.3,59.4c0-5.5-3.9-8.9-8.2-10v-0.2c4.4-1.6,6.7-5,6.7-8.7c0-3.5-1.7-6.1-4.2-7.6
		c-1.6-1.1-3.4-1.8-5.7-2.2h0V20h-5.3v10.4c0,0,0,0,0,0c-0.2,0-0.3,0-0.5,0c-1.1,0-2.3,0-3.4,0.1V20h-5.3v10.9
		c-0.8,0.1-1.5,0.2-2,0.3V71c0.6,0.1,1.3,0.1,2,0.2V80h5.3v-8.5c0.6,0,1.1,0,1.7,0c0.8,0,1.5,0,2.2,0V80H53v-9.1c0,0,0,0,0,0
		c3.3-0.6,5.7-1.6,7.5-3.1C62.8,65.8,64.3,63,64.3,59.4z M43.7,36.1c0.8-0.2,2-0.3,4.1-0.3c4.7,0,7.6,1.7,7.6,5.6
		c0,3.4-2.8,5.8-8,5.8h-3.7V36.1z M47.6,66c-1.6,0-2.9,0-3.8-0.2V52.6h3.6c5.1,0,9.2,1.9,9.2,6.7C56.6,64.2,52.3,66,47.6,66z"/>
</g>
</svg>
