<?xml version="1.0" encoding="utf-8"?>
<!-- Generator: Adobe Illustrator 18.1.1, SVG Export Plug-In . SVG Version: 6.00 Build 0)  -->
<svg version="1.1" baseProfile="basic" xmlns="http://www.w3.org/2000/svg" xmlns:xlink="http://www.w3.org/1999/xlink" x="0px"
	 y="0px" width="100.7px" height="100px" viewBox="0 0 100.7 100" xml:space="preserve">
<g id="Layer_1">
</g>
<g id="background">
</g>
<g id="Spekaers">
</g>
<g id="Logo">
	<g>
		<path fill="#231F20" d="M67.7,49.3c-1.7,2-11.8,14.5-11.8,14.5c-0.1,0.1-1.4,2-3.1,2c-0.1,0-0.3,0-0.4,0c-0.1,0-0.3,0-0.4-0.1
			c-1.6-0.2-5-0.6-9.3-6.4c-1.4-1.9-2.4-3.3-3.2-4.4c-1.6-2.2-2.1-3-3.2-3.8l-0.5-0.4L7.4,30.5l0-0.5c0-0.1-0.1-7.3,6.7-9.9l0.5-0.2
			l28.9,20.8l6.1,2.3l4.1-4.4c0.3-0.9,1.1-2.2,2.6-2.2c0.4,0,0.8,0.1,1.2,0.3c2.1,0.8,7.1,4.4,7.4,4.6l0.2,0.1
			C65.8,42.2,69.8,46.6,67.7,49.3z"/>
		<g>
			<g>
				
					<rect x="52.8" y="69.9" transform="matrix(0.9899 0.1416 -0.1416 0.9899 11.1888 -6.8613)" fill="#231F20" width="2.1" height="10.6"/>
			</g>
			<g>
				
					<rect x="74.1" y="27.1" transform="matrix(0.668 0.7442 -0.7442 0.668 50.8497 -44.3281)" fill="#231F20" width="2.1" height="15.5"/>
			</g>
			<g>
				
					<rect x="71.7" y="52.4" transform="matrix(0.9512 0.3087 -0.3087 0.9512 20.3784 -21.9868)" fill="#231F20" width="16" height="2.1"/>
			</g>
			<g>
				
					<rect x="59.8" y="69.6" transform="matrix(0.6494 0.7605 -0.7605 0.6494 78.7971 -29.6653)" fill="#231F20" width="23.5" height="2.1"/>
			</g>
		</g>
		<g>
			<polygon fill="#231F20" points="43.5,80.5 41.1,76.8 36.7,76.7 39.5,73.3 38.3,69.1 42.4,70.7 46,68.2 45.7,72.6 49.2,75.3 
				45,76.4 			"/>
			<g>
				<path fill="#FFFFFF" d="M40.9,74.9l1.3,0l0.7,1.1l0.4-1.2l1.3-0.3l-1-0.8l0.1-1.3l-1.1,0.7l-1.2-0.5l0.4,1.3L40.9,74.9z"/>
			</g>
		</g>
		<g>
			<polygon fill="#231F20" points="62.1,37.7 58.3,31.8 51.4,31.6 55.7,26.2 53.8,19.5 60.3,22 66,18.1 65.7,25.1 71.2,29.3 
				64.4,31.1 			"/>
			<polygon fill="#FFFFFF" points="55.7,29.7 59.5,29.8 61.6,33 62.8,29.4 66.5,28.4 63.5,26 63.7,22.2 60.6,24.4 57,23 58.1,26.7 
							"/>
		</g>
		<g>
			<polygon fill="#231F20" points="86.2,74.9 83.2,70.3 77.8,70.2 81.2,65.9 79.7,60.7 84.8,62.6 89.3,59.6 89,65 93.3,68.4 
				88,69.8 			"/>
			<polygon fill="#FFFFFF" points="81.1,68.6 84.1,68.7 85.8,71.2 86.8,68.4 89.7,67.6 87.3,65.8 87.4,62.8 85,64.5 82.2,63.4 
				83,66.3 			"/>
		</g>
		<g>
			<path fill="#FFFFFF" d="M9.5,29.4L36,48.2c0.8-3.3,3.5-5.6,5.1-6.8L14.3,22.2C10.2,24,9.6,28,9.5,29.4z"/>
			<path fill="#FFFFFF" d="M48.2,44.6l-5.1-1.9c-4.2,2.5-5,5.7-5.2,6.9c1,0.8,1.7,1.7,2.9,3.5L48.2,44.6z"/>
			<path fill="#FFFFFF" d="M63.6,42.8c-1.5-1-5.4-3.7-6.9-4.3c-0.1-0.1-0.3-0.1-0.4-0.1c-0.4,0-0.6,0.8-0.6,0.8l-0.1,0.3l-0.2,0.2
				l-4.7,5.1l-7.4,8.6c2.4,0,6.4,2.3,6.4,2.3c1.5,0.8,3.7,2.7,4.4,4.9c0.2,0.6,0.3,1.1,0.4,1.6c1.6-2,10.1-12.4,11.6-14.2
				C66.7,47.1,65,44.4,63.6,42.8z"/>
		</g>
	</g>
</g>
</svg>
