<?xml version="1.0" encoding="utf-8"?>
<!-- Generator: Adobe Illustrator 18.1.1, SVG Export Plug-In . SVG Version: 6.00 Build 0)  -->
<svg version="1.1" baseProfile="basic" xmlns="http://www.w3.org/2000/svg" xmlns:xlink="http://www.w3.org/1999/xlink" x="0px"
	 y="0px" width="100.7px" height="100px" viewBox="0 0 100.7 100" xml:space="preserve">
<g id="Layer_1">
</g>
<g id="background">
</g>
<g id="Spekaers">
	<g>
		<path fill="#333333" d="M41.3,42.2c5.1,5.1,10.5,10.5,15.8,15.9C55,60.2,53,62.4,51,64.5c-7.6-7.6-15.1-15.1-22.6-22.6
			c0.4-0.7,19.7-20.1,21.8-21.9c7.4,7.4,14.8,14.8,22.1,22.1c-2,2-4.2,4.2-6.4,6.3C60.7,43.3,55.5,38.1,50.4,33
			C47.4,36.1,44.4,39.1,41.3,42.2z"/>
		<path fill="#333333" d="M50.4,67c3.1-3.1,6-6,9.1-9.1c-5.2-5.3-10.6-10.6-15.8-15.8c2.2-2.2,4.3-4.3,6.5-6.5
			C50.8,36,71.5,56.8,72.4,58c-7.3,7.3-14.7,14.7-22,22c-0.7-0.4-19.8-19.4-22-21.9c0.4-0.8,4.1-4.6,6.5-6.7
			c1.3,1.3,2.6,2.6,3.8,3.8c1.3,1.3,2.6,2.6,4,4c1.3,1.3,2.6,2.6,3.9,3.9C47.8,64.4,49.1,65.7,50.4,67z"/>
	</g>
</g>
</svg>
