<?xml version="1.0" encoding="utf-8"?>
<!-- Generator: Adobe Illustrator 18.1.1, SVG Export Plug-In . SVG Version: 6.00 Build 0)  -->
<svg version="1.1" baseProfile="basic" xmlns="http://www.w3.org/2000/svg" xmlns:xlink="http://www.w3.org/1999/xlink" x="0px"
	 y="0px" width="792px" height="612px" viewBox="0 0 792 612" xml:space="preserve">
<g id="Layer_1">
</g>
<g id="Layer_2">
	<g>
		<path fill="#994708" d="M351.6,278.3l8.3-6.7c3.2-2.6,6.5-5.9,7.6-7.5c-0.9-1.4-1-3-1-3.8c-0.1-1.6,0.1-3.2,0.3-4.6
			c0.1-0.8,0.3-2,0.3-2.7c-3.8-2.4-6.1-6.3-6.1-10.5c0-2.2,0-9,5.5-12.8c1.7-1.1,4.6-3.7,6.9-6c-5.6-0.6-21.1-2.6-25.8-4.6
			c-1.2,1.8-2.9,4.2-5.6,5.7c-2.4,1.3-5.7,6.1-5.9,7.9c-0.1,0.7-0.1,1.3-0.1,1.8c-0.1,1.4-0.2,2.6-0.6,4c0.5,0.5,0.8,0.9,0.9,1.2
			c0.3,0.7,1.6,2.8,2.4,4l0.5,0.8l0.1,0.9c0.2,2.5,0.3,7-1.3,9.5c-1.8,2.7-7.4,5.9-11.4,5.9c-0.4,0-0.8,0-1.2-0.1
			c-3.1-0.5-5.3-1.7-6.6-3.6c-0.9-1.4-1.2-3.2-0.8-4.9c0-0.2-0.1-0.7-0.3-1.1c-0.4-1-0.9-2.4-0.6-4.1c0.2-0.9,0.5-1.7,0.7-2.4
			c0.1-0.3,0.2-0.6,0.3-0.9c0,0,0,0,0,0c-3.1-3.7-3.1-7.1-0.1-10.3c3.3-3.4,10-13.6,10.5-16.3l0.1-0.3c0.8-4.5,2.3-12.8,9.4-13.9
			c3-0.5,10.9-7.5,12.2-9.6c0.1-0.4,0.2-1.6,0.3-2.5c0.3-3.4,0.8-8.1,3.7-11.6c0.4-0.5,0.8-0.9,1.1-1.3c-0.2-0.1-0.4-0.2-0.5-0.4
			c-0.1-0.1-0.2-0.1-0.3-0.2c-1.9-1.2-3.6-2.8-3.9-6.8c-1.1-1.3-2.1-3.1-1.9-5.5l0-0.3c0.1-2.3,0.2-4.2,2-7.6
			c-0.1-3.5-0.6-14.8-1-18c-0.1-0.7-0.2-1.3-0.2-1.8c-0.5-3.1-0.9-6.3,2.1-10.5c1.8-2.5,2.1-3.8,2.2-4.4c0-0.1-0.1-0.2-0.1-0.4
			c-0.8-2-2.3-5.7-1.9-12.7l0-0.5l0.2-0.5c1.8-5.1,3.6-7.2,6.3-7.2c1.6,0,3,0.9,3.7,2.3c0.7,1.3,3,3.9,4.2,4.8l1.6-0.4l1.5,1.9
			c0.1,0.2,0.3,0.4,0.5,0.6c2.4-1.7,7.3-4.4,12.4-4.4c4.2,0,7.7,1.8,10.1,5.3c1.9,2.7,3.7,4.7,5.6,6.7c3.3,3.6,6.5,7,7.4,12.6
			c0.3,1.9,0.5,4.4,0.8,7c0.3,3.6,0.9,10,1.8,12.3c0.7-0.1,1.4-0.2,2.1-0.3c2.4-0.4,5.1-0.8,7.6-0.8c3.1,0,5.5,0.7,7.3,2
			c2.7,2,6.8,2.9,8.1,2.9c4,0,17.2,7.3,20.4,21.3c0.7,2.3,6.9,23.2-3.8,34.5c-5.1,5.3-7.5,7.3-9.1,8.6c-1.3,1.1-1.7,1.4-3,3.2
			c-2.2,3.1-13.4,16.2-17.8,17.2c-1.2,0.4-4.1,3.3-4.7,4.8c-1.1,3-2.5,5.9-5.9,9c-1.9,1.7-4.3,2.3-6.4,2.7c-2.5,0.6-4,1-4.8,2.4
			c-0.7,1.1-1.2,2-1.6,2.8c-1.7,2.8-2.6,4.4-4.7,5.5c-0.3,0.2-0.6,0.3-0.9,0.4c0.1,2.2-1,3.8-3.1,6c-3.7,3.8-9,6.1-9.2,6.2l-0.7,0.3
			H351.6z"/>
		<path fill="#FFFFFF" d="M358.2,104.8c0.2,0,0.3,0.1,0.5,0.4c1,1.8,5.1,6.9,7.3,6.9c0.1,0,0.2,0,0.3,0c0,0,1.9,2.4,3.6,2.4
			c0.4,0,0.7-0.1,1-0.4c1.1-1,6.3-4.5,11.2-4.5c2.6,0,5.1,0.9,7,3.7c5.5,7.9,11.2,10.7,12.3,17.8c1.1,7,1,22.6,5.3,22.6
			c0.1,0,0.1,0,0.2,0c2.9-0.3,7-1.3,10.6-1.3c2,0,3.8,0.3,5.1,1.3c3.5,2.6,8.4,3.6,10.3,3.6s13.9,5.8,16.8,18.6
			c0,0,6.8,20.7-2.9,30.9c-9.7,10.1-9.3,7.7-12.5,12.3c-3.2,4.6-13.3,15.2-15.5,15.7c-2.2,0.4-6.4,4.5-7.4,7.1c-1,2.6-2,4.9-4.9,7.5
			c-2.9,2.6-9,1.2-11.9,5.9c-2.9,4.8-3.3,6.1-4.9,7c-1.6,0.9-2.6,0-2.9,2c-0.3,2,1.2,1.7-2,5.1c-3.2,3.3-8,5.4-8,5.4h-14.8
			c0,0,8.8-7.1,9.3-10.4c0.4-3.3-1.2-0.1-1.3-3.9c-0.1-3.8,1.7-8.7-0.6-10c-2.3-1.3-4.9-3.9-4.9-7.7c0-3.8,0.7-7.5,3.9-9.7
			c3.2-2.2,11.5-10,11.5-11.3c0,0,0-1-4.5-1.3c-4.5-0.3-24.6-3.2-26.7-4.6c-1.3-0.9-1.7-1.5-2.1-1.5c-0.2,0-0.4,0.2-0.8,0.6
			c-1,1.2-2.6,5.1-5.8,6.8c-3.2,1.7-7.5,7.5-7.8,10.9c-0.3,3.3,0,4.6-1.4,6.7c-1.4,2-1.4,2-1.4,2s1-0.3,2-0.3c0.6,0,1.2,0.1,1.5,0.6
			c0.6,1.2,2.6,4.3,2.6,4.3s0.4,5.4-0.7,7.1c-1.1,1.6-5.6,4.2-8.3,4.2c-0.2,0-0.4,0-0.6,0c-2.6-0.4-4.9-1.6-4.3-3.9
			c0.6-2.3-1.2-3.9-0.9-5.5c0.3-1.6,1.4-3.3,1.2-4.9c-0.3-1.6-4.4-3.5-1.2-6.8c3.2-3.3,10.8-14.2,11.5-18.3
			c0.7-4.1,1.7-10.4,6.4-11.2c4.6-0.7,14.1-9.4,15.1-11.7c1-2.3,0.1-9.3,3.5-13.2c3.3-3.9,6.2-6.8,6.2-6.8s-1.7,0.2-3.3,0.2
			c-1.2,0-2.4-0.1-2.9-0.5c-1.2-0.9-2.9-1.2-2.8-5.7c0,0-2-1.2-1.9-3.6c0.1-2.5,0.1-3.9,2-7.2c0,0-0.6-15.4-1-19.3
			c-0.4-3.9-1.4-6.1,1.2-9.7c2.6-3.6,2.9-5.7,2.9-7c0-1.3-2.6-4-2-12.4C355.5,109.5,357.1,104.8,358.2,104.8 M358.2,97.3L358.2,97.3
			L358.2,97.3c-6.4,0-8.8,6.8-9.8,9.7l-0.3,0.9l-0.1,1c-0.5,7,0.9,11.2,1.8,13.5c-0.2,0.4-0.6,1.1-1.3,2c-3.9,5.4-3.2,9.9-2.8,13.2
			c0.1,0.6,0.2,1.1,0.2,1.7c0.3,2.6,0.7,11.7,0.9,16.8c-1.5,3.2-1.8,5.5-1.9,8.2l0,0.3c-0.2,2.9,0.7,5.4,2.1,7.3
			c0.5,3,1.7,5.1,3.1,6.5c-2.6,4-3,8.7-3.3,11.9c0,0.4-0.1,0.9-0.1,1.3c-1.9,2.2-7.3,6.7-9.4,7.4c-9.7,1.6-11.6,12.3-12.4,16.9
			l0,0.2c-0.7,2.5-6.6,11.4-9.5,14.5c-3.8,3.9-3.5,7.9-3.1,9.9c0.3,1.5,1,2.7,1.6,3.7c-0.2,0.6-0.4,1.3-0.5,2
			c-0.5,2.7,0.3,4.9,0.8,6.1c-0.3,2.4,0.2,4.8,1.5,6.8c1.3,1.9,3.9,4.4,9.1,5.3c0.6,0.1,1.2,0.1,1.8,0.1c5.4,0,12.1-4,14.5-7.6
			c1.7-2.6,2.4-6.6,2-11.9l-0.1-1.8l-1-1.6c-1-1.5-2-3.2-2.2-3.7c-0.1-0.1-0.1-0.3-0.2-0.4c0.2-1,0.2-2,0.3-2.9
			c0-0.4,0.1-0.9,0.1-1.5c0.4-1.4,2.8-4.5,4-5.2c2.3-1.2,4-2.9,5.2-4.5c2.2,0.6,5.6,1.3,11.1,2.2c1.5,0.2,3.1,0.5,4.6,0.7
			c-0.1,0.1-0.2,0.2-0.3,0.2c-4.8,3.2-7.2,8.6-7.2,15.9c0,4.7,2.2,9.1,5.9,12.3c0,0.2,0,0.3-0.1,0.5c-0.2,1.6-0.4,3.4-0.4,5.2
			c0,0.7,0.1,1.8,0.5,3c-1.4,1.5-3.6,3.6-5.7,5.2L341,282l21.2,0H377h1.5l1.4-0.6c0.6-0.3,6.3-2.8,10.5-7.1c1.7-1.8,3.3-3.7,3.9-6.2
			c2.5-1.6,3.7-3.7,5.3-6.5c0.4-0.7,0.9-1.6,1.6-2.7c0.4-0.2,1.6-0.5,2.5-0.7c2.3-0.5,5.4-1.2,8-3.6c4-3.6,5.6-7.1,6.9-10.3
			c0.4-0.7,1.8-2.2,2.7-2.8c1.9-0.5,4.5-2,10.5-8.2c2.9-3,6.8-7.3,9-10.4c1-1.4,1.1-1.5,2.3-2.5c1.7-1.4,4.2-3.4,9.4-8.9
			c12-12.6,5.9-34.3,4.7-38c-3.8-15.9-18.5-24-24-24c-0.9,0-3.9-0.7-5.8-2.1c-2.5-1.9-5.6-2.7-9.6-2.7c-2.4,0-4.8,0.3-6.9,0.7
			c-0.4-2.6-0.7-6.2-0.9-8.4c-0.2-2.7-0.5-5.2-0.8-7.3c-1.1-6.7-4.8-10.7-8.3-14.6c-1.7-1.9-3.5-3.8-5.2-6.3
			c-3.1-4.4-7.8-6.9-13.2-6.9c-4.4,0-8.5,1.6-11.6,3.2l-1.5-2l-2.1,0.6c-0.7-0.8-1.5-1.8-1.9-2.4C363.9,98.9,361.2,97.3,358.2,97.3
			L358.2,97.3z"/>
	</g>
</g>
<g id="Layer_3">
	<g>
		<path fill="#565A62" d="M371.9,280.2c2.2-0.5,5-0.7,8.1-0.7c3.4,0,6.7,0.4,9.3,2.6c2,1.6,2.8,4.1,2.8,6.6c0,3.3-1.7,6.4-5.3,8v0.2
			c4.2,1.2,6.5,4.7,6.5,8.7c0,3-1,5.4-2.7,7.2c-2.2,2.4-5.9,3.7-12,3.7c-2.7,0-5-0.2-6.6-0.4V280.2z M379,294.7h1.5
			c2.5,0,4.5-2.2,4.5-5.2c0-2.7-1.2-4.7-4.1-4.7c-0.8,0-1.5,0.1-1.9,0.2V294.7z M379,310.9c0.4,0.1,1,0.1,1.6,0.1
			c2.9,0,5.3-1.8,5.3-5.5c0-3.7-2.5-5.6-5.3-5.6H379V310.9z"/>
		<path fill="#565A62" d="M396.8,279.6h7.1v30.5h9.3v6h-16.4V279.6z"/>
		<path fill="#565A62" d="M437.6,297.3c0,13.8-4.9,19.4-11.8,19.4c-8.3,0-11.6-8.8-11.6-18.8c0-10,4-18.6,12.1-18.6
			C435.1,279.2,437.6,288.9,437.6,297.3z M421.6,297.9c0,8.3,1.6,12.5,4.4,12.5c3,0,4.2-5.4,4.2-12.9c0-6.4-1-12.2-4.2-12.2
			C423.2,285.4,421.6,290,421.6,297.9z"/>
		<path fill="#565A62" d="M459.1,315.7c-1,0.5-3,0.9-5.5,0.9c-9.4,0-13.8-7.6-13.8-18.1c0-13.8,7.6-19.1,14.8-19.1
			c2.5,0,4.2,0.5,4.9,1l-1.2,6c-0.8-0.4-1.7-0.7-3.3-0.7c-4,0-7.6,3.5-7.6,12.5c0,8.7,3.3,12.2,7.6,12.2c1.2,0,2.5-0.3,3.4-0.5
			L459.1,315.7z"/>
		<path fill="#565A62" d="M461.9,279.6h7.1v16.4h0.2c0.6-1.5,1.1-3.1,1.7-4.7l4.9-11.7h7.9l-8.2,15.9l8.4,20.7H476l-5.3-15.1l-1.6,3
			v12.2h-7.1V279.6z"/>
		<path fill="#565A62" d="M502.5,315.7c-1,0.5-3,0.9-5.5,0.9c-9.4,0-13.8-7.6-13.8-18.1c0-13.8,7.6-19.1,14.8-19.1
			c2.5,0,4.2,0.5,4.9,1l-1.2,6c-0.8-0.4-1.7-0.7-3.3-0.7c-4,0-7.6,3.5-7.6,12.5c0,8.7,3.3,12.2,7.6,12.2c1.2,0,2.5-0.3,3.4-0.5
			L502.5,315.7z"/>
		<path fill="#565A62" d="M512.5,279.6v14.6h7.4v-14.6h7.1v36.6h-7.1v-15.3h-7.4v15.3h-7.1v-36.6H512.5z"/>
		<path fill="#565A62" d="M538.1,307.8l-1.6,8.4h-6.9l7.9-36.6h8.5l7.1,36.6h-6.9l-1.6-8.4H538.1z M544,302.3l-1.2-7.6
			c-0.4-2.2-0.9-5.9-1.2-8.3h-0.2c-0.4,2.4-0.9,6.2-1.3,8.3l-1.4,7.6H544z"/>
		<path fill="#565A62" d="M563,279.6v36.6h-7.1v-36.6H563z"/>
		<path fill="#565A62" d="M568,316.2v-36.6h6.5l5.6,14.3c1.1,2.8,2.9,7.5,3.9,10.7h0.1c-0.2-3.9-0.7-10.2-0.7-16.9v-8.1h6.2v36.6
			h-6.5l-5.6-13.9c-1.2-3.1-2.9-7.8-3.7-11h-0.1c0.2,3.7,0.5,9.3,0.5,16.7v8.2H568z"/>
	</g>
	<g>
		<path fill="#565A62" d="M175.7,316.2l-10.4-50.8h3.3l5.4,27.1c1.4,6.7,2.3,12.4,3,18.6h0.3c0.6-6.6,1.8-12,3.2-18.8l5.3-27h3
			l5.5,26.3c1.3,6.2,2.6,12.1,3.3,19.4h0.2c1-7.8,2-13.3,3.2-19.1l5.3-26.7h3.2l-10.5,50.8h-2.9l-6-29.7c-1.1-5.8-2.2-11.5-2.8-16.7
			h-0.2c-0.6,5.5-1.5,10.9-2.8,17l-6,29.4H175.7z"/>
		<path fill="#565A62" d="M214.5,280l5.6,22c0.8,3.2,1.2,5.9,1.8,8.4h0.2c0.5-2.2,1.3-5.4,2-8.4l5.1-22h3.3l-5,20.3
			c-2.6,10.5-5.1,20.4-9.6,26.4c-2.2,3-4.3,4.7-5.4,5.3l-1.7-2.7c1.7-1.1,3.6-3,5.3-5.5c1.6-2.3,2.9-5.3,3.4-7.2
			c0.3-1.1,0.4-1.4,0.4-2c0-0.5,0-0.9-0.2-1.4l-8.6-33.3H214.5z"/>
		<path fill="#565A62" d="M255.7,298.1c0,13.3-5.3,18.7-10.9,18.7c-5.1,0-10.5-5.3-10.5-18.7c0-13.3,5.3-18.7,11-18.7
			C250.4,279.4,255.7,284.8,255.7,298.1z M237.7,298.1c0,5.9,1.1,15.8,7.4,15.8c6.1,0,7.2-9.9,7.2-15.8s-1.1-15.8-7.4-15.8
			C238.8,282.3,237.7,292.2,237.7,298.1z"/>
		<path fill="#565A62" d="M261.1,288.4c0-4.4-0.2-5.8-0.3-8.4h2.9l0.2,4.6h0.2c1.4-3.1,3.9-5.2,7.8-5.2c2.9,0,6,1.4,7.4,5.9h0.2
			c1-2,2.2-3.5,3.5-4.4c1.4-1,3.1-1.4,5-1.4c3.9,0,8.3,2.6,8.3,12.1v24.6h-3.2v-23.5c0-5.1-0.8-10.5-6.1-10.5
			c-2.9,0-5.4,2.6-6.3,6.8c-0.2,1.2-0.2,2.4-0.2,3.7v23.5H277v-24.4c0-4.8-1-9.6-6-9.6c-2.9,0-5.8,2.6-6.5,7.5
			c-0.2,1.1-0.2,2.2-0.2,3.3v23.1h-3.2V288.4z"/>
		<path fill="#565A62" d="M307.1,270.8c0,1.7-0.8,2.8-2.6,2.8c-1.4,0-2.3-1.1-2.3-2.8c0-1.7,1-2.8,2.4-2.8
			C306.2,268,307.1,269.1,307.1,270.8z M303,316.2V280h3.2v36.2H303z"/>
		<path fill="#565A62" d="M313,288.4c0-4.4-0.2-5.8-0.3-8.4h2.9l0.2,4.4h0.2c1.4-2.9,4.1-5,8-5s8.2,2.6,8.2,11.8v25h-3.2v-23.7
			c0-5.1-0.9-10.2-6-10.2c-2.9,0-5.8,2.6-6.6,7.5c-0.2,1-0.2,2-0.2,3.2v23.3H313V288.4z"/>
		<path fill="#565A62" d="M358.6,280c-0.1,2-0.3,4.8-0.3,11.2v20c0,10.6-1.1,13.9-3.1,16.4c-1.9,2.4-5,3.8-8.3,3.8
			c-2.9,0-5.8-0.8-7.3-1.8l1.1-2.7c1.2,0.7,3.7,1.7,6.6,1.7c4.4,0,7.8-2.6,7.8-12.5v-4.6h-0.2c-1.2,3.2-3.9,4.9-7.2,4.9
			c-5.3,0-10.2-6.2-10.2-18.1c0-14.2,6.4-18.7,10.9-18.7c4.4,0,5.9,3.2,6.8,4.9h0.2l0.2-4.3H358.6z M355.1,292c0-0.9,0-1.8-0.2-2.6
			c-0.8-3-2.3-7.1-6.6-7.1c-4.6,0-7.4,6.2-7.4,15.5c0,10.9,3.5,15.5,7.5,15.5c2.1,0,5-0.9,6.4-6.8c0.3-1.4,0.3-2.5,0.3-3.5V292z"/>
	</g>
	<g>
		<path fill="#994708" d="M86.4,374c0.7,0,1.2,0.2,1.2,1.4c0.3,5.4,2.8,12.9,7,19.7c5.1,8,13.6,11.9,22,11.9s21.8-5.6,21.8-19.4
			c0-14.5-2.8-18.7-25.5-27.2c-5.2-1.9-16.4-7.5-25.3-15.2c-6.1-5.4-8.7-14.7-8.7-24.8c0-10.6,2.6-17.8,13.1-25.7
			c7.9-5.9,14.5-8.4,25.1-8.4c12.7,0,19.6,2.1,23.2,3.5c1.7,0.7,3,0.3,4-0.9l2.3-2.3c0.7-0.7,1.6-1,2.6-1c1.2,0,1.6,1.9,1.7,3
			l2.8,29.9c0,0.7-0.3,0.9-0.9,1l-3.8,1.2c-0.9,0.3-1.7,0-2.3-1.2c-1.9-5.1-4.9-11.9-10.8-18.2c-4.4-4.9-9.6-7.3-17.5-7.3
			c-13.1,0-18.5,11.3-18.5,15.9c0,6.5,0.2,11.7,4.5,16.1c4.5,4.7,14.5,8.9,23,11.3c8.4,2.4,15.2,6.8,22.3,13.3
			c6.8,6.1,9.6,13.8,9.6,26c0,21.3-15.2,38.6-38.2,38.6c-15.7,0-23.9-2.6-31.2-7.5c-2.1-1.4-3.1-1.9-4-1.9c-1,0-1.7,1.2-2.8,3
			c-1,1.9-1.9,2.1-3.1,2.1c-1.9,0-2.6-0.9-2.4-2.8l2.8-33.2c0.2-1.2,0.7-1.2,1.4-1.2L86.4,374z"/>
		<path fill="#994708" d="M189.3,388c0,13.8,5.2,16.8,9.3,16.8c3.5,0,6.1-0.5,8.7-2c0.5-0.3,1-0.3,1.5,0.7l1.2,2.5
			c0.5,0.8,0,1.7-0.7,2.2c-2.9,2-10.4,6.7-23.6,6.7c-11.4,0-18.7-7.9-18.7-15.6c0-5.9,0.3-18.7,0.3-25.1l0.2-22.2h-9.3
			c-1.5,0-2.7-0.7-2.7-2.4s1-2.9,3.7-4.2c5.6-2.5,19.7-15.1,25.9-22.2c1.2-1.3,2.4-1.7,3.2-1.7c1.5,0,2.2,1.2,2.2,2.5l-0.7,17.8
			h21.4c1,0,1.5,0.8,1.2,1.5l-1.7,7.2c-0.2,0.7-0.5,1.3-1.5,1.3h-19.7c-0.3,6.9-0.3,15-0.3,22.7V388z"/>
		<path fill="#994708" d="M248,358.9c0-3.4-0.3-7.2-2.5-9.3c-1.7-1.5-4.4-2-7.1-2c-3,0-5.9,0.7-8.9,2.7c-2.5,1.7-0.5,4.5-0.5,9.9
			c0,5.7-4.2,9.6-10.9,9.6c-3.9,0-7.2-2.4-7.2-6.1c0-3.7,1.2-8.8,4.7-11.8c7.1-6.4,18.7-12.5,32.3-12.5c10.8,0,13.6,1.7,17.2,4.9
			c3.7,3.4,4.7,8.2,4.7,14.3l0.3,33.5c0.2,8.8,0.7,11.4,3.9,11.4c2.4,0,4.2-1.9,4.9-3c0.7-1,1.2-1.2,1.7-0.8l2.4,1.3
			c0.7,0.3,1.2,0.8,0.5,2.4c-1.5,3.5-6.6,11.4-17,11.4c-6.6,0-12.8-2.4-16-10.3h-0.8c-4.2,3.9-7.7,6.2-14.5,8.7
			c-3.4,1.2-7.2,1.5-12.1,1.5c-5.9,0-11.1-6.4-11.1-15.5c0-7.4,3.5-15.1,14.5-20.5c13.1-6.2,17.3-8.1,21.7-11.1V358.9z M248.1,374.5
			c-8.2,4.7-15.1,7.2-15.1,18.8c0,7.7,3.5,10.9,7.2,11.1c4.5-0.3,7.9-4.5,7.9-6.1V374.5z"/>
		<path fill="#994708" d="M305.3,340.7c1.5-0.7,2.7-1.2,3.9-1.2c1,0,2,0.5,2.4,2.2l1.3,9.6h0.8c4.7-6.6,13.3-11.8,23.9-11.8
			c10.8,0,16,4.9,20.4,11.8h0.8c5.7-6.7,14-11.3,22.5-11.3c7.6,0,11.1,1,16.3,6.4c4.9,4.9,7.2,6.4,7.2,23.1v12.1
			c0,5.7-0.5,15-0.7,18.5c-0.2,4.7,2.2,6.6,4.9,6.6h3.4c1.5,0,1.9,0.3,1.9,1.5v3.2c0,1.2-0.3,1.7-1.2,1.7c-1.2,0-5.9-0.5-18.2-0.5
			c-10.1,0-16.2,0.5-17.3,0.5c-1,0-1.3-0.5-1.3-2v-2.9c0-1.2,0.5-1.5,1-1.5h1.5c1.2,0,3.2-0.8,3.4-3.2c0.3-3.9,0.8-9.9,0.8-16.2
			v-16.2c0-10.4-0.5-14-2.7-16.3c-2.7-3-4.4-4-8.2-4c-4.7,0-8.1,3.5-10.1,5.4c-2.5,2.9-2.5,8.2-2.5,10.6v33.3c0,4.9,1,6.6,2.9,6.6h3
			c1.5,0,1.9,0.3,1.9,1.5v3c0,1.3-0.3,1.9-1.2,1.9c-1.2,0-5.6-0.5-15.8-0.5c-12.5,0-18.2,0.5-19.2,0.5c-0.8,0-1.2-0.5-1.2-1.7v-3
			c0-1.3,0.2-1.7,1.7-1.7h2.4c2.4,0,4-2.2,4-11.9v-24.9c0-11.6-1.7-15.5-3.7-17.3c-1.5-1.5-4.2-2-7.9-2c-3.4,0-7.2,2.4-9.3,5.2
			c-2.2,3.4-2.9,7.2-2.7,13.6v27.1c0,8.6,1.7,10.3,3.5,10.3h1.5c1.5,0,1.7,0.3,1.7,1.5v3c0,1.2-0.2,1.9-1.3,1.9
			c-1.5,0-6.1-0.5-18-0.5c-11.3,0-16.7,0.5-18,0.5c-1,0-1.3-0.3-1.3-1.5v-3.4c0-1.3,0.2-1.5,2-1.5h4.7c1.7,0,3-1.9,3.2-4.2
			c0.2-2.9,0.2-7.1,0.2-11.4v-21.2c0-7.4-1.2-10.1-5.4-12.6l-3.4-2c-0.8-0.5-1.2-0.8-1.2-1.3v-2c0-0.5,0.3-1.2,1-1.5L305.3,340.7z"
			/>
		<path fill="#994708" d="M419.4,367.6c0-5.7-0.5-8.2-5.6-10.9l-3.9-2c-0.8-0.5-1.2-0.8-1.2-1.5V351c0-0.5,0.3-0.8,1.2-1.2l21.9-8.6
			c2.2-0.8,3.7-1.7,5.2-1.7c1,0,1.5,1.2,2,3.5l1.2,6.2h0.7c4.2-5.2,13-9.8,21.4-9.8c9.1,0,15.3,2.5,20.9,8.6
			c7.1,7.7,9.4,13.6,9.1,23.4c0.2,25.6-17,43.4-38.4,43.4c-2.9,0-8.2-0.2-12.6-2.7l0.2,25.7c0.2,13.6,1.9,14.5,5.9,14.5h4.2
			c1.3,0,1.5,0.7,1.5,1.7v3.2c0,1-0.3,1.5-1.5,1.5c-0.8,0-6.6-0.5-21.5-0.5c-12.3,0-18.2,0.5-19.5,0.5c-1.2,0-1.5-0.5-1.5-1.7v-3.4
			c0-0.8,0.3-1.3,2-1.3h3.9c2.9,0,4-1.7,4.4-4.4c0.3-3.7,0.3-8.8,0.3-18.3L419.4,367.6z M441.3,394.7c0,2.7,1.2,7.1,4.5,9.8
			c2.5,2,6.1,3.9,10.1,3.9c7.1,0,13.3-6.2,13.3-22.4c0-10.6-1.2-34.8-17.5-34.8c-3.2,0-7.7,1.3-10.4,4.5V394.7z"/>
		<path fill="#994708" d="M515.8,370.6v4.5c0,17.5,9.9,26.1,22.2,26.1c8.2,0,15-3.9,18.3-9.3c0.3-0.8,1-1,1.7-0.5l2.9,1.5
			c0.7,0.3,1.2,1.2-0.3,4c-3,6.2-14,17.8-29.8,17.8c-10.8,0-19.7-1.9-25.2-7.9c-8.6-9.3-11.4-15.8-11.6-28.9c0-4.7,0-13.6,7.6-24.7
			c6.1-8.9,16.3-13.8,29.3-13.8c27.3,0,28.8,26.1,28.8,28.8c0,2.2-1.5,2.4-5.2,2.4H515.8z M532.1,364.3c3.7,0,5.4-0.8,5.4-3.4
			c0-7.4-3-14.6-8.2-14.6c-7.9,0-12.1,6.2-13.3,18H532.1z"/>
		<path fill="#994708" d="M613,303.8c-0.2-4.9-2.1-7.7-11.3-10c-1-0.2-1.2-0.5-1.2-1.2v-3.3c0-0.7,0.3-1.2,1.4-1.4
			c10.3-0.9,23.7-1.9,29.5-3.1c2.4-0.5,3.1-0.9,4.5-0.9c1,0,1.7,1.2,1.6,3.1c-0.7,8.7-1,34-1,58.7v38.6c0,6.5,0,13.3,1.7,16.1
			c1.4,2.3,3.7,2.4,7.9,1.9c1.9-0.2,2.6,0.3,2.8,1.2l0.5,2.6c0.2,1-0.2,1.6-1.2,1.9l-26.2,6.6c-1,0.3-1.9-0.2-2.4-1.6l-2.8-8.7
			c-5.6,6.5-15.9,10.6-23.4,10.6c-9.1,0-12.6-0.7-20.8-8.4c-6.8-6.1-11-13.3-11-24.8c0-14,2.4-23,12.2-33.9
			c6.8-7.5,14.8-11.2,25.8-11.2c5.8,0,10.8,1,14.1,2.3L613,303.8z M613.5,359.8c0-3.1-0.2-6.1-1.4-8.4c-2.6-4.7-8.4-7.9-13.3-7.9
			c-3.1,0-6.5,1.2-9.1,4.9c-4.2,5.8-5.6,11.7-5.6,20.1c0,20.6,8.9,34.9,19.7,34.9c4.7,0,6.6-1.7,8.4-3.5c1.4-1.4,1.7-4.5,1.7-8.4
			L613.5,359.8z"/>
		<path fill="#994708" d="M666.2,369.1v4.7c0,18.2,10.3,27.1,23,27.1c8.6,0,15.5-4,19-9.6c0.3-0.9,1-1,1.7-0.5l3,1.6
			c0.7,0.3,1.2,1.2-0.3,4.2c-3.1,6.5-14.5,18.5-30.9,18.5c-11.2,0-20.4-1.9-26.2-8.2c-8.9-9.6-11.9-16.4-12-30
			c0-4.9,0-14.1,7.9-25.7c6.3-9.3,16.9-14.3,30.4-14.3c28.3,0,29.8,27.1,29.8,29.9c0,2.3-1.6,2.4-5.4,2.4H666.2z M683.1,362.4
			c3.8,0,5.6-0.9,5.6-3.5c0-7.7-3.1-15.2-8.6-15.2c-8.2,0-12.6,6.5-13.8,18.7H683.1z"/>
	</g>
</g>
<g id="Isolation_Mode">
	<g>
		<path fill="#A9A7AC" d="M437.6,227.9c-0.1-1.4,0.1-2.7,0.3-4.1c0.1-0.7,0.3-1.4,0.5-2c0.2-0.7,0.5-1.3,1-2c0.5-0.6,1.1-1.2,2-1.4
			c0.4-0.1,0.9-0.1,1.3,0l0.3,0.1c0.1,0,0.1,0,0.2,0l0.1,0l0.5,0.2c0.7,0.2,1.4,0.6,2,0.9c0.6,0.4,1.2,0.7,1.8,1.1
			c1.1,0.8,2.2,1.6,3.3,2.2c0.5,0.3,1.1,0.6,1.7,0.8c0.6,0.2,1.2,0.4,1.8,0.4l2,0.2l2,0.3c1.4,0.2,2.7,0.4,4,0.7l0.5,0.1l-0.2,0.5
			c-0.8,1.8-1.4,3.6-2.1,5.5l-0.4-0.3c1.1-0.7,2.4-1.1,3.8-0.8c0.7,0.1,1.3,0.4,1.8,0.9c0.5,0.4,1,0.9,1.4,1.3c0.9,0.9,1.5,2,2.3,3
			c0.4,0.4,0.8,0.8,1.2,0.9c-0.1-0.1-0.1,0,0-0.1c0,0,0.1-0.1,0.2-0.2c0.2-0.2,0.3-0.4,0.5-0.7c0.4-0.5,0.7-1,1.3-1.5
			c0.5-0.5,1.3-1,2.3-0.9c0.9,0.1,1.6,0.6,2.1,1c0.5,0.4,1,0.9,1.3,1.1c0.9,0.6,1.9,0.8,3,0.8c1.1,0,2.4-0.3,3.7-0.2
			c0.7,0,1.4,0.1,2.1,0.3c0.3,0.1,0.3,0.1,0.5,0.2c0.2,0.1,0.4,0.2,0.6,0.4c0.3,0.3,0.6,0.6,0.9,0.9c0.9,1.4,1,2.7,1.2,3.9
			c0.1,0.6,0.2,1.2,0.3,1.7c0.1,0.2,0.2,0.5,0.2,0.6c0.1,0.1,0.1,0.2,0.2,0.2c0,0,0,0,0.1,0c0,0,0,0,0,0l0.1,0l0.4,0
			c0.3,0,0.6,0,0.9-0.1c0.6-0.1,1.2-0.2,2-0.1c0.4,0,0.9,0.2,1.3,0.5c0.4,0.4,0.6,0.8,0.7,1.2c0.2,0.8,0.1,1.4,0,2.1
			c-0.2,1.2-0.3,2.4-0.3,3.7c-0.1,2.5-0.2,4.9-0.2,7.4l-0.2,0c-0.3-2.5-0.6-4.9-0.6-7.4c0-1.2-0.1-2.5,0-3.8c0-0.6,0-1.2-0.1-1.6
			c-0.2-0.4-0.2-0.4-0.6-0.5c-0.4,0-1.1,0.1-1.7,0.2c-0.3,0-0.6,0.1-1,0.1l-0.5,0l-0.1,0l-0.2,0c-0.1,0-0.2,0-0.4-0.1
			c-0.5-0.1-1-0.5-1.3-0.9c-0.3-0.4-0.4-0.8-0.5-1.1c-0.2-0.7-0.3-1.3-0.4-1.9c-0.2-1.2-0.4-2.4-0.9-3.1c-0.1-0.2-0.3-0.3-0.4-0.4
			c-0.1-0.1-0.2-0.1-0.2-0.1c0,0-0.3-0.1-0.3-0.1c-0.5-0.1-1-0.2-1.6-0.3c-1.1-0.1-2.3,0.1-3.7,0.1c-1.3,0-2.9-0.3-4-1.2
			c-0.7-0.4-1-0.9-1.5-1.3c-0.4-0.4-0.8-0.6-1.1-0.7c-0.3-0.1-0.7,0.1-1.1,0.4c-0.4,0.3-0.8,0.8-1.2,1.3c-0.2,0.2-0.4,0.5-0.7,0.7
			c-0.3,0.2-0.7,0.6-1.5,0.4c-0.8-0.3-1.2-0.9-1.6-1.4c-0.7-1.1-1.3-2.1-2-3.1c-0.4-0.5-0.7-0.9-1.2-1.3c-0.4-0.4-0.9-0.7-1.5-0.8
			c-1.1-0.3-2.4,0.1-3.3,0.7l-0.7,0.5l0.3-0.8c0.6-1.8,1.3-3.7,1.8-5.6l0.3,0.6c-1.3-0.1-2.7-0.2-4-0.3l-2-0.1c-0.7,0-1.3,0-2.1-0.1
			c-0.7-0.1-1.4-0.2-2.2-0.4c-0.7-0.2-1.4-0.5-2-0.9c-0.6-0.3-1.2-0.8-1.8-1.2l-1.6-1.2c-0.5-0.4-1.1-0.8-1.6-1.1
			c-0.6-0.3-1.1-0.6-1.7-0.9l-0.5-0.2l-0.1,0c0,0-0.1,0-0.1,0l-0.2-0.1c-0.3-0.1-0.5-0.1-0.7-0.1c-0.5,0-0.9,0.3-1.3,0.8
			c-0.8,0.9-1.3,2.2-1.6,3.4c-0.4,1.3-0.6,2.6-0.8,3.9L437.6,227.9z"/>
		<path fill="#696A71" d="M321.4,219.6c-0.9,0.7-1.7,1.4-2.5,2.2c-0.4,0.4-0.8,0.7-1.2,1.1c-0.2,0.2-0.4,0.4-0.5,0.6
			c-0.2,0.2-0.4,0.4-0.5,0.6c-0.2,0.2-0.3,0.4-0.5,0.6l-0.4,0.6l-0.4,0.6c-0.1,0.2-0.2,0.4-0.3,0.6c-0.1,0.2-0.2,0.4-0.2,0.6
			c-0.1,0.2-0.1,0.4-0.1,0.6c0,0.2-0.1,0.4-0.1,0.6c0,0.2,0,0.4,0,0.6l-0.1,2.1l-1.7-0.8l-1.2-0.6l-1.3-0.6c-0.9-0.4-1.7-0.8-2.6-1
			c-0.9-0.3-1.8-0.5-2.8-0.6c-0.9-0.1-1.9,0.1-2.7,0.5c-0.4,0.2-0.8,0.5-1.1,0.8c-0.1,0.2-0.3,0.3-0.4,0.5l-0.1,0.1l0,0c0,0,0,0,0,0
			l0,0.1l-0.2,0.3c-0.2,0.5-0.4,0.9-0.5,1.3c-0.1,0.4-0.2,0.9-0.2,1.3c-0.1,0.9,0.1,1.7,0.3,2.5c0.1,0.4,0.3,0.8,0.5,1.2
			c0.2,0.4,0.4,0.8,0.6,1l-2,1.5c-0.2-0.2-0.5-0.5-0.8-0.7c-0.3-0.2-0.7-0.4-1-0.5l-0.5-0.1c-0.2,0-0.4,0-0.6-0.1l-0.6,0
			c-0.2,0-0.4,0.1-0.6,0.1c-0.4,0.1-0.8,0.2-1.2,0.3c-0.4,0.1-0.8,0.3-1.2,0.5c-0.4,0.2-0.8,0.5-1.2,0.7l-0.1,0.1l0,0l0,0l0,0l0,0
			c0,0,0.1-0.1,0.1-0.1l-0.1,0.1l-0.3,0.2c-0.2,0.1-0.4,0.3-0.6,0.4c-0.3,0.3-0.6,0.5-0.8,0.9c-0.3,0.3-0.5,0.7-0.8,1.1
			c-0.2,0.4-0.5,0.8-0.7,1.2c-0.2,0.4-0.4,0.8-0.6,1.3c-0.7,1.7-1.3,3.7-1.7,5.6h-0.3c-0.3-2-0.2-4.1,0.2-6.2c0.1-0.5,0.2-1,0.4-1.5
			c0.2-0.5,0.4-1,0.6-1.5c0.2-0.5,0.5-1,0.8-1.4c0.3-0.5,0.7-0.9,1.1-1.4c0.2-0.2,0.4-0.4,0.6-0.5l0.3-0.3l0.1-0.1l0.2-0.1l0.2-0.1
			c0.5-0.3,0.9-0.7,1.4-0.9c0.5-0.3,1-0.5,1.5-0.7c0.5-0.2,1.1-0.3,1.7-0.5c0.3,0,0.6-0.1,0.9-0.1c0.3,0,0.6,0,0.9,0
			c0.3,0,0.6,0.1,0.9,0.2c0.3,0.1,0.6,0.2,0.9,0.3c0.6,0.3,1.1,0.5,1.6,0.9c0.5,0.4,0.9,0.8,1.3,1.4l-2,1.5c-0.4-0.6-0.6-1-0.8-1.6
			c-0.2-0.5-0.3-1.1-0.4-1.6c-0.2-1.1-0.1-2.2,0.2-3.3c0.1-0.5,0.3-1,0.5-1.5c0.3-0.5,0.5-1,0.8-1.4l0.2-0.3l0-0.1l0-0.1l0,0
			l0.1-0.2c0.2-0.2,0.4-0.4,0.6-0.6c0.4-0.3,0.9-0.7,1.3-0.9c0.5-0.2,1-0.4,1.5-0.5c0.5-0.1,1-0.2,1.5-0.2c1-0.1,2,0,3.1,0.1
			c1,0.1,2,0.2,3,0.5c0.5,0.1,1,0.3,1.5,0.4c0.5,0.2,1,0.3,1.5,0.6l-1.8,1.3c0-0.3-0.1-0.7-0.1-1c0-0.4,0.1-0.7,0.1-1
			c0-0.3,0.2-0.7,0.3-1c0.1-0.3,0.2-0.6,0.4-0.9c0.2-0.3,0.3-0.6,0.5-0.8l0.6-0.7l0.6-0.7c0.2-0.2,0.4-0.4,0.7-0.6
			c0.2-0.2,0.4-0.4,0.7-0.6c0.2-0.2,0.5-0.4,0.7-0.5c0.5-0.3,1-0.6,1.5-0.9c1-0.5,2-1,3.1-1.3L321.4,219.6z"/>
		<path fill="#77777E" d="M478.2,255c-1.2-0.6-2.4-1.1-3.6-1.5c-0.6-0.2-1.3-0.4-1.9-0.5l-0.9-0.2c-0.3-0.1-0.6-0.1-0.9-0.2
			c-0.3-0.1-0.6-0.1-0.9-0.1c-0.3,0-0.6-0.1-0.9,0l-0.9,0c-0.3,0-0.6,0.1-0.9,0.2c-0.3,0.1-0.5,0.2-0.8,0.3
			c-0.1,0.1-0.3,0.1-0.4,0.2c-0.1,0.1-0.2,0.1-0.4,0.2c-0.2,0.1-0.5,0.1-0.7,0.3l-0.7,0.4l-2.4,1.2l0.1-2.4c0-0.5,0-1.1,0-1.6l0-1.7
			c0-1.1-0.1-2.2-0.3-3.3c-0.2-1.1-0.5-2.2-1-3.1c-0.2-0.5-0.6-0.9-0.9-1.3c-0.4-0.4-0.8-0.7-1.3-0.9c-0.5-0.2-1-0.4-1.5-0.4l-0.4,0
			c-0.1,0-0.3,0-0.4,0c-0.3,0-0.6,0-0.9,0.1c-0.5,0.1-1,0.2-1.6,0.4c-0.5,0.2-1,0.4-1.5,0.6l-0.7,0.4l-0.6,0.5
			c-0.4,0.3-0.8,0.7-1.2,1c-0.4,0.4-0.7,0.8-1,1.2c-0.3,0.4-0.6,0.9-0.8,1.2l-2.6-1.5c0.1-0.3,0.3-0.8,0.3-1.2c0.1-0.5,0-0.9,0-1.3
			c-0.1-0.4-0.2-0.8-0.4-1.2c-0.2-0.4-0.5-0.7-0.8-1.1l-0.5-0.5c-0.2-0.1-0.4-0.3-0.6-0.4c-0.4-0.3-0.9-0.5-1.3-0.8l-0.7-0.4
			l-0.4-0.2l-0.2-0.1c-0.1,0,0.1,0,0.1,0l0,0l0,0l0,0l-0.1,0l-0.1,0l-0.8-0.3c-0.3-0.1-0.5-0.1-0.7-0.2c-0.4-0.1-1-0.2-1.5-0.3
			c-0.5,0-1.1-0.1-1.6-0.1c-0.6,0-1.1,0-1.7,0.1c-0.6,0-1.1,0.1-1.7,0.2c-1.1,0.2-2.3,0.4-3.5,0.6c-1.2,0.3-2.3,0.6-3.5,0.9
			l-0.2-0.3c1-0.8,2-1.4,3.1-2c0.6-0.3,1.1-0.5,1.7-0.8c0.6-0.3,1.2-0.5,1.8-0.7c0.6-0.2,1.2-0.4,1.8-0.5c0.6-0.2,1.3-0.3,1.9-0.4
			c0.6-0.1,1.3-0.1,2-0.1c0.7,0,1.3,0,2.1,0.2c0.3,0.1,0.8,0.1,1,0.2l0.9,0.3l0.1,0l0.1,0l0,0l0.1,0.1l0.2,0.1l0.5,0.2l0.9,0.4
			c0.6,0.3,1.2,0.7,1.8,1.1l0.8,0.7l0.8,0.8c0.5,0.6,0.9,1.2,1.2,1.9c0.3,0.7,0.5,1.5,0.6,2.3c0,0.8,0,1.5-0.2,2.3
			c-0.2,0.8-0.4,1.4-0.8,2.2l-2.6-1.5c0.4-0.7,0.8-1.1,1.3-1.6c0.4-0.5,1-0.9,1.5-1.3c0.3-0.2,0.5-0.4,0.8-0.5l0.9-0.5l0.9-0.4
			l0.9-0.3c0.6-0.2,1.2-0.3,1.8-0.4c0.6-0.1,1.3-0.1,1.9-0.1c0.3,0,0.6,0,0.9,0c0.2,0,0.3,0,0.5,0l0.5,0.1c0.6,0.1,1.3,0.3,1.8,0.6
			c0.6,0.3,1.1,0.7,1.5,1.1c0.4,0.4,0.8,0.9,1.2,1.4c0.7,1,1.2,2.1,1.7,3.3c0.4,1.1,0.8,2.3,1.1,3.5c0.1,0.6,0.3,1.2,0.3,1.8
			c0.1,0.6,0.2,1.2,0.2,1.9l-2.3-1.2l1-0.7c0.3-0.2,0.7-0.3,1.1-0.5c0.4-0.1,0.8-0.2,1.2-0.2c0.4,0,0.8,0,1.2,0c0.4,0,0.7,0,1.1,0.1
			l1.1,0.1c0.4,0,0.7,0.1,1,0.2c0.3,0.1,0.7,0.2,1,0.3c0.3,0.1,0.7,0.2,1,0.3l1,0.4c0.6,0.3,1.2,0.6,1.8,0.9
			c1.2,0.6,2.4,1.3,3.5,2.1L478.2,255z"/>
	</g>
</g>
</svg>
