<?xml version="1.0" encoding="utf-8"?>
<!-- Generator: Adobe Illustrator 18.1.1, SVG Export Plug-In . SVG Version: 6.00 Build 0)  -->
<svg version="1.1" baseProfile="basic" xmlns="http://www.w3.org/2000/svg" xmlns:xlink="http://www.w3.org/1999/xlink" x="0px"
	 y="0px" width="100.7px" height="100px" viewBox="0 0 100.7 100" xml:space="preserve">
<g id="Layer_1">
</g>
<g id="background">
</g>
<g id="Spekaers">
	<g>
		<path fill="#333333" d="M13.7,67.1l0.7,0.8c0.6,0.7,1.6,1.7,2.6,2.8c1.6,1.7,3.4,3.6,4.6,5l0.6,0.7l0.7-0.5
			C33.9,69,36.4,68.1,38,67.1l1.6,0.4c0.3,0.1,1,0.3,1.9,0.3c0.2,0,0.5,0,0.7-0.1c2.9-0.6,5.7-1.3,8.7-2.2c1.2-0.4,2.5-0.7,3.8-1.1
			l1.3-0.3L55.3,63c-0.4-0.7-0.8-1.2-1.2-1.7l34.6,18.9l0.9-0.8L56.6,59l0.1-2.1c0.3-4.1,0.5-8.1-3.6-11.7c-3-2.6-5.5-3.8-8.7-3.8
			c6.6-1.6,11.7-2.9,15.9-7.1c0.1-0.1,0.2-0.2,0.3-0.3c0.9-0.9,2.6-2.5,1.3-4.8L61.8,29l-1.2-1.3l-19.3,8.7c3.9-3.4,6.7-4.4,7.5-8.1
			c0.6-2.7,0.1-5-1.3-6.9l-0.9-1.2L34.7,36.9c0,0-0.8,1.7-0.1,0.1c1.5-3.4,2-3.8,1.3-6.6c-0.6-2.6-2.2-4.5-4.6-5.6l-1.4-0.7v19.6
			c-0.8,0.7-1.6,1.7-2.5,3.2c-3.2,5.2-12.9,19.5-12.9,19.5L13.7,67.1z M38.3,55c0-0.5,0.3-1.1,0.7-1.5c1.3-1.3,2.8-2.5,4.2-3.8
			c0.4-0.3,0.8-0.7,1.2-1c0.4,0.2,0.8,0.4,1.2,0.5c1.5,0.7,3,1.3,4.3,2.2c0.3,0.2,0.7,1,0.8,1.8c0.3,2.6,1.6,4.3,3.9,5.2l-2.1,1.4
			c-0.9-0.6-1.8-0.9-2.9-0.9c-1.1,0-2.2,0.3-3.7,0.9c-2.2,0.9-4.6,0.5-6.1-1C38.8,57.8,38.3,56.4,38.3,55z"/>
		<g>
			<path fill="#FFFFFF" d="M40.1,65.5l0.1,0c0,0,0.6,0.2,1.3,0.2c0.1,0,0.2,0,0.3,0c2.8-0.5,5.6-1.3,8.5-2.1
				c0.8-0.2,1.6-0.5,2.4-0.7c-1.3-1.7-2.3-2-3.3-2c-0.8,0-1.7,0.2-2.9,0.7c-1,0.4-2.1,0.6-3.1,0.6c-2,0-3.8-0.8-5.2-2.1
				c-1.3-1.4-2-3.2-2-5.2c0-1,0.5-2.2,1.3-2.9c1.4-1.3,2.8-2.6,4.3-3.8c0.5-0.5,1.1-0.9,1.6-1.4l0.5-0.4l0.6,0.3
				c0.6,0.3,1.2,0.5,1.8,0.8c1.5,0.7,3.1,1.4,4.5,2.3c1,0.6,1.6,2.1,1.7,3.2c0.2,1.7,0.9,2.7,2.1,3.4c0.2-3.7,0.3-6.7-3-9.6
				c-2.7-2.4-4.9-3.3-7.7-3.3c-0.9,0-1.8,0.1-2.9,0.3c-2.3,0.4-4.1,0.4-5.5,0.4c-3,0-4.1,0-6.6,4c-3.3,5.2-6.5,11.8-11.1,17.5
				c-0.6,0.7-1.1,1.3-1.5,1.7c0.5,0.6,1.2,1.3,1.9,2c1.4,1.5,2.9,3.1,4.1,4.5c12.2-7.6,14.8-8.5,14.8-8.6l0.4-0.2L40.1,65.5z"/>
			<path fill="#FFFFFF" d="M39.3,40c8.5-0.2,14.6-2.3,19.6-7.2c0.1-0.1,0.3-0.3,0.4-0.4c1.1-1,1.4-1.5,1-2.2L39.3,40z"/>
			<path fill="#FFFFFF" d="M37.6,36.8c4.8-3.4,8.4-4.8,9.2-8.9c0.2-1.1,0.3-2.5-0.2-3.8L37.6,36.8z"/>
			<path fill="#FFFFFF" d="M31.9,38c2-3.6,2.7-4.2,2-7c-0.4-1.4-1-2.5-2-3.3V38z"/>
		</g>
	</g>
</g>
</svg>
