<?xml version="1.0" encoding="utf-8"?>
<!-- Generator: Adobe Illustrator 18.1.1, SVG Export Plug-In . SVG Version: 6.00 Build 0)  -->
<svg version="1.1" baseProfile="basic" xmlns="http://www.w3.org/2000/svg" xmlns:xlink="http://www.w3.org/1999/xlink" x="0px"
	 y="0px" width="100.7px" height="100px" viewBox="0 0 100.7 100" xml:space="preserve">
<g id="Layer_1">
</g>
<g id="background">
</g>
<g id="Spekaers">
	<g>
		<path fill="#333333" d="M18.3,32.5c0-1.7,0-3.4,0-5.1c0-0.2,0.1-0.4,0.1-0.5c0.6-3.9,4-6.8,8-6.8c13.3,0,26.5,0,39.8,0
			c0.7,0,1.5,0.1,2.2,0.3c3.4,0.9,5.9,4,5.9,7.3c0,12.6,0,25.2,0,37.9c0,0.2,0,0.4,0,0.6c1.8,0,3.6,0.1,5.4,0c1.2,0,2.1,0.4,2.6,1.5
			c0,1.2,0,2.4,0,3.6c0,0.2-0.1,0.4-0.1,0.6c-0.7,3.9-2.8,6.5-6.6,7.8c-0.7,0.2-1.4,0.3-2.1,0.5c-0.9,0-1.7,0-2.6,0
			c-0.1,0-0.2-0.1-0.3-0.1c-3-0.3-6.1-0.6-9.1-0.9c-4.2-0.5-8.3-1-12.5-1.6c-3.6-0.5-7.2-1-10.8-1.4c-4.5-0.5-7.8-4.1-7.8-8.6
			c0-10.9,0-21.7,0-32.6c0-0.3,0-0.5,0-0.9c-0.3,0-0.6,0-0.8,0c-2.9,0-5.8,0-8.6,0C19.7,34,18.8,33.6,18.3,32.5z"/>
		<g>
			<path fill="#FFFFFF" d="M70.3,66c-1.8,0-3.5,0-5.2,0c-6.8,0-13.6,0-20.4,0c-1.6,0-2.3,0.7-2.4,2.3c-0.1,1.5-0.7,2.7-2.2,3.4
				c-1.5,0.7-2.8,0.4-4-0.6c-1.2-0.9-1.8-2.1-1.8-3.6c0-12.7,0-25.4,0-38.1c0-1.8-0.1-3.6-1.1-5.3c0.3,0,0.6,0,0.8,0
				c10.6,0,21.3,0,31.9,0c2.7,0,4.4,1.7,4.4,4.3c0,12.3,0,24.7,0,37C70.3,65.5,70.3,65.7,70.3,66z"/>
			<path fill="#FFFFFF" d="M78.3,70c0.1,3.3-2.3,5.9-5.7,5.9c-2,0-3.9-0.2-5.9-0.4c-4.4-0.5-8.8-1-13.2-1.6
				c-2.9-0.4-5.8-0.7-8.7-1.1c0.4-0.9,0.8-1.9,1.3-2.8C56.8,70,67.5,70,78.3,70z"/>
			<path fill="#FFFFFF" d="M30.3,30c-2.7,0-5.3,0-8,0c0-1.2-0.1-2.3,0.3-3.4c0.8-1.8,2.6-2.9,4.3-2.5c2,0.4,3.3,2,3.3,4
				C30.3,28.7,30.3,29.3,30.3,30z"/>
		</g>
	</g>
</g>
</svg>
