<?xml version="1.0" encoding="utf-8"?>
<!-- Generator: Adobe Illustrator 18.1.1, SVG Export Plug-In . SVG Version: 6.00 Build 0)  -->
<svg version="1.1" baseProfile="basic" xmlns="http://www.w3.org/2000/svg" xmlns:xlink="http://www.w3.org/1999/xlink" x="0px"
	 y="0px" width="100.7px" height="100px" viewBox="0 0 100.7 100" xml:space="preserve">
<g id="Layer_1">
</g>
<g id="background">
</g>
<g id="Spekaers">
	<g>
		<path fill="#333333" d="M59.1,66.6H41.6l-0.1-1.1c-0.2-3-0.8-7.7-1.8-8.7c-4.2-4.5-6.7-8.8-7.3-12.9c-0.6-1.8-0.9-3.8-0.9-5.7
			c0-10.4,8.4-18.8,18.8-18.8c10.4,0,18.8,8.4,18.8,18.8c0,2-0.3,3.9-0.9,5.7c-0.6,4-3.1,8.4-7.3,12.9c-1,1-1.6,5.7-1.8,8.7
			L59.1,66.6z"/>
		<path fill="#FFFFFF" d="M43.9,63.7h12.9c0.2-2.3,0.7-7.1,2.3-8.8c3.8-4.1,6-7.9,6.5-11.4l0-0.2c0.5-1.6,0.8-3.3,0.8-5
			c0-8.9-7.2-16.1-16.1-16.1c-8.9,0-16.1,7.2-16.1,16.1c0,1.7,0.3,3.4,0.8,5l0,0.2c0.5,3.5,2.7,7.3,6.5,11.4
			C43.2,56.5,43.7,61.4,43.9,63.7z"/>
		<rect x="43.6" y="69.9" fill="#333333" width="13.4" height="2.2"/>
		
			<rect x="40" y="34.3" transform="matrix(-0.1992 -0.98 0.98 -0.1992 23.4544 90.5861)" fill="#333333" width="17.5" height="2.8"/>
		
			<rect x="47" y="42.8" transform="matrix(0.8439 0.5365 -0.5365 0.8439 32.0794 -21.8633)" fill="#333333" width="13.3" height="2.8"/>
		<rect x="45.4" y="73.7" fill="#333333" width="9.8" height="2.2"/>
		<rect x="47.9" y="77.2" fill="#333333" width="4.9" height="2.2"/>
	</g>
</g>
</svg>
