<?xml version="1.0" encoding="utf-8"?>
<!-- Generator: Adobe Illustrator 24.0.2, SVG Export Plug-In . SVG Version: 6.00 Build 0)  -->
<svg version="1.1" id="Layer_1" xmlns="http://www.w3.org/2000/svg" xmlns:xlink="http://www.w3.org/1999/xlink" x="0px" y="0px"
	 viewBox="0 0 1000 1000" style="enable-background:new 0 0 1000 1000;" xml:space="preserve">
<style type="text/css">
	.st0{display:none;}
	.st1{display:inline;}
	.st2{clip-path:url(#SVGID_2_);fill:#101223;}
	.st3{clip-path:url(#SVGID_2_);}
	.st4{clip-path:url(#SVGID_4_);fill:#101223;}
</style>
<g>
	<g>
		<g>
			<path d="M666.12,426.95c-3.36-3.61-8.79-4.35-12.99-1.78l-153.38,93.89l-153.29-88.85c-4.24-2.46-9.63-1.61-12.91,2.03
				c-3.28,3.64-3.55,9.09-0.67,13.05l129.62,177.49l0.01,0.01l19.17,26.25l0.08,0.12c8.79,12.54,27.39,12.49,36.1-0.11l11.36-15.92
				l137.74-193.11C669.83,436.03,669.48,430.56,666.12,426.95 M489.53,624.65L378.69,472.86l110.85,64.25V624.65z M510.26,624.04
				v-87.1l110.28-67.51L510.26,624.04z"/>
			<path d="M512.4,427.28l0.11-0.05c-0.12,0.05-0.24,0.09-0.35,0.13C512.24,427.34,512.32,427.31,512.4,427.28"/>
			<path d="M786.1,388.92L658.98,188.36c-1.9-3-5.21-4.82-8.76-4.82c-3.55,0-6.85,1.82-8.75,4.82l-49.46,78.04l-83.36-131.54
				c-1.9-3.01-5.21-4.82-8.76-4.82s-6.85,1.81-8.76,4.82l-83.36,131.54l-49.46-78.04c-1.9-3-5.21-4.82-8.76-4.82
				c-3.55,0-6.85,1.82-8.76,4.82L213.47,389.29l-11.57,18.26c0-0.02-0.01-0.05-0.01-0.07l-5.68,8.92
				c-4.61,7.24,2.81,16.11,10.75,12.86l4.94-2.03l128.21-54.05l-7.59,11.99c-0.07,0.09-0.12,0.21-0.18,0.32
				c-0.11,0.16-0.2,0.33-0.29,0.51c-0.07,0.14-0.13,0.28-0.2,0.43c-0.07,0.16-0.15,0.33-0.21,0.49c-0.06,0.14-0.12,0.29-0.16,0.45
				c-0.06,0.18-0.12,0.34-0.16,0.52c-0.05,0.14-0.07,0.29-0.11,0.43c-0.05,0.19-0.09,0.38-0.13,0.56c-0.02,0.14-0.04,0.28-0.06,0.41
				c-0.02,0.21-0.06,0.41-0.07,0.61c-0.01,0.13-0.01,0.26-0.02,0.39c0,0.21-0.01,0.42,0,0.63c0,0.13,0,0.26,0.01,0.39
				c0.01,0.21,0.04,0.42,0.06,0.63c0.01,0.14,0.04,0.27,0.06,0.41c0.04,0.2,0.07,0.4,0.11,0.6c0.02,0.06,0.02,0.12,0.04,0.18
				c0.02,0.09,0.06,0.18,0.08,0.27c0.05,0.18,0.11,0.36,0.16,0.54c0.05,0.16,0.11,0.33,0.18,0.49c0.04,0.09,0.07,0.2,0.11,0.29
				c0.02,0.07,0.06,0.12,0.08,0.18c0.07,0.16,0.15,0.33,0.24,0.48c0.08,0.16,0.16,0.32,0.25,0.47c0.08,0.14,0.16,0.27,0.25,0.4
				c0.11,0.16,0.21,0.33,0.33,0.48c0.07,0.12,0.16,0.22,0.25,0.34c0.13,0.15,0.26,0.32,0.39,0.47c0.09,0.11,0.19,0.2,0.27,0.29
				c0.14,0.15,0.29,0.31,0.45,0.45c0.09,0.09,0.2,0.18,0.31,0.26c0.15,0.14,0.31,0.27,0.47,0.39c0.12,0.09,0.24,0.18,0.35,0.26
				c0.15,0.11,0.32,0.21,0.48,0.32c0.06,0.04,0.12,0.08,0.18,0.12l158.63,93.71c0.04,0.02,0.08,0.04,0.12,0.06
				c0.36,0.21,0.75,0.4,1.14,0.56c0.39,0.16,0.79,0.31,1.2,0.42c0.09,0.02,0.19,0.05,0.28,0.07c0.32,0.08,0.65,0.14,0.96,0.19
				c0.11,0.02,0.21,0.05,0.32,0.06c0.42,0.05,0.83,0.08,1.26,0.08c0.41,0,0.83-0.04,1.25-0.08c0.11-0.01,0.21-0.04,0.32-0.06
				c0.33-0.05,0.65-0.11,0.96-0.19c0.11-0.02,0.2-0.05,0.29-0.07c0.41-0.12,0.81-0.26,1.2-0.42c0.39-0.16,0.76-0.35,1.14-0.56
				c0.04-0.02,0.07-0.04,0.11-0.06l158.63-93.71c0.09-0.05,0.16-0.11,0.25-0.16c0.11-0.06,0.21-0.13,0.32-0.2
				c0.29-0.21,0.59-0.42,0.87-0.67c0.07-0.06,0.14-0.11,0.2-0.16c0.33-0.28,0.62-0.6,0.92-0.93c0.08-0.09,0.15-0.2,0.24-0.29
				c0.24-0.29,0.46-0.59,0.66-0.91c0.05-0.08,0.11-0.15,0.15-0.22c0.22-0.39,0.43-0.8,0.62-1.22c0.02-0.05,0.05-0.08,0.06-0.13
				c0.05-0.09,0.07-0.2,0.12-0.29c0.06-0.16,0.12-0.33,0.18-0.49c0.06-0.18,0.11-0.36,0.15-0.54c0.04-0.09,0.06-0.18,0.08-0.27
				c0.01-0.06,0.02-0.12,0.04-0.18c0.05-0.2,0.08-0.4,0.12-0.6c0.02-0.14,0.04-0.27,0.06-0.41c0.02-0.21,0.04-0.42,0.05-0.63
				c0.01-0.13,0.02-0.26,0.02-0.39c0-0.21,0-0.42-0.01-0.63c0-0.13-0.01-0.26-0.01-0.39c-0.02-0.2-0.05-0.4-0.07-0.61
				c-0.02-0.13-0.05-0.27-0.07-0.41c-0.04-0.19-0.07-0.38-0.12-0.56c-0.04-0.14-0.07-0.29-0.11-0.43c-0.05-0.18-0.12-0.34-0.18-0.52
				c-0.05-0.15-0.09-0.31-0.15-0.45c-0.07-0.16-0.14-0.33-0.22-0.49c-0.06-0.15-0.12-0.29-0.19-0.43c-0.09-0.18-0.2-0.34-0.29-0.51
				c-0.06-0.11-0.12-0.22-0.18-0.32l-7.59-11.99l116.01,48.9l12.34,5.21c0.06,0.02,0.11,0.04,0.15,0.05
				c0.13,0.06,0.26,0.11,0.39,0.14h0.01l3.97,1.67c7.93,3.32,15.41-5.54,10.83-12.8L786.1,388.92z M650.22,213.27l19.97,31.51
				l-2.74,3.97l-11.38-13.55c-1.46-1.73-3.6-2.73-5.85-2.73h-0.11c-2.29,0.04-4.44,1.09-5.88,2.89l-10.56,13.31l-3.13-4.35
				L650.22,213.27z M499.9,159.77l23.62,37.25l-4.28,6.2l-13.5-16.07c-1.47-1.75-3.67-2.77-5.95-2.72
				c-2.29,0.02-4.46,1.09-5.88,2.88l-12.56,15.83l-4.76-6.63L499.9,159.77z M349.57,213.27l19.97,31.51l-2.74,3.97l-11.38-13.55
				c-1.46-1.73-3.6-2.73-5.85-2.73h-0.11c-2.29,0.04-4.46,1.09-5.88,2.89l-10.56,13.31l-3.13-4.35L349.57,213.27z M353.6,348.38
				c-2.57-1.08-5.48-1.08-8.05,0L234.2,395.32l86.89-137.1l5.44,7.57c1.4,1.94,3.63,3.12,6.03,3.17c2.36,0.06,4.67-1.01,6.16-2.89
				l11.03-13.9l11.8,14.06c1.46,1.74,3.6,2.73,5.85,2.73h0.36c2.37-0.12,4.57-1.34,5.93-3.3l4.74-6.87l17.08,26.96l-40.16,63.36
				L353.6,348.38z M489.53,466.25l-125.27-73.99l20.03-8.44l26.69-11.25l31.21-13.15l19.37-8.17l27.97-11.79V466.25z M503.98,314.31
				l-0.06-0.02c-0.22-0.09-0.45-0.15-0.67-0.22c-0.26-0.09-0.52-0.2-0.79-0.27c-0.49-0.12-1.01-0.21-1.54-0.27
				c-0.15-0.01-0.33-0.01-0.49-0.02c-0.18-0.01-0.35-0.02-0.53-0.02c-0.19,0-0.36,0.01-0.54,0.02c-0.16,0.01-0.33,0.01-0.49,0.02
				c-0.53,0.06-1.03,0.15-1.54,0.27c-0.26,0.07-0.52,0.18-0.78,0.27c-0.22,0.07-0.46,0.13-0.68,0.22l-0.06,0.02l-45.51,19.19
				l-19.36,8.16l-46.65,19.67l-16.56,6.98l6.98-11.02l33.07-52.17l12.27-19.36l47.73-75.33l7.09,9.84c1.39,1.95,3.62,3.13,6.02,3.17
				c2.38,0.05,4.67-1.01,6.16-2.88l13.01-16.41l13.92,16.58c1.46,1.73,3.6,2.73,5.85,2.73c0.12,0,0.23-0.01,0.36-0.01
				c2.38-0.12,4.57-1.33,5.93-3.29l6.27-9.1l47.35,74.71l12.27,19.36l33.06,52.17l6.98,11.02l-16.55-6.98l-46.65-19.67l-19.37-8.16
				L503.98,314.31z M510.26,466.25v-126.8l27.98,11.79l19.37,8.17l31.21,13.15l26.69,11.25l20.02,8.44L510.26,466.25z
				 M654.25,348.38c-2.57-1.08-5.48-1.08-8.05,0l-1.75,0.74l-40.16-63.36l17.44-27.53l5.46,7.57c1.4,1.94,3.62,3.12,6.02,3.17
				c2.36,0.06,4.67-1.01,6.16-2.89l11.03-13.9l11.8,14.06c1.46,1.74,3.61,2.73,5.85,2.73h0.36c2.37-0.12,4.57-1.34,5.92-3.3
				l4.74-6.87l86.52,136.52L654.25,348.38z"/>
		</g>
	</g>
</g>
<g class="st0">
	<g class="st1">
		<defs>
			<rect id="SVGID_1_" x="94.62" y="77.55" width="810.75" height="844.91"/>
		</defs>
		<clipPath id="SVGID_2_">
			<use xlink:href="#SVGID_1_"  style="overflow:visible;"/>
		</clipPath>
		<path class="st2" d="M116.94,871.2h-5.6l-1.31,5.39h-5.91l1.31-5.39h-4.22v-4.04h5.29l1.24-5.08h-4.01v-4.04h5.08l1.18-4.8h5.94
			l-1.18,4.8h5.56l1.18-4.8h5.88l-1.17,4.8h4.18v4.04h-5.25l-1.25,5.08h3.97v4.04h-5.05l-1.31,5.39h-5.88L116.94,871.2z
			 M119.43,861.94h-5.88l-1.28,5.36h5.84L119.43,861.94z"/>
		<g class="st3">
			<defs>
				<rect id="SVGID_3_" x="94.62" y="77.55" width="810.75" height="844.91"/>
			</defs>
			<clipPath id="SVGID_4_">
				<use xlink:href="#SVGID_3_"  style="overflow:visible;"/>
			</clipPath>
			<path class="st4" d="M148.43,876.56v-23.33h14.38c1.9,0,3.11,1.21,3.11,2.94v5.18c0,1.59-1.04,3.11-3.18,3.63
				c2.14,0.52,3.35,1.97,3.35,3.53v5.08c0,1.83-1.21,2.97-3.11,2.97H148.43z M160.15,858.24c0-0.17-0.1-0.38-0.35-0.38h-5.39v4.84
				h5.39c0.24,0,0.35-0.17,0.35-0.38V858.24z M160.15,867.37c0-0.17-0.1-0.38-0.35-0.38h-5.39v5.15h5.39c0.24,0,0.35-0.17,0.35-0.35
				V867.37z"/>
			<path class="st4" d="M191.88,853.23v17.97c0,0.17,0.17,0.31,0.31,0.31h4.39c0.21,0,0.38-0.14,0.38-0.31v-17.97h6.01v20.67
				c0,1.52-1.18,2.66-2.63,2.66h-11.82c-1.42,0-2.66-1.14-2.66-2.66v-20.67H191.88z"/>
			<rect x="223.29" y="853.23" class="st4" width="5.98" height="23.33"/>
			<path class="st4" d="M262.14,853.23c2.56,0,4.73,2.11,4.73,4.73v13.82c0,2.66-2.18,4.77-4.73,4.77H249.6v-23.33H262.14z
				 M260.9,859.94c0-1-0.69-1.69-1.69-1.69h-3.59v13.27h3.59c1,0,1.69-0.69,1.69-1.69V859.94z"/>
			<polygon class="st4" points="286.99,853.23 292.97,853.23 292.97,871.52 300.4,871.52 300.4,876.56 286.99,876.56 			"/>
			<path class="st4" d="M336.31,876.56h-6.01v-5.81h-5.29v5.81H319v-20.6c0-1.62,1.11-2.73,2.73-2.73h11.85
				c1.63,0,2.73,1.11,2.73,2.73V876.56z M330.3,865.71v-7.02c0-0.42-0.35-0.69-0.83-0.69h-3.73c-0.41,0-0.73,0.31-0.73,0.69v7.02
				H330.3z"/>
			<polygon class="st4" points="370.84,853.23 370.84,858.28 365.55,858.28 365.55,876.56 359.54,876.56 359.54,858.28 
				354.25,858.28 354.25,853.23 			"/>
			<polygon class="st4" points="406.72,876.56 400.7,876.56 400.7,867.3 395,867.3 395,876.56 388.99,876.56 388.99,853.23 
				395,853.23 395,862.15 400.7,862.15 400.7,853.23 406.72,853.23 			"/>
			<path class="st4" d="M441.56,853.23c1.63,0,2.73,1.11,2.73,2.73v17.87c0,1.63-1.11,2.73-2.73,2.73h-11.99
				c-1.63,0-2.73-1.1-2.73-2.73v-17.87c0-1.62,1.11-2.73,2.73-2.73H441.56z M438.27,858.66c0-0.21-0.17-0.38-0.38-0.38h-4.74
				c-0.14,0-0.31,0.17-0.31,0.38v12.54c0,0.17,0.17,0.31,0.31,0.31h4.74c0.21,0,0.38-0.14,0.38-0.31V858.66z"/>
			<polygon class="st4" points="469.93,863.74 469.93,876.56 464.4,876.56 464.4,853.23 469.93,853.23 476.91,866.09 476.91,853.23 
				482.44,853.23 482.44,876.56 476.74,876.56 			"/>
			<polygon class="st4" points="536.6,866.99 536.6,873.87 531.35,873.87 531.35,866.99 524.85,866.99 524.85,862.05 531.35,862.05 
				531.35,855.17 536.6,855.17 536.6,862.05 543.1,862.05 543.1,866.99 			"/>
			<polygon class="st4" points="609.8,853.23 605.41,876.56 600.13,876.56 596.53,863.57 592.83,876.56 587.65,876.56 
				583.23,853.23 589.1,853.23 591.14,867.89 594.29,853.23 599.23,853.23 602.2,867.47 604.41,853.23 			"/>
			<path class="st4" d="M641.67,853.23c1.62,0,2.73,1.11,2.73,2.73v17.87c0,1.63-1.11,2.73-2.73,2.73h-11.99
				c-1.62,0-2.73-1.1-2.73-2.73v-17.87c0-1.62,1.11-2.73,2.73-2.73H641.67z M638.39,858.66c0-0.21-0.17-0.38-0.38-0.38h-4.73
				c-0.14,0-0.31,0.17-0.31,0.38v12.54c0,0.17,0.17,0.31,0.31,0.31h4.73c0.21,0,0.38-0.14,0.38-0.31V858.66z"/>
			<path class="st4" d="M679.17,853.23c1.42,0,2.63,1.14,2.63,2.63v10.68c0,1.42-1.21,2.63-2.63,2.63H679l2.87,7.4h-5.88l-2.9-7.4
				h-2.56v7.4h-6.01v-23.33H679.17z M675.82,858.59c0-0.17-0.17-0.35-0.31-0.35h-4.98v6.22h4.98c0.14,0,0.31-0.17,0.31-0.31V858.59z
				"/>
			<polygon class="st4" points="714.15,876.56 709.59,867.64 707.69,870.72 707.69,876.56 701.67,876.56 701.67,853.23 
				707.69,853.23 707.69,862.94 713.74,853.23 720.44,853.23 713.7,863.36 720.72,876.56 			"/>
			<path class="st4" d="M737.2,871.52h8.74c0.24,0,0.38-0.14,0.38-0.31v-3.39c0-0.17-0.14-0.31-0.38-0.31h-6.01
				c-1.62,0-2.73-1.11-2.73-2.73v-8.81c0-1.62,1.11-2.73,2.73-2.73h12.06v5.01h-8.43c-0.21,0-0.34,0.17-0.34,0.38v3.42
				c0,0.14,0.14,0.31,0.34,0.31h6.01c1.62,0,2.73,1.11,2.73,2.73v8.74c0,1.63-1.11,2.73-2.73,2.73H737.2V871.52z"/>
			<polygon class="st4" points="789.74,876.56 783.72,876.56 783.72,867.3 778.02,867.3 778.02,876.56 772.01,876.56 772.01,853.23 
				778.02,853.23 778.02,862.15 783.72,862.15 783.72,853.23 789.74,853.23 			"/>
			<path class="st4" d="M824.58,853.23c1.62,0,2.73,1.11,2.73,2.73v17.87c0,1.63-1.11,2.73-2.73,2.73h-11.99
				c-1.62,0-2.73-1.1-2.73-2.73v-17.87c0-1.62,1.11-2.73,2.73-2.73H824.58z M821.29,858.66c0-0.21-0.17-0.38-0.38-0.38h-4.73
				c-0.14,0-0.31,0.17-0.31,0.38v12.54c0,0.17,0.17,0.31,0.31,0.31h4.73c0.21,0,0.38-0.14,0.38-0.31V858.66z"/>
			<path class="st4" d="M861.7,853.23c1.42,0,2.63,1.14,2.63,2.63v11.99c0,1.38-1.21,2.63-2.63,2.63h-8.26v6.08h-6.01v-23.33H861.7z
				 M858,865.54c0.17,0,0.31-0.17,0.31-0.31v-6.64c0-0.17-0.14-0.35-0.31-0.35h-4.56v7.29H858z"/>
			<path class="st4" d="M883.16,871.52h8.74c0.24,0,0.38-0.14,0.38-0.31v-3.39c0-0.17-0.14-0.31-0.38-0.31h-6.01
				c-1.62,0-2.73-1.11-2.73-2.73v-8.81c0-1.62,1.11-2.73,2.73-2.73h12.06v5.01h-8.43c-0.21,0-0.34,0.17-0.34,0.38v3.42
				c0,0.14,0.14,0.31,0.34,0.31h6.01c1.62,0,2.73,1.11,2.73,2.73v8.74c0,1.63-1.11,2.73-2.73,2.73h-12.37V871.52z"/>
			<polygon class="st4" points="115.25,908.03 115.25,914.91 110,914.91 110,908.03 103.5,908.03 103.5,903.09 110,903.09 
				110,896.21 115.25,896.21 115.25,903.09 121.75,903.09 121.75,908.03 			"/>
			<path class="st4" d="M164.54,908.89v6.05c0,1.52-1.24,2.66-2.73,2.66h-11.72c-1.49,0-2.66-1.14-2.66-2.66V896.9
				c0-1.42,1.17-2.63,2.66-2.63h11.72c1.49,0,2.73,1.21,2.73,2.63v6.01h-6.01v-3.25c0-0.21-0.17-0.38-0.31-0.38h-4.39
				c-0.21,0-0.38,0.17-0.38,0.38v12.55c0,0.21,0.17,0.35,0.38,0.35h4.39c0.14,0,0.31-0.14,0.31-0.35v-3.32H164.54z"/>
			<path class="st4" d="M204.01,894.27c1.63,0,2.73,1.11,2.73,2.73v17.87c0,1.62-1.11,2.73-2.73,2.73h-11.99
				c-1.63,0-2.73-1.11-2.73-2.73V897c0-1.62,1.11-2.73,2.73-2.73H204.01z M200.72,899.7c0-0.21-0.17-0.38-0.38-0.38h-4.74
				c-0.14,0-0.31,0.17-0.31,0.38v12.54c0,0.17,0.17,0.31,0.31,0.31h4.74c0.21,0,0.38-0.14,0.38-0.31V899.7z"/>
			<polygon class="st4" points="237.95,904.4 237.95,917.6 232.42,917.6 232.42,894.27 238.5,894.27 243.2,905.16 247.52,894.27 
				253.88,894.27 253.88,917.6 248.21,917.6 248.21,904.16 244.27,913.42 241.92,913.42 			"/>
			<polygon class="st4" points="285.3,904.4 285.3,917.6 279.77,917.6 279.77,894.27 285.85,894.27 290.55,905.16 294.87,894.27 
				301.23,894.27 301.23,917.6 295.56,917.6 295.56,904.16 291.62,913.42 289.27,913.42 			"/>
			<path class="st4" d="M333.13,894.27v17.97c0,0.17,0.17,0.31,0.31,0.31h4.39c0.21,0,0.38-0.14,0.38-0.31v-17.97h6.01v20.67
				c0,1.52-1.17,2.66-2.63,2.66h-11.82c-1.42,0-2.66-1.14-2.66-2.66v-20.67H333.13z"/>
			<polygon class="st4" points="375.64,904.78 375.64,917.6 370.11,917.6 370.11,894.27 375.64,894.27 382.63,907.13 382.63,894.27 
				388.16,894.27 388.16,917.6 382.45,917.6 			"/>
			<rect x="414.04" y="894.27" class="st4" width="5.98" height="23.33"/>
			<polygon class="st4" points="460.32,894.27 460.32,899.32 455.03,899.32 455.03,917.6 449.02,917.6 449.02,899.32 443.73,899.32 
				443.73,894.27 			"/>
			<path class="st4" d="M488.8,917.6v-6.84h-3.11c-1.42,0-2.63-1.24-2.63-2.76v-13.72h6.01v10.75c0,0.17,0.21,0.35,0.38,0.35h4.8
				c0.21,0,0.24-0.17,0.24-0.35v-10.75h6.01v13.72c0,1.52-1.21,2.76-2.63,2.76h-3.08v6.84H488.8z"/>
			<path class="st4" d="M561.28,903.29h10.58v4.94h-1.93v6.7c0,1.52-1.18,2.66-2.66,2.66h-11.68c-1.49,0-2.7-1.14-2.7-2.66V896.9
				c0-1.42,1.21-2.63,2.7-2.63h14.45v5.01h-10.82c-0.17,0-0.35,0.17-0.35,0.38v12.51c0,0.21,0.17,0.35,0.35,0.35h4.84
				c0.24,0,0.38-0.14,0.38-0.35v-3.94h-3.15V903.29z"/>
			<path class="st4" d="M613.78,917.6h-6.01v-5.81h-5.29v5.81h-6.01V897c0-1.62,1.11-2.73,2.73-2.73h11.85
				c1.62,0,2.73,1.11,2.73,2.73V917.6z M607.77,906.75v-7.02c0-0.41-0.35-0.69-0.83-0.69h-3.73c-0.41,0-0.72,0.31-0.72,0.69v7.02
				H607.77z"/>
			<polygon class="st4" points="653.87,894.27 653.87,899.32 648.58,899.32 648.58,917.6 642.57,917.6 642.57,899.32 637.28,899.32 
				637.28,894.27 			"/>
			<polygon class="st4" points="695.31,917.6 689.3,917.6 689.3,908.34 683.6,908.34 683.6,917.6 677.58,917.6 677.58,894.27 
				683.6,894.27 683.6,903.19 689.3,903.19 689.3,894.27 695.31,894.27 			"/>
			<polygon class="st4" points="721.2,894.27 736.44,894.27 736.44,899.28 727.18,899.28 727.18,903.36 735.2,903.36 735.2,908.34 
				727.18,908.34 727.18,912.56 736.44,912.56 736.44,917.6 721.2,917.6 			"/>
			<path class="st4" d="M776.15,894.27c1.42,0,2.63,1.14,2.63,2.63v10.68c0,1.42-1.21,2.63-2.63,2.63h-0.17l2.87,7.4h-5.88l-2.9-7.4
				h-2.56v7.4h-6.01v-23.33H776.15z M772.8,899.63c0-0.17-0.17-0.35-0.31-0.35h-4.98v6.22h4.98c0.14,0,0.31-0.17,0.31-0.31V899.63z"
				/>
			<rect x="804.22" y="894.27" class="st4" width="5.98" height="23.33"/>
			<polygon class="st4" points="841.62,904.78 841.62,917.6 836.09,917.6 836.09,894.27 841.62,894.27 848.6,907.13 848.6,894.27 
				854.13,894.27 854.13,917.6 848.42,917.6 			"/>
			<path class="st4" d="M888.21,903.29h10.58v4.94h-1.93v6.7c0,1.52-1.18,2.66-2.66,2.66H882.5c-1.49,0-2.7-1.14-2.7-2.66V896.9
				c0-1.42,1.21-2.63,2.7-2.63h14.45v5.01h-10.82c-0.17,0-0.35,0.17-0.35,0.38v12.51c0,0.21,0.17,0.35,0.35,0.35h4.84
				c0.24,0,0.38-0.14,0.38-0.35v-3.94h-3.15V903.29z"/>
			<path class="st4" d="M499.96,82.4c-152.73,0-276.55,123.82-276.55,276.55S347.23,635.5,499.96,635.5s276.55-123.81,276.55-276.55
				S652.7,82.4,499.96,82.4 M261.39,258.17c13.04-30.83,31.71-58.52,55.49-82.3c23.78-23.78,51.48-42.46,82.31-55.49
				c31.91-13.5,65.82-20.34,100.78-20.34s68.87,6.84,100.78,20.34c30.83,13.04,58.52,31.71,82.3,55.49s42.46,51.47,55.5,82.3
				c13.5,31.91,20.34,65.82,20.34,100.78c0,17.99-1.83,35.7-5.43,53.01L635.29,225.51c-1.62-2.55-4.43-4.1-7.45-4.1
				c-3.02,0-5.83,1.55-7.45,4.1l-42.07,66.38l-70.91-111.89c-1.62-2.55-4.43-4.1-7.45-4.1c-3.02,0-5.83,1.55-7.45,4.1L421.6,291.88
				l-42.07-66.38c-1.62-2.55-4.43-4.1-7.45-4.1s-5.83,1.55-7.45,4.1L246.47,411.96c-3.6-17.31-5.43-35.02-5.43-53.01
				C241.05,323.99,247.89,290.08,261.39,258.17 M384.59,398.95l17.03-7.18l22.7-9.57l26.55-11.19l16.48-6.95l23.79-10.03v47.58v8.76
				v18.9v32.63L384.59,398.95z M375.51,361.63c-2.19-0.92-4.66-0.92-6.85,0l-94.72,39.93l73.91-116.63l4.64,6.44
				c1.19,1.65,3.09,2.65,5.12,2.7c2.02,0.05,3.98-0.86,5.24-2.46l9.38-11.82l10.05,11.96c1.24,1.47,3.06,2.32,4.97,2.32
				c0.1,0,0.21,0,0.31-0.01c2.02-0.1,3.89-1.13,5.04-2.8l4.03-5.84l14.53,22.93L377,362.26L375.51,361.63z M355.35,273.11
				l16.74-26.41l16.99,26.8l-2.33,3.38l-9.68-11.53c-1.24-1.47-3.06-2.32-4.98-2.32c-0.03,0-0.06,0-0.09,0
				c-1.95,0.03-3.79,0.93-5,2.46l-8.98,11.32L355.35,273.11z M472.65,244.28l6.02,8.37c1.19,1.65,3.09,2.65,5.12,2.7
				c2.02,0.04,3.98-0.86,5.24-2.46l11.07-13.96l11.84,14.1c1.24,1.48,3.06,2.32,4.97,2.32c0.1,0,0.21,0,0.31-0.01
				c2.03-0.1,3.89-1.13,5.04-2.8l5.34-7.74l40.28,63.55l10.44,16.47l28.13,44.38l5.94,9.37l-14.08-5.94l-39.68-16.73l-16.48-6.95
				l-38.71-16.32l-0.05-0.02c-0.19-0.08-0.39-0.13-0.58-0.19c-0.22-0.08-0.44-0.16-0.66-0.22c-0.42-0.11-0.86-0.19-1.31-0.23
				c-0.14-0.01-0.28-0.01-0.42-0.02c-0.15-0.01-0.3-0.02-0.46-0.02c-0.15,0-0.3,0.02-0.46,0.02c-0.14,0.01-0.28,0.01-0.42,0.02
				c-0.45,0.04-0.89,0.12-1.31,0.23c-0.22,0.06-0.44,0.15-0.66,0.22c-0.19,0.07-0.39,0.11-0.58,0.19l-0.05,0.02l-38.71,16.32
				l-16.48,6.95l-39.68,16.73l-14.08,5.94l5.94-9.37l28.13-44.38l10.44-16.47L472.65,244.28z M480.15,232.45l19.82-31.27l20.09,31.7
				l-3.64,5.27l-11.48-13.67c-1.25-1.49-3.12-2.37-5.07-2.32c-1.95,0.03-3.79,0.93-5,2.46l-10.67,13.46L480.15,232.45z
				 M508.78,429.28v-18.91v-8.76v-47.58l23.8,10.03l16.48,6.95l26.55,11.19l22.7,9.57l17.03,7.18L508.78,461.9V429.28z
				 M624.41,361.63l-1.49,0.63l-34.16-53.9l14.84-23.42l4.64,6.44c1.19,1.65,3.09,2.65,5.12,2.7c2.01,0.05,3.98-0.86,5.24-2.46
				l9.38-11.82l10.05,11.96c1.24,1.47,3.06,2.32,4.97,2.32c0.1,0,0.21,0,0.31-0.01c2.03-0.1,3.89-1.13,5.04-2.8l4.03-5.84
				l73.6,116.13l-94.72-39.93C629.07,360.71,626.6,360.71,624.41,361.63 M611.1,273.11l16.74-26.41l16.99,26.8l-2.33,3.38
				l-9.68-11.53c-1.23-1.47-3.06-2.32-4.98-2.32c-0.03,0-0.06,0-0.09,0c-1.95,0.03-3.79,0.93-5,2.46l-8.98,11.32L611.1,273.11z
				 M508.78,522.03l93.81-57.43l-93.81,131.51V522.03z M491.15,596.63l-94.29-129.11l94.29,54.65V596.63z M738.54,459.72
				c-13.04,30.83-31.71,58.52-55.5,82.31s-51.48,42.46-82.3,55.49c-27.23,11.52-55.93,18.17-85.49,19.88L642.08,439.6
				c2.43-3.41,2.13-8.07-0.73-11.13c-2.86-3.07-7.48-3.7-11.05-1.51l-130.46,79.87l-130.4-75.58c-3.61-2.09-8.19-1.37-10.98,1.73
				c-2.79,3.1-3.02,7.73-0.57,11.1l126.57,173.31c-29.49-1.73-58.11-8.38-85.28-19.87c-30.83-13.04-58.52-31.71-82.31-55.49
				c-23.78-23.78-42.45-51.48-55.49-82.31c-4.2-9.92-7.75-20.04-10.65-30.32c0.13,0.01,0.27,0.02,0.4,0.02
				c0.14,0,0.27,0.01,0.41,0.01c0.14,0,0.28-0.01,0.42-0.02c0.15-0.01,0.29-0.02,0.44-0.03c0.14-0.02,0.28-0.04,0.41-0.06
				c0.14-0.02,0.29-0.05,0.43-0.08c0.15-0.03,0.31-0.08,0.46-0.12c0.12-0.03,0.24-0.06,0.36-0.1c0.19-0.06,0.38-0.13,0.57-0.2
				c0.07-0.03,0.14-0.05,0.21-0.08l0.09-0.04l0.03-0.01l109.07-45.97l-6.46,10.2c-0.06,0.09-0.1,0.18-0.15,0.27
				c-0.08,0.14-0.17,0.29-0.25,0.44c-0.06,0.12-0.11,0.24-0.17,0.36c-0.06,0.14-0.13,0.28-0.19,0.42c-0.05,0.13-0.09,0.25-0.13,0.38
				c-0.05,0.15-0.1,0.29-0.14,0.44c-0.04,0.12-0.06,0.25-0.09,0.37c-0.04,0.16-0.08,0.32-0.1,0.48c-0.02,0.12-0.04,0.24-0.05,0.35
				c-0.02,0.17-0.05,0.34-0.06,0.52c-0.01,0.11-0.01,0.22-0.02,0.33c-0.01,0.18-0.01,0.36-0.01,0.54c0,0.11,0.01,0.22,0.02,0.33
				c0.01,0.18,0.02,0.36,0.05,0.54c0.01,0.11,0.03,0.23,0.05,0.34c0.03,0.17,0.06,0.34,0.1,0.52c0.01,0.05,0.02,0.1,0.03,0.15
				c0.02,0.08,0.05,0.15,0.07,0.23c0.04,0.15,0.09,0.31,0.13,0.46c0.05,0.14,0.1,0.28,0.15,0.42c0.03,0.08,0.06,0.17,0.09,0.25
				c0.02,0.05,0.05,0.1,0.07,0.15c0.06,0.14,0.13,0.27,0.2,0.41c0.07,0.13,0.14,0.27,0.21,0.4c0.07,0.12,0.14,0.23,0.21,0.34
				c0.09,0.14,0.18,0.28,0.27,0.41c0.07,0.1,0.14,0.19,0.21,0.28c0.11,0.14,0.22,0.28,0.34,0.41c0.07,0.08,0.15,0.16,0.23,0.24
				c0.12,0.13,0.25,0.26,0.38,0.38c0.08,0.08,0.17,0.15,0.26,0.23c0.13,0.11,0.26,0.22,0.4,0.33c0.1,0.07,0.2,0.14,0.3,0.21
				c0.13,0.09,0.27,0.19,0.41,0.27c0.05,0.03,0.1,0.07,0.15,0.1l134.94,79.71c0.03,0.02,0.06,0.03,0.1,0.05
				c0.32,0.18,0.64,0.34,0.97,0.48c0.33,0.14,0.67,0.26,1.02,0.36c0.08,0.02,0.17,0.04,0.25,0.06c0.27,0.07,0.54,0.12,0.82,0.17
				c0.09,0.01,0.18,0.03,0.27,0.04c0.35,0.04,0.71,0.07,1.06,0.07c0.36,0,0.71-0.03,1.06-0.07c0.09-0.01,0.18-0.03,0.27-0.04
				c0.27-0.04,0.55-0.1,0.82-0.17c0.08-0.02,0.17-0.04,0.25-0.06c0.35-0.1,0.69-0.22,1.02-0.36c0.33-0.14,0.66-0.3,0.97-0.48
				c0.03-0.02,0.06-0.03,0.09-0.05l134.94-79.71c0.07-0.04,0.14-0.09,0.21-0.14c0.09-0.06,0.18-0.12,0.26-0.17
				c0.26-0.18,0.51-0.36,0.74-0.57c0.06-0.05,0.12-0.09,0.17-0.14c0.27-0.24,0.53-0.51,0.77-0.79c0.07-0.08,0.14-0.17,0.21-0.25
				c0.2-0.25,0.38-0.5,0.56-0.77c0.04-0.06,0.09-0.12,0.12-0.19c0.2-0.33,0.38-0.68,0.54-1.04c0.02-0.04,0.04-0.07,0.05-0.11
				c0.03-0.08,0.06-0.17,0.09-0.25c0.05-0.14,0.11-0.28,0.15-0.42c0.05-0.15,0.09-0.3,0.13-0.46c0.02-0.08,0.05-0.15,0.07-0.23
				c0.01-0.05,0.02-0.1,0.03-0.15c0.04-0.17,0.07-0.34,0.1-0.52c0.02-0.11,0.04-0.23,0.05-0.34c0.02-0.18,0.04-0.36,0.05-0.54
				c0.01-0.11,0.01-0.22,0.02-0.33c0-0.18,0-0.36-0.01-0.54c-0.01-0.11-0.01-0.22-0.02-0.33c-0.01-0.17-0.04-0.34-0.06-0.52
				c-0.02-0.12-0.03-0.23-0.05-0.35c-0.03-0.16-0.07-0.32-0.1-0.48c-0.03-0.12-0.06-0.25-0.09-0.37c-0.04-0.15-0.09-0.3-0.14-0.44
				c-0.04-0.13-0.08-0.26-0.13-0.38c-0.06-0.14-0.12-0.28-0.19-0.42c-0.05-0.12-0.11-0.25-0.17-0.36c-0.08-0.15-0.16-0.29-0.25-0.44
				c-0.05-0.09-0.1-0.18-0.15-0.27l-6.46-10.2l109.19,46.03c0.04,0.02,0.09,0.03,0.13,0.05c0.11,0.04,0.22,0.08,0.33,0.12
				c0.22,0.08,0.44,0.15,0.66,0.21c0.1,0.03,0.2,0.05,0.31,0.08c0.25,0.06,0.51,0.11,0.77,0.14c0.07,0.01,0.15,0.02,0.22,0.03
				c0.34,0.04,0.68,0.07,1.01,0.07c0.08,0,0.15-0.01,0.23-0.02c0.16,0,0.31-0.02,0.47-0.03
				C746.29,439.68,742.74,449.8,738.54,459.72"/>
			<path class="st4" d="M510.6,428.75l0.09-0.04c-0.1,0.04-0.2,0.08-0.3,0.11C510.46,428.79,510.53,428.78,510.6,428.75"/>
			<polygon class="st4" points="102.16,673.4 161.99,673.4 161.99,696.71 129.31,696.71 129.31,742.36 155.98,742.36 155.98,764.95 
				129.31,764.95 129.31,812.28 161.99,812.28 161.99,835.59 102.16,835.59 			"/>
			<polygon class="st4" points="227.59,696.71 227.59,835.59 200.68,835.59 200.68,696.71 180.26,696.71 180.26,673.4 248.02,673.4 
				248.02,696.71 			"/>
			<polygon class="st4" points="266.04,835.59 266.04,673.4 292.71,673.4 292.71,744.76 314.82,744.76 314.82,673.4 341.49,673.4 
				341.49,835.59 314.82,835.59 314.82,767.11 292.71,767.11 292.71,835.59 			"/>
			<path class="st4" d="M412.62,700.55c0-2.16-1.44-3.84-3.84-3.84h-16.58v115.57h16.58c2.4,0,3.84-1.68,3.84-3.84V700.55z
				 M417.42,673.4c13.46,0,22.35,8.89,22.35,22.35v117.5c0,13.46-8.89,22.35-22.35,22.35h-52.38V673.4H417.42z"/>
			<polygon class="st4" points="466.69,673.4 526.52,673.4 526.52,696.71 493.84,696.71 493.84,742.36 520.51,742.36 520.51,764.95 
				493.84,764.95 493.84,812.28 526.52,812.28 526.52,835.59 466.69,835.59 			"/>
			<polygon class="st4" points="570.73,744.28 570.73,835.59 547.91,835.59 547.91,673.4 570.49,673.4 601.25,770.95 601.25,673.4 
				624.07,673.4 624.07,835.59 601.73,835.59 			"/>
			<polygon class="st4" points="669.73,835.59 643.54,673.4 670.93,673.4 683.67,786.09 696.64,673.4 722.83,673.4 696.88,835.59 
							"/>
			<polygon class="st4" points="742.3,673.4 802.13,673.4 802.13,696.71 769.46,696.71 769.46,742.36 796.13,742.36 796.13,764.95 
				769.46,764.95 769.46,812.28 802.13,812.28 802.13,835.59 742.3,835.59 			"/>
			<path class="st4" d="M871.1,699.11c0-1.2-0.96-2.4-1.68-2.4h-18.74v62.47h18.74c0.72,0,1.68-1.2,1.68-2.16V699.11z M859.8,781.53
				h-9.13v54.06h-27.15V673.4h54.54c12.01,0,19.46,7.93,19.46,19.94v68.24c0,9.37-4.56,16.1-12.01,18.74l12.25,55.27H871.1
				L859.8,781.53z"/>
		</g>
	</g>
</g>
<g>
	<g>
		<polygon points="98.33,715.19 158.74,715.19 158.74,738.61 125.75,738.61 125.75,784.47 152.67,784.47 152.67,807.15 
			125.75,807.15 125.75,854.71 158.74,854.71 158.74,878.12 98.33,878.12 		"/>
		<polygon points="224.98,738.61 224.98,878.12 197.81,878.12 197.81,738.61 177.18,738.61 177.18,715.19 245.6,715.19 
			245.6,738.61 		"/>
		<polygon points="263.8,878.12 263.8,715.19 290.73,715.19 290.73,786.88 313.05,786.88 313.05,715.19 339.98,715.19 
			339.98,878.12 313.05,878.12 313.05,809.33 290.73,809.33 290.73,878.12 		"/>
		<g>
			<path d="M411.8,742.47c0-2.17-1.46-3.86-3.88-3.86h-16.74v116.1h16.74c2.43,0,3.88-1.69,3.88-3.86V742.47z M416.65,715.19
				c13.59,0,22.57,8.93,22.57,22.45v118.03c0,13.52-8.98,22.45-22.57,22.45h-52.89V715.19H416.65z"/>
			<polygon points="466.4,715.19 526.81,715.19 526.81,738.61 493.82,738.61 493.82,784.47 520.75,784.47 520.75,807.15 
				493.82,807.15 493.82,854.71 526.81,854.71 526.81,878.12 466.4,878.12 			"/>
			<polygon points="571.46,786.4 571.46,878.12 548.41,878.12 548.41,715.19 571.21,715.19 602.27,813.19 602.27,715.19 
				625.32,715.19 625.32,878.12 602.75,878.12 			"/>
			<polygon points="671.42,878.12 644.97,715.19 672.63,715.19 685.49,828.4 698.59,715.19 725.04,715.19 698.84,878.12 			"/>
			<polygon points="744.7,715.19 805.11,715.19 805.11,738.61 772.11,738.61 772.11,784.47 799.04,784.47 799.04,807.15 
				772.11,807.15 772.11,854.71 805.11,854.71 805.11,878.12 744.7,878.12 			"/>
			<path d="M874.74,741.02c0-1.2-0.97-2.41-1.7-2.41h-18.92v62.76h18.92c0.73,0,1.7-1.21,1.7-2.17V741.02z M863.34,823.81h-9.22
				v54.31H826.7V715.19h55.08c12.13,0,19.65,7.97,19.65,20.03v68.55c0,9.42-4.61,16.17-12.13,18.83l12.37,55.52h-26.93
				L863.34,823.81z"/>
		</g>
	</g>
</g>
</svg>
