<?xml version="1.0" encoding="utf-8"?>
<!-- Generator: Adobe Illustrator 18.1.1, SVG Export Plug-In . SVG Version: 6.00 Build 0)  -->
<svg version="1.1" baseProfile="basic" xmlns="http://www.w3.org/2000/svg" xmlns:xlink="http://www.w3.org/1999/xlink" x="0px"
	 y="0px" width="168.9px" height="153.2px" viewBox="0 0 168.9 153.2" xml:space="preserve">
<g id="Layer_1">
</g>
<g id="facets">
</g>
<g id="Layer_3">
</g>
<g id="Isolation_Mode">
	<g>
		<g>
			<path d="M31.2,106.3l2.4-16.1h5.1l-4.6,25.6H29l-3-15.1l-3,15.1h-5.2l-4.6-25.6h5.2l2.4,16.1l3-16.1h4.3L31.2,106.3z"/>
			<path d="M47.4,101.7l3.8-11.5h5.6L50,106.5v9.3h-5.2v-9.3l-6.9-16.3h5.6L47.4,101.7z"/>
			<path d="M73.5,105.3c0,3.4-0.8,6.1-2.4,8s-3.9,2.8-6.8,2.8c-2.9,0-5.1-0.9-6.8-2.8s-2.5-4.5-2.5-7.9v-4.4c0-3.5,0.8-6.3,2.4-8.2
				s3.9-3,6.8-3c2.8,0,5.1,1,6.7,2.9s2.5,4.7,2.5,8.2V105.3z M68.3,101c0-2.3-0.3-4-1-5.2s-1.7-1.7-3.1-1.7c-1.4,0-2.4,0.5-3,1.6
				s-1,2.7-1,4.9v4.6c0,2.2,0.3,3.9,1,4.9s1.7,1.6,3.1,1.6c1.3,0,2.3-0.5,3-1.6s1-2.6,1-4.8V101z"/>
		</g>
		<g>
			<path d="M48.3,119.5v25.4h-1.5v-13.1h-7.3v13.1h-1.5v-25.4h1.5v11.3h7.3v-11.3H48.3z"/>
			<path d="M60.2,136.5h-5.7l-1.5,8.4h-1.4l4.7-25.4h0.8h0.5h0.8l4.7,25.4h-1.4L60.2,136.5z M60,135.5l-2.6-14.6l-2.7,14.6H60z"/>
			<path d="M74.6,127.5v-4.7c0-1.1-0.7-2.3-1.8-2.3h-3.3c-1.1,0-1.8,1.2-1.8,2.3v18.9c0,1.1,0.7,2.2,1.8,2.2h3.3
				c1.1,0,1.8-1.1,1.8-2.2v-5.4H76v5.4c0,1.8-1.4,3.4-3.1,3.4h-3.4c-1.8,0-3.3-1.6-3.3-3.4v-18.9c0-1.8,1.5-3.4,3.3-3.4h3.3
				c1.8,0,3.3,1.6,3.3,3.4v4.7H74.6z"/>
			<path d="M83.1,131.4l-2,3.9v9.6h-1.4v-25.4H81v12.9l6.6-12.9h1.5l-5.3,10.3l5.7,15.1H88L83.1,131.4z"/>
			<path d="M100.6,136.5h-5.7l-1.5,8.4H92l4.7-25.4h0.8h0.5h0.8l4.7,25.4h-1.4L100.6,136.5z M100.4,135.5l-2.6-14.6l-2.7,14.6H100.4
				z"/>
			<path d="M114.6,120.6h-4.7v24.3h-1.4v-24.3h-4.8v-1.1h4.8h1.4h4.7V120.6z"/>
			<path d="M127.7,119.5v25.4h-1.5v-13.1h-7.3v13.1h-1.5v-25.4h1.5v11.3h7.3v-11.3H127.7z"/>
			<path d="M141.6,122.8v18.9c0,1.8-1.5,3.4-3.3,3.4h-3.6c-1.8,0-3.3-1.6-3.3-3.4v-18.9c0-1.8,1.5-3.4,3.3-3.4h3.6
				C140.2,119.4,141.6,121,141.6,122.8z M140.2,141.7v-18.9c0-1.1-0.8-2.3-1.8-2.3h-3.6c-1.1,0-1.8,1.2-1.8,2.3v18.9
				c0,1.1,0.7,2.3,1.8,2.3h3.6C139.4,144,140.2,142.7,140.2,141.7z"/>
			<path d="M155.6,119.5v25.4h-1.2h-0.2h-1.5l-5.8-24.1v24.1h-1.5v-25.4h1.2h0.3h1.1l6.2,24.5v-24.5H155.6z"/>
		</g>
		<g>
			<g id="facets_4_">
				<path d="M120,97.6l4.2,2.4l-7.1,1.9l-3,3l-3.7,0.2l-7.8,4.1l-2.5-2.4l0.2-1.2l2.5-0.9l0.5-1.1l-0.9-0.3l-2.8,1.2l0.3-1.8
					l3.4-2.4V84l-3.6,2.1L98.1,93l0,0L98,102l0.7,6.2l-0.3,0.5l1.7,7.3l-4.5-3.2l-0.8-4.5l0.9-2.3V106l-0.4-5.4l-0.2-3.3v-0.1l0,0
					l-3.7-11.7l1.7-1.9l0.2-0.2L93,82.7l-2.3-3.1l-1.2-1.6l-0.9,0.6l-1,4.1l-1.8-2.9l-0.3-3l-1.3,0.2l-1.4-2.4l0.9-1.4l1.9-0.6
					l-0.7-2.4l-2.3-0.9l-4.8,7.3L81,79l1,5.5L81.6,87l-3.8-3.7l0.9-1.9l-1.5-0.4L76,79.6l-0.4,2.5l5.6,7.8c0,0,0.6,2.6,0.6,2.7
					c0,0.1-1,5.7-1,5.7l-0.3-0.6l-1.7-3l-1.7-1.7l1.2-1.3h0.1v-0.1l-0.1-0.1l-1.8-1.8v-0.1l-0.4-2l-6.7-7.3l1.6-3.2l-4-2.6l-4-1.5
					h-0.1l0,0l1.5-3.4l3.7-3.5l1.4-0.6l0.4-1.3l-2.9-6.2l2.5-5.8l4.8-5.3l0,0l-0.1-2.8l-1.7-4l-1,0.5L70.9,45l-1.6,1.8l-1.5,7.8
					l-1.3,0.6l-3,4l1-4.5l-1,0.7l1.2-7.1l-0.9,0.1l3.3-9l-0.1-1.7l2.7-3.3l1.3-3.4l6.1,1.2l3,4.2L78.3,45l0.8,1.2l0,0l8.3,0.6
					l2.2,2.8l1.3-0.1l2.2,1.2l0.1-3l1.1-1l-1.6-4.5l0.9-3.2l-0.1-5.7l-3.2-3.1l-1.4-6.3l6.9-5.7l0.1-0.9l-2.2-2.4l-1.2-3.8l4.1-1.3
					l2.4,0.5l3-2.2l1.2,1l1.7-0.1l0.6,4.5l4,3.7l0.1,1.8l-5,2.2l-4.3-2.4V20l-3.9,1.4l-2.7,2.7l3.8,5.8l0.1,0.4l0.3-0.1l0.3-0.2
					h-0.6l1.9-2.5c0,0,1.4,0.8,1.6,0.8l0,0c0-0.1-0.6-1.8-0.6-1.8l1.7,0.6l1.2,2.4l0.7-0.2l-0.4-2.7l1.2-0.7l0.4-1.2l1.4,0.1
					l3.7-0.4l2.2,1.4l-0.2,0.6l1.5,1.1v0.8l1.1,1.3l-0.4,1.5l-2.1,2.3l-0.8-0.7l-1.4,0.8l-1,1.7l-0.9-1.2l-2.4,1.3l-0.7-1.6l0.1,2.6
					l1.3,2.8l0.3,8l0.3,8.1l-0.4,1.2l2.6-0.9l1.3,2.2l0.1,2.4l-2.2-1.7l-0.4,2.1l-2.2,0.4l0,0l0.4,1.6l0,0l1.9,1.7l0,0l2.3,4.8l0,0
					l0.3-6.2l1.8,6l-0.1,1.5l1.7,0.9l0.8,2.5l-2.4-1.8l4.1,4l-3.5-1.5l6.5,7.5l-3.7-1.4l7.2,5.7l0.1,0.1l1.2,1.5l-3.5-1l-1.4,0.9
					l5.6,5.8l-5.4-2.2l3.5,5.2l0.1,0.1l0.4,2l-1.7-1.7l-1.9-0.3L120,97.6z M105.1,86.8l-0.7,12.2l3.9-4L105.1,86.8z"/>
			</g>
			<g>
				<polygon fill="#FFFFFF" points="82.1,84.5 78.8,81.4 81.1,79 				"/>
				<polygon fill="#FFFFFF" points="81.1,79 76.1,79.6 64.8,69.8 77.7,76.6 				"/>
			</g>
		</g>
	</g>
	<g>
		<path d="M19.4,130.5v-1.6l1.2-1.5c1.5-1.9,2.8-3.5,2.8-5.2c0-1-0.5-1.6-1.5-1.6c-0.7,0-1.3,0.3-1.7,0.6l-0.4-1.8
			c0.5-0.4,1.5-0.7,2.6-0.7c2.6,0,3.4,1.7,3.4,3.4c0,2.2-1.4,4-2.7,5.5l-0.7,0.8v0h3.6v2.1H19.4z"/>
		<path d="M34.2,124.6c0,4.2-1.5,6-3.4,6c-2.6,0-3.4-2.9-3.4-5.9c0-3.4,1.1-6,3.5-6C33.6,118.7,34.2,121.8,34.2,124.6z M29.8,124.7
			c0,2.7,0.3,4,1.1,4c0.7,0,1-1.3,1-4c0-2.5-0.2-4-1-4C30.1,120.7,29.8,121.9,29.8,124.7z"/>
		<path d="M19.4,144.9v-1.6l1.2-1.5c1.5-1.9,2.8-3.5,2.8-5.2c0-1-0.5-1.6-1.5-1.6c-0.7,0-1.3,0.3-1.7,0.6l-0.4-1.8
			c0.5-0.4,1.5-0.7,2.6-0.7c2.6,0,3.4,1.7,3.4,3.4c0,2.2-1.4,4-2.7,5.5l-0.7,0.8v0h3.6v2.1H19.4z"/>
		<path d="M34.2,139c0,4.2-1.5,6-3.4,6c-2.6,0-3.4-2.9-3.4-5.9c0-3.4,1.1-6,3.5-6C33.6,133.1,34.2,136.2,34.2,139z M29.8,139.1
			c0,2.7,0.3,4,1.1,4c0.7,0,1-1.3,1-4c0-2.5-0.2-4-1-4C30.1,135.1,29.8,136.3,29.8,139.1z"/>
	</g>
</g>
<g id="Layer_4">
</g>
<g id="logo">
</g>
</svg>
