<?xml version="1.0" encoding="utf-8"?>
<!-- Generator: Adobe Illustrator 18.1.1, SVG Export Plug-In . SVG Version: 6.00 Build 0)  -->
<svg version="1.1" baseProfile="basic" xmlns="http://www.w3.org/2000/svg" xmlns:xlink="http://www.w3.org/1999/xlink" x="0px"
	 y="0px" width="221.9px" height="201.3px" viewBox="0 0 221.9 201.3" xml:space="preserve">
<g id="Layer_1">
</g>
<g id="facets">
	<g>
		<g>
			<path d="M38.1,146.8l2.4-16.1h5.1l-4.6,25.6h-5.2l-3-15.1l-3,15.1h-5.2l-4.6-25.6h5.2l2.4,16.1l3-16.1h4.3L38.1,146.8z"/>
			<path d="M54.3,142.2l3.8-11.5h5.6L56.9,147v9.3h-5.2V147l-6.9-16.3h5.6L54.3,142.2z"/>
			<path d="M80.4,145.8c0,3.4-0.8,6.1-2.4,8s-3.9,2.8-6.8,2.8c-2.9,0-5.1-0.9-6.8-2.8s-2.5-4.5-2.5-7.9v-4.4c0-3.5,0.8-6.3,2.4-8.2
				s3.9-3,6.8-3c2.8,0,5.1,1,6.7,2.9s2.5,4.7,2.5,8.2V145.8z M75.2,141.5c0-2.3-0.3-4-1-5.2s-1.7-1.7-3.1-1.7c-1.4,0-2.4,0.5-3,1.6
				s-1,2.7-1,4.9v4.6c0,2.2,0.3,3.9,1,4.9s1.7,1.6,3.1,1.6c1.3,0,2.3-0.5,3-1.6s1-2.6,1-4.8V141.5z"/>
			<path d="M94,130.9v25.4h-1.5v-13.1h-7.3v13.1h-1.5v-25.4h1.5v11.3h7.3v-11.3H94z"/>
			<path d="M105.8,147.9h-5.7l-1.5,8.4h-1.4l4.7-25.4h0.8h0.5h0.8l4.7,25.4h-1.4L105.8,147.9z M105.6,146.8l-2.6-14.6l-2.7,14.6
				H105.6z"/>
			<path d="M120.2,138.9v-4.7c0-1.1-0.7-2.3-1.8-2.3h-3.3c-1.1,0-1.8,1.2-1.8,2.3V153c0,1.1,0.7,2.2,1.8,2.2h3.3
				c1.1,0,1.8-1.1,1.8-2.2v-5.4h1.5v5.4c0,1.8-1.4,3.4-3.1,3.4h-3.4c-1.8,0-3.3-1.6-3.3-3.4v-18.9c0-1.8,1.5-3.4,3.3-3.4h3.3
				c1.8,0,3.3,1.6,3.3,3.4v4.7H120.2z"/>
			<path d="M128.7,142.7l-2,3.9v9.6h-1.4v-25.4h1.4v12.9l6.6-12.9h1.5l-5.3,10.3l5.7,15.1h-1.5L128.7,142.7z"/>
			<path d="M146.2,147.9h-5.7l-1.5,8.4h-1.4l4.7-25.4h0.8h0.5h0.8l4.7,25.4h-1.4L146.2,147.9z M146.1,146.8l-2.6-14.6l-2.7,14.6
				H146.1z"/>
			<path d="M160.2,132h-4.7v24.3H154V132h-4.8v-1.1h4.8h1.4h4.7V132z"/>
			<path d="M173.3,130.9v25.4h-1.5v-13.1h-7.3v13.1h-1.5v-25.4h1.5v11.3h7.3v-11.3H173.3z"/>
			<path d="M187.3,134.2V153c0,1.8-1.5,3.4-3.3,3.4h-3.6c-1.8,0-3.3-1.6-3.3-3.4v-18.9c0-1.8,1.5-3.4,3.3-3.4h3.6
				C185.8,130.8,187.3,132.4,187.3,134.2z M185.8,153v-18.9c0-1.1-0.8-2.3-1.8-2.3h-3.6c-1.1,0-1.8,1.2-1.8,2.3V153
				c0,1.1,0.7,2.3,1.8,2.3h3.6C185.1,155.3,185.8,154.1,185.8,153z"/>
			<path d="M201.3,130.9v25.4H200h-0.2h-1.5l-5.8-24.1v24.1h-1.5v-25.4h1.2h0.3h1.1l6.2,24.5v-24.5H201.3z"/>
		</g>
		<g>
			<polygon fill="none" stroke="#FFFFFF" stroke-width="0.25" stroke-miterlimit="10" points="85.9,101.7 85.7,101.6 85.8,101.6 
				85.9,101.6 			"/>
			<polygon fill="none" stroke="#FFFFFF" stroke-width="0.25" stroke-miterlimit="10" points="104.8,40.1 104.8,40.1 104.8,40.1 			
				"/>
			<path fill="none" stroke="#FFFFFF" stroke-width="0.25" stroke-miterlimit="10" d="M108.4,38.4L108.4,38.4
				C108.4,38.4,108.4,38.4,108.4,38.4z"/>
			<polygon fill="#939598" stroke="#FFFFFF" stroke-width="0.25" stroke-miterlimit="10" points="112.2,19 110.5,19.1 111,23.7 
				111.1,24.1 112.7,23.5 			"/>
			<polygon fill="#A7A9AC" stroke="#FFFFFF" stroke-width="0.25" stroke-miterlimit="10" points="105.1,25.5 103.9,24.5 101,24.8 
				103.2,27.2 104.9,26.5 105.9,26.1 			"/>
			<polygon fill="#D1D3D4" stroke="#FFFFFF" stroke-width="0.25" stroke-miterlimit="10" points="108,24 106.8,23.6 106.6,21.5 
				110.5,19.1 111,23.7 			"/>
			<polygon fill="#808285" stroke="#FFFFFF" stroke-width="0.25" stroke-miterlimit="10" points="109.3,18.1 106.4,20.2 106,21.8 
				106.6,21.5 110.5,19.1 			"/>
			<polygon fill="#939598" stroke="#FFFFFF" stroke-width="0.25" stroke-miterlimit="10" points="99.8,21 101,24.8 102.9,23.7 
				104.5,22.7 			"/>
			<polygon fill="#A7A9AC" stroke="#FFFFFF" stroke-width="0.25" stroke-miterlimit="10" points="107.4,27.4 105.9,26.1 107.1,25.6 
							"/>
			<polygon fill="#58595B" stroke="#FFFFFF" stroke-width="0.25" stroke-miterlimit="10" points="111.1,24.1 112.7,23.5 116.7,27.2 
				111.2,25.2 			"/>
			<polygon fill="#C8C8C8" stroke="#FFFFFF" stroke-width="0.25" stroke-miterlimit="10" points="108,24 109.7,24.6 107.1,25.6 
				106.9,24.1 			"/>
			<polygon fill="#E6E7E8" stroke="#FFFFFF" stroke-width="0.25" stroke-miterlimit="10" points="111.1,24.1 111,23.7 108,24 
				109.7,24.6 111.2,25.2 			"/>
			<path fill="#A7A9AC" stroke="#FFFFFF" stroke-width="0.25" stroke-miterlimit="10" d="M107.7,36.5l1.6,0.6l1.1,2.4l1.8,4
				l-3.9-5.2C108.4,38.2,107.7,36.5,107.7,36.5z"/>
			<polygon fill="#E6E7E8" stroke="#FFFFFF" stroke-width="0.25" stroke-miterlimit="10" points="114.9,41.9 115.1,42.8 112.3,43.5 
				110.5,39.5 			"/>
			<polygon fill="#BCBEC0" stroke="#FFFFFF" stroke-width="0.25" stroke-miterlimit="10" points="104.6,27.7 103.2,27.2 104.9,26.5 
							"/>
			<polygon fill="#E6E7E8" stroke="#FFFFFF" stroke-width="0.25" stroke-miterlimit="10" points="106,21.8 106.6,21.5 106.8,23.6 
				105.7,23.2 			"/>
			<polygon fill="#A7A9AC" stroke="#FFFFFF" stroke-width="0.25" stroke-miterlimit="10" points="106.8,23.6 105.7,23.2 105.4,24.3 
				106.9,24.1 108,24 			"/>
			<polygon fill="#A7A9AC" stroke="#FFFFFF" stroke-width="0.25" stroke-miterlimit="10" points="103.9,19.7 99.8,21 104.5,22.7 
				105.7,23.2 106,21.8 106.4,20.2 			"/>
			<polygon fill="#6D6E71" stroke="#FFFFFF" stroke-width="0.25" stroke-miterlimit="10" points="102.9,23.7 104.5,22.7 105.7,23.2 
				105.4,24.3 103.9,24.5 101,24.8 			"/>
			<polygon fill="#58595B" stroke="#FFFFFF" stroke-width="0.25" stroke-miterlimit="10" points="105.4,24.3 106.9,24.1 107.1,25.6 
				105.9,26.1 105.1,25.5 103.9,24.5 			"/>
			<polygon fill="none" stroke="#FFFFFF" stroke-width="0.25" stroke-miterlimit="10" points="105,40.1 105.5,40.1 105.2,40.2 
				104.9,40.1 			"/>
			<polygon fill="#414042" stroke="#FFFFFF" stroke-width="0.25" stroke-miterlimit="10" points="100.4,60.6 98.8,66.3 98,69.2 
				94,83 93,83.4 93,82.6 92.3,80.2 97.7,67.1 98.5,65.2 			"/>
			<polygon fill="#C8C8C8" stroke="#FFFFFF" stroke-width="0.25" stroke-miterlimit="10" points="106,43.3 107.2,43.4 111.9,47.4 
				110.9,57.5 			"/>
			<polygon stroke="#FFFFFF" stroke-width="0.25" stroke-miterlimit="10" points="100.4,60.6 98.5,65.2 97.7,67.1 97,59.6 
				98.3,59.5 			"/>
			<polygon fill="#6D6E71" stroke="#FFFFFF" stroke-width="0.25" stroke-miterlimit="10" points="103.1,28.1 101,34.2 96.2,33.8 			
				"/>
			<polygon fill="#939598" stroke="#FFFFFF" stroke-width="0.25" stroke-miterlimit="10" points="103.7,31.6 101,34.2 103.1,28.1 
							"/>
			<polygon fill="#BCBEC0" stroke="#FFFFFF" stroke-width="0.25" stroke-miterlimit="10" points="103.2,27.2 104.6,27.7 103.7,31.6 
				103.1,28.1 			"/>
			<polygon fill="#808285" stroke="#FFFFFF" stroke-width="0.25" stroke-miterlimit="10" points="107.4,27.4 105.9,26.1 104.9,26.5 
				104.6,27.7 107.6,28.8 111.9,31.2 			"/>
			<polygon fill="#C8C8C8" stroke="#FFFFFF" stroke-width="0.25" stroke-miterlimit="10" points="107.1,25.6 109.7,24.6 111.2,25.2 
				111.9,31.2 107.4,27.4 			"/>
			<polygon fill="#939598" stroke="#FFFFFF" stroke-width="0.25" stroke-miterlimit="10" points="100.1,52.1 100.9,48.9 101.7,56.7 
							"/>
			<polygon fill="#58595B" stroke="#FFFFFF" stroke-width="0.25" stroke-miterlimit="10" points="102,78.1 102.2,79.5 99.2,80.7 
				98,69.2 98.8,66.3 			"/>
			<polygon fill="#414042" stroke="#FFFFFF" stroke-width="0.25" stroke-miterlimit="10" points="116.7,27.2 116.8,29 111.9,31.2 
				111.2,25.2 			"/>
			<polygon fill="#E6E7E8" stroke="#FFFFFF" stroke-width="0.25" stroke-miterlimit="10" points="83.7,97.6 77,90.4 83.1,92.1 			
				"/>
			<polygon fill="#6D6E71" stroke="#FFFFFF" stroke-width="0.25" stroke-miterlimit="10" points="103,123 102.3,118.5 105.8,118.8 
							"/>
			<polygon stroke="#FFFFFF" stroke-width="0.25" stroke-miterlimit="10" points="107.5,126.1 103,123 105.8,118.8 			"/>
			<polygon fill="#939598" stroke="#FFFFFF" stroke-width="0.25" stroke-miterlimit="10" points="107.2,112.5 107,114.2 
				109.7,113.1 110.6,110.1 			"/>
			<polygon fill="#E6E7E8" stroke="#FFFFFF" stroke-width="0.25" stroke-miterlimit="10" points="84.7,91 83.5,89.5 88.5,89 			"/>
			<polygon fill="#6D6E71" stroke="#FFFFFF" stroke-width="0.25" stroke-miterlimit="10" points="126.7,91.6 123.1,90.3 120.3,84.1 
							"/>
			<polygon fill="#6D6E71" stroke="#FFFFFF" stroke-width="0.25" stroke-miterlimit="10" points="131.5,97.5 128,96.5 130.3,96.1 
							"/>
			<polygon fill="#C8C8C8" stroke="#FFFFFF" stroke-width="0.25" stroke-miterlimit="10" points="130.2,95.9 130.3,96.1 128,96.5 
				123.1,90.3 			"/>
			<polygon fill="#939598" stroke="#FFFFFF" stroke-width="0.25" stroke-miterlimit="10" points="128,96.5 126.6,97.4 123.1,90.3 
							"/>
			<polygon fill="#A7A9AC" stroke="#FFFFFF" stroke-width="0.25" stroke-miterlimit="10" points="132.2,103.2 126.9,101 126.6,97.4 
							"/>
			<polygon fill="#F1F2F2" stroke="#FFFFFF" stroke-width="0.25" stroke-miterlimit="10" points="86.2,91.4 84.7,91 88.5,89 			"/>
			<polygon fill="#6D6E71" stroke="#FFFFFF" stroke-width="0.25" stroke-miterlimit="10" points="130.4,106.3 130.8,108.3 
				129.2,106.7 127.3,106.4 130.4,106.2 			"/>
			<polygon fill="#939598" stroke="#FFFFFF" stroke-width="0.25" stroke-miterlimit="10" points="131.5,109.9 124.4,111.8 
				127.3,107.5 			"/>
			<polygon fill="none" stroke="#FFFFFF" stroke-width="0.25" stroke-miterlimit="10" points="85.9,101.7 85.9,101.7 85.9,101.6 			
				"/>
			<path fill="#E6E7E8" stroke="#FFFFFF" stroke-width="0.25" stroke-miterlimit="10" d="M89.3,102.6l-3.4-0.9l0,0l-0.1-0.1l2.8-1.7
				C88.7,99.9,89.3,102.5,89.3,102.6z"/>
			<polygon fill="#D1D3D4" stroke="#FFFFFF" stroke-width="0.25" stroke-miterlimit="10" points="85.8,101.6 84.1,99.8 84,99.7 
				88.7,99.9 			"/>
			<polygon stroke="#FFFFFF" stroke-width="0.25" stroke-miterlimit="10" points="88,107.7 86.3,104.6 84.7,102.9 85.9,101.7 
				85.9,101.7 			"/>
			<polygon fill="#F1F2F2" stroke="#FFFFFF" stroke-width="0.25" stroke-miterlimit="10" points="84,99.7 83.7,97.6 88.7,99.9 			
				"/>
			<path fill="#808285" stroke="#FFFFFF" stroke-width="0.25" stroke-miterlimit="10" d="M89.3,102.6c0,0.1-1,5.6-1,5.6l-0.3-0.6
				l-2-6L89.3,102.6z"/>
			<polygon fill="#FFFFFF" stroke="#FFFFFF" stroke-width="0.25" stroke-miterlimit="10" points="89.5,94.5 86.2,91.4 88.5,89 			
				"/>
			<polygon fill="#414042" stroke="#FFFFFF" stroke-width="0.25" stroke-miterlimit="10" points="89,96.9 85.3,93.3 89.5,94.5 			
				"/>
			<polygon fill="#A7A9AC" stroke="#FFFFFF" stroke-width="0.25" stroke-miterlimit="10" points="85.3,93.3 86.2,91.4 89.5,94.5 			
				"/>
			<polygon fill="#E6E7E8" stroke="#FFFFFF" stroke-width="0.25" stroke-miterlimit="10" points="77,90.4 78.6,87.2 83.5,89.5 			
				"/>
			<polygon fill="#E6E7E8" stroke="#FFFFFF" stroke-width="0.25" stroke-miterlimit="10" points="88.7,99.9 83.7,97.6 83.1,92.1 			
				"/>
			<polygon fill="#939598" stroke="#FFFFFF" stroke-width="0.25" stroke-miterlimit="10" points="109.8,68.9 100.4,60.6 100.5,57.6 
				101.7,56.7 109.8,68.9 			"/>
			<polygon fill="#F1F2F2" stroke="#FFFFFF" stroke-width="0.25" stroke-miterlimit="10" points="83.1,92.1 77,90.4 83.5,89.5 			
				"/>
			<polygon fill="#6D6E71" stroke="#FFFFFF" stroke-width="0.25" stroke-miterlimit="10" points="112.4,34.7 113.8,34.8 117.5,34.3 
				113.9,37.1 119.5,36.3 121,37.4 120.9,38.2 113.8,37.1 			"/>
			<polygon fill="#D1D3D4" stroke="#FFFFFF" stroke-width="0.25" stroke-miterlimit="10" points="117.5,34.3 119.7,35.8 119.5,36.3 
				113.9,37.1 			"/>
			<polygon fill="#58595B" stroke="#FFFFFF" stroke-width="0.25" stroke-miterlimit="10" points="113.2,37 112.4,34.7 112,35.9 
				110.8,36.6 113.3,37.3 			"/>
			<polygon fill="#414042" stroke="#FFFFFF" stroke-width="0.25" stroke-miterlimit="10" points="114,39.4 111.2,39.3 110.8,36.6 
				113.3,37.3 			"/>
			<polygon fill="#D1D3D4" stroke="#FFFFFF" stroke-width="0.25" stroke-miterlimit="10" points="115.5,40 121.6,41 116.8,42.3 			
				"/>
			<polygon fill="#BCBEC0" stroke="#FFFFFF" stroke-width="0.25" stroke-miterlimit="10" points="121.6,41 119.6,43.3 118.8,42.6 
				117.4,43.4 116.8,42.3 			"/>
			<polygon fill="#D1D3D4" stroke="#FFFFFF" stroke-width="0.25" stroke-miterlimit="10" points="116.8,42.3 117.4,43.4 115.9,42.6 
							"/>
			<polygon fill="#A7A9AC" stroke="#FFFFFF" stroke-width="0.25" stroke-miterlimit="10" points="114,37.5 122,39.5 115.1,39.4 			
				"/>
			<polygon fill="#D1D3D4" stroke="#FFFFFF" stroke-width="0.25" stroke-miterlimit="10" points="113.8,37.1 120.9,38.2 122,39.5 
				114,37.5 			"/>
			<polygon fill="#F1F2F2" stroke="#FFFFFF" stroke-width="0.25" stroke-miterlimit="10" points="115.1,39.4 122,39.5 121.6,41 
				115.5,40 			"/>
			<polygon fill="#D7D7D7" stroke="#FFFFFF" stroke-width="0.25" stroke-miterlimit="10" points="123.7,85.6 120.3,84.1 119.6,81.6 
							"/>
			<polygon fill="#58595B" stroke="#FFFFFF" stroke-width="0.25" stroke-miterlimit="10" points="115.8,68.1 115.4,70.2 113.9,66.1 
							"/>
			<polygon stroke="#FFFFFF" stroke-width="0.25" stroke-miterlimit="10" points="117.8,67.3 116.5,65.2 115.8,68.1 118,69.8 			"/>
			<polygon fill="#414042" stroke="#FFFFFF" stroke-width="0.25" stroke-miterlimit="10" points="116.5,65.2 115.8,68.1 113.9,66.1 
							"/>
			<polygon fill="#D7D7D7" stroke="#FFFFFF" stroke-width="0.25" stroke-miterlimit="10" points="117.9,72.4 119.8,78.4 117.6,78.6 
							"/>
			<polygon fill="#58595B" stroke="#FFFFFF" stroke-width="0.25" stroke-miterlimit="10" points="122.1,83.3 119.6,81.6 121.3,80.8 
							"/>
			<polygon fill="#F1F2F2" stroke="#FFFFFF" stroke-width="0.25" stroke-miterlimit="10" points="115.1,42.8 114.9,41.9 115.9,42.6 
							"/>
			<polygon fill="#BCBEC0" stroke="#FFFFFF" stroke-width="0.25" stroke-miterlimit="10" points="115.9,42.6 115.1,42.8 112.3,43.5 
				113,45.1 115.5,43.8 116.4,45 117.4,43.4 			"/>
			<polygon fill="#D1D3D4" stroke="#FFFFFF" stroke-width="0.25" stroke-miterlimit="10" points="111.2,39.3 114,39.4 114.1,39.8 
				114.9,41.9 110.5,39.5 			"/>
			<polygon fill="#E6E7E8" stroke="#FFFFFF" stroke-width="0.25" stroke-miterlimit="10" points="115.5,40 115.1,39.4 114,37.5 
				113.8,37.1 112.4,34.7 113.2,37 113.3,37.3 114,39.4 114.1,39.8 114.9,41.9 115.9,42.6 116.8,42.3 			"/>
			<polygon fill="#939598" stroke="#FFFFFF" stroke-width="0.25" stroke-miterlimit="10" points="115.4,70.2 113.2,70.6 113.9,66.1 
							"/>
			<polygon fill="#A7A9AC" stroke="#FFFFFF" stroke-width="0.25" stroke-miterlimit="10" points="107.6,28.8 107.6,30.1 103.7,31.6 
				104.6,27.7 			"/>
			<polygon fill="#6D6E71" stroke="#FFFFFF" stroke-width="0.25" stroke-miterlimit="10" points="92.9,86.8 91.6,87 90.3,84.6 
				91.5,84 			"/>
			<polygon fill="#808285" stroke="#FFFFFF" stroke-width="0.25" stroke-miterlimit="10" points="94,83 92.9,86.8 91.5,84 93,83.4 
							"/>
			<polygon fill="#A7A9AC" stroke="#FFFFFF" stroke-width="0.25" stroke-miterlimit="10" points="71.2,58.6 74.5,49.7 72.2,58.5 			
				"/>
			<polygon fill="#BCBEC0" stroke="#FFFFFF" stroke-width="0.25" stroke-miterlimit="10" points="105.8,118.8 102.3,118.5 
				103.1,115.9 104.7,107.2 			"/>
			<polygon fill="#6D6E71" stroke="#FFFFFF" stroke-width="0.25" stroke-miterlimit="10" points="92.3,80.2 90,79.3 85.1,86.6 
				94.8,56.8 			"/>
			<polygon fill="#A7A9AC" stroke="#FFFFFF" stroke-width="0.25" stroke-miterlimit="10" points="97,59.6 97.7,67.1 92.3,80.2 
				94.8,56.8 			"/>
			<polygon fill="#58595B" stroke="#FFFFFF" stroke-width="0.25" stroke-miterlimit="10" points="94.8,56.8 85.1,86.6 86.5,56.1 			
				"/>
			<polygon stroke="#FFFFFF" stroke-width="0.25" stroke-miterlimit="10" points="91.1,83.2 90.3,84.6 91.5,84 93,83.4 93,82.6 			
				"/>
			<polygon fill="#959595" stroke="#FFFFFF" stroke-width="0.25" stroke-miterlimit="10" points="110.6,110.1 110.6,94.1 
				114.7,95.9 			"/>
			<polygon fill="#D1D3D4" stroke="#FFFFFF" stroke-width="0.25" stroke-miterlimit="10" points="111.7,115.2 107.6,115.4 
				110.1,114.5 110.6,113.4 112.6,113.1 			"/>
			<path fill="#E6E7E8" stroke="#FFFFFF" stroke-width="0.25" stroke-miterlimit="10" d="M105.3,112.1l0.1-9.1c0,0-0.6-1.6-1.5-3.6
				l0.7,7.8l1.1,11.6l0.3-0.5L105.3,112.1z"/>
			<polygon fill="#808285" stroke="#FFFFFF" stroke-width="0.25" stroke-miterlimit="10" points="110.6,94.1 107,96.2 108.1,85.8 
							"/>
			<polygon fill="#58595B" stroke="#FFFFFF" stroke-width="0.25" stroke-miterlimit="10" points="114.7,95.9 110.6,94.1 115.6,92.6 
							"/>
			<polygon fill="#BCBEC0" stroke="#FFFFFF" stroke-width="0.25" stroke-miterlimit="10" points="109,76.5 111.2,75.6 110.6,94.1 
				108.1,85.8 			"/>
			<polygon fill="#939598" stroke="#FFFFFF" stroke-width="0.25" stroke-miterlimit="10" points="115.1,107.8 114.3,109.6 
				113.4,111.3 110.6,110.1 			"/>
			<polygon fill="#BCBEC0" stroke="#FFFFFF" stroke-width="0.25" stroke-miterlimit="10" points="82.5,49.2 87.4,46.7 83.9,51.6 			
				"/>
			<polygon fill="#858585" stroke="#FFFFFF" stroke-width="0.25" stroke-miterlimit="10" points="77.3,62.3 74.8,68.1 77.7,74.3 
				83.7,72.5 			"/>
			<polygon fill="#E6E7E8" stroke="#FFFFFF" stroke-width="0.25" stroke-miterlimit="10" points="87.4,46.7 85.7,55 83.9,51.6 			
				"/>
			<polygon fill="#D1D3D4" stroke="#FFFFFF" stroke-width="0.25" stroke-miterlimit="10" points="82,54.2 85.7,55 82.1,57.1 			"/>
			<polygon stroke="#FFFFFF" stroke-width="0.25" stroke-miterlimit="10" points="86.5,56.1 85.1,86.6 82.1,57.1 85.7,55 			"/>
			<path fill="#939598" stroke="#FFFFFF" stroke-width="0.25" stroke-miterlimit="10" d="M79.4,86C79.4,86,79.4,86,79.4,86
				C79.4,86,79.4,86,79.4,86c-0.7-0.2-8.8-2.9-8.8-2.9l1.5-3.4l11.3,9.8l-4.9-2.3C78.6,87.2,79.1,86.1,79.4,86z"/>
			<path fill="#58595B" stroke="#FFFFFF" stroke-width="0.25" stroke-miterlimit="10" d="M70.6,83.1c0,0,8,2.7,8.8,2.9
				c-0.2,0.1-0.8,1.2-0.8,1.2l-4-2.6L70.6,83.1z"/>
			<path fill="none" stroke="#FFFFFF" stroke-width="0.25" stroke-miterlimit="10" d="M79.4,86C79.4,86,79.4,86,79.4,86
				C79.4,86,79.4,86,79.4,86z"/>
			<polygon fill="#A7A9AC" stroke="#FFFFFF" stroke-width="0.25" stroke-miterlimit="10" points="75.9,76.2 77.3,75.6 77.7,74.3 
				85.1,86.6 72.1,79.7 			"/>
			<polygon fill="#414042" stroke="#FFFFFF" stroke-width="0.25" stroke-miterlimit="10" points="83.7,72.5 77.3,62.3 82.1,57.1 
				85.1,86.6 77.7,74.3 			"/>
			<polygon fill="#FFFFFF" stroke="#FFFFFF" stroke-width="0.25" stroke-miterlimit="10" points="88.5,89 83.5,89.5 72.1,79.7 
				85.1,86.6 			"/>
			<polygon fill="#939598" stroke="#FFFFFF" stroke-width="0.25" stroke-miterlimit="10" points="74,65.2 72.2,58.5 75.3,64.6 			
				"/>
			<polygon fill="#414042" stroke="#FFFFFF" stroke-width="0.25" stroke-miterlimit="10" points="72.2,58.5 74.5,49.7 75.3,64.6 			
				"/>
			<polygon stroke="#FFFFFF" stroke-width="0.25" stroke-miterlimit="10" points="75.3,64.6 74.5,49.7 76.8,56.8 			"/>
			<polygon fill="#E6E7E8" stroke="#FFFFFF" stroke-width="0.25" stroke-miterlimit="10" points="81.7,47.6 84.4,42.5 87.4,46.7 
				82.5,49.2 			"/>
			<polygon fill="#A7A9AC" stroke="#FFFFFF" stroke-width="0.25" stroke-miterlimit="10" points="74.5,49.7 74.3,47.9 77,44.6 
				76.8,56.8 			"/>
			<polygon fill="#3E3E3E" stroke="#FFFFFF" stroke-width="0.25" stroke-miterlimit="10" points="71,69.2 72,64.8 74,65.2 			"/>
			<polygon fill="#BCBEC0" stroke="#FFFFFF" stroke-width="0.25" stroke-miterlimit="10" points="72,64.8 72.2,58.5 74,65.2 			"/>
			<polygon fill="#6D6E71" stroke="#FFFFFF" stroke-width="0.25" stroke-miterlimit="10" points="78.3,41.3 79.4,50.9 80.4,50.3 
				81.7,47.6 84.4,42.5 			"/>
			<polygon fill="#939598" stroke="#FFFFFF" stroke-width="0.25" stroke-miterlimit="10" points="82.5,49.2 80.4,50.3 81.7,47.6 			
				"/>
			<polygon fill="#939598" stroke="#FFFFFF" stroke-width="0.25" stroke-miterlimit="10" points="71,65.5 72.2,58.5 72,64.8 			"/>
			<polygon fill="#A7A9AC" stroke="#FFFFFF" stroke-width="0.25" stroke-miterlimit="10" points="77,44.6 78.3,41.3 79.4,50.9 			
				"/>
			<polygon fill="#939598" stroke="#FFFFFF" stroke-width="0.25" stroke-miterlimit="10" points="78.4,55.1 76.8,56.8 77,44.6 
				79.4,50.9 			"/>
			<polygon fill="#58595B" stroke="#FFFFFF" stroke-width="0.25" stroke-miterlimit="10" points="83.9,51.6 82.5,49.2 80.4,50.3 
				82,54.2 85.7,55 			"/>
			<polygon fill="#58595B" stroke="#FFFFFF" stroke-width="0.25" stroke-miterlimit="10" points="113.5,72.2 113.2,70.6 113.9,66.1 
				111.7,63.1 110.5,61.6 109.8,68.9 111.4,70.3 			"/>
			<polygon stroke="#FFFFFF" stroke-width="0.25" stroke-miterlimit="10" points="113.4,111.3 110.6,110.1 109.7,113.1 110.6,113.4 
				112.6,113.1 116.6,112.7 			"/>
			<polygon fill="#A7A9AC" stroke="#FFFFFF" stroke-width="0.25" stroke-miterlimit="10" points="112.2,47.6 113.7,48.9 114,56.9 
				114.3,65 113.9,66.1 111.8,59.9 			"/>
			<polygon fill="#6D6E71" stroke="#FFFFFF" stroke-width="0.25" stroke-miterlimit="10" points="112.3,43.5 112.4,46.1 113.7,48.9 
				112.2,47.6 			"/>
			<polygon fill="#A7A9AC" stroke="#FFFFFF" stroke-width="0.25" stroke-miterlimit="10" points="117.5,112.6 116.6,112.7 
				113.4,111.3 114.3,109.6 117.3,109.1 			"/>
			<polygon fill="#D5D5D5" stroke="#FFFFFF" stroke-width="0.25" stroke-miterlimit="10" points="120.5,108.6 121,112.2 
				117.5,112.6 117.3,109.1 			"/>
			<polygon fill="#C8C8C8" stroke="#FFFFFF" stroke-width="0.25" stroke-miterlimit="10" points="107.2,43.4 112.3,43.5 111.9,47.4 
							"/>
			<path fill="#939598" stroke="#FFFFFF" stroke-width="0.25" stroke-miterlimit="10" d="M104.8,40.1l1.9-2.5c0,0,1.4,0.8,1.6,0.8
				l-3.4,1.7L104.8,40.1z"/>
			<polygon fill="#6D6E71" stroke="#FFFFFF" stroke-width="0.25" stroke-miterlimit="10" points="111.7,115.2 107.6,115.4 
				107.4,116.6 109.9,119.1 117.6,114.9 			"/>
			<path fill="#6D6E71" stroke="#FFFFFF" stroke-width="0.25" stroke-miterlimit="10" d="M105.5,40.1l-0.5,0l3.4-1.7c0,0,0,0,0,0
				l3.9,5.2l-7.1-3.3L105.5,40.1z"/>
			<polygon fill="none" stroke="#FFFFFF" stroke-width="0.25" stroke-miterlimit="10" points="104.9,40.1 104.8,40.1 104.8,40.1 
				105,40.1 			"/>
			<polygon fill="#D1D3D4" stroke="#FFFFFF" stroke-width="0.25" stroke-miterlimit="10" points="96.2,33.8 101,34.2 99.6,36.7 			
				"/>
			<polygon fill="#A7A9AC" stroke="#FFFFFF" stroke-width="0.25" stroke-miterlimit="10" points="115.1,107.8 117,103.5 
				117.2,106.7 117.3,109.1 114.3,109.6 			"/>
			<polygon fill="#6D6E71" stroke="#FFFFFF" stroke-width="0.25" stroke-miterlimit="10" points="104.8,40.1 104.8,40.1 103.4,40.1 
				97.6,40.1 100.8,43.2 104.3,40.8 105,40.4 			"/>
			<polygon fill="#A7A9AC" stroke="#FFFFFF" stroke-width="0.25" stroke-miterlimit="10" points="99.6,36.7 101,34.2 104.8,40.1 
				103.4,40.1 			"/>
			<polygon fill="#939598" stroke="#FFFFFF" stroke-width="0.25" stroke-miterlimit="10" points="97.6,40.1 96.2,33.8 99.6,36.7 			
				"/>
			<polygon fill="#A7A9AC" stroke="#FFFFFF" stroke-width="0.25" stroke-miterlimit="10" points="117.3,86.7 119.2,79.7 119.6,81.6 
				120.3,84.1 123.1,90.3 118,91.8 			"/>
			<polygon fill="#A7A9AC" stroke="#FFFFFF" stroke-width="0.25" stroke-miterlimit="10" points="130.4,106.2 126.9,101 
				126.7,101.7 125.3,107.8 127.3,107.5 127.3,106.4 			"/>
			<polygon fill="#A7A9AC" stroke="#FFFFFF" stroke-width="0.25" stroke-miterlimit="10" points="123.1,90.3 126.9,101 119.6,97.9 
							"/>
			<polygon fill="#D1D3D4" stroke="#FFFFFF" stroke-width="0.25" stroke-miterlimit="10" points="127.3,107.5 124.4,111.8 
				125.3,107.8 			"/>
			<polygon stroke="#FFFFFF" stroke-width="0.25" stroke-miterlimit="10" points="120,105.2 119.1,99 119.6,97.9 126.9,101 
				126.7,101.7 			"/>
			<polygon stroke="#FFFFFF" stroke-width="0.25" stroke-miterlimit="10" points="121.4,114.7 117.6,114.9 117.5,113.1 			"/>
			<polygon fill="#A7A9AC" stroke="#FFFFFF" stroke-width="0.25" stroke-miterlimit="10" points="112.6,113.1 116.6,112.7 
				117.5,113.1 117.6,114.9 111.7,115.2 			"/>
			<polygon fill="#6D6E71" stroke="#FFFFFF" stroke-width="0.25" stroke-miterlimit="10" points="120.5,108.6 125.3,107.8 
				124.4,111.8 121,112.2 			"/>
			<polygon stroke="#FFFFFF" stroke-width="0.25" stroke-miterlimit="10" points="124.4,111.8 121.4,114.7 121,112.2 			"/>
			<polygon fill="#414042" stroke="#FFFFFF" stroke-width="0.25" stroke-miterlimit="10" points="117.6,78.6 119.8,78.4 119.6,80 
				119.2,79.7 			"/>
			<polygon fill="#D1D3D4" stroke="#FFFFFF" stroke-width="0.25" stroke-miterlimit="10" points="116.6,96.7 116.6,96.7 116.4,92.3 
				116.3,90.2 115.6,92.6 114.7,95.9 114.7,95.9 110.6,110.1 115.1,107.8 117,103.5 			"/>
			<polygon fill="#808285" stroke="#FFFFFF" stroke-width="0.25" stroke-miterlimit="10" points="123.1,90.3 119.6,97.9 119.1,99 
				118.9,97.6 118,91.8 			"/>
			<polygon fill="#939598" stroke="#FFFFFF" stroke-width="0.25" stroke-miterlimit="10" points="120.5,108.6 117.3,109.1 
				117.2,106.7 117,103.5 116.6,96.7 116.4,92.3 116.3,90.2 115.4,73.8 117.6,78.6 119.2,79.7 117.3,86.7 118,91.8 118.9,97.6 
				119.1,99 120,105.2 			"/>
			<polygon fill="#D5D5D5" stroke="#FFFFFF" stroke-width="0.25" stroke-miterlimit="10" points="121.3,80.8 119.6,81.6 119.2,79.7 
							"/>
			<polygon fill="#58595B" stroke="#FFFFFF" stroke-width="0.25" stroke-miterlimit="10" points="126.6,97.4 126.9,101 123.1,90.3 
							"/>
			<polygon fill="#808285" stroke="#FFFFFF" stroke-width="0.25" stroke-miterlimit="10" points="104.4,53.4 100.8,43.2 100.9,48.9 
				101.7,56.7 109.8,68.9 			"/>
			<polygon fill="#D1D3D4" stroke="#FFFFFF" stroke-width="0.25" stroke-miterlimit="10" points="111.9,47.4 111.9,47.4 110.9,57.5 
				110.5,61.6 111.7,63.1 111.8,59.9 112.2,47.6 112.3,43.5 			"/>
			<polygon fill="none" stroke="#FFFFFF" stroke-width="0.25" stroke-miterlimit="10" points="109.8,68.9 109.8,68.9 109.8,68.9 			
				"/>
			<polygon fill="#A7A9AC" stroke="#FFFFFF" stroke-width="0.25" stroke-miterlimit="10" points="110.9,57.5 110.5,61.6 104.4,53.4 
				100.8,43.2 104.3,40.8 105,40.4 105.5,41.8 106,43.3 			"/>
			<polygon fill="none" stroke="#FFFFFF" stroke-width="0.25" stroke-miterlimit="10" points="104.9,40.1 104.9,40.1 104.9,40.1 
				105.2,40.2 105,40.4 104.8,40.1 			"/>
			<polygon fill="#E6E7E8" stroke="#FFFFFF" stroke-width="0.25" stroke-miterlimit="10" points="111.8,59.9 113.9,66.1 111.7,63.1 
							"/>
			<polygon fill="#808285" stroke="#FFFFFF" stroke-width="0.25" stroke-miterlimit="10" points="105.2,40.2 105,40.4 105.5,41.8 
				106,43.3 107.2,43.4 112.3,43.5 			"/>
			<polygon fill="#6D6E71" stroke="#FFFFFF" stroke-width="0.25" stroke-miterlimit="10" points="117.5,112.6 121,112.2 
				121.4,114.7 117.5,113.1 116.6,112.7 			"/>
			<polygon fill="#A7A9AC" stroke="#FFFFFF" stroke-width="0.25" stroke-miterlimit="10" points="115.4,73.8 116.3,90.2 115.6,92.6 
				110.6,94.1 111.2,75.6 			"/>
			<polygon fill="#D1D3D4" stroke="#FFFFFF" stroke-width="0.25" stroke-miterlimit="10" points="115.4,73.8 111.2,75.6 109,76.5 
				105.7,78 102.2,79.5 102,78.1 100.4,60.6 109.8,68.9 111.4,70.3 			"/>
			<polygon fill="#A7A9AC" stroke="#FFFFFF" stroke-width="0.25" stroke-miterlimit="10" points="98.8,66.3 100.4,60.6 102,78.1 			
				"/>
			<polygon fill="#A7A9AC" stroke="#FFFFFF" stroke-width="0.25" stroke-miterlimit="10" points="94,83 98,69.2 99.2,80.7 			"/>
			<polygon fill="#414042" stroke="#FFFFFF" stroke-width="0.25" stroke-miterlimit="10" points="126.7,101.7 125.3,107.8 
				120.5,108.6 120,105.2 			"/>
			<polygon fill="#D5D5D5" stroke="#FFFFFF" stroke-width="0.25" stroke-miterlimit="10" points="104.4,53.4 110.5,61.6 109.8,68.9 
							"/>
			<polygon fill="#BCBEC0" stroke="#FFFFFF" stroke-width="0.25" stroke-miterlimit="10" points="103.4,40.1 97.6,40.1 99.6,36.7 
							"/>
			<path fill="#808285" stroke="#FFFFFF" stroke-width="0.25" stroke-miterlimit="10" d="M104.7,107.2l-1.6,8.7l-0.4-5.4l-0.2-3.3
				l0-0.1l0,0l-3.7-11.6l1.7-1.9l0.3-0.3l-0.4-0.5l-2.3-3.1L97,88l2.7-2.6l2.8-2.7l0.1,1.5l1.4,15.2c0,0,0,0,0,0L104.7,107.2z"/>
			<path fill="#A7A9AC" stroke="#FFFFFF" stroke-width="0.25" stroke-miterlimit="10" d="M109,76.5l-0.9,9.3l-1,10.4l-1.6,6.8
				c0,0-0.6-1.6-1.5-3.6l-1.4-15.2l-0.1-1.5l0.7-0.7L109,76.5z"/>
			<polygon fill="#BCBEC0" stroke="#FFFFFF" stroke-width="0.25" stroke-miterlimit="10" points="109,76.5 103.2,82.1 102.5,82.8 
				99.7,85.5 97,88 96,88.6 95,92.7 93.2,89.9 92.9,86.8 94,83 99.2,80.7 102.2,79.5 102.4,79.4 105.7,78 			"/>
		</g>
	</g>
</g>
<g id="Layer_3">
</g>
<g id="Isolation_Mode">
	<g>
		<path d="M82.7,183.2V180l2.3-3c3-3.9,5.5-7.1,5.5-10.4c0-1.9-1-3.2-3-3.2c-1.5,0-2.7,0.6-3.5,1.2l-0.9-3.6
			c1.1-0.7,3.1-1.5,5.2-1.5c5.1,0,6.8,3.4,6.8,6.8c0,4.4-2.7,7.9-5.4,11.1l-1.4,1.7v0.1h7.2v4.1H82.7z"/>
		<path d="M111.2,171.4c0,8.4-3.1,12.1-6.8,12.1c-5.1,0-6.8-5.9-6.8-11.9c0-6.7,2.2-12.1,7-12.1
			C109.9,159.5,111.2,165.8,111.2,171.4z M102.2,171.5c-0.1,5.5,0.6,8,2.2,8c1.4,0,2-2.6,2-8c0-5-0.5-8-2-8
			C103,163.5,102.2,166,102.2,171.5z"/>
		<path d="M112.7,183.2V180l2.3-3c3-3.9,5.5-7.1,5.5-10.4c0-1.9-1-3.2-3-3.2c-1.5,0-2.7,0.6-3.5,1.2l-0.9-3.6
			c1.1-0.7,3.1-1.5,5.2-1.5c5.1,0,6.8,3.4,6.8,6.8c0,4.4-2.7,7.9-5.4,11.1l-1.4,1.7v0.1h7.2v4.1H112.7z"/>
		<path d="M141.2,171.4c0,8.4-3.1,12.1-6.8,12.1c-5.1,0-6.8-5.9-6.8-11.9c0-6.7,2.2-12.1,7-12.1
			C139.9,159.5,141.2,165.8,141.2,171.4z M132.2,171.5c-0.1,5.5,0.6,8,2.2,8c1.4,0,2-2.6,2-8c0-5-0.5-8-2-8
			C133,163.5,132.2,166,132.2,171.5z"/>
	</g>
</g>
<g id="Layer_4">
</g>
<g id="logo">
</g>
</svg>
