<?xml version="1.0" encoding="utf-8"?>
<!-- Generator: Adobe Illustrator 18.1.1, SVG Export Plug-In . SVG Version: 6.00 Build 0)  -->
<svg version="1.1" baseProfile="basic" xmlns="http://www.w3.org/2000/svg" xmlns:xlink="http://www.w3.org/1999/xlink" x="0px"
	 y="0px" width="221.9px" height="201.3px" viewBox="0 0 221.9 201.3" xml:space="preserve">
<g id="Layer_1">
</g>
<g id="facets">
</g>
<g id="Layer_3">
</g>
<g id="Isolation_Mode">
	<g>
		<path fill="#A3A510" d="M38.1,146.6l2.4-16.1h5.1l-4.6,25.6h-5.2l-3-15.1l-3,15.1h-5.2l-4.6-25.6h5.2l2.4,16.1l3-16.1h4.3
			L38.1,146.6z"/>
		<path fill="#A3A510" d="M54.3,142l3.8-11.5h5.6l-6.9,16.3v9.3h-5.2v-9.3l-6.9-16.3h5.6L54.3,142z"/>
		<path fill="#A3A510" d="M80.4,145.6c0,3.4-0.8,6.1-2.4,8s-3.9,2.8-6.8,2.8c-2.9,0-5.1-0.9-6.8-2.8s-2.5-4.5-2.5-7.9v-4.4
			c0-3.5,0.8-6.3,2.4-8.2s3.9-3,6.8-3c2.8,0,5.1,1,6.7,2.9s2.5,4.7,2.5,8.2V145.6z M75.2,141.3c0-2.3-0.3-4-1-5.2s-1.7-1.7-3.1-1.7
			c-1.4,0-2.4,0.5-3,1.6s-1,2.7-1,4.9v4.6c0,2.2,0.3,3.9,1,4.9s1.7,1.6,3.1,1.6c1.3,0,2.3-0.5,3-1.6s1-2.6,1-4.8V141.3z"/>
		<path fill="#A3A510" d="M94,130.7v25.4h-1.5V143h-7.3v13.1h-1.5v-25.4h1.5V142h7.3v-11.3H94z"/>
		<path fill="#A3A510" d="M105.8,147.7h-5.7l-1.5,8.4h-1.4l4.7-25.4h0.8h0.5h0.8l4.7,25.4h-1.4L105.8,147.7z M105.6,146.6l-2.6-14.6
			l-2.7,14.6H105.6z"/>
		<path fill="#A3A510" d="M120.2,138.7V134c0-1.1-0.7-2.3-1.8-2.3h-3.3c-1.1,0-1.8,1.2-1.8,2.3v18.9c0,1.1,0.7,2.2,1.8,2.2h3.3
			c1.1,0,1.8-1.1,1.8-2.2v-5.4h1.5v5.4c0,1.8-1.4,3.4-3.1,3.4h-3.4c-1.8,0-3.3-1.6-3.3-3.4V134c0-1.8,1.5-3.4,3.3-3.4h3.3
			c1.8,0,3.3,1.6,3.3,3.4v4.7H120.2z"/>
		<path fill="#A3A510" d="M128.7,142.5l-2,3.9v9.6h-1.4v-25.4h1.4v12.9l6.6-12.9h1.5l-5.3,10.3l5.7,15.1h-1.5L128.7,142.5z"/>
		<path fill="#A3A510" d="M146.2,147.7h-5.7l-1.5,8.4h-1.4l4.7-25.4h0.8h0.5h0.8l4.7,25.4h-1.4L146.2,147.7z M146.1,146.6l-2.6-14.6
			l-2.7,14.6H146.1z"/>
		<path fill="#A3A510" d="M160.2,131.8h-4.7v24.3H154v-24.3h-4.8v-1.1h4.8h1.4h4.7V131.8z"/>
		<path fill="#A3A510" d="M173.3,130.7v25.4h-1.5V143h-7.3v13.1h-1.5v-25.4h1.5V142h7.3v-11.3H173.3z"/>
		<path fill="#A3A510" d="M187.3,134v18.9c0,1.8-1.5,3.4-3.3,3.4h-3.6c-1.8,0-3.3-1.6-3.3-3.4V134c0-1.8,1.5-3.4,3.3-3.4h3.6
			C185.8,130.6,187.3,132.2,187.3,134z M185.8,152.8V134c0-1.1-0.8-2.3-1.8-2.3h-3.6c-1.1,0-1.8,1.2-1.8,2.3v18.9
			c0,1.1,0.7,2.3,1.8,2.3h3.6C185.1,155.1,185.8,153.9,185.8,152.8z"/>
		<path fill="#A3A510" d="M201.3,130.7v25.4H200h-0.2h-1.5l-5.8-24.1v24.1h-1.5v-25.4h1.2h0.3h1.1l6.2,24.5v-24.5H201.3z"/>
	</g>
	<g>
		<path fill="#565A62" d="M82.7,183v-3.2l2.3-3c3-3.9,5.5-7.1,5.5-10.4c0-1.9-1-3.2-3-3.2c-1.5,0-2.7,0.6-3.5,1.2l-0.9-3.6
			c1.1-0.7,3.1-1.5,5.2-1.5c5.1,0,6.8,3.4,6.8,6.8c0,4.4-2.7,7.9-5.4,11.1l-1.4,1.7v0.1h7.2v4.1H82.7z"/>
		<path fill="#565A62" d="M111.2,171.2c0,8.4-3.1,12.1-6.8,12.1c-5.1,0-6.8-5.9-6.8-11.9c0-6.7,2.2-12.1,7-12.1
			C109.9,159.3,111.2,165.6,111.2,171.2z M102.2,171.3c-0.1,5.5,0.6,8,2.2,8c1.4,0,2-2.6,2-8c0-5-0.5-8-2-8
			C103,163.3,102.2,165.8,102.2,171.3z"/>
		<path fill="#565A62" d="M112.7,183v-3.2l2.3-3c3-3.9,5.5-7.1,5.5-10.4c0-1.9-1-3.2-3-3.2c-1.5,0-2.7,0.6-3.5,1.2l-0.9-3.6
			c1.1-0.7,3.1-1.5,5.2-1.5c5.1,0,6.8,3.4,6.8,6.8c0,4.4-2.7,7.9-5.4,11.1l-1.4,1.7v0.1h7.2v4.1H112.7z"/>
		<path fill="#565A62" d="M141.2,171.2c0,8.4-3.1,12.1-6.8,12.1c-5.1,0-6.8-5.9-6.8-11.9c0-6.7,2.2-12.1,7-12.1
			C139.9,159.3,141.2,165.6,141.2,171.2z M132.2,171.3c-0.1,5.5,0.6,8,2.2,8c1.4,0,2-2.6,2-8c0-5-0.5-8-2-8
			C133,163.3,132.2,165.8,132.2,171.3z"/>
	</g>
	<g>
		<polygon fill="none" stroke="#FFFFFF" stroke-width="0.25" stroke-miterlimit="10" points="86.2,101.9 86.1,101.8 86.2,101.8 
			86.2,101.8 		"/>
		<polygon fill="none" stroke="#FFFFFF" stroke-width="0.25" stroke-miterlimit="10" points="105.2,40.3 105.2,40.3 105.2,40.3 		
			"/>
		<path fill="none" stroke="#FFFFFF" stroke-width="0.25" stroke-miterlimit="10" d="M108.7,38.6L108.7,38.6
			C108.7,38.6,108.7,38.6,108.7,38.6z"/>
		<polygon fill="#565A62" stroke="#FFFFFF" stroke-width="0.25" stroke-miterlimit="10" points="112.5,19.2 110.8,19.3 111.3,23.9 
			111.4,24.3 113,23.7 		"/>
		<polygon fill="#565A62" stroke="#FFFFFF" stroke-width="0.25" stroke-miterlimit="10" points="105.5,25.7 104.2,24.7 101.4,25 
			103.5,27.4 105.2,26.7 106.2,26.3 		"/>
		<polygon fill="#7D706D" stroke="#FFFFFF" stroke-width="0.25" stroke-miterlimit="10" points="108.3,24.2 107.2,23.8 106.9,21.7 
			110.8,19.3 111.3,23.9 		"/>
		<polygon fill="#492F24" stroke="#FFFFFF" stroke-width="0.25" stroke-miterlimit="10" points="109.6,18.3 106.7,20.4 106.3,22 
			106.9,21.7 110.8,19.3 		"/>
		<polygon fill="#565A62" stroke="#FFFFFF" stroke-width="0.25" stroke-miterlimit="10" points="100.1,21.2 101.4,25 103.3,23.9 
			104.8,22.9 		"/>
		<polygon fill="#565A62" stroke="#FFFFFF" stroke-width="0.25" stroke-miterlimit="10" points="107.7,27.6 106.2,26.3 107.5,25.8 
					"/>
		<polygon fill="#8B0E04" stroke="#FFFFFF" stroke-width="0.25" stroke-miterlimit="10" points="111.4,24.3 113,23.7 117,27.4 
			111.5,25.4 		"/>
		<polygon fill="#837773" stroke="#FFFFFF" stroke-width="0.25" stroke-miterlimit="10" points="108.3,24.2 110,24.8 107.5,25.8 
			107.3,24.3 		"/>
		<polygon fill="#A3A510" stroke="#FFFFFF" stroke-width="0.25" stroke-miterlimit="10" points="111.4,24.3 111.3,23.9 108.3,24.2 
			110,24.8 111.5,25.4 		"/>
		<path fill="#565A62" stroke="#FFFFFF" stroke-width="0.2468" stroke-miterlimit="10" d="M108.1,36.7l1.6,0.6l1.1,2.4l1.8,4
			l-3.9-5.2C108.7,38.4,108.1,36.7,108.1,36.7z"/>
		<polygon fill="#A3A510" stroke="#FFFFFF" stroke-width="0.2468" stroke-miterlimit="10" points="115.2,42.1 115.5,43 112.6,43.7 
			110.8,39.7 		"/>
		<polygon fill="#565A62" stroke="#FFFFFF" stroke-width="0.25" stroke-miterlimit="10" points="105,27.9 103.5,27.4 105.2,26.7 		
			"/>
		<polygon fill="#7A6F00" stroke="#FFFFFF" stroke-width="0.25" stroke-miterlimit="10" points="106.3,22 106.9,21.7 107.2,23.8 
			106,23.4 		"/>
		<polygon fill="#565A62" stroke="#FFFFFF" stroke-width="0.25" stroke-miterlimit="10" points="107.2,23.8 106,23.4 105.8,24.5 
			107.3,24.3 108.3,24.2 		"/>
		<polygon fill="#565A62" stroke="#FFFFFF" stroke-width="0.25" stroke-miterlimit="10" points="104.3,19.9 100.1,21.2 104.8,22.9 
			106,23.4 106.3,22 106.7,20.4 		"/>
		<polygon fill="#9A311B" stroke="#FFFFFF" stroke-width="0.25" stroke-miterlimit="10" points="103.3,23.9 104.8,22.9 106,23.4 
			105.8,24.5 104.2,24.7 101.4,25 		"/>
		<polygon fill="#A3551C" stroke="#FFFFFF" stroke-width="0.25" stroke-miterlimit="10" points="105.8,24.5 107.3,24.3 107.5,25.8 
			106.2,26.3 105.5,25.7 104.2,24.7 		"/>
		<polygon fill="none" stroke="#FFFFFF" stroke-width="0.25" stroke-miterlimit="10" points="105.3,40.3 105.8,40.3 105.6,40.4 
			105.2,40.3 		"/>
		<polygon fill="#492F24" stroke="#FFFFFF" stroke-width="0.2468" stroke-miterlimit="10" points="100.8,60.8 99.1,66.5 98.3,69.4 
			94.3,83.2 93.3,83.6 93.3,82.8 92.6,80.4 98.1,67.3 98.8,65.4 		"/>
		<polygon fill="#7D706D" stroke="#FFFFFF" stroke-width="0.2468" stroke-miterlimit="10" points="106.3,43.5 107.6,43.6 
			112.3,47.6 111.2,57.7 		"/>
		<polygon stroke="#FFFFFF" stroke-width="0.2468" stroke-miterlimit="10" points="100.8,60.8 98.8,65.4 98.1,67.3 97.3,59.8 
			98.6,59.7 		"/>
		<polygon fill="#8B0E04" stroke="#FFFFFF" stroke-width="0.25" stroke-miterlimit="10" points="103.4,28.3 101.4,34.4 96.5,34 		
			"/>
		<polygon fill="#492F24" stroke="#FFFFFF" stroke-width="0.2468" stroke-miterlimit="10" points="104,31.8 101.4,34.4 103.4,28.3 
					"/>
		<polygon fill="#565A62" stroke="#FFFFFF" stroke-width="0.25" stroke-miterlimit="10" points="103.5,27.4 105,27.9 104,31.8 
			103.4,28.3 		"/>
		<polygon fill="#492F24" stroke="#FFFFFF" stroke-width="0.25" stroke-miterlimit="10" points="107.7,27.6 106.2,26.3 105.2,26.7 
			105,27.9 107.9,29 112.2,31.4 		"/>
		<polygon fill="#565A62" stroke="#FFFFFF" stroke-width="0.25" stroke-miterlimit="10" points="107.5,25.8 110,24.8 111.5,25.4 
			112.2,31.4 107.7,27.6 		"/>
		<polygon fill="#492F24" stroke="#FFFFFF" stroke-width="0.2468" stroke-miterlimit="10" points="100.4,52.3 101.3,49.1 102,56.9 
					"/>
		<polygon fill="#B09531" stroke="#FFFFFF" stroke-width="0.2468" stroke-miterlimit="10" points="102.4,78.3 102.5,79.7 99.5,80.9 
			98.3,69.4 99.1,66.5 		"/>
		<polygon fill="#A5472F" stroke="#FFFFFF" stroke-width="0.25" stroke-miterlimit="10" points="117,27.4 117.2,29.2 112.2,31.4 
			111.5,25.4 		"/>
		<polygon opacity="0.4" fill="#AB650D" stroke="#FFFFFF" stroke-width="0.2468" stroke-miterlimit="10" points="84,97.8 77.3,90.6 
			83.4,92.3 		"/>
		<polygon fill="#492F24" stroke="#FFFFFF" stroke-width="0.2468" stroke-miterlimit="10" points="103.4,123.2 102.6,118.7 
			106.1,119 		"/>
		<polygon stroke="#FFFFFF" stroke-width="0.2468" stroke-miterlimit="10" points="107.8,126.3 103.4,123.2 106.1,119 		"/>
		<polygon stroke="#FFFFFF" stroke-width="0.2468" stroke-miterlimit="10" points="107.6,112.7 107.3,114.5 110.1,113.3 
			110.9,110.3 		"/>
		<polygon fill="#183B61" stroke="#FFFFFF" stroke-width="0.2468" stroke-miterlimit="10" points="85,91.2 83.8,89.7 88.8,89.2 		
			"/>
		<polygon fill="#8B0E04" stroke="#FFFFFF" stroke-width="0.2468" stroke-miterlimit="10" points="127.1,91.8 123.4,90.5 
			120.6,84.3 		"/>
		<polygon fill="#8B0E04" stroke="#FFFFFF" stroke-width="0.2468" stroke-miterlimit="10" points="131.8,97.8 128.3,96.7 
			130.7,96.3 		"/>
		<polygon fill="#7D706D" stroke="#FFFFFF" stroke-width="0.2468" stroke-miterlimit="10" points="130.6,96.1 130.7,96.3 
			128.3,96.7 123.4,90.5 		"/>
		<polygon fill="#492F24" stroke="#FFFFFF" stroke-width="0.2468" stroke-miterlimit="10" points="128.3,96.7 126.9,97.6 
			123.4,90.5 		"/>
		<polygon fill="#565A62" stroke="#FFFFFF" stroke-width="0.2468" stroke-miterlimit="10" points="132.6,103.4 127.2,101.3 
			126.9,97.6 		"/>
		<polygon fill="#AB650D" stroke="#FFFFFF" stroke-width="0.2468" stroke-miterlimit="10" points="86.5,91.6 85,91.2 88.8,89.2 		
			"/>
		<polygon fill="#8B0E04" stroke="#FFFFFF" stroke-width="0.2468" stroke-miterlimit="10" points="130.8,106.5 131.1,108.5 
			129.5,106.9 127.6,106.6 130.7,106.4 		"/>
		<polygon fill="#492F24" stroke="#FFFFFF" stroke-width="0.2468" stroke-miterlimit="10" points="131.8,110.1 124.7,112 
			127.7,107.7 		"/>
		<polygon fill="none" stroke="#FFFFFF" stroke-width="0.25" stroke-miterlimit="10" points="86.3,101.9 86.2,101.9 86.2,101.8 		
			"/>
		<path fill="#7A6F00" stroke="#FFFFFF" stroke-width="0.2468" stroke-miterlimit="10" d="M89.6,102.8l-3.4-0.9l0,0l-0.1-0.1
			l2.8-1.7C89,100.1,89.6,102.7,89.6,102.8z"/>
		<polygon opacity="0.75" fill="#AB650D" stroke="#FFFFFF" stroke-width="0.2468" stroke-miterlimit="10" points="86.2,101.8 
			84.4,100 84.4,99.9 89,100.1 		"/>
		<polygon stroke="#FFFFFF" stroke-width="0.2468" stroke-miterlimit="10" points="88.3,107.9 86.7,104.8 85,103.1 86.2,101.9 
			86.3,101.9 		"/>
		<polygon opacity="0.4" fill="#183B61" stroke="#FFFFFF" stroke-width="0.2468" stroke-miterlimit="10" points="84.4,99.9 84,97.8 
			89,100.1 		"/>
		<path fill="#492F24" stroke="#FFFFFF" stroke-width="0.2468" stroke-miterlimit="10" d="M89.6,102.8c0,0.1-1,5.6-1,5.6l-0.3-0.6
			l-2-6L89.6,102.8z"/>
		<polygon fill="#FFFFFF" stroke="#FFFFFF" stroke-width="0.25" stroke-miterlimit="10" points="89.8,94.7 86.5,91.6 88.8,89.2 		
			"/>
		<polygon stroke="#FFFFFF" stroke-width="0.2468" stroke-miterlimit="10" points="89.4,97.1 85.6,93.5 89.8,94.7 		"/>
		<polygon fill="#492F24" stroke="#FFFFFF" stroke-width="0.2468" stroke-miterlimit="10" points="85.6,93.5 86.5,91.6 89.8,94.7 		
			"/>
		<polygon fill="#7A6F00" stroke="#FFFFFF" stroke-width="0.2468" stroke-miterlimit="10" points="77.3,90.6 78.9,87.4 83.8,89.7 		
			"/>
		<polygon opacity="0.4" fill="#183B61" stroke="#FFFFFF" stroke-width="0.2468" stroke-miterlimit="10" points="89,100.1 84,97.8 
			83.4,92.3 		"/>
		<polygon fill="#492F24" stroke="#FFFFFF" stroke-width="0.2468" stroke-miterlimit="10" points="110.1,69.1 100.8,60.8 
			100.9,57.8 102,56.9 110.1,69.1 		"/>
		<polygon opacity="0.52" fill="#AB650D" stroke="#FFFFFF" stroke-width="0.2468" stroke-miterlimit="10" points="83.4,92.3 
			77.3,90.6 83.8,89.7 		"/>
		<polygon fill="#8B0E04" stroke="#FFFFFF" stroke-width="0.2468" stroke-miterlimit="10" points="112.7,34.9 114.2,35 117.9,34.5 
			114.2,37.3 119.8,36.5 121.3,37.6 121.3,38.4 114.1,37.3 		"/>
		<polygon fill="#AB650D" stroke="#FFFFFF" stroke-width="0.2468" stroke-miterlimit="10" points="117.9,34.5 120,36 119.8,36.5 
			114.2,37.3 		"/>
		<polygon fill="#994708" stroke="#FFFFFF" stroke-width="0.2468" stroke-miterlimit="10" points="113.5,37.2 112.7,34.9 
			112.4,36.1 111.1,36.8 113.6,37.5 		"/>
		<polygon fill="#B09531" stroke="#FFFFFF" stroke-width="0.2468" stroke-miterlimit="10" points="114.3,39.6 111.5,39.5 
			111.1,36.8 113.6,37.5 		"/>
		<polygon fill="#A3A510" stroke="#FFFFFF" stroke-width="0.2468" stroke-miterlimit="10" points="115.8,40.2 122,41.2 117.1,42.5 
					"/>
		<polygon fill="#183B61" stroke="#FFFFFF" stroke-width="0.2468" stroke-miterlimit="10" points="122,41.2 119.9,43.5 119.1,42.8 
			117.8,43.6 117.1,42.5 		"/>
		<polygon fill="#AB650D" stroke="#FFFFFF" stroke-width="0.25" stroke-miterlimit="10" points="117.1,42.5 117.8,43.6 116.3,42.8 
					"/>
		<polygon fill="#AB650D" stroke="#FFFFFF" stroke-width="0.2468" stroke-miterlimit="10" points="114.3,37.7 122.3,39.7 
			115.5,39.6 		"/>
		<polygon fill="#7D706D" stroke="#FFFFFF" stroke-width="0.2468" stroke-miterlimit="10" points="114.1,37.3 121.3,38.4 
			122.3,39.7 114.3,37.7 		"/>
		<polygon fill="#7A6F00" stroke="#FFFFFF" stroke-width="0.2468" stroke-miterlimit="10" points="115.5,39.6 122.3,39.7 122,41.2 
			115.8,40.2 		"/>
		<polygon fill="#A3A510" stroke="#FFFFFF" stroke-width="0.2468" stroke-miterlimit="10" points="124,85.8 120.6,84.3 120,81.8 		
			"/>
		<polygon stroke="#FFFFFF" stroke-width="0.2468" stroke-miterlimit="10" points="116.1,68.3 115.7,70.4 114.2,66.3 		"/>
		<polygon stroke="#FFFFFF" stroke-width="0.2468" stroke-miterlimit="10" points="118.1,67.5 116.9,65.4 116.1,68.3 118.3,70 		"/>
		<polygon stroke="#FFFFFF" stroke-width="0.2468" stroke-miterlimit="10" points="116.9,65.4 116.1,68.3 114.2,66.3 		"/>
		<polygon fill="#A3A510" stroke="#FFFFFF" stroke-width="0.2468" stroke-miterlimit="10" points="118.3,72.6 120.1,78.6 118,78.8 
					"/>
		<polygon fill="#A3A510" stroke="#FFFFFF" stroke-width="0.2468" stroke-miterlimit="10" points="122.4,83.6 120,81.8 121.6,81 		
			"/>
		<polygon fill="#A3A510" stroke="#FFFFFF" stroke-width="0.2468" stroke-miterlimit="10" points="115.5,43 115.2,42.1 116.3,42.8 
					"/>
		<polygon fill="#994708" stroke="#FFFFFF" stroke-width="0.25" stroke-miterlimit="10" points="116.3,42.8 115.5,43 112.6,43.7 
			113.4,45.3 115.8,44 116.7,45.2 117.8,43.6 		"/>
		<polygon fill="#AB650D" stroke="#FFFFFF" stroke-width="0.2468" stroke-miterlimit="10" points="111.5,39.5 114.3,39.6 114.5,40 
			115.2,42.1 110.8,39.7 		"/>
		<polygon fill="#7A6F00" stroke="#FFFFFF" stroke-width="0.2468" stroke-miterlimit="10" points="115.8,40.2 115.5,39.6 
			114.3,37.7 114.1,37.3 112.7,34.9 113.5,37.2 113.6,37.5 114.3,39.6 114.5,40 115.2,42.1 116.3,42.8 117.1,42.5 		"/>
		<polygon fill="#565A62" stroke="#FFFFFF" stroke-width="0.2468" stroke-miterlimit="10" points="115.7,70.4 113.5,70.8 
			114.2,66.3 		"/>
		<polygon fill="#565A62" stroke="#FFFFFF" stroke-width="0.25" stroke-miterlimit="10" points="107.9,29 107.9,30.3 104,31.8 
			105,27.9 		"/>
		<polygon fill="#492F24" stroke="#FFFFFF" stroke-width="0.2468" stroke-miterlimit="10" points="93.2,87 92,87.2 90.6,84.8 
			91.8,84.2 		"/>
		<polygon fill="#565A62" stroke="#FFFFFF" stroke-width="0.2468" stroke-miterlimit="10" points="94.3,83.2 93.2,87 91.8,84.2 
			93.3,83.6 		"/>
		<polygon fill="#565A62" stroke="#FFFFFF" stroke-width="0.2468" stroke-miterlimit="10" points="71.5,58.9 74.8,49.9 72.5,58.7 		
			"/>
		<polygon fill="#565A62" stroke="#FFFFFF" stroke-width="0.2468" stroke-miterlimit="10" points="106.1,119 102.6,118.7 
			103.5,116.1 105.1,107.5 		"/>
		<polygon fill="#8B0E04" stroke="#FFFFFF" stroke-width="0.25" stroke-miterlimit="10" points="92.6,80.4 90.3,79.5 85.4,86.8 
			95.1,57 		"/>
		<polygon fill="#565A62" stroke="#FFFFFF" stroke-width="0.2468" stroke-miterlimit="10" points="97.3,59.8 98.1,67.3 92.6,80.4 
			95.1,57 		"/>
		<polygon fill="#994708" stroke="#FFFFFF" stroke-width="0.2468" stroke-miterlimit="10" points="95.1,57 85.4,86.8 86.8,56.3 		
			"/>
		<polygon stroke="#FFFFFF" stroke-width="0.2468" stroke-miterlimit="10" points="91.5,83.4 90.6,84.8 91.8,84.2 93.3,83.6 
			93.3,82.8 		"/>
		<polygon fill="#565A62" stroke="#FFFFFF" stroke-width="0.2468" stroke-miterlimit="10" points="110.9,110.3 110.9,94.3 115,96.1 
					"/>
		<polygon fill="#7D706D" stroke="#FFFFFF" stroke-width="0.2468" stroke-miterlimit="10" points="112,115.4 108,115.6 110.5,114.7 
			110.9,113.6 113,113.3 		"/>
		<path fill="#7A6F00" stroke="#FFFFFF" stroke-width="0.25" stroke-miterlimit="10" d="M105.7,112.3l0.1-9.1c0,0-0.6-1.6-1.5-3.6
			l0.7,7.8l1.1,11.6l0.3-0.5L105.7,112.3z"/>
		<polygon fill="#B09531" stroke="#FFFFFF" stroke-width="0.2468" stroke-miterlimit="10" points="110.9,94.3 107.4,96.4 108.4,86 
					"/>
		<polygon fill="#B09531" stroke="#FFFFFF" stroke-width="0.2468" stroke-miterlimit="10" points="115,96.1 110.9,94.3 115.9,92.8 
					"/>
		<polygon fill="#7D706D" stroke="#FFFFFF" stroke-width="0.2468" stroke-miterlimit="10" points="109.3,76.7 111.6,75.8 
			110.9,94.3 108.4,86 		"/>
		<polygon fill="#492F24" stroke="#FFFFFF" stroke-width="0.2468" stroke-miterlimit="10" points="115.4,108 114.6,109.8 
			113.8,111.6 110.9,110.3 		"/>
		<polygon fill="#A3A510" stroke="#FFFFFF" stroke-width="0.2468" stroke-miterlimit="10" points="82.9,49.4 87.8,46.9 84.2,51.8 		
			"/>
		<polygon fill="#565A62" stroke="#FFFFFF" stroke-width="0.2468" stroke-miterlimit="10" points="77.6,62.5 75.1,68.3 78,74.5 
			84,72.7 		"/>
		<polygon fill="#AB650D" stroke="#FFFFFF" stroke-width="0.2468" stroke-miterlimit="10" points="87.8,46.9 86,55.2 84.2,51.8 		
			"/>
		<polygon fill="#7D706D" stroke="#FFFFFF" stroke-width="0.2468" stroke-miterlimit="10" points="82.4,54.4 86,55.2 82.4,57.3 		
			"/>
		<polygon fill="#492F24" stroke="#FFFFFF" stroke-width="0.2468" stroke-miterlimit="10" points="86.8,56.3 85.4,86.8 82.4,57.3 
			86,55.2 		"/>
		<path fill="#492F24" stroke="#FFFFFF" stroke-width="0.2468" stroke-miterlimit="10" d="M79.7,86.2C79.7,86.2,79.8,86.2,79.7,86.2
			C79.7,86.2,79.7,86.2,79.7,86.2c-0.7-0.2-8.8-2.9-8.8-2.9l1.5-3.4l11.3,9.8l-4.9-2.3C78.9,87.4,79.5,86.3,79.7,86.2z"/>
		<path stroke="#FFFFFF" stroke-width="0.2468" stroke-miterlimit="10" d="M70.9,83.3c0,0,8,2.7,8.8,2.9c-0.2,0.1-0.8,1.2-0.8,1.2
			l-4-2.6L70.9,83.3z"/>
		<path fill="none" stroke="#FFFFFF" stroke-width="0.25" stroke-miterlimit="10" d="M79.8,86.2C79.8,86.2,79.7,86.2,79.8,86.2
			C79.7,86.2,79.7,86.2,79.8,86.2z"/>
		<polygon fill="#565A62" stroke="#FFFFFF" stroke-width="0.2468" stroke-miterlimit="10" points="76.2,76.4 77.6,75.8 78,74.5 
			85.4,86.8 72.5,79.9 		"/>
		<polygon fill="#B09531" stroke="#FFFFFF" stroke-width="0.2468" stroke-miterlimit="10" points="84,72.7 77.6,62.5 82.4,57.3 
			85.4,86.8 78,74.5 		"/>
		<polygon fill="#FFFFFF" stroke="#FFFFFF" stroke-width="0.25" stroke-miterlimit="10" points="88.8,89.2 83.8,89.7 72.5,79.9 
			85.4,86.8 		"/>
		<polygon fill="#492F24" stroke="#FFFFFF" stroke-width="0.2468" stroke-miterlimit="10" points="74.3,65.4 72.5,58.7 75.6,64.8 		
			"/>
		<polygon fill="#B09531" stroke="#FFFFFF" stroke-width="0.2468" stroke-miterlimit="10" points="72.5,58.7 74.8,49.9 75.6,64.8 		
			"/>
		<polygon stroke="#FFFFFF" stroke-width="0.2468" stroke-miterlimit="10" points="75.6,64.8 74.8,49.9 77.1,57 		"/>
		<polygon fill="#492F24" stroke="#FFFFFF" stroke-width="0.2468" stroke-miterlimit="10" points="82.1,47.8 84.7,42.7 87.8,46.9 
			82.9,49.4 		"/>
		<polygon fill="#565A62" stroke="#FFFFFF" stroke-width="0.2468" stroke-miterlimit="10" points="74.8,49.9 74.7,48.1 77.3,44.8 
			77.1,57 		"/>
		<polygon stroke="#FFFFFF" stroke-width="0.2468" stroke-miterlimit="10" points="71.3,69.5 72.3,65 74.3,65.4 		"/>
		<polygon fill="#565A62" stroke="#FFFFFF" stroke-width="0.2468" stroke-miterlimit="10" points="72.3,65 72.5,58.7 74.3,65.4 		
			"/>
		<polygon fill="#8B0E04" stroke="#FFFFFF" stroke-width="0.25" stroke-miterlimit="10" points="78.6,41.5 79.7,51.1 80.7,50.5 
			82.1,47.8 84.7,42.7 		"/>
		<polygon fill="#565A62" stroke="#FFFFFF" stroke-width="0.2468" stroke-miterlimit="10" points="82.9,49.4 80.7,50.5 82.1,47.8 		
			"/>
		<polygon fill="#492F24" stroke="#FFFFFF" stroke-width="0.2468" stroke-miterlimit="10" points="71.3,65.7 72.5,58.7 72.3,65 		
			"/>
		<polygon fill="#565A62" stroke="#FFFFFF" stroke-width="0.2468" stroke-miterlimit="10" points="77.3,44.8 78.6,41.5 79.7,51.1 		
			"/>
		<polygon fill="#492F24" stroke="#FFFFFF" stroke-width="0.2468" stroke-miterlimit="10" points="78.7,55.3 77.1,57 77.3,44.8 
			79.7,51.1 		"/>
		<polygon fill="#AB650D" stroke="#FFFFFF" stroke-width="0.2468" stroke-miterlimit="10" points="84.2,51.8 82.9,49.4 80.7,50.5 
			82.4,54.4 86,55.2 		"/>
		<polygon fill="#B09531" stroke="#FFFFFF" stroke-width="0.2468" stroke-miterlimit="10" points="113.8,72.4 113.5,70.8 
			114.2,66.3 112,63.3 110.8,61.8 110.1,69.1 111.7,70.5 		"/>
		<polygon fill="#B09531" stroke="#FFFFFF" stroke-width="0.2468" stroke-miterlimit="10" points="113.8,111.6 110.9,110.3 
			110.1,113.3 110.9,113.6 113,113.3 116.9,112.9 		"/>
		<polygon fill="#7A6F00" stroke="#FFFFFF" stroke-width="0.2468" stroke-miterlimit="10" points="112.5,47.9 114,49.1 114.3,57.1 
			114.6,65.2 114.2,66.3 112.1,60.1 		"/>
		<polygon fill="#7A6F00" stroke="#FFFFFF" stroke-width="0.2468" stroke-miterlimit="10" points="112.6,43.7 112.7,46.3 114,49.1 
			112.5,47.9 		"/>
		<polygon fill="#565A62" stroke="#FFFFFF" stroke-width="0.2468" stroke-miterlimit="10" points="117.8,112.8 116.9,112.9 
			113.8,111.6 114.6,109.8 117.7,109.3 		"/>
		<polygon fill="#A3A510" stroke="#FFFFFF" stroke-width="0.2468" stroke-miterlimit="10" points="120.8,108.8 121.4,112.4 
			117.8,112.8 117.7,109.3 		"/>
		<polygon fill="#7D706D" stroke="#FFFFFF" stroke-width="0.2468" stroke-miterlimit="10" points="107.6,43.6 112.6,43.7 
			112.3,47.6 		"/>
		<path fill="#565A62" stroke="#FFFFFF" stroke-width="0.2468" stroke-miterlimit="10" d="M105.2,40.3l1.9-2.5c0,0,1.4,0.8,1.6,0.8
			l-3.4,1.7L105.2,40.3z"/>
		<polygon fill="#492F24" stroke="#FFFFFF" stroke-width="0.2468" stroke-miterlimit="10" points="112,115.4 108,115.6 107.7,116.8 
			110.3,119.3 118,115.1 		"/>
		<path fill="#B09531" stroke="#FFFFFF" stroke-width="0.2468" stroke-miterlimit="10" d="M105.8,40.3l-0.5,0l3.4-1.7c0,0,0,0,0,0
			l3.9,5.2l-7.1-3.3L105.8,40.3z"/>
		<polygon fill="none" stroke="#FFFFFF" stroke-width="0.25" stroke-miterlimit="10" points="105.2,40.3 105.2,40.3 105.2,40.3 
			105.3,40.3 		"/>
		<polygon fill="#565A62" stroke="#FFFFFF" stroke-width="0.2468" stroke-miterlimit="10" points="96.5,34 101.4,34.4 99.9,36.9 		
			"/>
		<polygon fill="#565A62" stroke="#FFFFFF" stroke-width="0.2468" stroke-miterlimit="10" points="115.4,108 117.3,103.7 
			117.5,106.9 117.7,109.3 114.6,109.8 		"/>
		<polygon fill="#B09531" stroke="#FFFFFF" stroke-width="0.2468" stroke-miterlimit="10" points="105.2,40.3 105.2,40.3 
			103.8,40.3 97.9,40.3 101.1,43.4 104.6,41 105.3,40.6 		"/>
		<polygon fill="#565A62" stroke="#FFFFFF" stroke-width="0.2468" stroke-miterlimit="10" points="99.9,36.9 101.4,34.4 105.2,40.3 
			103.8,40.3 		"/>
		<polygon fill="#492F24" stroke="#FFFFFF" stroke-width="0.2468" stroke-miterlimit="10" points="97.9,40.3 96.5,34 99.9,36.9 		
			"/>
		<polygon fill="#565A62" stroke="#FFFFFF" stroke-width="0.2468" stroke-miterlimit="10" points="117.6,86.9 119.6,79.9 120,81.8 
			120.6,84.3 123.4,90.5 118.4,92 		"/>
		<polygon fill="#565A62" stroke="#FFFFFF" stroke-width="0.2468" stroke-miterlimit="10" points="130.7,106.4 127.2,101.3 
			127,101.9 125.6,108 127.7,107.7 127.6,106.6 		"/>
		<polygon fill="#565A62" stroke="#FFFFFF" stroke-width="0.2468" stroke-miterlimit="10" points="123.4,90.5 127.2,101.3 
			119.9,98.1 		"/>
		<polygon fill="#A3A510" stroke="#FFFFFF" stroke-width="0.2468" stroke-miterlimit="10" points="127.7,107.7 124.7,112 125.6,108 
					"/>
		<polygon fill="#B09531" stroke="#FFFFFF" stroke-width="0.2468" stroke-miterlimit="10" points="120.3,105.4 119.4,99.2 
			119.9,98.1 127.2,101.3 127,101.9 		"/>
		<polygon stroke="#FFFFFF" stroke-width="0.2468" stroke-miterlimit="10" points="121.7,114.9 118,115.1 117.9,113.3 		"/>
		<polygon fill="#B09531" stroke="#FFFFFF" stroke-width="0.2468" stroke-miterlimit="10" points="113,113.3 116.9,112.9 
			117.9,113.3 118,115.1 112,115.4 		"/>
		<polygon fill="#8B0E04" stroke="#FFFFFF" stroke-width="0.2468" stroke-miterlimit="10" points="120.8,108.8 125.6,108 124.7,112 
			121.4,112.4 		"/>
		<polygon fill="#B09531" stroke="#FFFFFF" stroke-width="0.2468" stroke-miterlimit="10" points="124.7,112 121.7,114.9 
			121.4,112.4 		"/>
		<polygon fill="#8B0E04" stroke="#FFFFFF" stroke-width="0.2468" stroke-miterlimit="10" points="118,78.8 120.1,78.6 120,80.2 
			119.6,79.9 		"/>
		<polygon fill="#994708" stroke="#FFFFFF" stroke-width="0.2468" stroke-miterlimit="10" points="117,96.9 117,96.9 116.7,92.5 
			116.6,90.4 115.9,92.8 115,96.1 115,96.1 110.9,110.3 115.4,108 117.3,103.7 		"/>
		<polygon fill="#492F24" stroke="#FFFFFF" stroke-width="0.2468" stroke-miterlimit="10" points="123.4,90.5 119.9,98.1 
			119.4,99.2 119.2,97.9 118.4,92 		"/>
		<polygon fill="#492F24" stroke="#FFFFFF" stroke-width="0.2468" stroke-miterlimit="10" points="120.8,108.8 117.7,109.3 
			117.5,106.9 117.3,103.7 117,96.9 116.7,92.5 116.6,90.4 115.7,74 118,78.8 119.6,79.9 117.6,86.9 118.4,92 119.2,97.8 
			119.4,99.2 120.3,105.4 		"/>
		<polygon fill="#994708" stroke="#FFFFFF" stroke-width="0.2468" stroke-miterlimit="10" points="121.6,81 120,81.8 119.6,79.9 		
			"/>
		<polygon fill="#565A62" stroke="#FFFFFF" stroke-width="0.2468" stroke-miterlimit="10" points="126.9,97.6 127.2,101.3 
			123.4,90.5 		"/>
		<polygon fill="#492F24" stroke="#FFFFFF" stroke-width="0.2468" stroke-miterlimit="10" points="104.7,53.6 101.1,43.4 
			101.3,49.1 102,56.9 110.1,69.1 		"/>
		<polygon fill="#A3A510" stroke="#FFFFFF" stroke-width="0.25" stroke-miterlimit="10" points="112.3,47.6 112.3,47.6 111.2,57.7 
			110.8,61.8 112,63.3 112.1,60.1 112.5,47.9 112.6,43.7 		"/>
		<polygon fill="none" stroke="#FFFFFF" stroke-width="0.25" stroke-miterlimit="10" points="110.1,69.1 110.1,69.1 110.1,69.1 		
			"/>
		<polygon fill="#565A62" stroke="#FFFFFF" stroke-width="0.2468" stroke-miterlimit="10" points="111.3,57.7 110.8,61.8 
			104.7,53.6 101.1,43.4 104.6,41 105.3,40.6 105.8,42 106.3,43.5 		"/>
		<polygon fill="none" stroke="#FFFFFF" stroke-width="0.25" stroke-miterlimit="10" points="105.2,40.3 105.2,40.3 105.2,40.3 
			105.6,40.4 105.3,40.6 105.2,40.3 		"/>
		<polygon fill="#A3A510" stroke="#FFFFFF" stroke-width="0.25" stroke-miterlimit="10" points="112.1,60.1 114.2,66.3 112,63.3 		
			"/>
		<polygon fill="#B09531" stroke="#FFFFFF" stroke-width="0.2468" stroke-miterlimit="10" points="105.6,40.4 105.3,40.6 105.8,42 
			106.3,43.5 107.6,43.6 112.6,43.7 		"/>
		<polygon fill="#8B0E04" stroke="#FFFFFF" stroke-width="0.2468" stroke-miterlimit="10" points="117.8,112.8 121.4,112.4 
			121.7,114.9 117.9,113.3 116.9,112.9 		"/>
		<polygon fill="#7D706D" stroke="#FFFFFF" stroke-width="0.2468" stroke-miterlimit="10" points="115.7,74 116.6,90.4 115.9,92.8 
			110.9,94.3 111.6,75.8 		"/>
		<polygon fill="#7D706D" stroke="#FFFFFF" stroke-width="0.2468" stroke-miterlimit="10" points="115.7,74 111.6,75.8 109.3,76.7 
			106,78.2 102.5,79.7 102.4,78.3 100.8,60.8 110.1,69.1 111.7,70.5 		"/>
		<polygon fill="#492F24" stroke="#FFFFFF" stroke-width="0.2468" stroke-miterlimit="10" points="99.1,66.5 100.8,60.8 102.4,78.3 
					"/>
		<polygon fill="#565A62" stroke="#FFFFFF" stroke-width="0.2468" stroke-miterlimit="10" points="94.3,83.2 98.3,69.4 99.5,80.9 		
			"/>
		<polygon fill="#994708" stroke="#FFFFFF" stroke-width="0.2468" stroke-miterlimit="10" points="127,101.9 125.6,108 120.8,108.8 
			120.3,105.4 		"/>
		<polygon fill="#A3A510" stroke="#FFFFFF" stroke-width="0.25" stroke-miterlimit="10" points="104.7,53.6 110.8,61.8 110.1,69.1 
					"/>
		<polygon fill="#565A62" stroke="#FFFFFF" stroke-width="0.2468" stroke-miterlimit="10" points="103.8,40.3 97.9,40.3 99.9,36.9 
					"/>
		<path fill="#565A62" stroke="#FFFFFF" stroke-width="0.2468" stroke-miterlimit="10" d="M105.1,107.4l-1.6,8.7l-0.4-5.4l-0.2-3.3
			l0-0.1l0,0l-3.7-11.6l1.7-1.9l0.3-0.3l-0.4-0.5l-2.3-3.1l-1.2-1.6l2.7-2.6l2.8-2.7l0.1,1.5l1.4,15.2c0,0,0,0,0,0L105.1,107.4z"/>
		<path fill="#A3A510" stroke="#FFFFFF" stroke-width="0.2468" stroke-miterlimit="10" d="M109.3,76.7l-0.9,9.3l-1,10.4l-1.6,6.8
			c0,0-0.6-1.6-1.5-3.6l-1.4-15.2l-0.1-1.5l0.7-0.7L109.3,76.7z"/>
		<polygon fill="#7D706D" stroke="#FFFFFF" stroke-width="0.25" stroke-miterlimit="10" points="109.3,76.7 103.5,82.3 102.8,83 
			100,85.7 97.3,88.2 96.3,88.8 95.3,92.9 93.5,90.1 93.2,87 94.3,83.2 99.5,81 102.5,79.7 102.7,79.6 106,78.2 		"/>
	</g>
</g>
<g id="Layer_4">
</g>
<g id="logo">
</g>
</svg>
