<?xml version="1.0" encoding="utf-8"?>
<!-- Generator: Adobe Illustrator 23.0.4, SVG Export Plug-In . SVG Version: 6.00 Build 0)  -->
<svg version="1.1" id="Layer_1" xmlns="http://www.w3.org/2000/svg" xmlns:xlink="http://www.w3.org/1999/xlink" x="0px" y="0px"
	 viewBox="0 0 294.1 135.4" style="enable-background:new 0 0 294.1 135.4;" xml:space="preserve">
<style type="text/css">
	.st0{fill:#A3A510;}
	.st1{fill:none;stroke:#FFFFFF;stroke-width:0.25;stroke-miterlimit:10;}
	.st2{fill:#565A62;stroke:#FFFFFF;stroke-width:0.25;stroke-miterlimit:10;}
	.st3{fill:#7D706D;stroke:#FFFFFF;stroke-width:0.25;stroke-miterlimit:10;}
	.st4{fill:#492F24;stroke:#FFFFFF;stroke-width:0.25;stroke-miterlimit:10;}
	.st5{fill:#8B0E04;stroke:#FFFFFF;stroke-width:0.25;stroke-miterlimit:10;}
	.st6{fill:#837773;stroke:#FFFFFF;stroke-width:0.25;stroke-miterlimit:10;}
	.st7{fill:#A3A510;stroke:#FFFFFF;stroke-width:0.25;stroke-miterlimit:10;}
	.st8{fill:#565A62;stroke:#FFFFFF;stroke-width:0.2468;stroke-miterlimit:10;}
	.st9{fill:#A3A510;stroke:#FFFFFF;stroke-width:0.2468;stroke-miterlimit:10;}
	.st10{fill:#7A6F00;stroke:#FFFFFF;stroke-width:0.25;stroke-miterlimit:10;}
	.st11{fill:#9A311B;stroke:#FFFFFF;stroke-width:0.25;stroke-miterlimit:10;}
	.st12{fill:#A3551C;stroke:#FFFFFF;stroke-width:0.25;stroke-miterlimit:10;}
	.st13{fill:#492F24;stroke:#FFFFFF;stroke-width:0.2468;stroke-miterlimit:10;}
	.st14{fill:#7D706D;stroke:#FFFFFF;stroke-width:0.2468;stroke-miterlimit:10;}
	.st15{stroke:#FFFFFF;stroke-width:0.2468;stroke-miterlimit:10;}
	.st16{fill:#B09531;stroke:#FFFFFF;stroke-width:0.2468;stroke-miterlimit:10;}
	.st17{fill:#A5472F;stroke:#FFFFFF;stroke-width:0.25;stroke-miterlimit:10;}
	.st18{opacity:0.4;fill:#AB650D;stroke:#FFFFFF;stroke-width:0.2468;stroke-miterlimit:10;enable-background:new    ;}
	.st19{fill:#183B61;stroke:#FFFFFF;stroke-width:0.2468;stroke-miterlimit:10;}
	.st20{fill:#8B0E04;stroke:#FFFFFF;stroke-width:0.2468;stroke-miterlimit:10;}
	.st21{fill:#AB650D;stroke:#FFFFFF;stroke-width:0.2468;stroke-miterlimit:10;}
	.st22{fill:#7A6F00;stroke:#FFFFFF;stroke-width:0.2468;stroke-miterlimit:10;}
	.st23{opacity:0.75;fill:#AB650D;stroke:#FFFFFF;stroke-width:0.2468;stroke-miterlimit:10;enable-background:new    ;}
	.st24{opacity:0.4;fill:#183B61;stroke:#FFFFFF;stroke-width:0.2468;stroke-miterlimit:10;enable-background:new    ;}
	.st25{fill:#FFFFFF;stroke:#FFFFFF;stroke-width:0.25;stroke-miterlimit:10;}
	.st26{opacity:0.52;fill:#AB650D;stroke:#FFFFFF;stroke-width:0.2468;stroke-miterlimit:10;enable-background:new    ;}
	.st27{fill:#994708;stroke:#FFFFFF;stroke-width:0.2468;stroke-miterlimit:10;}
	.st28{fill:#AB650D;stroke:#FFFFFF;stroke-width:0.25;stroke-miterlimit:10;}
	.st29{fill:#994708;stroke:#FFFFFF;stroke-width:0.25;stroke-miterlimit:10;}
	.st30{fill:#FFFFFF;}
</style>
<g id="facets">
	<g>
		<g>
			<path class="st0" d="M45.8,71.5l2.4-16.1h5.1L48.7,81h-5.2l-3-15.1l-3,15.1h-5.2l-4.6-25.6h5.2l2.4,16.1l3-16.1h4.3L45.8,71.5z"
				/>
			<path class="st0" d="M62.1,67l3.8-11.5h5.6l-6.9,16.3v9.3h-5.2v-9.3l-6.9-16.3h5.6L62.1,67z"/>
			<path class="st0" d="M88.2,70.6c0,3.4-0.8,6.1-2.4,8s-3.9,2.8-6.8,2.8s-5.1-0.9-6.8-2.8s-2.5-4.5-2.5-7.9v-4.4
				c0-3.5,0.8-6.3,2.4-8.2s3.9-3,6.8-3c2.8,0,5.1,1,6.7,2.9s2.5,4.7,2.5,8.2v4.4H88.2z M83,66.3c0-2.3-0.3-4-1-5.2
				c-0.7-1.1-1.7-1.7-3.1-1.7s-2.4,0.5-3,1.6c-0.7,1.1-1,2.7-1,4.9v4.6c0,2.2,0.3,3.9,1,4.9S77.6,77,79,77c1.3,0,2.3-0.5,3-1.6
				s1-2.6,1-4.8V66.3z"/>
		</g>
		<g>
			<path class="st0" d="M157.9,55.6V81h-1.5V68h-7.3v13.1h-1.5V55.6h1.5v11.3h7.3V55.6H157.9z"/>
			<path class="st0" d="M169.8,72.7h-5.7l-1.5,8.4h-1.4l4.7-25.4h0.8h0.5h0.8l4.7,25.4h-1.4L169.8,72.7z M169.6,71.6L166.9,57
				l-2.7,14.6H169.6z"/>
			<path class="st0" d="M184.1,63.6v-4.7c0-1.1-0.7-2.3-1.8-2.3H179c-1.1,0-1.8,1.2-1.8,2.3v18.9c0,1.1,0.7,2.2,1.8,2.2h3.3
				c1.1,0,1.8-1.1,1.8-2.2v-5.4h1.5v5.4c0,1.8-1.4,3.4-3.1,3.4h-3.4c-1.8,0-3.3-1.6-3.3-3.4V58.9c0-1.8,1.5-3.4,3.3-3.4h3.3
				c1.8,0,3.3,1.6,3.3,3.4v4.7C185.7,63.6,184.1,63.6,184.1,63.6z"/>
			<path class="st0" d="M192.6,67.5l-2,3.9V81h-1.4V55.6h1.4v12.9l6.6-12.9h1.5l-5.3,10.3l5.7,15.1h-1.5L192.6,67.5z"/>
			<path class="st0" d="M210.2,72.7h-5.7L203,81h-1.4l4.7-25.4h0.8h0.5h0.8l4.7,25.4h-1.4L210.2,72.7z M210,71.6L207.4,57l-2.7,14.6
				H210z"/>
			<path class="st0" d="M224.1,56.7h-4.7V81H218V56.7h-4.8v-1.1h4.8h1.4h4.7L224.1,56.7L224.1,56.7z"/>
			<path class="st0" d="M237.2,55.6V81h-1.5V68h-7.3v13.1H227V55.6h1.5v11.3h7.3V55.6H237.2z"/>
			<path class="st0" d="M251.2,58.9v18.9c0,1.8-1.5,3.4-3.3,3.4h-3.6c-1.8,0-3.3-1.6-3.3-3.4V58.9c0-1.8,1.5-3.4,3.3-3.4h3.6
				C249.7,55.5,251.2,57.1,251.2,58.9z M249.8,77.8V58.9c0-1.1-0.8-2.3-1.8-2.3h-3.6c-1.1,0-1.8,1.2-1.8,2.3v18.9
				c0,1.1,0.7,2.3,1.8,2.3h3.6C249,80.1,249.8,78.9,249.8,77.8z"/>
			<path class="st0" d="M265.2,55.6V81H264h-0.2h-1.5l-5.8-24v24.1H255V55.6h1.2h0.3h1.1l6.2,24.5V55.6H265.2z"/>
		</g>
		<g>
			<polygon class="st1" points="106.4,97.4 106.3,97.4 106.4,97.3 106.5,97.4 			"/>
			<path class="st1" d="M125.4,35.8L125.4,35.8L125.4,35.8z"/>
			<path class="st1" d="M128.9,34.1L128.9,34.1L128.9,34.1z"/>
			<polygon class="st2" points="132.7,14.7 131,14.9 131.6,19.4 131.6,19.9 133.3,19.2 			"/>
			<polygon class="st2" points="125.7,21.3 124.5,20.2 121.6,20.6 123.8,22.9 125.4,22.3 126.4,21.9 			"/>
			<polygon class="st3" points="128.5,19.8 127.4,19.3 127.1,17.2 131,14.9 131.6,19.4 			"/>
			<polygon class="st4" points="129.8,13.8 126.9,16 126.6,17.6 127.1,17.2 131,14.9 			"/>
			<polygon class="st2" points="120.3,16.7 121.6,20.6 123.5,19.4 125.1,18.5 			"/>
			<polygon class="st2" points="127.9,23.2 126.4,21.9 127.7,21.4 			"/>
			<polygon class="st5" points="131.6,19.9 133.3,19.2 137.2,22.9 131.7,20.9 			"/>
			<polygon class="st6" points="128.5,19.8 130.3,20.4 127.7,21.4 127.5,19.9 			"/>
			<polygon class="st7" points="131.6,19.9 131.6,19.4 128.5,19.8 130.3,20.4 131.7,20.9 			"/>
			<path class="st8" d="M128.3,32.3l1.6,0.6l1.1,2.4l1.8,4l-3.9-5.2C128.9,34,128.3,32.3,128.3,32.3z"/>
			<polygon class="st9" points="135.4,37.7 135.7,38.5 132.9,39.3 131,35.3 			"/>
			<polygon class="st2" points="125.2,23.5 123.8,22.9 125.4,22.3 			"/>
			<polygon class="st10" points="126.6,17.6 127.1,17.2 127.4,19.3 126.2,18.9 			"/>
			<polygon class="st2" points="127.4,19.3 126.2,18.9 126,20.1 127.5,19.9 128.5,19.8 			"/>
			<polygon class="st2" points="124.5,15.5 120.3,16.7 125.1,18.5 126.2,18.9 126.6,17.6 126.9,16 			"/>
			<polygon class="st11" points="123.5,19.4 125.1,18.5 126.2,18.9 126,20.1 124.5,20.2 121.6,20.6 			"/>
			<polygon class="st12" points="126,20.1 127.5,19.9 127.7,21.4 126.4,21.9 125.7,21.3 124.5,20.2 			"/>
			<polygon class="st1" points="125.5,35.8 126,35.8 125.8,36 125.5,35.9 			"/>
			<polygon class="st13" points="121,56.4 119.4,62.1 118.5,65 114.6,78.7 113.5,79.2 113.5,78.3 112.8,75.9 118.3,62.8 119.1,61 
							"/>
			<polygon class="st14" points="126.5,39.1 127.8,39.1 132.5,43.2 131.5,53.3 			"/>
			<polygon class="st15" points="121,56.4 119.1,61 118.3,62.8 117.5,55.4 118.8,55.2 			"/>
			<polygon class="st5" points="123.6,23.9 121.6,30 116.7,29.5 			"/>
			<polygon class="st13" points="124.3,27.4 121.6,30 123.6,23.9 			"/>
			<polygon class="st2" points="123.8,22.9 125.2,23.5 124.3,27.4 123.6,23.9 			"/>
			<polygon class="st4" points="127.9,23.2 126.4,21.9 125.4,22.3 125.2,23.5 128.1,24.5 132.4,27 			"/>
			<polygon class="st2" points="127.7,21.4 130.3,20.4 131.7,20.9 132.4,27 127.9,23.2 			"/>
			<polygon class="st13" points="120.6,47.9 121.5,44.6 122.2,52.4 			"/>
			<polygon class="st16" points="122.6,73.8 122.7,75.2 119.7,76.5 118.5,65 119.4,62.1 			"/>
			<polygon class="st17" points="137.2,22.9 137.4,24.8 132.4,27 131.7,20.9 			"/>
			<polygon class="st18" points="104.2,93.4 97.5,86.1 103.6,87.8 			"/>
			<polygon class="st13" points="123.6,118.7 122.8,114.3 126.3,114.6 			"/>
			<polygon class="st15" points="128,121.8 123.6,118.7 126.3,114.6 			"/>
			<polygon class="st15" points="127.8,108.2 127.5,110 130.3,108.9 131.2,105.9 			"/>
			<polygon class="st19" points="105.3,86.8 104,85.3 109,84.8 			"/>
			<polygon class="st20" points="147.3,87.4 143.6,86 140.8,79.9 			"/>
			<polygon class="st20" points="152,93.3 148.5,92.3 150.9,91.8 			"/>
			<polygon class="st14" points="150.8,91.7 150.9,91.8 148.5,92.3 143.6,86 			"/>
			<polygon class="st13" points="148.5,92.3 147.2,93.2 143.6,86 			"/>
			<polygon class="st8" points="152.8,99 147.4,96.8 147.2,93.2 			"/>
			<polygon class="st21" points="106.8,87.1 105.3,86.8 109,84.8 			"/>
			<polygon class="st20" points="151,102 151.3,104 149.7,102.4 147.9,102.1 150.9,102 			"/>
			<polygon class="st13" points="152,105.6 144.9,107.5 147.9,103.3 			"/>
			<path class="st1" d="M106.5,97.4L106.5,97.4L106.5,97.4z"/>
			<path class="st22" d="M109.8,98.4l-3.4-0.9l0,0l-0.1-0.1l2.8-1.7C109.2,95.7,109.8,98.2,109.8,98.4z"/>
			<polygon class="st23" points="106.4,97.3 104.6,95.5 104.6,95.4 109.2,95.7 			"/>
			<polygon class="st15" points="108.5,103.4 106.9,100.4 105.2,98.7 106.4,97.4 106.5,97.4 			"/>
			<polygon class="st24" points="104.6,95.4 104.2,93.4 109.2,95.7 			"/>
			<path class="st13" d="M109.8,98.4c0,0.1-1,5.6-1,5.6l-0.3-0.6l-2-6L109.8,98.4z"/>
			<polygon class="st25" points="110,90.2 106.8,87.1 109,84.8 			"/>
			<polygon class="st15" points="109.6,92.7 105.8,89 110,90.2 			"/>
			<polygon class="st13" points="105.8,89 106.8,87.1 110,90.2 			"/>
			<polygon class="st22" points="97.5,86.1 99.1,83 104,85.3 			"/>
			<polygon class="st24" points="109.2,95.7 104.2,93.4 103.6,87.8 			"/>
			<polygon class="st13" points="130.3,64.6 121,56.4 121.1,53.4 122.2,52.4 			"/>
			<polygon class="st26" points="103.6,87.8 97.5,86.1 104,85.3 			"/>
			<polygon class="st20" points="133,30.5 134.4,30.5 138.1,30.1 134.5,32.9 140,32.1 141.5,33.2 141.5,34 134.3,32.9 			"/>
			<polygon class="st21" points="138.1,30.1 140.2,31.5 140,32.1 134.5,32.9 			"/>
			<polygon class="st27" points="133.7,32.8 133,30.5 132.6,31.6 131.4,32.4 133.8,33 			"/>
			<polygon class="st16" points="134.5,35.1 131.7,35.1 131.4,32.4 133.8,33 			"/>
			<polygon class="st9" points="136,35.8 142.2,36.8 137.4,38.1 			"/>
			<polygon class="st19" points="142.2,36.8 140.1,39.1 139.3,38.4 138,39.1 137.4,38.1 			"/>
			<polygon class="st28" points="137.4,38.1 138,39.1 136.5,38.3 			"/>
			<polygon class="st21" points="134.6,33.2 142.5,35.3 135.7,35.1 			"/>
			<polygon class="st14" points="134.3,32.9 141.5,34 142.5,35.3 134.6,33.2 			"/>
			<polygon class="st22" points="135.7,35.1 142.5,35.3 142.2,36.8 136,35.8 			"/>
			<polygon class="st9" points="144.3,81.4 140.8,79.9 140.2,77.3 			"/>
			<polygon class="st15" points="136.3,63.9 135.9,66 134.5,61.9 			"/>
			<polygon class="st15" points="138.4,63.1 137.1,61 136.3,63.9 138.5,65.5 			"/>
			<polygon class="st15" points="137.1,61 136.3,63.9 134.5,61.9 			"/>
			<polygon class="st9" points="138.5,68.1 140.3,74.2 138.2,74.4 			"/>
			<polygon class="st9" points="142.6,79.1 140.2,77.3 141.8,76.6 			"/>
			<polygon class="st9" points="135.7,38.5 135.4,37.7 136.5,38.3 			"/>
			<polygon class="st29" points="136.5,38.3 135.7,38.5 132.9,39.3 133.6,40.9 136,39.6 136.9,40.8 138,39.1 			"/>
			<polygon class="st21" points="131.7,35.1 134.5,35.1 134.7,35.5 135.4,37.7 131,35.3 			"/>
			<polygon class="st22" points="136,35.8 135.7,35.1 134.5,33.2 134.3,32.9 133,30.5 133.7,32.8 133.8,33 134.5,35.1 134.7,35.5 
				135.4,37.7 136.5,38.3 137.4,38.1 			"/>
			<polygon class="st8" points="135.9,66 133.7,66.4 134.5,61.9 			"/>
			<polygon class="st2" points="128.1,24.5 128.1,25.9 124.3,27.4 125.2,23.5 			"/>
			<polygon class="st13" points="113.4,82.6 112.2,82.8 110.8,80.3 112.1,79.8 			"/>
			<polygon class="st8" points="114.6,78.7 113.4,82.6 112.1,79.8 113.5,79.2 			"/>
			<polygon class="st8" points="91.8,54.4 95.1,45.4 92.7,54.2 			"/>
			<polygon class="st8" points="126.3,114.6 122.8,114.3 123.7,111.7 125.3,103 			"/>
			<polygon class="st5" points="112.8,75.9 110.5,75 105.7,82.4 115.3,52.6 			"/>
			<polygon class="st8" points="117.5,55.4 118.3,62.8 112.8,75.9 115.3,52.6 			"/>
			<polygon class="st27" points="115.3,52.6 105.7,82.4 107.1,51.9 			"/>
			<polygon class="st15" points="111.7,79 110.8,80.3 112.1,79.8 113.5,79.2 113.5,78.3 			"/>
			<polygon class="st8" points="131.2,105.9 131.2,89.9 135.2,91.6 			"/>
			<polygon class="st14" points="132.2,111 128.2,111.2 130.7,110.2 131.2,109.1 133.2,108.9 			"/>
			<path class="st10" d="M125.9,107.9l0.1-9.1c0,0-0.6-1.6-1.5-3.6l0.7,7.8l1.1,11.6l0.3-0.5L125.9,107.9z"/>
			<polygon class="st16" points="131.2,89.9 127.6,92 128.6,81.6 			"/>
			<polygon class="st16" points="135.2,91.6 131.2,89.9 136.1,88.3 			"/>
			<polygon class="st14" points="129.6,72.3 131.8,71.4 131.2,89.9 128.6,81.6 			"/>
			<polygon class="st13" points="135.6,103.6 134.8,105.3 134,107.1 131.2,105.9 			"/>
			<polygon class="st9" points="103.1,44.9 108,42.4 104.4,47.4 			"/>
			<polygon class="st8" points="97.8,58.1 95.3,63.9 98.2,70.1 104.2,68.3 			"/>
			<polygon class="st21" points="108,42.4 106.2,50.8 104.4,47.4 			"/>
			<polygon class="st14" points="102.6,50 106.2,50.8 102.6,52.8 			"/>
			<polygon class="st13" points="107.1,51.9 105.7,82.4 102.6,52.8 106.3,50.8 			"/>
			<path class="st13" d="M99.9,81.8C100,81.8,100,81.8,99.9,81.8C100,81.8,99.9,81.8,99.9,81.8c-0.7-0.2-8.8-2.9-8.8-2.9l1.5-3.4
				l11.3,9.8L99.1,83C99.1,83,99.7,81.9,99.9,81.8z"/>
			<path class="st15" d="M91.2,78.9c0,0,8,2.7,8.8,2.9c-0.2,0.1-0.8,1.2-0.8,1.2l-4-2.6L91.2,78.9z"/>
			<path class="st1" d="M100,81.8L100,81.8C99.9,81.8,100,81.8,100,81.8z"/>
			<polygon class="st8" points="96.4,72 97.8,71.4 98.2,70.1 105.7,82.4 92.7,75.5 			"/>
			<polygon class="st16" points="104.2,68.3 97.8,58.1 102.6,52.8 105.7,82.4 98.2,70.1 			"/>
			<polygon class="st25" points="109,84.8 104,85.3 92.7,75.5 105.7,82.4 			"/>
			<polygon class="st13" points="94.5,61 92.7,54.2 95.8,60.4 			"/>
			<polygon class="st16" points="92.7,54.2 95.1,45.4 95.8,60.4 			"/>
			<polygon class="st15" points="95.8,60.4 95.1,45.4 97.3,52.6 			"/>
			<polygon class="st13" points="102.3,43.4 104.9,38.2 108,42.4 103.1,44.9 			"/>
			<polygon class="st8" points="95.1,45.4 94.9,43.7 97.6,40.4 97.3,52.6 			"/>
			<polygon class="st15" points="91.5,65 92.5,60.6 94.5,61 			"/>
			<polygon class="st8" points="92.5,60.6 92.7,54.2 94.5,61 			"/>
			<polygon class="st5" points="98.8,37 100,46.6 100.9,46 102.3,43.4 104.9,38.2 			"/>
			<polygon class="st8" points="103.1,44.9 100.9,46 102.3,43.4 			"/>
			<polygon class="st13" points="91.5,61.3 92.7,54.2 92.5,60.6 			"/>
			<polygon class="st8" points="97.6,40.4 98.8,37 100,46.6 			"/>
			<polygon class="st13" points="98.9,50.8 97.3,52.6 97.6,40.4 100,46.6 			"/>
			<polygon class="st21" points="104.4,47.4 103.1,44.9 100.9,46 102.6,50 106.2,50.8 			"/>
			<polygon class="st16" points="134,67.9 133.7,66.4 134.5,61.9 132.2,58.9 131.1,57.4 130.3,64.6 132,66.1 			"/>
			<polygon class="st16" points="134,107.1 131.2,105.9 130.3,108.9 131.2,109.1 133.2,108.9 137.1,108.4 			"/>
			<polygon class="st22" points="132.7,43.4 134.2,44.7 134.5,52.7 134.8,60.7 134.5,61.9 132.3,55.7 			"/>
			<polygon class="st22" points="132.9,39.3 132.9,41.9 134.2,44.7 132.7,43.4 			"/>
			<polygon class="st8" points="138.1,108.3 137.1,108.4 134,107.1 134.8,105.3 137.9,104.8 			"/>
			<polygon class="st9" points="141,104.3 141.6,107.9 138.1,108.3 137.9,104.8 			"/>
			<polygon class="st14" points="127.8,39.1 132.9,39.3 132.5,43.2 			"/>
			<path class="st8" d="M125.4,35.8l1.9-2.5c0,0,1.4,0.8,1.6,0.8l-3.4,1.7H125.4z"/>
			<polygon class="st13" points="132.2,111 128.2,111.2 128,112.4 130.5,114.8 138.2,110.7 			"/>
			<path class="st16" d="M126,35.8h-0.5l3.4-1.7l0,0l3.9,5.2l-7.1-3.3L126,35.8z"/>
			<polygon class="st1" points="125.5,35.9 125.4,35.8 125.4,35.8 125.5,35.8 			"/>
			<polygon class="st8" points="116.7,29.5 121.6,30 120.1,32.5 			"/>
			<polygon class="st8" points="135.6,103.6 137.6,99.3 137.7,102.5 137.9,104.8 134.8,105.3 			"/>
			<polygon class="st16" points="125.4,35.8 125.4,35.8 124,35.8 118.1,35.8 121.3,38.9 124.9,36.6 125.5,36.2 			"/>
			<polygon class="st8" points="120.1,32.5 121.6,30 125.4,35.8 124,35.8 			"/>
			<polygon class="st13" points="118.1,35.8 116.7,29.5 120.1,32.5 			"/>
			<polygon class="st8" points="137.8,82.5 139.8,75.5 140.2,77.3 140.8,79.9 143.6,86 138.6,87.6 			"/>
			<polygon class="st8" points="150.9,102 147.4,96.8 147.3,97.5 145.8,103.6 147.9,103.3 147.9,102.1 			"/>
			<polygon class="st8" points="143.6,86 147.4,96.8 140.1,93.7 			"/>
			<polygon class="st9" points="147.9,103.3 144.9,107.5 145.8,103.6 			"/>
			<polygon class="st16" points="140.5,101 139.6,94.8 140.1,93.7 147.4,96.8 147.3,97.5 			"/>
			<polygon class="st15" points="142,110.5 138.2,110.7 138.1,108.9 			"/>
			<polygon class="st16" points="133.2,108.9 137.1,108.4 138.1,108.9 138.2,110.7 132.2,111 			"/>
			<polygon class="st20" points="141,104.3 145.8,103.6 144.9,107.5 141.6,107.9 			"/>
			<polygon class="st16" points="144.9,107.5 142,110.5 141.6,107.9 			"/>
			<polygon class="st20" points="138.2,74.4 140.3,74.2 140.2,75.7 139.8,75.5 			"/>
			<polygon class="st27" points="137.2,92.4 137.2,92.4 136.9,88.1 136.8,86 136.1,88.3 135.2,91.6 135.2,91.6 131.2,105.9 
				135.6,103.6 137.6,99.3 			"/>
			<polygon class="st13" points="143.6,86 140.1,93.7 139.6,94.8 139.4,93.4 138.6,87.6 			"/>
			<polygon class="st13" points="141,104.3 137.9,104.8 137.7,102.5 137.6,99.3 137.2,92.4 136.9,88.1 136.8,86 135.9,69.6 
				138.2,74.4 139.8,75.5 137.8,82.5 138.6,87.6 139.4,93.4 139.6,94.8 140.5,101 			"/>
			<polygon class="st27" points="141.8,76.6 140.2,77.3 139.8,75.5 			"/>
			<polygon class="st8" points="147.2,93.2 147.4,96.8 143.6,86 			"/>
			<polygon class="st13" points="124.9,49.2 121.3,38.9 121.5,44.6 122.2,52.4 130.3,64.6 			"/>
			<polygon class="st7" points="132.5,43.2 132.5,43.2 131.5,53.3 131.1,57.4 132.2,58.9 132.3,55.7 132.7,43.4 132.9,39.3 			"/>
			<path class="st1" d="M130.3,64.6L130.3,64.6L130.3,64.6z"/>
			<polygon class="st8" points="131.5,53.3 131.1,57.4 124.9,49.2 121.3,38.9 124.9,36.6 125.5,36.2 126,37.6 126.5,39.1 			"/>
			<polygon class="st1" points="125.5,35.9 125.5,35.9 125.5,35.9 125.8,36 125.5,36.2 125.4,35.8 			"/>
			<polygon class="st7" points="132.3,55.7 134.5,61.9 132.2,58.9 			"/>
			<polygon class="st16" points="125.8,36 125.5,36.2 126,37.6 126.5,39.1 127.8,39.1 132.9,39.3 			"/>
			<polygon class="st20" points="138.1,108.3 141.6,107.9 142,110.5 138.1,108.9 137.1,108.4 			"/>
			<polygon class="st14" points="135.9,69.6 136.8,86 136.1,88.3 131.2,89.9 131.8,71.4 			"/>
			<polygon class="st14" points="135.9,69.6 131.8,71.4 129.6,72.3 126.3,73.7 122.7,75.2 122.6,73.8 121,56.4 130.3,64.6 132,66.1 
							"/>
			<polygon class="st13" points="119.4,62.1 121,56.4 122.6,73.8 			"/>
			<polygon class="st8" points="114.6,78.7 118.5,65 119.7,76.5 			"/>
			<polygon class="st27" points="147.3,97.5 145.8,103.6 141,104.3 140.5,101 			"/>
			<polygon class="st7" points="124.9,49.2 131.1,57.4 130.3,64.6 			"/>
			<polygon class="st8" points="124,35.8 118.1,35.8 120.1,32.5 			"/>
			<path class="st8" d="M125.3,103l-1.6,8.7l-0.4-5.4l-0.2-3.3v-0.1l0,0l-3.7-11.6l1.7-1.9l0.3-0.3l-0.4-0.5l-2.3-3.1l-1.2-1.6
				l2.7-2.6l2.8-2.7l0.1,1.5l1.4,15.2l0,0L125.3,103z"/>
			<path class="st9" d="M129.6,72.3l-0.9,9.3l-1,10.4l-1.6,6.8c0,0-0.6-1.6-1.5-3.6L123.2,80l-0.1-1.5l0.7-0.7L129.6,72.3z"/>
			<polygon class="st3" points="129.6,72.3 123.7,77.9 123,78.5 120.2,81.2 117.5,83.8 116.6,84.4 115.5,88.5 113.7,85.6 
				113.4,82.6 114.6,78.7 119.7,76.5 122.7,75.2 122.9,75.1 126.3,73.7 			"/>
		</g>
	</g>
</g>
<g id="Layer_3">
</g>
<g id="Isolation_Mode">
	<g>
		<path class="st30" d="M209.2,108.5v-3.2l2.3-3c3-3.9,5.5-7.1,5.5-10.4c0-1.9-1-3.2-3-3.2c-1.5,0-2.7,0.6-3.5,1.2l-0.9-3.6
			c1.1-0.7,3.1-1.5,5.2-1.5c5.1,0,6.8,3.4,6.8,6.8c0,4.4-2.7,7.9-5.4,11.1l-1.4,1.7v0.1h7.2v4.1L209.2,108.5L209.2,108.5z"/>
		<path class="st30" d="M237.7,96.7c0,8.4-3.1,12.1-6.8,12.1c-5.1,0-6.8-5.9-6.8-11.9c0-6.7,2.2-12.1,7-12.1
			C236.5,84.8,237.7,91.1,237.7,96.7z M228.8,96.8c-0.1,5.5,0.6,8,2.2,8c1.4,0,2-2.6,2-8c0-5-0.5-8-2-8S228.7,91.3,228.8,96.8z"/>
		<path class="st30" d="M239.2,108.5v-3.2l2.3-3c3-3.9,5.5-7.1,5.5-10.4c0-1.9-1-3.2-3-3.2c-1.5,0-2.7,0.6-3.5,1.2l-0.9-3.6
			c1.1-0.7,3.1-1.5,5.2-1.5c5.1,0,6.8,3.4,6.8,6.8c0,4.4-2.7,7.9-5.4,11.1l-1.4,1.7v0.1h7.2v4.1L239.2,108.5L239.2,108.5z"/>
		<path class="st30" d="M267.7,96.7c0,8.4-3.1,12.1-6.8,12.1c-5.1,0-6.8-5.9-6.8-11.9c0-6.7,2.2-12.1,7-12.1
			C266.5,84.8,267.7,91.1,267.7,96.7z M258.8,96.8c-0.1,5.5,0.6,8,2.2,8c1.4,0,2-2.6,2-8c0-5-0.5-8-2-8S258.7,91.3,258.8,96.8z"/>
	</g>
</g>
<g id="Layer_4">
</g>
<g id="logo">
</g>
</svg>
