<?xml version="1.0" encoding="utf-8"?>
<!-- Generator: Adobe Illustrator 18.1.1, SVG Export Plug-In . SVG Version: 6.00 Build 0)  -->
<svg version="1.1" baseProfile="basic" xmlns="http://www.w3.org/2000/svg" xmlns:xlink="http://www.w3.org/1999/xlink" x="0px"
	 y="0px" width="294.1px" height="135.4px" viewBox="0 0 294.1 135.4" xml:space="preserve">
<g id="Layer_1">
</g>
<g id="facets">
	<g>
		<g>
			<path d="M45.8,71.5l2.4-16.1h5.1L48.8,81h-5.2l-3-15.1l-3,15.1h-5.2l-4.6-25.6h5.2l2.4,16.1l3-16.1h4.3L45.8,71.5z"/>
			<path d="M62.1,66.9l3.8-11.5h5.6l-6.9,16.3V81h-5.2v-9.3l-6.9-16.3h5.6L62.1,66.9z"/>
			<path d="M88.2,70.5c0,3.4-0.8,6.1-2.4,8s-3.9,2.8-6.8,2.8c-2.9,0-5.1-0.9-6.8-2.8s-2.5-4.5-2.5-7.9v-4.4c0-3.5,0.8-6.3,2.4-8.2
				s3.9-3,6.8-3c2.8,0,5.1,1,6.7,2.9s2.5,4.7,2.5,8.2V70.5z M83,66.2c0-2.3-0.3-4-1-5.2c-0.7-1.1-1.7-1.7-3.1-1.7
				c-1.4,0-2.4,0.5-3,1.6c-0.7,1.1-1,2.7-1,4.9v4.6c0,2.2,0.3,3.9,1,4.9S77.6,77,79,77c1.3,0,2.3-0.5,3-1.6s1-2.6,1-4.8V66.2z"/>
		</g>
		<g>
			<path d="M157.9,55.6V81h-1.5V67.9h-7.3V81h-1.5V55.6h1.5v11.3h7.3V55.6H157.9z"/>
			<path d="M169.8,72.6h-5.7l-1.5,8.4h-1.4l4.7-25.4h0.8h0.5h0.8l4.7,25.4h-1.4L169.8,72.6z M169.6,71.5L166.9,57l-2.7,14.6H169.6z"
				/>
			<path d="M184.1,63.6v-4.7c0-1.1-0.7-2.3-1.8-2.3h-3.3c-1.1,0-1.8,1.2-1.8,2.3v18.9c0,1.1,0.7,2.2,1.8,2.2h3.3
				c1.1,0,1.8-1.1,1.8-2.2v-5.4h1.5v5.4c0,1.8-1.4,3.4-3.1,3.4h-3.4c-1.8,0-3.3-1.6-3.3-3.4V58.9c0-1.8,1.5-3.4,3.3-3.4h3.3
				c1.8,0,3.3,1.6,3.3,3.4v4.7H184.1z"/>
			<path d="M192.6,67.4l-2,3.9V81h-1.4V55.6h1.4v12.9l6.6-12.9h1.5l-5.3,10.3L199,81h-1.5L192.6,67.4z"/>
			<path d="M210.2,72.6h-5.7L203,81h-1.4l4.7-25.4h0.8h0.5h0.8l4.7,25.4h-1.4L210.2,72.6z M210,71.5L207.4,57l-2.7,14.6H210z"/>
			<path d="M224.1,56.7h-4.7V81H218V56.7h-4.8v-1.1h4.8h1.4h4.7V56.7z"/>
			<path d="M237.2,55.6V81h-1.5V67.9h-7.3V81H227V55.6h1.5v11.3h7.3V55.6H237.2z"/>
			<path d="M251.2,58.9v18.9c0,1.8-1.5,3.4-3.3,3.4h-3.6c-1.8,0-3.3-1.6-3.3-3.4V58.9c0-1.8,1.5-3.4,3.3-3.4h3.6
				C249.7,55.5,251.2,57.1,251.2,58.9z M249.8,77.7V58.9c0-1.1-0.8-2.3-1.8-2.3h-3.6c-1.1,0-1.8,1.2-1.8,2.3v18.9
				c0,1.1,0.7,2.3,1.8,2.3h3.6C249,80,249.8,78.8,249.8,77.7z"/>
			<path d="M265.2,55.6V81H264h-0.2h-1.5l-5.8-24.1V81H255V55.6h1.2h0.3h1.1l6.2,24.5V55.6H265.2z"/>
		</g>
		<g>
			<polygon fill="none" stroke="#FFFFFF" stroke-width="0.25" stroke-miterlimit="10" points="106.6,97.4 106.5,97.4 106.6,97.3 
				106.7,97.4 			"/>
			<polygon fill="none" stroke="#FFFFFF" stroke-width="0.25" stroke-miterlimit="10" points="125.6,35.8 125.6,35.8 125.6,35.8 			
				"/>
			<path fill="none" stroke="#FFFFFF" stroke-width="0.25" stroke-miterlimit="10" d="M129.1,34.1L129.1,34.1
				C129.1,34.1,129.1,34.1,129.1,34.1z"/>
			<polygon fill="#939598" stroke="#FFFFFF" stroke-width="0.25" stroke-miterlimit="10" points="132.9,14.7 131.2,14.9 131.8,19.4 
				131.8,19.9 133.5,19.2 			"/>
			<polygon fill="#A7A9AC" stroke="#FFFFFF" stroke-width="0.25" stroke-miterlimit="10" points="125.9,21.3 124.7,20.2 121.8,20.6 
				124,22.9 125.7,22.3 126.6,21.9 			"/>
			<polygon fill="#D1D3D4" stroke="#FFFFFF" stroke-width="0.25" stroke-miterlimit="10" points="128.8,19.8 127.6,19.3 127.3,17.2 
				131.2,14.9 131.8,19.4 			"/>
			<polygon fill="#808285" stroke="#FFFFFF" stroke-width="0.25" stroke-miterlimit="10" points="130.1,13.8 127.1,16 126.8,17.6 
				127.3,17.2 131.2,14.9 			"/>
			<polygon fill="#939598" stroke="#FFFFFF" stroke-width="0.25" stroke-miterlimit="10" points="120.6,16.7 121.8,20.6 123.7,19.4 
				125.3,18.5 			"/>
			<polygon fill="#A7A9AC" stroke="#FFFFFF" stroke-width="0.25" stroke-miterlimit="10" points="128.1,23.2 126.6,21.9 127.9,21.4 
							"/>
			<polygon fill="#58595B" stroke="#FFFFFF" stroke-width="0.25" stroke-miterlimit="10" points="131.8,19.9 133.5,19.2 137.4,22.9 
				131.9,20.9 			"/>
			<polygon fill="#C8C8C8" stroke="#FFFFFF" stroke-width="0.25" stroke-miterlimit="10" points="128.8,19.8 130.5,20.4 127.9,21.4 
				127.7,19.9 			"/>
			<polygon fill="#E6E7E8" stroke="#FFFFFF" stroke-width="0.25" stroke-miterlimit="10" points="131.8,19.9 131.8,19.4 128.8,19.8 
				130.5,20.4 131.9,20.9 			"/>
			<path fill="#A7A9AC" stroke="#FFFFFF" stroke-width="0.25" stroke-miterlimit="10" d="M128.5,32.3l1.6,0.6l1.1,2.4l1.8,4
				l-3.9-5.2C129.1,34,128.5,32.3,128.5,32.3z"/>
			<polygon fill="#E6E7E8" stroke="#FFFFFF" stroke-width="0.25" stroke-miterlimit="10" points="135.6,37.7 135.9,38.5 133.1,39.3 
				131.2,35.3 			"/>
			<polygon fill="#BCBEC0" stroke="#FFFFFF" stroke-width="0.25" stroke-miterlimit="10" points="125.4,23.5 124,22.9 125.7,22.3 
							"/>
			<polygon fill="#E6E7E8" stroke="#FFFFFF" stroke-width="0.25" stroke-miterlimit="10" points="126.8,17.6 127.3,17.2 127.6,19.3 
				126.5,18.9 			"/>
			<polygon fill="#A7A9AC" stroke="#FFFFFF" stroke-width="0.25" stroke-miterlimit="10" points="127.6,19.3 126.5,18.9 126.2,20.1 
				127.7,19.9 128.8,19.8 			"/>
			<polygon fill="#A7A9AC" stroke="#FFFFFF" stroke-width="0.25" stroke-miterlimit="10" points="124.7,15.5 120.6,16.7 125.3,18.5 
				126.5,18.9 126.8,17.6 127.1,16 			"/>
			<polygon fill="#6D6E71" stroke="#FFFFFF" stroke-width="0.25" stroke-miterlimit="10" points="123.7,19.4 125.3,18.5 126.5,18.9 
				126.2,20.1 124.7,20.2 121.8,20.6 			"/>
			<polygon fill="#58595B" stroke="#FFFFFF" stroke-width="0.25" stroke-miterlimit="10" points="126.2,20.1 127.7,19.9 127.9,21.4 
				126.6,21.9 125.9,21.3 124.7,20.2 			"/>
			<polygon fill="none" stroke="#FFFFFF" stroke-width="0.25" stroke-miterlimit="10" points="125.7,35.8 126.2,35.8 126,36 
				125.7,35.9 			"/>
			<polygon fill="#414042" stroke="#FFFFFF" stroke-width="0.25" stroke-miterlimit="10" points="121.2,56.4 119.6,62.1 118.7,65 
				114.8,78.7 113.7,79.2 113.7,78.3 113,75.9 118.5,62.8 119.3,61 			"/>
			<polygon fill="#C8C8C8" stroke="#FFFFFF" stroke-width="0.25" stroke-miterlimit="10" points="126.8,39.1 128,39.1 132.7,43.2 
				131.7,53.3 			"/>
			<polygon stroke="#FFFFFF" stroke-width="0.25" stroke-miterlimit="10" points="121.2,56.4 119.3,61 118.5,62.8 117.7,55.4 
				119,55.2 			"/>
			<polygon fill="#6D6E71" stroke="#FFFFFF" stroke-width="0.25" stroke-miterlimit="10" points="123.8,23.9 121.8,30 116.9,29.5 
							"/>
			<polygon fill="#939598" stroke="#FFFFFF" stroke-width="0.25" stroke-miterlimit="10" points="124.5,27.4 121.8,30 123.8,23.9 
							"/>
			<polygon fill="#BCBEC0" stroke="#FFFFFF" stroke-width="0.25" stroke-miterlimit="10" points="124,22.9 125.4,23.5 124.5,27.4 
				123.8,23.9 			"/>
			<polygon fill="#808285" stroke="#FFFFFF" stroke-width="0.25" stroke-miterlimit="10" points="128.1,23.2 126.6,21.9 125.7,22.3 
				125.4,23.5 128.3,24.5 132.6,27 			"/>
			<polygon fill="#C8C8C8" stroke="#FFFFFF" stroke-width="0.25" stroke-miterlimit="10" points="127.9,21.4 130.5,20.4 131.9,20.9 
				132.6,27 128.1,23.2 			"/>
			<polygon fill="#939598" stroke="#FFFFFF" stroke-width="0.25" stroke-miterlimit="10" points="120.9,47.9 121.7,44.6 122.4,52.4 
							"/>
			<polygon fill="#58595B" stroke="#FFFFFF" stroke-width="0.25" stroke-miterlimit="10" points="122.8,73.8 122.9,75.2 119.9,76.5 
				118.7,65 119.6,62.1 			"/>
			<polygon fill="#414042" stroke="#FFFFFF" stroke-width="0.25" stroke-miterlimit="10" points="137.4,22.9 137.6,24.8 132.6,27 
				131.9,20.9 			"/>
			<polygon fill="#E6E7E8" stroke="#FFFFFF" stroke-width="0.25" stroke-miterlimit="10" points="104.4,93.4 97.8,86.1 103.9,87.8 
							"/>
			<polygon fill="#6D6E71" stroke="#FFFFFF" stroke-width="0.25" stroke-miterlimit="10" points="123.8,118.7 123,114.3 
				126.5,114.6 			"/>
			<polygon stroke="#FFFFFF" stroke-width="0.25" stroke-miterlimit="10" points="128.2,121.8 123.8,118.7 126.5,114.6 			"/>
			<polygon fill="#939598" stroke="#FFFFFF" stroke-width="0.25" stroke-miterlimit="10" points="128,108.2 127.7,110 130.5,108.9 
				131.4,105.9 			"/>
			<polygon fill="#E6E7E8" stroke="#FFFFFF" stroke-width="0.25" stroke-miterlimit="10" points="105.5,86.8 104.2,85.3 109.3,84.8 
							"/>
			<polygon fill="#6D6E71" stroke="#FFFFFF" stroke-width="0.25" stroke-miterlimit="10" points="147.5,87.4 143.8,86 141,79.9 			
				"/>
			<polygon fill="#6D6E71" stroke="#FFFFFF" stroke-width="0.25" stroke-miterlimit="10" points="152.2,93.3 148.7,92.3 151.1,91.8 
							"/>
			<polygon fill="#C8C8C8" stroke="#FFFFFF" stroke-width="0.25" stroke-miterlimit="10" points="151,91.7 151.1,91.8 148.7,92.3 
				143.8,86 			"/>
			<polygon fill="#939598" stroke="#FFFFFF" stroke-width="0.25" stroke-miterlimit="10" points="148.7,92.3 147.4,93.2 143.8,86 
							"/>
			<polygon fill="#A7A9AC" stroke="#FFFFFF" stroke-width="0.25" stroke-miterlimit="10" points="153,99 147.6,96.8 147.4,93.2 			
				"/>
			<polygon fill="#F1F2F2" stroke="#FFFFFF" stroke-width="0.25" stroke-miterlimit="10" points="107,87.1 105.5,86.8 109.3,84.8 
							"/>
			<polygon fill="#6D6E71" stroke="#FFFFFF" stroke-width="0.25" stroke-miterlimit="10" points="151.2,102 151.5,104 149.9,102.4 
				148.1,102.1 151.2,102 			"/>
			<polygon fill="#939598" stroke="#FFFFFF" stroke-width="0.25" stroke-miterlimit="10" points="152.2,105.6 145.1,107.5 
				148.1,103.3 			"/>
			<polygon fill="none" stroke="#FFFFFF" stroke-width="0.25" stroke-miterlimit="10" points="106.7,97.4 106.6,97.4 106.7,97.4 			
				"/>
			<path fill="#E6E7E8" stroke="#FFFFFF" stroke-width="0.25" stroke-miterlimit="10" d="M110.1,98.4l-3.4-0.9l0,0l-0.1-0.1l2.8-1.7
				C109.5,95.7,110,98.2,110.1,98.4z"/>
			<polygon fill="#D1D3D4" stroke="#FFFFFF" stroke-width="0.25" stroke-miterlimit="10" points="106.6,97.3 104.8,95.5 104.8,95.4 
				109.5,95.7 			"/>
			<polygon stroke="#FFFFFF" stroke-width="0.25" stroke-miterlimit="10" points="108.7,103.4 107.1,100.4 105.5,98.7 106.6,97.4 
				106.7,97.4 			"/>
			<polygon fill="#F1F2F2" stroke="#FFFFFF" stroke-width="0.25" stroke-miterlimit="10" points="104.8,95.4 104.4,93.4 109.5,95.7 
							"/>
			<path fill="#808285" stroke="#FFFFFF" stroke-width="0.25" stroke-miterlimit="10" d="M110.1,98.4c0,0.1-1,5.6-1,5.6l-0.3-0.6
				l-2-6L110.1,98.4z"/>
			<polygon fill="#FFFFFF" stroke="#FFFFFF" stroke-width="0.25" stroke-miterlimit="10" points="110.3,90.2 107,87.1 109.3,84.8 
							"/>
			<polygon fill="#414042" stroke="#FFFFFF" stroke-width="0.25" stroke-miterlimit="10" points="109.8,92.7 106,89 110.3,90.2 			
				"/>
			<polygon fill="#A7A9AC" stroke="#FFFFFF" stroke-width="0.25" stroke-miterlimit="10" points="106,89 107,87.1 110.3,90.2 			"/>
			<polygon fill="#E6E7E8" stroke="#FFFFFF" stroke-width="0.25" stroke-miterlimit="10" points="97.8,86.1 99.4,83 104.2,85.3 			
				"/>
			<polygon fill="#E6E7E8" stroke="#FFFFFF" stroke-width="0.25" stroke-miterlimit="10" points="109.5,95.7 104.4,93.4 103.9,87.8 
							"/>
			<polygon fill="#939598" stroke="#FFFFFF" stroke-width="0.25" stroke-miterlimit="10" points="130.5,64.6 121.2,56.4 121.3,53.4 
				122.4,52.4 130.5,64.6 			"/>
			<polygon fill="#F1F2F2" stroke="#FFFFFF" stroke-width="0.25" stroke-miterlimit="10" points="103.9,87.8 97.8,86.1 104.2,85.3 
							"/>
			<polygon fill="#6D6E71" stroke="#FFFFFF" stroke-width="0.25" stroke-miterlimit="10" points="133.2,30.5 134.6,30.5 138.3,30.1 
				134.7,32.9 140.3,32.1 141.7,33.2 141.7,34 134.6,32.9 			"/>
			<polygon fill="#D1D3D4" stroke="#FFFFFF" stroke-width="0.25" stroke-miterlimit="10" points="138.3,30.1 140.4,31.5 140.3,32.1 
				134.7,32.9 			"/>
			<polygon fill="#58595B" stroke="#FFFFFF" stroke-width="0.25" stroke-miterlimit="10" points="133.9,32.8 133.2,30.5 132.8,31.6 
				131.6,32.4 134,33 			"/>
			<polygon fill="#414042" stroke="#FFFFFF" stroke-width="0.25" stroke-miterlimit="10" points="134.7,35.1 132,35.1 131.6,32.4 
				134,33 			"/>
			<polygon fill="#D1D3D4" stroke="#FFFFFF" stroke-width="0.25" stroke-miterlimit="10" points="136.2,35.8 142.4,36.8 137.6,38.1 
							"/>
			<polygon fill="#BCBEC0" stroke="#FFFFFF" stroke-width="0.25" stroke-miterlimit="10" points="142.4,36.8 140.3,39.1 139.6,38.4 
				138.2,39.1 137.6,38.1 			"/>
			<polygon fill="#D1D3D4" stroke="#FFFFFF" stroke-width="0.25" stroke-miterlimit="10" points="137.6,38.1 138.2,39.1 136.7,38.3 
							"/>
			<polygon fill="#A7A9AC" stroke="#FFFFFF" stroke-width="0.25" stroke-miterlimit="10" points="134.8,33.2 142.8,35.3 135.9,35.1 
							"/>
			<polygon fill="#D1D3D4" stroke="#FFFFFF" stroke-width="0.25" stroke-miterlimit="10" points="134.6,32.9 141.7,34 142.8,35.3 
				134.8,33.2 			"/>
			<polygon fill="#F1F2F2" stroke="#FFFFFF" stroke-width="0.25" stroke-miterlimit="10" points="135.9,35.1 142.8,35.3 142.4,36.8 
				136.2,35.8 			"/>
			<polygon fill="#D7D7D7" stroke="#FFFFFF" stroke-width="0.25" stroke-miterlimit="10" points="144.5,81.4 141,79.9 140.4,77.3 
							"/>
			<polygon fill="#58595B" stroke="#FFFFFF" stroke-width="0.25" stroke-miterlimit="10" points="136.5,63.9 136.1,66 134.7,61.9 
							"/>
			<polygon stroke="#FFFFFF" stroke-width="0.25" stroke-miterlimit="10" points="138.6,63.1 137.3,61 136.5,63.9 138.7,65.5 			"/>
			<polygon fill="#414042" stroke="#FFFFFF" stroke-width="0.25" stroke-miterlimit="10" points="137.3,61 136.5,63.9 134.7,61.9 
							"/>
			<polygon fill="#D7D7D7" stroke="#FFFFFF" stroke-width="0.25" stroke-miterlimit="10" points="138.7,68.1 140.5,74.2 138.4,74.4 
							"/>
			<polygon fill="#58595B" stroke="#FFFFFF" stroke-width="0.25" stroke-miterlimit="10" points="142.9,79.1 140.4,77.3 142,76.6 
							"/>
			<polygon fill="#F1F2F2" stroke="#FFFFFF" stroke-width="0.25" stroke-miterlimit="10" points="135.9,38.5 135.6,37.7 136.7,38.3 
							"/>
			<polygon fill="#BCBEC0" stroke="#FFFFFF" stroke-width="0.25" stroke-miterlimit="10" points="136.7,38.3 135.9,38.5 133.1,39.3 
				133.8,40.9 136.2,39.6 137.2,40.8 138.2,39.1 			"/>
			<polygon fill="#D1D3D4" stroke="#FFFFFF" stroke-width="0.25" stroke-miterlimit="10" points="132,35.1 134.7,35.1 134.9,35.5 
				135.6,37.7 131.2,35.3 			"/>
			<polygon fill="#E6E7E8" stroke="#FFFFFF" stroke-width="0.25" stroke-miterlimit="10" points="136.2,35.8 135.9,35.1 134.8,33.2 
				134.6,32.9 133.2,30.5 133.9,32.8 134,33 134.7,35.1 134.9,35.5 135.6,37.7 136.7,38.3 137.6,38.1 			"/>
			<polygon fill="#939598" stroke="#FFFFFF" stroke-width="0.25" stroke-miterlimit="10" points="136.1,66 133.9,66.4 134.7,61.9 
							"/>
			<polygon fill="#A7A9AC" stroke="#FFFFFF" stroke-width="0.25" stroke-miterlimit="10" points="128.3,24.5 128.3,25.9 124.5,27.4 
				125.4,23.5 			"/>
			<polygon fill="#6D6E71" stroke="#FFFFFF" stroke-width="0.25" stroke-miterlimit="10" points="113.7,82.6 112.4,82.8 111,80.3 
				112.3,79.8 			"/>
			<polygon fill="#808285" stroke="#FFFFFF" stroke-width="0.25" stroke-miterlimit="10" points="114.8,78.7 113.7,82.6 112.3,79.8 
				113.7,79.2 			"/>
			<polygon fill="#A7A9AC" stroke="#FFFFFF" stroke-width="0.25" stroke-miterlimit="10" points="92,54.4 95.3,45.4 93,54.2 			"/>
			<polygon fill="#BCBEC0" stroke="#FFFFFF" stroke-width="0.25" stroke-miterlimit="10" points="126.5,114.6 123,114.3 
				123.9,111.7 125.5,103 			"/>
			<polygon fill="#6D6E71" stroke="#FFFFFF" stroke-width="0.25" stroke-miterlimit="10" points="113,75.9 110.7,75 105.9,82.4 
				115.6,52.6 			"/>
			<polygon fill="#A7A9AC" stroke="#FFFFFF" stroke-width="0.25" stroke-miterlimit="10" points="117.7,55.4 118.5,62.8 113,75.9 
				115.6,52.6 			"/>
			<polygon fill="#58595B" stroke="#FFFFFF" stroke-width="0.25" stroke-miterlimit="10" points="115.6,52.6 105.9,82.4 107.3,51.9 
							"/>
			<polygon stroke="#FFFFFF" stroke-width="0.25" stroke-miterlimit="10" points="111.9,79 111,80.3 112.3,79.8 113.7,79.2 
				113.7,78.3 			"/>
			<polygon fill="#959595" stroke="#FFFFFF" stroke-width="0.25" stroke-miterlimit="10" points="131.4,105.9 131.4,89.9 
				135.4,91.6 			"/>
			<polygon fill="#D1D3D4" stroke="#FFFFFF" stroke-width="0.25" stroke-miterlimit="10" points="132.4,111 128.4,111.2 
				130.9,110.2 131.4,109.1 133.4,108.9 			"/>
			<path fill="#E6E7E8" stroke="#FFFFFF" stroke-width="0.25" stroke-miterlimit="10" d="M126.1,107.9l0.1-9.1c0,0-0.6-1.6-1.5-3.6
				l0.7,7.8l1.1,11.6l0.3-0.5L126.1,107.9z"/>
			<polygon fill="#808285" stroke="#FFFFFF" stroke-width="0.25" stroke-miterlimit="10" points="131.4,89.9 127.8,92 128.8,81.6 
							"/>
			<polygon fill="#58595B" stroke="#FFFFFF" stroke-width="0.25" stroke-miterlimit="10" points="135.4,91.6 131.4,89.9 136.4,88.3 
							"/>
			<polygon fill="#BCBEC0" stroke="#FFFFFF" stroke-width="0.25" stroke-miterlimit="10" points="129.8,72.3 132,71.4 131.4,89.9 
				128.8,81.6 			"/>
			<polygon fill="#939598" stroke="#FFFFFF" stroke-width="0.25" stroke-miterlimit="10" points="135.8,103.6 135,105.3 
				134.2,107.1 131.4,105.9 			"/>
			<polygon fill="#BCBEC0" stroke="#FFFFFF" stroke-width="0.25" stroke-miterlimit="10" points="103.3,44.9 108.2,42.4 104.7,47.4 
							"/>
			<polygon fill="#858585" stroke="#FFFFFF" stroke-width="0.25" stroke-miterlimit="10" points="98.1,58.1 95.5,63.9 98.4,70.1 
				104.4,68.3 			"/>
			<polygon fill="#E6E7E8" stroke="#FFFFFF" stroke-width="0.25" stroke-miterlimit="10" points="108.2,42.4 106.5,50.8 104.7,47.4 
							"/>
			<polygon fill="#D1D3D4" stroke="#FFFFFF" stroke-width="0.25" stroke-miterlimit="10" points="102.8,50 106.5,50.8 102.8,52.8 
							"/>
			<polygon stroke="#FFFFFF" stroke-width="0.25" stroke-miterlimit="10" points="107.3,51.9 105.9,82.4 102.8,52.8 106.5,50.8 			
				"/>
			<path fill="#939598" stroke="#FFFFFF" stroke-width="0.25" stroke-miterlimit="10" d="M100.1,81.8
				C100.2,81.8,100.2,81.8,100.1,81.8C100.2,81.8,100.1,81.8,100.1,81.8c-0.7-0.2-8.8-2.9-8.8-2.9l1.5-3.4l11.3,9.8L99.4,83
				C99.4,83,99.9,81.9,100.1,81.8z"/>
			<path fill="#58595B" stroke="#FFFFFF" stroke-width="0.25" stroke-miterlimit="10" d="M91.4,78.9c0,0,8,2.7,8.8,2.9
				c-0.2,0.1-0.8,1.2-0.8,1.2l-4-2.6L91.4,78.9z"/>
			<path fill="none" stroke="#FFFFFF" stroke-width="0.25" stroke-miterlimit="10" d="M100.2,81.8C100.2,81.8,100.2,81.8,100.2,81.8
				C100.1,81.8,100.2,81.8,100.2,81.8z"/>
			<polygon fill="#A7A9AC" stroke="#FFFFFF" stroke-width="0.25" stroke-miterlimit="10" points="96.6,72 98,71.4 98.4,70.1 
				105.9,82.4 92.9,75.5 			"/>
			<polygon fill="#414042" stroke="#FFFFFF" stroke-width="0.25" stroke-miterlimit="10" points="104.4,68.3 98.1,58.1 102.8,52.8 
				105.9,82.4 98.4,70.1 			"/>
			<polygon fill="#FFFFFF" stroke="#FFFFFF" stroke-width="0.25" stroke-miterlimit="10" points="109.3,84.8 104.2,85.3 92.9,75.5 
				105.9,82.4 			"/>
			<polygon fill="#939598" stroke="#FFFFFF" stroke-width="0.25" stroke-miterlimit="10" points="94.7,61 93,54.2 96,60.4 			"/>
			<polygon fill="#414042" stroke="#FFFFFF" stroke-width="0.25" stroke-miterlimit="10" points="93,54.2 95.3,45.4 96,60.4 			"/>
			<polygon stroke="#FFFFFF" stroke-width="0.25" stroke-miterlimit="10" points="96,60.4 95.3,45.4 97.6,52.6 			"/>
			<polygon fill="#E6E7E8" stroke="#FFFFFF" stroke-width="0.25" stroke-miterlimit="10" points="102.5,43.4 105.2,38.2 108.2,42.4 
				103.3,44.9 			"/>
			<polygon fill="#A7A9AC" stroke="#FFFFFF" stroke-width="0.25" stroke-miterlimit="10" points="95.3,45.4 95.1,43.7 97.8,40.4 
				97.6,52.6 			"/>
			<polygon fill="#3E3E3E" stroke="#FFFFFF" stroke-width="0.25" stroke-miterlimit="10" points="91.7,65 92.7,60.6 94.7,61 			"/>
			<polygon fill="#BCBEC0" stroke="#FFFFFF" stroke-width="0.25" stroke-miterlimit="10" points="92.7,60.6 93,54.2 94.7,61 			"/>
			<polygon fill="#6D6E71" stroke="#FFFFFF" stroke-width="0.25" stroke-miterlimit="10" points="99.1,37 100.2,46.6 101.2,46 
				102.5,43.4 105.2,38.2 			"/>
			<polygon fill="#939598" stroke="#FFFFFF" stroke-width="0.25" stroke-miterlimit="10" points="103.3,44.9 101.2,46 102.5,43.4 
							"/>
			<polygon fill="#939598" stroke="#FFFFFF" stroke-width="0.25" stroke-miterlimit="10" points="91.7,61.3 93,54.2 92.7,60.6 			
				"/>
			<polygon fill="#A7A9AC" stroke="#FFFFFF" stroke-width="0.25" stroke-miterlimit="10" points="97.8,40.4 99.1,37 100.2,46.6 			
				"/>
			<polygon fill="#939598" stroke="#FFFFFF" stroke-width="0.25" stroke-miterlimit="10" points="99.1,50.8 97.6,52.6 97.8,40.4 
				100.2,46.6 			"/>
			<polygon fill="#58595B" stroke="#FFFFFF" stroke-width="0.25" stroke-miterlimit="10" points="104.7,47.4 103.3,44.9 101.2,46 
				102.8,50 106.5,50.8 			"/>
			<polygon fill="#58595B" stroke="#FFFFFF" stroke-width="0.25" stroke-miterlimit="10" points="134.3,67.9 133.9,66.4 134.7,61.9 
				132.4,58.9 131.3,57.4 130.5,64.6 132.2,66.1 			"/>
			<polygon stroke="#FFFFFF" stroke-width="0.25" stroke-miterlimit="10" points="134.2,107.1 131.4,105.9 130.5,108.9 131.4,109.1 
				133.4,108.9 137.3,108.4 			"/>
			<polygon fill="#A7A9AC" stroke="#FFFFFF" stroke-width="0.25" stroke-miterlimit="10" points="132.9,43.4 134.4,44.7 134.7,52.7 
				135,60.7 134.7,61.9 132.5,55.7 			"/>
			<polygon fill="#6D6E71" stroke="#FFFFFF" stroke-width="0.25" stroke-miterlimit="10" points="133.1,39.3 133.1,41.9 134.4,44.7 
				132.9,43.4 			"/>
			<polygon fill="#A7A9AC" stroke="#FFFFFF" stroke-width="0.25" stroke-miterlimit="10" points="138.3,108.3 137.3,108.4 
				134.2,107.1 135,105.3 138.1,104.8 			"/>
			<polygon fill="#D5D5D5" stroke="#FFFFFF" stroke-width="0.25" stroke-miterlimit="10" points="141.3,104.3 141.8,107.9 
				138.3,108.3 138.1,104.8 			"/>
			<polygon fill="#C8C8C8" stroke="#FFFFFF" stroke-width="0.25" stroke-miterlimit="10" points="128,39.1 133.1,39.3 132.7,43.2 
							"/>
			<path fill="#939598" stroke="#FFFFFF" stroke-width="0.25" stroke-miterlimit="10" d="M125.6,35.8l1.9-2.5c0,0,1.4,0.8,1.6,0.8
				l-3.4,1.7L125.6,35.8z"/>
			<polygon fill="#6D6E71" stroke="#FFFFFF" stroke-width="0.25" stroke-miterlimit="10" points="132.4,111 128.4,111.2 
				128.2,112.4 130.7,114.8 138.4,110.7 			"/>
			<path fill="#6D6E71" stroke="#FFFFFF" stroke-width="0.25" stroke-miterlimit="10" d="M126.2,35.8l-0.5,0l3.4-1.7c0,0,0,0,0,0
				l3.9,5.2L126,36L126.2,35.8z"/>
			<polygon fill="none" stroke="#FFFFFF" stroke-width="0.25" stroke-miterlimit="10" points="125.7,35.9 125.6,35.8 125.6,35.8 
				125.7,35.8 			"/>
			<polygon fill="#D1D3D4" stroke="#FFFFFF" stroke-width="0.25" stroke-miterlimit="10" points="116.9,29.5 121.8,30 120.3,32.5 
							"/>
			<polygon fill="#A7A9AC" stroke="#FFFFFF" stroke-width="0.25" stroke-miterlimit="10" points="135.8,103.6 137.8,99.3 
				137.9,102.5 138.1,104.8 135,105.3 			"/>
			<polygon fill="#6D6E71" stroke="#FFFFFF" stroke-width="0.25" stroke-miterlimit="10" points="125.6,35.8 125.6,35.8 124.2,35.8 
				118.4,35.8 121.5,38.9 125.1,36.6 125.7,36.2 			"/>
			<polygon fill="#A7A9AC" stroke="#FFFFFF" stroke-width="0.25" stroke-miterlimit="10" points="120.3,32.5 121.8,30 125.6,35.8 
				124.2,35.8 			"/>
			<polygon fill="#939598" stroke="#FFFFFF" stroke-width="0.25" stroke-miterlimit="10" points="118.3,35.8 116.9,29.5 120.3,32.5 
							"/>
			<polygon fill="#A7A9AC" stroke="#FFFFFF" stroke-width="0.25" stroke-miterlimit="10" points="138,82.5 140,75.5 140.4,77.3 
				141,79.9 143.8,86 138.8,87.6 			"/>
			<polygon fill="#A7A9AC" stroke="#FFFFFF" stroke-width="0.25" stroke-miterlimit="10" points="151.2,102 147.6,96.8 147.5,97.5 
				146,103.6 148.1,103.3 148.1,102.1 			"/>
			<polygon fill="#A7A9AC" stroke="#FFFFFF" stroke-width="0.25" stroke-miterlimit="10" points="143.8,86 147.6,96.8 140.3,93.7 
							"/>
			<polygon fill="#D1D3D4" stroke="#FFFFFF" stroke-width="0.25" stroke-miterlimit="10" points="148.1,103.3 145.1,107.5 
				146,103.6 			"/>
			<polygon stroke="#FFFFFF" stroke-width="0.25" stroke-miterlimit="10" points="140.8,101 139.8,94.8 140.3,93.7 147.6,96.8 
				147.5,97.5 			"/>
			<polygon stroke="#FFFFFF" stroke-width="0.25" stroke-miterlimit="10" points="142.2,110.5 138.4,110.7 138.3,108.9 			"/>
			<polygon fill="#A7A9AC" stroke="#FFFFFF" stroke-width="0.25" stroke-miterlimit="10" points="133.4,108.9 137.3,108.4 
				138.3,108.9 138.4,110.7 132.4,111 			"/>
			<polygon fill="#6D6E71" stroke="#FFFFFF" stroke-width="0.25" stroke-miterlimit="10" points="141.3,104.3 146,103.6 
				145.1,107.5 141.8,107.9 			"/>
			<polygon stroke="#FFFFFF" stroke-width="0.25" stroke-miterlimit="10" points="145.1,107.5 142.2,110.5 141.8,107.9 			"/>
			<polygon fill="#414042" stroke="#FFFFFF" stroke-width="0.25" stroke-miterlimit="10" points="138.4,74.4 140.5,74.2 140.4,75.7 
				140,75.5 			"/>
			<polygon fill="#D1D3D4" stroke="#FFFFFF" stroke-width="0.25" stroke-miterlimit="10" points="137.4,92.4 137.4,92.4 137.1,88.1 
				137,86 136.4,88.3 135.4,91.6 135.4,91.6 131.4,105.9 135.8,103.6 137.8,99.3 			"/>
			<polygon fill="#808285" stroke="#FFFFFF" stroke-width="0.25" stroke-miterlimit="10" points="143.8,86 140.3,93.7 139.8,94.8 
				139.6,93.4 138.8,87.6 			"/>
			<polygon fill="#939598" stroke="#FFFFFF" stroke-width="0.25" stroke-miterlimit="10" points="141.3,104.3 138.1,104.8 
				137.9,102.5 137.8,99.3 137.4,92.4 137.2,88.1 137,86 136.1,69.6 138.4,74.4 140,75.5 138,82.5 138.8,87.6 139.6,93.4 
				139.8,94.8 140.8,101 			"/>
			<polygon fill="#D5D5D5" stroke="#FFFFFF" stroke-width="0.25" stroke-miterlimit="10" points="142,76.6 140.4,77.3 140,75.5 			
				"/>
			<polygon fill="#58595B" stroke="#FFFFFF" stroke-width="0.25" stroke-miterlimit="10" points="147.4,93.2 147.6,96.8 143.8,86 
							"/>
			<polygon fill="#808285" stroke="#FFFFFF" stroke-width="0.25" stroke-miterlimit="10" points="125.1,49.2 121.5,38.9 121.7,44.6 
				122.4,52.4 130.5,64.6 			"/>
			<polygon fill="#D1D3D4" stroke="#FFFFFF" stroke-width="0.25" stroke-miterlimit="10" points="132.7,43.2 132.7,43.2 131.7,53.3 
				131.3,57.4 132.4,58.9 132.5,55.7 132.9,43.4 133.1,39.3 			"/>
			<polygon fill="none" stroke="#FFFFFF" stroke-width="0.25" stroke-miterlimit="10" points="130.5,64.6 130.5,64.6 130.5,64.6 			
				"/>
			<polygon fill="#A7A9AC" stroke="#FFFFFF" stroke-width="0.25" stroke-miterlimit="10" points="131.7,53.3 131.3,57.4 125.1,49.2 
				121.5,38.9 125.1,36.6 125.7,36.2 126.2,37.6 126.8,39.1 			"/>
			<polygon fill="none" stroke="#FFFFFF" stroke-width="0.25" stroke-miterlimit="10" points="125.7,35.9 125.7,35.9 125.7,35.9 
				126,36 125.7,36.2 125.6,35.8 			"/>
			<polygon fill="#E6E7E8" stroke="#FFFFFF" stroke-width="0.25" stroke-miterlimit="10" points="132.5,55.7 134.7,61.9 132.4,58.9 
							"/>
			<polygon fill="#808285" stroke="#FFFFFF" stroke-width="0.25" stroke-miterlimit="10" points="126,36 125.7,36.2 126.2,37.6 
				126.8,39.1 128,39.1 133.1,39.3 			"/>
			<polygon fill="#6D6E71" stroke="#FFFFFF" stroke-width="0.25" stroke-miterlimit="10" points="138.3,108.3 141.8,107.9 
				142.2,110.5 138.3,108.9 137.3,108.4 			"/>
			<polygon fill="#A7A9AC" stroke="#FFFFFF" stroke-width="0.25" stroke-miterlimit="10" points="136.1,69.6 137,86 136.4,88.3 
				131.4,89.9 132,71.4 			"/>
			<polygon fill="#D1D3D4" stroke="#FFFFFF" stroke-width="0.25" stroke-miterlimit="10" points="136.1,69.6 132,71.4 129.8,72.3 
				126.5,73.7 122.9,75.2 122.8,73.8 121.2,56.4 130.5,64.6 132.2,66.1 			"/>
			<polygon fill="#A7A9AC" stroke="#FFFFFF" stroke-width="0.25" stroke-miterlimit="10" points="119.6,62.1 121.2,56.4 122.8,73.8 
							"/>
			<polygon fill="#A7A9AC" stroke="#FFFFFF" stroke-width="0.25" stroke-miterlimit="10" points="114.8,78.7 118.7,65 119.9,76.5 
							"/>
			<polygon fill="#414042" stroke="#FFFFFF" stroke-width="0.25" stroke-miterlimit="10" points="147.5,97.5 146,103.6 141.3,104.3 
				140.8,101 			"/>
			<polygon fill="#D5D5D5" stroke="#FFFFFF" stroke-width="0.25" stroke-miterlimit="10" points="125.1,49.2 131.3,57.4 130.5,64.6 
							"/>
			<polygon fill="#BCBEC0" stroke="#FFFFFF" stroke-width="0.25" stroke-miterlimit="10" points="124.2,35.8 118.3,35.8 120.3,32.5 
							"/>
			<path fill="#808285" stroke="#FFFFFF" stroke-width="0.25" stroke-miterlimit="10" d="M125.5,103l-1.6,8.7l-0.4-5.4l-0.2-3.3
				l0-0.1l0,0l-3.7-11.6l1.7-1.9l0.3-0.3l-0.4-0.5l-2.3-3.1l-1.2-1.6l2.7-2.6l2.8-2.7l0.1,1.5l1.4,15.2c0,0,0,0,0,0L125.5,103z"/>
			<path fill="#A7A9AC" stroke="#FFFFFF" stroke-width="0.25" stroke-miterlimit="10" d="M129.8,72.3l-0.9,9.3l-1,10.4l-1.6,6.8
				c0,0-0.6-1.6-1.5-3.6L123.4,80l-0.1-1.5l0.7-0.7L129.8,72.3z"/>
			<polygon fill="#BCBEC0" stroke="#FFFFFF" stroke-width="0.25" stroke-miterlimit="10" points="129.8,72.3 123.9,77.9 123.2,78.5 
				120.4,81.2 117.7,83.8 116.8,84.4 115.7,88.5 113.9,85.6 113.7,82.6 114.8,78.7 119.9,76.5 122.9,75.2 123.2,75.1 126.5,73.7 			
				"/>
		</g>
	</g>
</g>
<g id="Layer_3">
</g>
<g id="Isolation_Mode">
	<g>
		<path d="M209.2,108.6v-3.2l2.3-3c3-3.9,5.5-7.1,5.5-10.4c0-1.9-1-3.2-3-3.2c-1.5,0-2.7,0.6-3.5,1.2l-0.9-3.6
			c1.1-0.7,3.1-1.5,5.2-1.5c5.1,0,6.8,3.4,6.8,6.8c0,4.4-2.7,7.9-5.4,11.1l-1.4,1.7v0.1h7.2v4.1H209.2z"/>
		<path d="M237.7,96.8c0,8.4-3.1,12.1-6.8,12.1c-5.1,0-6.8-5.9-6.8-11.9c0-6.7,2.2-12.1,7-12.1C236.5,84.9,237.7,91.2,237.7,96.8z
			 M228.8,96.9c-0.1,5.5,0.6,8,2.2,8c1.4,0,2-2.6,2-8c0-5-0.5-8-2-8C229.5,88.9,228.7,91.4,228.8,96.9z"/>
		<path d="M239.2,108.6v-3.2l2.3-3c3-3.9,5.5-7.1,5.5-10.4c0-1.9-1-3.2-3-3.2c-1.5,0-2.7,0.6-3.5,1.2l-0.9-3.6
			c1.1-0.7,3.1-1.5,5.2-1.5c5.1,0,6.8,3.4,6.8,6.8c0,4.4-2.7,7.9-5.4,11.1l-1.4,1.7v0.1h7.2v4.1H239.2z"/>
		<path d="M267.7,96.8c0,8.4-3.1,12.1-6.8,12.1c-5.1,0-6.8-5.9-6.8-11.9c0-6.7,2.2-12.1,7-12.1C266.5,84.9,267.7,91.2,267.7,96.8z
			 M258.8,96.9c-0.1,5.5,0.6,8,2.2,8c1.4,0,2-2.6,2-8c0-5-0.5-8-2-8C259.5,88.9,258.7,91.4,258.8,96.9z"/>
	</g>
</g>
<g id="Layer_4">
</g>
<g id="logo">
</g>
</svg>
