<?xml version="1.0" encoding="utf-8"?>
<!-- Generator: Adobe Illustrator 18.1.1, SVG Export Plug-In . SVG Version: 6.00 Build 0)  -->
<svg version="1.1" baseProfile="basic" xmlns="http://www.w3.org/2000/svg" xmlns:xlink="http://www.w3.org/1999/xlink" x="0px"
	 y="0px" width="221.9px" height="201.3px" viewBox="0 0 221.9 201.3" xml:space="preserve">
<g id="Layer_1">
</g>
<g id="facets">
</g>
<g id="Layer_3">
</g>
<g id="Isolation_Mode">
	<g>
		<path d="M82.7,183.3v-3.2l2.3-3c3-3.9,5.5-7.1,5.5-10.4c0-1.9-1-3.2-3-3.2c-1.5,0-2.7,0.6-3.5,1.2l-0.9-3.6
			c1.1-0.7,3.1-1.5,5.2-1.5c5.1,0,6.8,3.4,6.8,6.8c0,4.4-2.7,7.9-5.4,11.1l-1.4,1.7v0.1h7.2v4.1H82.7z"/>
		<path d="M111.2,171.5c0,8.4-3.1,12.1-6.8,12.1c-5.1,0-6.8-5.9-6.8-11.9c0-6.7,2.2-12.1,7-12.1
			C109.9,159.6,111.2,165.9,111.2,171.5z M102.2,171.6c-0.1,5.5,0.6,8,2.2,8c1.4,0,2-2.6,2-8c0-5-0.5-8-2-8
			C103,163.7,102.2,166.2,102.2,171.6z"/>
		<path d="M112.7,183.3v-3.2l2.3-3c3-3.9,5.5-7.1,5.5-10.4c0-1.9-1-3.2-3-3.2c-1.5,0-2.7,0.6-3.5,1.2l-0.9-3.6
			c1.1-0.7,3.1-1.5,5.2-1.5c5.1,0,6.8,3.4,6.8,6.8c0,4.4-2.7,7.9-5.4,11.1l-1.4,1.7v0.1h7.2v4.1H112.7z"/>
		<path d="M141.2,171.5c0,8.4-3.1,12.1-6.8,12.1c-5.1,0-6.8-5.9-6.8-11.9c0-6.7,2.2-12.1,7-12.1
			C139.9,159.6,141.2,165.9,141.2,171.5z M132.2,171.6c-0.1,5.5,0.6,8,2.2,8c1.4,0,2-2.6,2-8c0-5-0.5-8-2-8
			C133,163.7,132.2,166.2,132.2,171.6z"/>
	</g>
	<g>
		<g id="facets_2_">
			<path d="M127.2,107.5l4.2,2.4l-7.1,1.9l-3,3l-3.7,0.2l-7.8,4.1l-2.5-2.4l0.2-1.2l2.5-0.9l0.5-1.1l-0.9-0.3l-2.8,1.2l0.3-1.8
				l3.4-2.4V94l-3.6,2.1l-1.6,6.8l0,0l-0.1,9.1l0.7,6.2l-0.3,0.5l1.7,7.3l-4.5-3.2l-0.8-4.5l0.9-2.3V116l-0.4-5.4l-0.2-3.3v-0.1l0,0
				l-3.7-11.7l1.7-1.9l0.2-0.2l-0.4-0.6l-2.3-3.1L96.7,88l-0.9,0.6l-1,4.1l-1.8-2.9l-0.3-3L91.4,87L90,84.6l0.9-1.4l1.9-0.6L92,80.2
				l-2.3-0.9l-4.8,7.3l3.4,2.4l1,5.5L88.8,97L85,93.3l0.9-1.9l-1.5-0.4l-1.2-1.5l-0.4,2.5l5.6,7.8c0,0,0.6,2.6,0.6,2.7
				c0,0.1-1,5.7-1,5.7l-0.3-0.6l-1.7-3l-1.7-1.7l1.2-1.3h0.1v-0.1l-0.1-0.1l-1.8-1.8v-0.1l-0.4-2l-6.7-7.3l1.6-3.2l-4-2.6l-4-1.5
				h-0.1l0,0l1.5-3.4l3.7-3.5l1.4-0.6l0.4-1.3l-2.9-6.2l2.5-5.8l4.8-5.3l0,0l-0.1-2.8l-1.7-4l-1,0.5L78.1,55l-1.6,1.8L75,64.6
				l-1.3,0.6l-3,4l1-4.5l-1,0.7l1.2-7.1L71,58.5l3.3-9l-0.1-1.7l2.7-3.3l1.3-3.4l6.1,1.2l3,4.2l-1.7,8.3l0.8,1.2l0,0l8.3,0.6
				l2.2,2.8l1.3-0.1l2.2,1.2l0.1-3l1.1-1l-1.6-4.5l0.9-3.2l-0.1-5.7L97.4,40L96,33.7l6.9-5.7l0.1-0.9l-2.2-2.4l-1.2-3.8l4.1-1.3
				l2.4,0.5l3-2.2l1.2,1l1.7-0.1l0.6,4.5l4,3.7l0.1,1.8l-5,2.2l-4.3-2.4V30l-3.9,1.4l-2.7,2.7l3.8,5.8l0.1,0.4l0.3-0.1l0.3-0.2h-0.6
				l1.9-2.5c0,0,1.4,0.8,1.6,0.8l0,0c0-0.1-0.6-1.8-0.6-1.8l1.7,0.6l1.2,2.4l0.7-0.2l-0.4-2.7l1.2-0.7l0.4-1.2l1.4,0.1l3.7-0.4
				l2.2,1.4l-0.2,0.6l1.5,1.1v0.8l1.1,1.3l-0.4,1.5l-2.1,2.3l-0.8-0.7l-1.4,0.8l-1,1.7l-0.9-1.2l-2.4,1.3l-0.7-1.6l0.1,2.6l1.3,2.8
				l0.3,8l0.3,8.1l-0.4,1.2l2.6-0.9l1.3,2.2l0.1,2.4l-2.2-1.7l-0.4,2.1l-2.2,0.4l0,0l0.4,1.6l0,0l1.9,1.7l0,0l2.3,4.8l0,0l0.3-6.2
				l1.8,6l-0.1,1.5l1.7,0.9l0.8,2.5l-2.4-1.8l4.1,4l-3.5-1.5l6.5,7.5l-3.7-1.4l7.2,5.7l0.1,0.1l1.2,1.5l-3.5-1l-1.4,0.9l5.6,5.8
				l-5.4-2.2l3.5,5.2l0.1,0.1l0.4,2l-1.7-1.7l-1.9-0.3L127.2,107.5z M112.3,96.8l-0.7,12.2l3.9-4L112.3,96.8z"/>
		</g>
		<g>
			<g>
				<path d="M38.1,146.9l2.4-16.1h5.1l-4.6,25.6h-5.2l-3-15.1l-3,15.1h-5.2l-4.6-25.6h5.2l2.4,16.1l3-16.1h4.3L38.1,146.9z"/>
				<path d="M54.3,142.3l3.8-11.5h5.6l-6.9,16.3v9.3h-5.2v-9.3l-6.9-16.3h5.6L54.3,142.3z"/>
				<path d="M80.4,145.9c0,3.4-0.8,6.1-2.4,8s-3.9,2.8-6.8,2.8c-2.9,0-5.1-0.9-6.8-2.8s-2.5-4.5-2.5-7.9v-4.4c0-3.5,0.8-6.3,2.4-8.2
					s3.9-3,6.8-3c2.8,0,5.1,1,6.7,2.9s2.5,4.7,2.5,8.2V145.9z M75.2,141.7c0-2.3-0.3-4-1-5.2s-1.7-1.7-3.1-1.7c-1.4,0-2.4,0.5-3,1.6
					s-1,2.7-1,4.9v4.6c0,2.2,0.3,3.9,1,4.9s1.7,1.6,3.1,1.6c1.3,0,2.3-0.5,3-1.6s1-2.6,1-4.8V141.7z"/>
				<path d="M94,131v25.4h-1.5v-13.1h-7.3v13.1h-1.5V131h1.5v11.3h7.3V131H94z"/>
				<path d="M105.8,148.1h-5.7l-1.5,8.4h-1.4L102,131h0.8h0.5h0.8l4.7,25.4h-1.4L105.8,148.1z M105.6,147l-2.6-14.6l-2.7,14.6H105.6
					z"/>
				<path d="M120.2,139v-4.7c0-1.1-0.7-2.3-1.8-2.3h-3.3c-1.1,0-1.8,1.2-1.8,2.3v18.9c0,1.1,0.7,2.2,1.8,2.2h3.3
					c1.1,0,1.8-1.1,1.8-2.2v-5.4h1.5v5.4c0,1.8-1.4,3.4-3.1,3.4h-3.4c-1.8,0-3.3-1.6-3.3-3.4v-18.9c0-1.8,1.5-3.4,3.3-3.4h3.3
					c1.8,0,3.3,1.6,3.3,3.4v4.7H120.2z"/>
				<path d="M128.7,142.9l-2,3.9v9.6h-1.4V131h1.4v12.9l6.6-12.9h1.5l-5.3,10.3l5.7,15.1h-1.5L128.7,142.9z"/>
				<path d="M146.2,148.1h-5.7l-1.5,8.4h-1.4l4.7-25.4h0.8h0.5h0.8l4.7,25.4h-1.4L146.2,148.1z M146.1,147l-2.6-14.6l-2.7,14.6
					H146.1z"/>
				<path d="M160.2,132.1h-4.7v24.3H154v-24.3h-4.8V131h4.8h1.4h4.7V132.1z"/>
				<path d="M173.3,131v25.4h-1.5v-13.1h-7.3v13.1h-1.5V131h1.5v11.3h7.3V131H173.3z"/>
				<path d="M187.3,134.3v18.9c0,1.8-1.5,3.4-3.3,3.4h-3.6c-1.8,0-3.3-1.6-3.3-3.4v-18.9c0-1.8,1.5-3.4,3.3-3.4h3.6
					C185.8,130.9,187.3,132.5,187.3,134.3z M185.8,153.2v-18.9c0-1.1-0.8-2.3-1.8-2.3h-3.6c-1.1,0-1.8,1.2-1.8,2.3v18.9
					c0,1.1,0.7,2.3,1.8,2.3h3.6C185.1,155.5,185.8,154.2,185.8,153.2z"/>
				<path d="M201.3,131v25.4H200h-0.2h-1.5l-5.8-24.1v24.1h-1.5V131h1.2h0.3h1.1l6.2,24.5V131H201.3z"/>
			</g>
		</g>
		<g>
			<polygon fill="#FFFFFF" points="89.3,94.5 86,91.4 88.3,89 			"/>
			<polygon fill="#FFFFFF" points="88.3,89 83.3,89.5 72,79.7 84.9,86.6 			"/>
		</g>
	</g>
</g>
<g id="Layer_4">
</g>
<g id="logo">
</g>
</svg>
