<?xml version="1.0" encoding="utf-8"?>
<!-- Generator: Adobe Illustrator 15.0.0, SVG Export Plug-In  -->
<!DOCTYPE svg PUBLIC "-//W3C//DTD SVG 1.1//EN" "http://www.w3.org/Graphics/SVG/1.1/DTD/svg11.dtd" [
	<!ENTITY ns_flows "http://ns.adobe.com/Flows/1.0/">
]>
<svg version="1.1"
	 xmlns="http://www.w3.org/2000/svg" xmlns:xlink="http://www.w3.org/1999/xlink" xmlns:a="http://ns.adobe.com/AdobeSVGViewerExtensions/3.0/"
	 x="0px" y="0px" width="792px" height="612px" viewBox="-115.771 -39.771 792 612"
	 overflow="visible" enable-background="new -115.771 -39.771 792 612" xml:space="preserve">
<defs>
</defs>
<polygon fill="none" stroke="#8B0E04" stroke-width="0.9489" stroke-miterlimit="10" points="81.629,330.93 88.729,304.229 
	115.43,297.13 134.93,316.63 127.729,343.229 101.129,350.43 "/>
<polygon fill="none" stroke="#8B0E04" stroke-width="0.9489" stroke-miterlimit="10" points="128.229,343.729 135.33,317.13 
	162.029,309.93 181.529,329.43 174.43,356.13 147.729,363.229 "/>
<polygon fill="none" stroke="#8B0E04" stroke-width="0.9489" stroke-miterlimit="10" points="221.229,368.529 228.43,341.829 
	255.029,334.729 274.529,354.229 267.43,380.829 240.729,388.029 "/>
<polygon fill="none" stroke="#8B0E04" stroke-width="0.9489" stroke-miterlimit="10" points="0.529,178.129 7.629,151.529 
	34.33,144.33 53.83,163.83 46.729,190.529 20.029,197.629 "/>
<polygon fill="none" stroke="#8B0E04" stroke-width="0.9489" stroke-miterlimit="10" points="93.529,202.93 100.729,176.229 
	127.33,169.129 146.83,188.629 139.729,215.33 113.029,222.43 "/>
<polygon fill="none" stroke="#8B0E04" stroke-width="0.9489" stroke-miterlimit="10" points="115.729,296.729 122.83,270.13 
	149.529,262.93 169.029,282.43 161.93,309.13 135.229,316.229 "/>
<polygon fill="none" stroke="#8B0E04" stroke-width="0.9489" stroke-miterlimit="10" points="226.43,441.229 233.529,414.529 
	260.229,407.43 279.729,426.93 272.529,453.63 245.93,460.729 "/>
<polygon fill="none" stroke="#8B0E04" stroke-width="0.9489" stroke-miterlimit="10" points="208.729,321.529 215.93,294.829 
	242.529,287.729 262.029,307.229 254.93,333.93 228.229,341.029 "/>
<polygon fill="none" stroke="#8B0E04" stroke-width="0.9489" stroke-miterlimit="10" points="205.93,147.93 213.029,121.33 
	239.629,114.129 259.229,133.629 252.029,160.33 225.43,167.43 "/>
<polygon fill="none" stroke="#8B0E04" stroke-width="0.9489" stroke-miterlimit="10" points="240.029,113.83 247.129,87.129 
	273.83,80.029 293.329,99.529 286.229,126.229 259.529,133.33 "/>
<polygon fill="none" stroke="#8B0E04" stroke-width="0.9489" stroke-miterlimit="10" points="194.33,102.33 201.529,75.629 
	228.129,68.529 247.629,88.029 240.529,114.629 213.83,121.83 "/>
<polygon fill="none" stroke="#8B0E04" stroke-width="0.9489" stroke-miterlimit="10" points="228.529,68.129 235.629,41.529 
	262.33,34.33 281.829,53.83 274.629,80.529 248.029,87.629 "/>
<polygon fill="none" stroke="#8B0E04" stroke-width="0.9489" stroke-miterlimit="10" points="114.129,124.83 121.229,98.129 
	147.93,91.029 167.43,110.529 160.33,137.229 133.629,144.33 "/>
<polygon fill="none" stroke="#8B0E04" stroke-width="0.9489" stroke-miterlimit="10" points="67.529,112.029 74.629,85.33 
	101.33,78.229 120.83,97.729 113.729,124.33 87.029,131.529 "/>
<polygon fill="none" stroke="#8B0E04" stroke-width="0.9489" stroke-miterlimit="10" points="182.529,56.33 189.729,29.729 
	216.33,22.529 235.93,42.129 228.729,68.729 202.129,75.93 "/>
<polygon fill="none" stroke="#8B0E04" stroke-width="0.9489" stroke-miterlimit="10" points="196.529,275.43 203.629,248.83 
	230.33,241.629 249.83,261.229 242.629,287.829 216.029,294.93 "/>
<polygon fill="none" stroke="#8B0E04" stroke-width="0.9489" stroke-miterlimit="10" points="242.93,287.43 250.029,260.729 
	276.729,253.629 296.229,273.13 289.029,299.729 262.43,306.93 "/>
<polygon fill="none" stroke="#8B0E04" stroke-width="0.9489" stroke-miterlimit="10" points="289.529,300.229 296.729,273.529 
	323.329,266.43 342.829,285.93 335.729,312.63 309.029,319.729 "/>
<polygon fill="none" stroke="#8B0E04" stroke-width="0.9489" stroke-miterlimit="10" points="184.029,228.529 191.129,201.83 
	217.83,194.729 237.33,214.229 230.129,240.83 203.529,248.029 "/>
<polygon fill="none" stroke="#8B0E04" stroke-width="0.9489" stroke-miterlimit="10" points="260.229,407.43 267.33,380.729 
	294.029,373.63 313.529,393.13 306.329,419.829 279.729,426.93 "/>
<polygon fill="none" stroke="#8B0E04" stroke-width="0.9489" stroke-miterlimit="10" points="323.63,266.129 330.829,239.43 
	357.43,232.33 377.029,251.83 369.829,278.43 343.229,285.63 "/>
<polygon fill="none" stroke="#8B0E04" stroke-width="0.9489" stroke-miterlimit="10" points="301.329,345.829 308.529,319.13 
	335.13,312.029 354.63,331.529 347.529,358.229 320.829,365.329 "/>
<polygon fill="none" stroke="#8B0E04" stroke-width="0.9489" stroke-miterlimit="10" points="348.029,358.63 355.13,332.029 
	381.729,324.829 401.329,344.43 394.13,371.029 367.529,378.229 "/>
<polygon fill="none" stroke="#8B0E04" stroke-width="0.9489" stroke-miterlimit="10" points="218.129,194.33 225.33,167.729 
	251.93,160.529 271.43,180.029 264.33,206.729 237.629,213.83 "/>
<polygon fill="none" stroke="#8B0E04" stroke-width="0.9489" stroke-miterlimit="10" points="264.83,207.229 271.93,180.529 
	298.529,173.43 318.13,192.93 310.93,219.529 284.329,226.729 "/>
<polygon fill="none" stroke="#8B0E04" stroke-width="0.9489" stroke-miterlimit="10" points="357.829,231.93 364.93,205.33 
	391.63,198.129 411.13,217.629 404.029,244.33 377.329,251.43 "/>
<polygon fill="none" stroke="#8B0E04" stroke-width="0.9489" stroke-miterlimit="10" points="262.33,34.33 269.43,7.729 
	296.13,0.529 315.63,20.029 308.43,46.729 281.829,53.83 "/>
</svg>
