<?xml version="1.0" encoding="utf-8"?>
<!-- Generator: Adobe Illustrator 23.0.4, SVG Export Plug-In . SVG Version: 6.00 Build 0)  -->
<svg version="1.1" id="Layer_1" xmlns="http://www.w3.org/2000/svg" xmlns:xlink="http://www.w3.org/1999/xlink" x="0px" y="0px"
	 viewBox="0 0 300 153.2" style="enable-background:new 0 0 300 153.2;" xml:space="preserve">
<style type="text/css">
	.st0{fill:#A3A510;}
	.st1{fill:#565A62;}
	.st2{fill:none;stroke:#FFFFFF;stroke-width:0.25;stroke-miterlimit:10;}
	.st3{fill:#565A62;stroke:#FFFFFF;stroke-width:0.25;stroke-miterlimit:10;}
	.st4{fill:#7D706D;stroke:#FFFFFF;stroke-width:0.25;stroke-miterlimit:10;}
	.st5{fill:#492F24;stroke:#FFFFFF;stroke-width:0.25;stroke-miterlimit:10;}
	.st6{fill:#8B0E04;stroke:#FFFFFF;stroke-width:0.25;stroke-miterlimit:10;}
	.st7{fill:#837773;stroke:#FFFFFF;stroke-width:0.25;stroke-miterlimit:10;}
	.st8{fill:#A3A510;stroke:#FFFFFF;stroke-width:0.25;stroke-miterlimit:10;}
	.st9{fill:#565A62;stroke:#FFFFFF;stroke-width:0.2468;stroke-miterlimit:10;}
	.st10{fill:#A3A510;stroke:#FFFFFF;stroke-width:0.2468;stroke-miterlimit:10;}
	.st11{fill:#7A6F00;stroke:#FFFFFF;stroke-width:0.25;stroke-miterlimit:10;}
	.st12{fill:#9A311B;stroke:#FFFFFF;stroke-width:0.25;stroke-miterlimit:10;}
	.st13{fill:#A3551C;stroke:#FFFFFF;stroke-width:0.25;stroke-miterlimit:10;}
	.st14{fill:#492F24;stroke:#FFFFFF;stroke-width:0.2468;stroke-miterlimit:10;}
	.st15{fill:#7D706D;stroke:#FFFFFF;stroke-width:0.2468;stroke-miterlimit:10;}
	.st16{stroke:#FFFFFF;stroke-width:0.2468;stroke-miterlimit:10;}
	.st17{fill:#B09531;stroke:#FFFFFF;stroke-width:0.2468;stroke-miterlimit:10;}
	.st18{fill:#A5472F;stroke:#FFFFFF;stroke-width:0.25;stroke-miterlimit:10;}
	.st19{opacity:0.4;fill:#AB650D;stroke:#FFFFFF;stroke-width:0.2468;stroke-miterlimit:10;enable-background:new    ;}
	.st20{fill:#183B61;stroke:#FFFFFF;stroke-width:0.2468;stroke-miterlimit:10;}
	.st21{fill:#8B0E04;stroke:#FFFFFF;stroke-width:0.2468;stroke-miterlimit:10;}
	.st22{fill:#AB650D;stroke:#FFFFFF;stroke-width:0.2468;stroke-miterlimit:10;}
	.st23{fill:#7A6F00;stroke:#FFFFFF;stroke-width:0.2468;stroke-miterlimit:10;}
	.st24{opacity:0.75;fill:#AB650D;stroke:#FFFFFF;stroke-width:0.2468;stroke-miterlimit:10;enable-background:new    ;}
	.st25{opacity:0.4;fill:#183B61;stroke:#FFFFFF;stroke-width:0.2468;stroke-miterlimit:10;enable-background:new    ;}
	.st26{fill:#FFFFFF;stroke:#FFFFFF;stroke-width:0.25;stroke-miterlimit:10;}
	.st27{opacity:0.52;fill:#AB650D;stroke:#FFFFFF;stroke-width:0.2468;stroke-miterlimit:10;enable-background:new    ;}
	.st28{fill:#994708;stroke:#FFFFFF;stroke-width:0.2468;stroke-miterlimit:10;}
	.st29{fill:#AB650D;stroke:#FFFFFF;stroke-width:0.25;stroke-miterlimit:10;}
	.st30{fill:#994708;stroke:#FFFFFF;stroke-width:0.25;stroke-miterlimit:10;}
</style>
<g id="facets">
	<g>
		<g>
			<path class="st0" d="M58,106.6l2.4-16.1h5.1l-4.6,25.6h-5.1l-3-15.1l-3,15.1h-5.2L40,90.5h5.2l2.4,16.1l3-16.1h4.3L58,106.6z"/>
			<path class="st0" d="M74.2,102L78,90.5h5.6l-6.8,16.3v9.3h-5.2v-9.3l-6.9-16.3h5.6L74.2,102z"/>
			<path class="st0" d="M100.3,105.6c0,3.4-0.8,6.1-2.4,8s-3.9,2.8-6.8,2.8s-5.1-0.9-6.8-2.8c-1.7-1.9-2.5-4.5-2.5-7.9v-4.4
				c0-3.5,0.8-6.3,2.4-8.2c1.6-1.9,3.9-3,6.8-3c2.8,0,5.1,1,6.7,2.9s2.5,4.7,2.5,8.2v4.4H100.3z M95.1,101.3c0-2.3-0.3-4-1-5.2
				s-1.7-1.7-3.1-1.7s-2.4,0.5-3,1.6s-1,2.7-1,4.9v4.6c0,2.2,0.3,3.9,1,4.9c0.7,1,1.7,1.6,3.1,1.6c1.3,0,2.3-0.5,3-1.6s1-2.6,1-4.8
				V101.3z"/>
		</g>
		<g>
			<path class="st0" d="M75.2,119.8v25.4h-1.5v-13.1h-7.3v13.1h-1.5v-25.4h1.5v11.3h7.3v-11.3C73.7,119.8,75.2,119.8,75.2,119.8z"/>
			<path class="st0" d="M87,136.8h-5.7l-1.5,8.4h-1.4l4.7-25.4h0.8h0.5h0.8l4.7,25.4h-1.4L87,136.8z M86.8,135.8l-2.6-14.6
				l-2.7,14.6H86.8z"/>
			<path class="st0" d="M101.4,127.8v-4.7c0-1.1-0.7-2.3-1.8-2.3h-3.3c-1.1,0-1.8,1.2-1.8,2.3v18.9c0,1.1,0.7,2.2,1.8,2.2h3.3
				c1.1,0,1.8-1.1,1.8-2.2v-5.4h1.4v5.4c0,1.8-1.4,3.4-3.1,3.4h-3.4c-1.8,0-3.3-1.6-3.3-3.4v-18.9c0-1.8,1.5-3.4,3.3-3.4h3.3
				c1.8,0,3.3,1.6,3.3,3.4v4.7H101.4z"/>
			<path class="st0" d="M109.9,131.6l-2,3.9v9.6h-1.4v-25.4h1.3v12.9l6.6-12.9h1.5l-5.3,10.3l5.7,15.1h-1.5L109.9,131.6z"/>
			<path class="st0" d="M127.4,136.8h-5.7l-1.5,8.4h-1.4l4.7-25.4h0.8h0.5h0.8l4.7,25.4h-1.4L127.4,136.8z M127.2,135.8l-2.6-14.6
				l-2.7,14.6H127.2z"/>
			<path class="st0" d="M141.4,120.9h-4.7v24.3h-1.4v-24.3h-4.8v-1.1h4.8h1.4h4.7V120.9z"/>
			<path class="st0" d="M154.5,119.8v25.4H153v-13.1h-7.3v13.1h-1.5v-25.4h1.5v11.3h7.3v-11.3C153,119.8,154.5,119.8,154.5,119.8z"
				/>
			<path class="st0" d="M168.4,123.1V142c0,1.8-1.5,3.4-3.3,3.4h-3.6c-1.8,0-3.3-1.6-3.3-3.4v-18.9c0-1.8,1.5-3.4,3.3-3.4h3.6
				C167,119.8,168.4,121.3,168.4,123.1z M167,141.9V123c0-1.1-0.8-2.3-1.8-2.3h-3.6c-1.1,0-1.8,1.2-1.8,2.3v18.9
				c0,1.1,0.7,2.3,1.8,2.3h3.6C166.2,144.2,167,143.1,167,141.9z"/>
			<path class="st0" d="M182.4,119.8v25.4h-1.2H181h-1.5l-5.8-24.1v24.1h-1.5v-25.4h1.2h0.3h1.1l6.2,24.5v-24.5
				C181,119.8,182.4,119.8,182.4,119.8z"/>
		</g>
		<g>
			<path class="st1" d="M46.2,130.9v-1.6l1.2-1.5c1.5-1.9,2.8-3.5,2.8-5.2c0-1-0.5-1.6-1.5-1.6c-0.7,0-1.3,0.3-1.7,0.6l-0.4-1.8
				c0.5-0.4,1.5-0.7,2.6-0.7c2.6,0,3.4,1.7,3.4,3.4c0,2.2-1.4,4-2.7,5.5l-0.7,0.8l0,0h3.6v2.1H46.2z"/>
			<path class="st1" d="M61,125c0,4.2-1.5,6-3.4,6c-2.6,0-3.4-2.9-3.4-5.9c0-3.4,1.1-6,3.5-6C60.4,119.1,61,122.2,61,125z
				 M56.6,125.1c0,2.7,0.3,4,1.1,4c0.7,0,1-1.3,1-4c0-2.5-0.2-4-1-4S56.6,122.3,56.6,125.1z"/>
			<path class="st1" d="M46.2,145.3v-1.6l1.2-1.5c1.5-1.9,2.8-3.5,2.8-5.2c0-1-0.5-1.6-1.5-1.6c-0.7,0-1.3,0.3-1.7,0.6l-0.4-1.8
				c0.5-0.4,1.5-0.7,2.6-0.7c2.6,0,3.4,1.7,3.4,3.4c0,2.2-1.4,4-2.7,5.5l-0.7,0.8l0,0h3.6v2.1H46.2z"/>
			<path class="st1" d="M61,139.4c0,4.2-1.5,6-3.4,6c-2.6,0-3.4-2.9-3.4-5.9c0-3.4,1.1-6,3.5-6C60.4,133.6,61,136.6,61,139.4z
				 M56.6,139.6c0,2.7,0.3,4,1.1,4c0.7,0,1-1.3,1-4c0-2.5-0.2-4-1-4S56.6,136.8,56.6,139.6z"/>
		</g>
		<g>
			<polygon class="st2" points="105.4,92.1 105.3,92.1 105.4,92 			"/>
			<path class="st2" d="M124.4,30.5L124.4,30.5L124.4,30.5z"/>
			<path class="st2" d="M127.9,28.8L127.9,28.8L127.9,28.8z"/>
			<polygon class="st3" points="131.7,9.4 130,9.6 130.5,14.1 130.6,14.5 132.3,13.9 			"/>
			<polygon class="st3" points="124.7,15.9 123.4,14.9 120.6,15.2 122.7,17.6 124.4,17 125.4,16.6 			"/>
			<polygon class="st4" points="127.5,14.4 126.4,14 126.1,11.9 130,9.6 130.5,14.1 			"/>
			<polygon class="st5" points="128.8,8.5 125.9,10.7 125.5,12.2 126.1,11.9 130,9.6 			"/>
			<polygon class="st3" points="119.3,11.4 120.6,15.2 122.5,14.1 124,13.2 			"/>
			<polygon class="st3" points="126.9,17.8 125.4,16.6 126.7,16.1 			"/>
			<polygon class="st6" points="130.6,14.5 132.3,13.9 136.2,17.6 130.7,15.6 			"/>
			<polygon class="st7" points="127.5,14.4 129.3,15.1 126.7,16.1 126.5,14.6 			"/>
			<polygon class="st8" points="130.6,14.5 130.5,14.1 127.5,14.4 129.3,15.1 130.7,15.6 			"/>
			<path class="st9" d="M127.3,27l1.6,0.6L130,30l1.8,4l-3.9-5.2C127.9,28.7,127.3,27,127.3,27z"/>
			<polygon class="st10" points="134.4,32.4 134.7,33.2 131.9,34 130,29.9 			"/>
			<polygon class="st3" points="124.2,18.1 122.7,17.6 124.4,17 			"/>
			<polygon class="st11" points="125.5,12.2 126.1,11.9 126.4,14 125.2,13.6 			"/>
			<polygon class="st3" points="126.4,14 125.2,13.6 125,14.7 126.5,14.6 127.5,14.4 			"/>
			<polygon class="st3" points="123.5,10.2 119.3,11.4 124,13.2 125.2,13.6 125.5,12.2 125.9,10.7 			"/>
			<polygon class="st12" points="122.5,14.1 124,13.2 125.2,13.6 125,14.7 123.4,14.9 120.6,15.2 			"/>
			<polygon class="st13" points="125,14.7 126.5,14.6 126.7,16.1 125.4,16.6 124.7,15.9 123.4,14.9 			"/>
			<polygon class="st2" points="124.5,30.5 125,30.5 124.8,30.7 124.4,30.5 			"/>
			<polygon class="st14" points="120,51 118.3,56.7 117.5,59.6 113.5,73.4 112.5,73.8 112.5,73 111.8,70.6 117.3,57.5 118.1,55.7 
							"/>
			<polygon class="st15" points="125.5,33.8 126.8,33.8 131.5,37.9 130.5,47.9 			"/>
			<polygon class="st16" points="120,51 118.1,55.7 117.3,57.5 116.5,50 117.8,49.9 			"/>
			<polygon class="st6" points="122.6,18.5 120.6,24.7 115.7,24.2 			"/>
			<polygon class="st14" points="123.2,22 120.6,24.7 122.6,18.5 			"/>
			<polygon class="st3" points="122.7,17.6 124.2,18.1 123.2,22 122.6,18.5 			"/>
			<polygon class="st5" points="126.9,17.8 125.4,16.6 124.4,17 124.2,18.1 127.1,19.2 131.4,21.7 			"/>
			<polygon class="st3" points="126.7,16.1 129.3,15.1 130.7,15.6 131.4,21.7 126.9,17.8 			"/>
			<polygon class="st14" points="119.6,42.6 120.5,39.3 121.2,47.1 			"/>
			<polygon class="st17" points="121.6,68.5 121.7,69.9 118.7,71.2 117.5,59.6 118.3,56.7 			"/>
			<polygon class="st18" points="136.2,17.6 136.4,19.4 131.4,21.7 130.7,15.6 			"/>
			<polygon class="st19" points="103.2,88 96.5,80.8 102.6,82.5 			"/>
			<polygon class="st14" points="122.6,113.4 121.8,109 125.3,109.3 			"/>
			<polygon class="st16" points="127,116.5 122.6,113.4 125.3,109.3 			"/>
			<polygon class="st16" points="126.8,102.9 126.5,104.8 129.3,103.5 130.2,100.6 			"/>
			<polygon class="st20" points="104.2,81.5 103,80 108,79.4 			"/>
			<polygon class="st21" points="146.3,82 142.6,80.8 139.8,74.5 			"/>
			<polygon class="st21" points="151,88 147.5,87 149.9,86.5 			"/>
			<polygon class="st15" points="149.8,86.4 149.9,86.5 147.5,87 142.6,80.8 			"/>
			<polygon class="st14" points="147.5,87 146.1,87.9 142.6,80.8 			"/>
			<polygon class="st9" points="151.8,93.8 146.4,91.5 146.1,87.9 			"/>
			<polygon class="st22" points="105.7,81.8 104.2,81.5 108,79.4 			"/>
			<polygon class="st21" points="150,96.8 150.3,98.8 148.7,97.1 146.9,96.8 149.9,96.8 			"/>
			<polygon class="st14" points="151,100.3 143.9,102.2 146.9,98 			"/>
			<polygon class="st2" points="105.5,92.1 105.4,92.1 105.4,92.1 			"/>
			<path class="st23" d="M108.8,93l-3.4-0.9l0,0l-0.1-0.1l2.8-1.7C108.2,90.3,108.8,92.9,108.8,93z"/>
			<polygon class="st24" points="105.4,92 103.6,90.2 103.6,90.1 108.2,90.3 			"/>
			<polygon class="st16" points="107.5,98.1 105.9,95 104.2,93.4 105.4,92.1 105.5,92.1 			"/>
			<polygon class="st25" points="103.6,90.1 103.2,88 108.2,90.3 			"/>
			<path class="st14" d="M108.8,93c0,0.1-1,5.6-1,5.6l-0.3-0.6l-2-6L108.8,93z"/>
			<polygon class="st26" points="109,84.9 105.7,81.8 108,79.4 			"/>
			<polygon class="st16" points="108.6,87.4 104.8,83.8 109,84.9 			"/>
			<polygon class="st14" points="104.8,83.8 105.7,81.8 109,84.9 			"/>
			<polygon class="st23" points="96.5,80.8 98.1,77.8 103,80 			"/>
			<polygon class="st25" points="108.2,90.3 103.2,88 102.6,82.5 			"/>
			<polygon class="st14" points="129.3,59.3 120,51.1 120.1,48.1 121.2,47.1 			"/>
			<polygon class="st27" points="102.6,82.5 96.5,80.8 103,80 			"/>
			<polygon class="st21" points="131.9,25.1 133.4,25.2 137.1,24.8 133.5,27.5 139,26.8 140.5,27.9 140.5,28.6 133.3,27.5 			"/>
			<polygon class="st22" points="137.1,24.8 139.2,26.2 139,26.8 133.5,27.5 			"/>
			<polygon class="st28" points="132.7,27.4 131.9,25.1 131.6,26.3 130.3,27.1 132.8,27.7 			"/>
			<polygon class="st17" points="133.5,29.8 130.7,29.7 130.3,27.1 132.8,27.7 			"/>
			<polygon class="st10" points="135,30.4 141.2,31.4 136.4,32.8 			"/>
			<polygon class="st20" points="141.2,31.4 139.1,33.8 138.3,33.1 137,33.8 136.4,32.8 			"/>
			<polygon class="st29" points="136.4,32.8 137,33.8 135.5,33 			"/>
			<polygon class="st22" points="133.5,27.9 141.5,29.9 134.7,29.8 			"/>
			<polygon class="st15" points="133.3,27.5 140.5,28.6 141.5,29.9 133.5,27.9 			"/>
			<polygon class="st23" points="134.7,29.8 141.5,29.9 141.2,31.4 135,30.4 			"/>
			<polygon class="st10" points="143.3,76 139.8,74.5 139.2,72 			"/>
			<polygon class="st16" points="135.3,58.6 134.9,60.6 133.5,56.6 			"/>
			<polygon class="st16" points="137.3,57.8 136.1,55.6 135.3,58.6 137.5,60.2 			"/>
			<polygon class="st16" points="136.1,55.6 135.3,58.6 133.5,56.6 			"/>
			<polygon class="st10" points="137.5,62.8 139.3,68.8 137.2,69 			"/>
			<polygon class="st10" points="141.6,73.8 139.2,72 140.8,71.3 			"/>
			<polygon class="st10" points="134.7,33.2 134.4,32.4 135.5,33 			"/>
			<polygon class="st30" points="135.5,33 134.7,33.2 131.9,34 132.6,35.5 135,34.2 135.9,35.4 137,33.8 			"/>
			<polygon class="st22" points="130.7,29.7 133.5,29.8 133.7,30.2 134.4,32.4 130,29.9 			"/>
			<polygon class="st23" points="135,30.4 134.7,29.8 133.5,27.9 133.3,27.5 131.9,25.1 132.7,27.4 132.8,27.7 133.5,29.8 
				133.7,30.2 134.4,32.4 135.5,33 136.4,32.8 			"/>
			<polygon class="st9" points="134.9,60.6 132.7,61.1 133.5,56.6 			"/>
			<polygon class="st3" points="127.1,19.2 127.1,20.6 123.2,22 124.2,18.1 			"/>
			<polygon class="st14" points="112.4,77.3 111.2,77.4 109.8,75 111.1,74.5 			"/>
			<polygon class="st9" points="113.5,73.4 112.4,77.2 111.1,74.5 112.5,73.8 			"/>
			<polygon class="st9" points="90.8,49.1 94,40.1 91.7,48.9 			"/>
			<polygon class="st9" points="125.3,109.3 121.8,109 122.7,106.4 124.3,97.8 			"/>
			<polygon class="st6" points="111.8,70.6 109.5,69.8 104.6,77 114.3,47.2 			"/>
			<polygon class="st9" points="116.5,50 117.3,57.5 111.8,70.6 114.3,47.2 			"/>
			<polygon class="st28" points="114.3,47.2 104.6,77 106.1,46.6 			"/>
			<polygon class="st16" points="110.7,73.8 109.8,75 111.1,74.5 112.5,73.8 112.5,73 			"/>
			<polygon class="st9" points="130.2,100.6 130.2,84.6 134.2,86.3 			"/>
			<polygon class="st15" points="131.2,105.8 127.2,105.8 129.7,104.9 130.2,103.8 132.2,103.6 			"/>
			<path class="st11" d="M124.9,102.6l0.1-9.1c0,0-0.6-1.6-1.5-3.6l0.7,7.8l1.1,11.6l0.3-0.5L124.9,102.6z"/>
			<polygon class="st17" points="130.2,84.6 126.6,86.8 127.6,76.2 			"/>
			<polygon class="st17" points="134.2,86.3 130.2,84.6 135.1,83 			"/>
			<polygon class="st15" points="128.6,67 130.8,66 130.2,84.6 127.6,76.2 			"/>
			<polygon class="st14" points="134.6,98.2 133.8,100 133,101.8 130.2,100.6 			"/>
			<polygon class="st10" points="102.1,39.6 107,37.1 103.4,42.1 			"/>
			<polygon class="st9" points="96.8,52.8 94.3,58.6 97.2,64.8 103.2,62.9 			"/>
			<polygon class="st22" points="107,37.1 105.2,45.4 103.4,42.1 			"/>
			<polygon class="st15" points="101.6,44.7 105.2,45.4 101.6,47.5 			"/>
			<polygon class="st14" points="106.1,46.6 104.6,77 101.6,47.5 105.2,45.4 			"/>
			<path class="st14" d="M98.9,76.5C99,76.5,99,76.5,98.9,76.5L98.9,76.5c-0.7-0.2-8.8-2.9-8.8-2.9l1.5-3.4l11.3,9.8L98,77.7
				C98.1,77.8,98.7,76.5,98.9,76.5z"/>
			<path class="st16" d="M90.2,73.5c0,0,8,2.7,8.8,2.9c-0.2,0.1-0.8,1.2-0.8,1.2l-4-2.6L90.2,73.5z"/>
			<path class="st2" d="M99,76.5L99,76.5C98.9,76.5,98.9,76.5,99,76.5z"/>
			<polygon class="st9" points="95.4,66.8 96.8,66.1 97.2,64.8 104.6,77 91.7,70.2 			"/>
			<polygon class="st17" points="103.2,62.9 96.8,52.8 101.6,47.5 104.6,77 97.2,64.8 			"/>
			<polygon class="st26" points="108,79.4 103,80 91.7,70.2 104.7,77 			"/>
			<polygon class="st14" points="93.5,55.6 91.7,48.9 94.8,55 			"/>
			<polygon class="st17" points="91.7,48.9 94,40.1 94.8,55 			"/>
			<polygon class="st16" points="94.8,55 94,40.1 96.3,47.3 			"/>
			<polygon class="st14" points="101.3,38.1 103.9,32.9 107,37.1 102.1,39.6 			"/>
			<polygon class="st9" points="94,40.1 93.9,38.4 96.6,35 96.3,47.3 			"/>
			<polygon class="st16" points="90.5,59.7 91.5,55.2 93.5,55.6 			"/>
			<polygon class="st9" points="91.5,55.2 91.7,48.9 93.5,55.6 			"/>
			<polygon class="st6" points="97.8,31.7 99,41.3 99.9,40.7 101.3,38.1 103.9,32.9 			"/>
			<polygon class="st9" points="102.1,39.6 99.9,40.7 101.3,38.1 			"/>
			<polygon class="st14" points="90.5,55.9 91.7,48.9 91.5,55.2 			"/>
			<polygon class="st9" points="96.6,35 97.8,31.7 99,41.3 			"/>
			<polygon class="st14" points="97.9,45.5 96.3,47.3 96.6,35 99,41.3 			"/>
			<polygon class="st22" points="103.4,42.1 102.1,39.6 99.9,40.7 101.6,44.7 105.2,45.4 			"/>
			<polygon class="st17" points="133,62.6 132.7,61.1 133.5,56.6 131.2,53.6 130,52 129.3,59.3 131,60.8 			"/>
			<polygon class="st17" points="133,101.8 130.2,100.6 129.3,103.5 130.2,103.8 132.2,103.6 136.1,103.1 			"/>
			<polygon class="st23" points="131.7,38.1 133.2,39.4 133.5,47.4 133.8,55.4 133.5,56.6 131.3,50.4 			"/>
			<polygon class="st23" points="131.9,34 131.9,36.6 133.2,39.4 131.7,38.1 			"/>
			<polygon class="st9" points="137.1,103 136.1,103.1 133,101.8 133.8,100 136.9,99.5 			"/>
			<polygon class="st10" points="140,99 140.6,102.6 137.1,103 136.9,99.5 			"/>
			<polygon class="st15" points="126.8,33.8 131.9,34 131.5,37.9 			"/>
			<path class="st9" d="M124.4,30.5l1.9-2.5c0,0,1.4,0.8,1.6,0.8L124.4,30.5L124.4,30.5z"/>
			<polygon class="st14" points="131.2,105.8 127.2,105.8 127,107 129.5,109.5 137.2,105.4 			"/>
			<path class="st17" d="M125,30.5h-0.5l3.4-1.7l0,0l3.9,5.2l-7-3.3L125,30.5z"/>
			<polygon class="st2" points="124.4,30.5 124.4,30.5 124.4,30.5 124.5,30.5 			"/>
			<polygon class="st9" points="115.7,24.2 120.6,24.7 119.1,27.2 			"/>
			<polygon class="st9" points="134.6,98.2 136.5,94 136.7,97.1 136.9,99.5 133.8,100 			"/>
			<polygon class="st17" points="124.4,30.5 124.4,30.5 123,30.5 117.1,30.5 120.3,33.6 123.9,31.3 124.5,30.8 			"/>
			<polygon class="st9" points="119.1,27.2 120.6,24.7 124.4,30.5 123,30.5 			"/>
			<polygon class="st14" points="117.1,30.5 115.7,24.2 119.1,27.2 			"/>
			<polygon class="st9" points="136.8,77.1 138.8,70.2 139.2,72 139.8,74.5 142.6,80.8 137.6,82.3 			"/>
			<polygon class="st9" points="149.9,96.8 146.4,91.5 146.3,92.2 144.8,98.3 146.9,98 146.9,96.8 			"/>
			<polygon class="st9" points="142.6,80.8 146.4,91.5 139.1,88.4 			"/>
			<polygon class="st10" points="146.9,98 143.9,102.2 144.8,98.3 			"/>
			<polygon class="st17" points="139.5,95.8 138.6,89.4 139.1,88.4 146.4,91.5 146.3,92.2 			"/>
			<polygon class="st16" points="140.9,105.2 137.2,105.4 137.1,103.5 			"/>
			<polygon class="st17" points="132.2,103.6 136.1,103.1 137.1,103.5 137.2,105.4 131.2,105.8 			"/>
			<polygon class="st21" points="140,99 144.8,98.3 143.9,102.2 140.6,102.6 			"/>
			<polygon class="st17" points="143.9,102.2 140.9,105.2 140.6,102.6 			"/>
			<polygon class="st21" points="137.2,69 139.3,68.8 139.2,70.4 138.8,70.2 			"/>
			<polygon class="st28" points="136.2,87.1 136.2,87.1 135.9,82.8 135.8,80.6 135.1,83 134.2,86.3 134.2,86.3 130.2,100.6 
				134.6,98.2 136.5,94 			"/>
			<polygon class="st14" points="142.6,80.8 139.1,88.4 138.6,89.4 138.4,88.1 137.6,82.3 			"/>
			<polygon class="st14" points="140,99 136.9,99.5 136.7,97.1 136.5,94 136.2,87.1 135.9,82.8 135.8,80.6 134.9,64.3 137.2,69 
				138.8,70.2 136.8,77.1 137.6,82.3 138.4,88.1 138.6,89.4 139.5,95.8 			"/>
			<polygon class="st28" points="140.8,71.3 139.2,72 138.8,70.2 			"/>
			<polygon class="st9" points="146.1,87.9 146.4,91.5 142.6,80.8 			"/>
			<polygon class="st14" points="123.9,43.9 120.3,33.6 120.5,39.3 121.2,47.1 129.3,59.3 			"/>
			<polygon class="st8" points="131.5,37.9 131.5,37.9 130.5,47.9 130,52 131.2,53.6 131.3,50.4 131.7,38.1 131.9,34 			"/>
			<path class="st2" d="M129.3,59.3L129.3,59.3L129.3,59.3z"/>
			<polygon class="st9" points="130.5,47.9 130,52 123.9,43.9 120.3,33.6 123.9,31.3 124.5,30.8 125,32.3 125.5,33.8 			"/>
			<polygon class="st2" points="124.4,30.5 124.4,30.5 124.4,30.5 124.8,30.7 124.5,30.8 			"/>
			<polygon class="st8" points="131.3,50.4 133.5,56.6 131.2,53.6 			"/>
			<polygon class="st17" points="124.8,30.7 124.5,30.8 125,32.3 125.5,33.8 126.8,33.8 131.9,34 			"/>
			<polygon class="st21" points="137.1,103 140.6,102.6 140.9,105.2 137.1,103.5 136.1,103.1 			"/>
			<polygon class="st15" points="134.9,64.3 135.8,80.6 135.1,83 130.2,84.6 130.8,66 			"/>
			<polygon class="st15" points="134.9,64.3 130.8,66 128.6,67 125.3,68.4 121.7,69.9 121.6,68.5 120,51 129.3,59.3 131,60.8 			"/>
			<polygon class="st14" points="118.3,56.7 120,51.1 121.6,68.5 			"/>
			<polygon class="st9" points="113.5,73.4 117.5,59.6 118.7,71.2 			"/>
			<polygon class="st28" points="146.3,92.2 144.8,98.3 140,99 139.5,95.8 			"/>
			<polygon class="st8" points="123.9,43.9 130,52 129.3,59.3 			"/>
			<polygon class="st9" points="123,30.5 117.1,30.5 119.1,27.2 			"/>
			<path class="st9" d="M124.3,97.8l-1.6,8.7l-0.4-5.4l-0.2-3.3v-0.1l0,0L118.4,86l1.7-1.9l0.3-0.3l-0.4-0.5l-2.3-3.1l-1.2-1.6
				l2.7-2.6l2.8-2.7l0.1,1.5l1.4,15.2l0,0L124.3,97.8z"/>
			<path class="st10" d="M128.6,67l-0.9,9.3l-1,10.4l-1.6,6.8c0,0-0.6-1.6-1.5-3.6l-1.4-15.2l-0.1-1.5l0.7-0.7L128.6,67z"/>
			<polygon class="st4" points="128.6,67 122.7,72.6 122,73.2 119.2,75.9 116.5,78.5 115.5,79 114.5,83.2 112.7,80.3 112.4,77.2 
				113.5,73.4 118.7,71.2 121.7,69.9 121.9,69.8 125.2,68.4 			"/>
		</g>
	</g>
</g>
<g id="Layer_3">
</g>
<g id="Isolation_Mode">
</g>
<g id="Layer_4">
</g>
<g id="logo">
</g>
<image style="overflow:visible;" width="1377" height="518" xlink:href="../../../../Desktop/breakin.png"  transform="matrix(7.590416e-02 0 0 7.590416e-02 165.23 12.3408)">
</image>
</svg>
