<?xml version="1.0" encoding="utf-8"?>
<!-- Generator: Adobe Illustrator 18.1.1, SVG Export Plug-In . SVG Version: 6.00 Build 0)  -->
<svg version="1.1" baseProfile="basic" xmlns="http://www.w3.org/2000/svg" xmlns:xlink="http://www.w3.org/1999/xlink" x="0px"
	 y="0px" width="612px" height="792px" viewBox="0 0 612 792" xml:space="preserve">
<g id="Layer_1">
</g>
<g id="Logo">
	<g>
		<g>
			<path fill="#8B0E04" d="M112.6,506.5l9-59.4h18.9l-16.8,94.5h-19.2l-11-55.7l-10.9,55.7H63.3l-16.9-94.5h19l8.9,59.4l11.1-59.4
				h16L112.6,506.5z"/>
			<path fill="#8B0E04" d="M171.8,489.5l14.2-42.5h20.8l-25.3,60.3v34.3h-19.4v-34.3l-25.4-60.3h20.8L171.8,489.5z"/>
			<path fill="#8B0E04" d="M267.1,502.8c0,12.7-3,22.5-9,29.5c-6,7-14.3,10.5-25,10.5c-10.6,0-18.9-3.5-25-10.4
				c-6.1-6.9-9.1-16.7-9.2-29.2v-16.2c0-13,3-23.1,9-30.4c6-7.3,14.4-10.9,25.1-10.9c10.5,0,18.8,3.6,24.9,10.7
				c6.1,7.2,9.1,17.2,9.2,30.2V502.8z M247.9,487c0-8.5-1.2-14.9-3.6-19c-2.4-4.2-6.2-6.2-11.3-6.2c-5.1,0-8.8,2-11.2,6
				c-2.4,4-3.7,10.1-3.8,18.3v16.8c0,8.3,1.2,14.4,3.7,18.3c2.5,3.9,6.3,5.9,11.4,5.9c5,0,8.7-1.9,11.1-5.7
				c2.4-3.8,3.7-9.8,3.7-17.8V487z"/>
		</g>
		<g>
			<path fill="#8B0E04" d="M179.4,555.3v93.9h-5.5v-48.3H147v48.3h-5.5v-93.9h5.5v41.6h26.9v-41.6H179.4z"/>
			<path fill="#8B0E04" d="M222,618.2h-21l-5.6,30.9h-5.1l17.4-93.9h2.8h2h2.9L233,649h-5.3L222,618.2z M221.4,614.2l-9.7-53.9
				l-9.8,53.9H221.4z"/>
			<path fill="#8B0E04" d="M274.1,584.8v-17.4c0-4-2.7-8.5-6.6-8.5h-12.1c-4,0-6.6,4.5-6.6,8.5v69.7c0,4,2.7,8,6.6,8h12.1
				c4,0,6.6-4,6.6-8V617h5.5v20.1c0,6.5-5.2,12.5-11.6,12.5h-12.6c-6.6,0-12.1-5.8-12.1-12.5v-69.7c0-6.6,5.5-12.5,12.1-12.5h12.1
				c6.6,0,12.1,5.8,12.1,12.5v17.4H274.1z"/>
			<path fill="#8B0E04" d="M304.4,599l-7.4,14.5v35.6h-5.2v-93.9h5.2v47.6l24.3-47.6h5.5l-19.5,38l20.9,55.8h-5.5L304.4,599z"/>
			<path fill="#8B0E04" d="M368.3,618.2h-21l-5.6,30.9h-5.1l17.4-93.9h2.8h2h2.9l17.4,93.9h-5.3L368.3,618.2z M367.6,614.2
				l-9.7-53.9l-9.8,53.9H367.6z"/>
			<path fill="#8B0E04" d="M418.6,559.3h-17.4v89.9h-5.3v-89.9h-17.6v-4h17.6h5.3h17.4V559.3z"/>
			<path fill="#8B0E04" d="M466,555.3v93.9h-5.5v-48.3h-26.9v48.3h-5.5v-93.9h5.5v41.6h26.9v-41.6H466z"/>
			<path fill="#8B0E04" d="M516.5,567.4v69.7c0,6.6-5.5,12.5-12.1,12.5H491c-6.6,0-12.1-5.8-12.1-12.5v-69.7
				c0-6.6,5.5-12.5,12.1-12.5h13.4C511.1,554.9,516.5,560.8,516.5,567.4z M511.2,637.1v-69.7c0-4-2.8-8.5-6.8-8.5H491
				c-4,0-6.6,4.5-6.6,8.5v69.7c0,4,2.7,8.5,6.6,8.5h13.4C508.4,645.6,511.2,641.1,511.2,637.1z"/>
			<path fill="#8B0E04" d="M567.2,555.3v93.9h-4.5h-0.8h-5.5l-21.4-89v89h-5.5v-93.9h4.3h1.2h4.1l22.7,90.6v-90.6H567.2z"/>
		</g>
		<g>
			<g>
				<path fill="#565A62" d="M68,596.4v-5.9l4.3-5.5c5.6-7.1,10.2-13,10.2-19.2c0-3.5-1.9-5.9-5.5-5.9c-2.7,0-4.9,1.2-6.4,2.2
					l-1.6-6.7c2-1.3,5.7-2.7,9.6-2.7c9.4,0,12.5,6.3,12.5,12.5c0,8.1-5.1,14.6-10,20.4l-2.6,3.1v0.1h13.2v7.6H68z"/>
				<path fill="#565A62" d="M78.3,614.5h-0.1l-7.3,3.8l-1.5-6.8l9.9-5.1h7.6v43.2h-8.6V614.5z"/>
			</g>
			<g>
				<path fill="#565A62" d="M123,574.6c0,15.5-5.7,22.3-12.6,22.3c-9.4,0-12.6-10.8-12.6-21.9c0-12.4,4-22.3,12.9-22.3
					C120.7,552.6,123,564.3,123,574.6z M106.5,574.8c-0.1,10.1,1.1,14.7,4.1,14.7c2.7,0,3.7-4.8,3.7-14.7c0-9.3-0.9-14.7-3.7-14.7
					C107.8,560.1,106.4,564.7,106.5,574.8z"/>
				<path fill="#565A62" d="M101.1,642.9c1.7,0,2.5-0.1,3.9-0.3c1.7-0.3,3.6-1.2,5.1-2.6c1.9-1.8,3.5-4.9,4.2-8.7h-0.2
					c-1.4,1.5-3.4,2.7-6.2,2.7c-5.6,0-10.2-5-10.2-12.9c0-7.4,4.5-15.2,12.8-15.2c8,0,12.3,7.3,12.3,17.8c0,9.8-3.1,16.6-7.1,20.9
					c-2.7,2.9-6.4,4.8-10.7,5.5c-1.3,0.2-2.7,0.2-4,0.2V642.9z M106.3,620.3c0.1,4.2,1.4,7.6,4.1,7.6c1.5,0,2.9-1.1,3.3-2.3
					c0.3-0.8,0.4-1.7,0.4-4.6c0-5.7-1.6-8.9-4-8.9C107.9,612.1,106.2,615,106.3,620.3z"/>
			</g>
		</g>
		<g>
			<polygon fill="none" stroke="#FFFFFF" stroke-width="0.9235" stroke-miterlimit="10" points="286.9,453 286.4,452.9 286.8,452.7 
				287,452.9 			"/>
			<polygon fill="none" stroke="#FFFFFF" stroke-width="0.9235" stroke-miterlimit="10" points="357,225.5 357,225.5 357,225.5 			
				"/>
			<path fill="none" stroke="#FFFFFF" stroke-width="0.9235" stroke-miterlimit="10" d="M370,219.2L370,219.2
				C370.1,219.2,370,219.2,370,219.2z"/>
			<polygon fill="#565A62" stroke="#FFFFFF" stroke-width="0.9235" stroke-miterlimit="10" points="384.1,147.5 377.8,148.1 
				379.7,164.8 379.9,166.5 386.1,164.1 			"/>
			<polygon fill="#565A62" stroke="#FFFFFF" stroke-width="0.9235" stroke-miterlimit="10" points="358.1,171.7 353.5,167.8 
				342.9,169 350.9,177.9 357.2,175.4 360.8,174 			"/>
			<polygon fill="#7D706D" stroke="#FFFFFF" stroke-width="0.9235" stroke-miterlimit="10" points="368.6,166.1 364.4,164.5 
				363.3,156.8 377.8,148.1 379.7,164.8 			"/>
			<polygon fill="#492F24" stroke="#FFFFFF" stroke-width="0.9235" stroke-miterlimit="10" points="373.4,144.2 362.7,152.1 
				361.3,158 363.3,156.8 377.8,148.1 			"/>
			<polygon fill="#565A62" stroke="#FFFFFF" stroke-width="0.9235" stroke-miterlimit="10" points="338.3,155 342.9,169 350,164.8 
				355.7,161.4 			"/>
			<polygon fill="#565A62" stroke="#FFFFFF" stroke-width="0.9235" stroke-miterlimit="10" points="366.3,178.7 360.8,174 
				365.4,172.2 			"/>
			<polygon fill="#8B0E04" stroke="#FFFFFF" stroke-width="0.9235" stroke-miterlimit="10" points="379.9,166.5 386.1,164.1 
				400.6,177.9 380.4,170.4 			"/>
			<polygon fill="#837773" stroke="#FFFFFF" stroke-width="0.9235" stroke-miterlimit="10" points="368.6,166.1 375,168.4 
				365.4,172.2 364.6,166.5 			"/>
			<polygon fill="#A3A510" stroke="#FFFFFF" stroke-width="0.9235" stroke-miterlimit="10" points="379.9,166.5 379.7,164.8 
				368.6,166.1 375,168.4 380.4,170.4 			"/>
			<path fill="#565B63" stroke="#FFFFFF" stroke-width="0.9119" stroke-miterlimit="10" d="M367.6,212.4l6,2.1l4.1,8.9l6.8,14.9
				l-14.5-19.1C370.1,218.7,367.6,212.4,367.6,212.4z"/>
			<polygon fill="#A2A437" stroke="#FFFFFF" stroke-width="0.9119" stroke-miterlimit="10" points="394,232.4 395,235.4 
				384.6,238.3 377.8,223.4 			"/>
			<polygon fill="#565A62" stroke="#FFFFFF" stroke-width="0.9235" stroke-miterlimit="10" points="356.2,179.8 350.9,177.9 
				357.2,175.4 			"/>
			<polygon fill="#7A712E" stroke="#FFFFFF" stroke-width="0.9235" stroke-miterlimit="10" points="361.3,158 363.3,156.8 
				364.4,164.5 360.1,163 			"/>
			<polygon fill="#565A62" stroke="#FFFFFF" stroke-width="0.9235" stroke-miterlimit="10" points="364.4,164.5 360.1,163 
				359.1,167.2 364.7,166.5 368.6,166.1 			"/>
			<polygon fill="#565A62" stroke="#FFFFFF" stroke-width="0.9235" stroke-miterlimit="10" points="353.6,150.3 338.3,155 
				355.7,161.4 360.1,163 361.3,158 362.7,152.1 			"/>
			<polygon fill="#9A311B" stroke="#FFFFFF" stroke-width="0.9235" stroke-miterlimit="10" points="350,164.8 355.7,161.4 
				360.1,163 359.1,167.2 353.5,167.8 342.9,169 			"/>
			<polygon fill="#A3551C" stroke="#FFFFFF" stroke-width="0.9235" stroke-miterlimit="10" points="359.1,167.2 364.6,166.5 
				365.4,172.2 360.8,174 358.1,171.7 353.5,167.8 			"/>
			<polygon fill="none" stroke="#FFFFFF" stroke-width="0.9235" stroke-miterlimit="10" points="357.4,225.5 359.3,225.5 
				358.4,226.1 357.2,225.5 			"/>
			<polygon fill="#4A3025" stroke="#FFFFFF" stroke-width="0.9119" stroke-miterlimit="10" points="340.7,301.4 334.7,322.4 
				331.6,333.1 316.9,383.9 313.1,385.6 313.1,382.5 310.5,373.6 330.8,325.2 333.6,318.5 			"/>
			<polygon fill="#7E716D" stroke="#FFFFFF" stroke-width="0.9119" stroke-miterlimit="10" points="361.2,237.6 365.9,237.7 
				383.1,252.7 379.4,289.9 			"/>
			<polygon fill="#231F20" stroke="#FFFFFF" stroke-width="0.9119" stroke-miterlimit="10" points="340.7,301.4 333.6,318.5 
				330.7,325.2 327.8,297.6 332.7,297.1 			"/>
			<polygon fill="#8B0E04" stroke="#FFFFFF" stroke-width="0.9235" stroke-miterlimit="10" points="350.5,181.3 342.9,203.9 
				324.9,202.2 			"/>
			<polygon fill="#4A3025" stroke="#FFFFFF" stroke-width="0.9119" stroke-miterlimit="10" points="352.8,194.2 342.9,203.9 
				350.5,181.3 			"/>
			<polygon fill="#565A62" stroke="#FFFFFF" stroke-width="0.9235" stroke-miterlimit="10" points="350.9,177.9 356.2,179.8 
				352.8,194.2 350.5,181.3 			"/>
			<polygon fill="#492F24" stroke="#FFFFFF" stroke-width="0.9235" stroke-miterlimit="10" points="366.3,178.7 360.8,174 
				357.2,175.4 356.2,179.8 367,183.8 383,192.8 			"/>
			<polygon fill="#565A62" stroke="#FFFFFF" stroke-width="0.9235" stroke-miterlimit="10" points="365.4,172.2 375,168.4 
				380.4,170.4 383,192.8 366.3,178.7 			"/>
			<polygon fill="#4A3025" stroke="#FFFFFF" stroke-width="0.9119" stroke-miterlimit="10" points="339.4,270 342.6,258 
				345.2,286.7 			"/>
			<polygon fill="#B09430" stroke="#FFFFFF" stroke-width="0.9119" stroke-miterlimit="10" points="346.6,365.9 347.1,371 
				336,375.7 331.6,333.1 334.7,322.4 			"/>
			<polygon fill="#A5472F" stroke="#FFFFFF" stroke-width="0.9235" stroke-miterlimit="10" points="400.6,177.9 401.2,184.6 
				383,192.8 380.4,170.4 			"/>
			<polygon opacity="0.7" fill="#E6E6E5" stroke="#FFFFFF" stroke-width="0.9119" stroke-miterlimit="10" points="278.7,438 
				254.1,411.3 276.6,417.5 			"/>
			<polygon fill="#4A3025" stroke="#FFFFFF" stroke-width="0.9119" stroke-miterlimit="10" points="350.3,531.7 347.4,515.3 
				360.5,516.4 			"/>
			<polygon fill="#231F20" stroke="#FFFFFF" stroke-width="0.9119" stroke-miterlimit="10" points="366.6,543.2 350.3,531.7 
				360.5,516.4 			"/>
			<polygon fill="#231F20" stroke="#FFFFFF" stroke-width="0.9119" stroke-miterlimit="10" points="365.9,493 364.9,499.5 
				375.1,495.3 378.3,484.3 			"/>
			<polygon fill="#193C61" stroke="#FFFFFF" stroke-width="0.9119" stroke-miterlimit="10" points="282.6,413.8 278,408.1 
				296.6,406.2 			"/>
			<polygon fill="#89181A" stroke="#FFFFFF" stroke-width="0.9119" stroke-miterlimit="10" points="437.9,415.8 424.3,410.9 
				413.9,388.1 			"/>
			<polygon fill="#89181A" stroke="#FFFFFF" stroke-width="0.9119" stroke-miterlimit="10" points="455.4,437.8 442.5,434.1 
				451.1,432.3 			"/>
			<polygon fill="#7E716D" stroke="#FFFFFF" stroke-width="0.9119" stroke-miterlimit="10" points="450.8,431.9 451.1,432.3 
				442.5,434.1 424.3,410.9 			"/>
			<polygon fill="#4A3025" stroke="#FFFFFF" stroke-width="0.9119" stroke-miterlimit="10" points="442.5,434.1 437.4,437.3 
				424.3,410.9 			"/>
			<polygon fill="#565B63" stroke="#FFFFFF" stroke-width="0.9119" stroke-miterlimit="10" points="458.2,458.8 438.3,450.7 
				437.4,437.3 			"/>
			<polygon fill="#AA6728" stroke="#FFFFFF" stroke-width="0.9119" stroke-miterlimit="10" points="288.1,415 282.6,413.8 
				296.6,406.2 			"/>
			<polygon fill="#89181A" stroke="#FFFFFF" stroke-width="0.9119" stroke-miterlimit="10" points="451.5,470.1 452.8,477.4 
				446.8,471.4 440,470.3 451.4,469.9 			"/>
			<polygon fill="#4A3025" stroke="#FFFFFF" stroke-width="0.9119" stroke-miterlimit="10" points="455.4,483.4 429.1,490.3 
				440.1,474.6 			"/>
			<polygon fill="none" stroke="#FFFFFF" stroke-width="0.9235" stroke-miterlimit="10" points="287.1,453.1 286.9,453 287,452.9 
							"/>
			<path fill="#7A722E" stroke="#FFFFFF" stroke-width="0.9119" stroke-miterlimit="10" d="M299.5,456.5l-12.5-3.4l-0.1-0.2
				l-0.2-0.2l10.5-6.2C297.3,446.5,299.4,456,299.5,456.5z"/>
			<polygon opacity="0.7" fill="#AA6728" stroke="#FFFFFF" stroke-width="0.9119" stroke-miterlimit="10" points="286.8,452.7 
				280.2,446.1 280.2,445.6 297.3,446.5 			"/>
			<polygon fill="#231F20" stroke="#FFFFFF" stroke-width="0.9119" stroke-miterlimit="10" points="294.6,475.1 288.5,463.9 
				282.5,457.7 286.9,453 287.1,453.1 			"/>
			<polygon opacity="0.7" fill="#B4B4B4" stroke="#FFFFFF" stroke-width="0.9119" stroke-miterlimit="10" points="280.2,445.6 
				278.7,438 297.3,446.5 			"/>
			<path fill="#4A3025" stroke="#FFFFFF" stroke-width="0.9119" stroke-miterlimit="10" d="M299.5,456.5c0.1,0.5-3.7,20.9-3.7,20.9
				l-1.2-2.2l-7.5-22.1L299.5,456.5z"/>
			<polygon fill="#F3F3F3" stroke="#FFFFFF" stroke-width="0.9235" stroke-miterlimit="10" points="300.3,426.4 288.1,415 
				296.6,406.2 			"/>
			<polygon fill="#231F20" stroke="#FFFFFF" stroke-width="0.9119" stroke-miterlimit="10" points="298.6,435.6 284.7,422 
				300.3,426.4 			"/>
			<polygon fill="#4A3025" stroke="#FFFFFF" stroke-width="0.9119" stroke-miterlimit="10" points="284.7,422 288.1,415 
				300.3,426.4 			"/>
			<polygon fill="#7A722E" stroke="#FFFFFF" stroke-width="0.9119" stroke-miterlimit="10" points="254.1,411.3 260,399.7 
				278,408.1 			"/>
			<polygon opacity="0.7" fill="#B4B4B4" stroke="#FFFFFF" stroke-width="0.9119" stroke-miterlimit="10" points="297.3,446.5 
				278.7,438 276.6,417.5 			"/>
			<polygon fill="#4A3025" stroke="#FFFFFF" stroke-width="0.9119" stroke-miterlimit="10" points="375.2,331.9 340.7,301.4 
				341.1,290.3 345.2,286.7 375.2,331.9 			"/>
			<polygon opacity="0.7" fill="#E6E6E5" stroke="#FFFFFF" stroke-width="0.9119" stroke-miterlimit="10" points="276.6,417.5 
				254.1,411.3 278,408.1 			"/>
			<polygon fill="#89181A" stroke="#FFFFFF" stroke-width="0.9119" stroke-miterlimit="10" points="384.9,205.6 390.2,206 
				403.9,204.3 390.5,214.5 411.1,211.7 416.6,215.7 416.5,218.5 390,214.5 			"/>
			<polygon fill="#AA6728" stroke="#FFFFFF" stroke-width="0.9119" stroke-miterlimit="10" points="403.9,204.3 411.8,209.6 
				411.1,211.7 390.5,214.5 			"/>
			<polygon fill="#984922" stroke="#FFFFFF" stroke-width="0.9119" stroke-miterlimit="10" points="387.8,214.1 384.9,205.6 
				383.5,210 379,212.8 388.1,215.1 			"/>
			<polygon fill="#B09430" stroke="#FFFFFF" stroke-width="0.9119" stroke-miterlimit="10" points="390.7,222.9 380.5,222.7 
				379,212.8 388.1,215.1 			"/>
			<polygon fill="#A2A437" stroke="#FFFFFF" stroke-width="0.9119" stroke-miterlimit="10" points="396.3,225.2 419.1,228.9 
				401.2,233.8 			"/>
			<polygon fill="#193C61" stroke="#FFFFFF" stroke-width="0.9119" stroke-miterlimit="10" points="419.1,228.9 411.4,237.5 
				408.5,234.9 403.5,237.7 401.2,233.8 			"/>
			<polygon fill="#AB650D" stroke="#FFFFFF" stroke-width="0.9235" stroke-miterlimit="10" points="401.2,233.8 403.5,237.7 
				398,234.6 			"/>
			<polygon fill="#AA6728" stroke="#FFFFFF" stroke-width="0.9119" stroke-miterlimit="10" points="390.8,215.8 420.3,223.4 
				394.9,222.9 			"/>
			<polygon fill="#7E716D" stroke="#FFFFFF" stroke-width="0.9119" stroke-miterlimit="10" points="390,214.5 416.5,218.5 
				420.3,223.4 390.8,215.8 			"/>
			<polygon fill="#7A722E" stroke="#FFFFFF" stroke-width="0.9119" stroke-miterlimit="10" points="394.9,222.9 420.3,223.4 
				419.1,228.9 396.3,225.2 			"/>
			<polygon fill="#A2A437" stroke="#FFFFFF" stroke-width="0.9119" stroke-miterlimit="10" points="426.7,393.7 413.9,388.1 
				411.6,378.8 			"/>
			<polygon fill="#231F20" stroke="#FFFFFF" stroke-width="0.9119" stroke-miterlimit="10" points="397.4,329.2 395.8,336.8 
				390.5,321.8 			"/>
			<polygon fill="#231F20" stroke="#FFFFFF" stroke-width="0.9119" stroke-miterlimit="10" points="404.9,326.1 400.2,318.3 
				397.4,329.2 405.5,335.2 			"/>
			<polygon fill="#231F20" stroke="#FFFFFF" stroke-width="0.9119" stroke-miterlimit="10" points="400.2,318.3 397.4,329.2 
				390.5,321.8 			"/>
			<polygon fill="#A2A437" stroke="#FFFFFF" stroke-width="0.9119" stroke-miterlimit="10" points="405.3,344.9 412.1,367.1 
				404.3,367.8 			"/>
			<polygon fill="#A2A437" stroke="#FFFFFF" stroke-width="0.9119" stroke-miterlimit="10" points="420.7,385.3 411.6,378.8 
				417.7,376 			"/>
			<polygon fill="#A2A437" stroke="#FFFFFF" stroke-width="0.9119" stroke-miterlimit="10" points="395,235.4 394,232.4 398,234.6 
							"/>
			<polygon fill="#994708" stroke="#FFFFFF" stroke-width="0.9235" stroke-miterlimit="10" points="398,234.6 395,235.4 
				384.6,238.3 387.2,244.1 396.3,239.2 399.7,243.7 403.5,237.7 			"/>
			<polygon fill="#AB650D" stroke="#FFFFFF" stroke-width="0.9119" stroke-miterlimit="10" points="380.5,222.7 390.7,222.9 
				391.3,224.4 394,232.4 377.8,223.4 			"/>
			<polygon fill="#7A722E" stroke="#FFFFFF" stroke-width="0.9119" stroke-miterlimit="10" points="396.3,225.2 394.9,222.9 
				390.8,215.8 390,214.5 384.9,205.6 387.8,214.1 388.1,215.1 390.7,222.9 391.3,224.4 394,232.4 398,234.6 401.2,233.8 			"/>
			<polygon fill="#565B63" stroke="#FFFFFF" stroke-width="0.9119" stroke-miterlimit="10" points="395.8,336.8 387.7,338.3 
				390.5,321.8 			"/>
			<polygon fill="#565A62" stroke="#FFFFFF" stroke-width="0.9235" stroke-miterlimit="10" points="367,183.8 367,188.7 
				352.8,194.2 356.2,179.8 			"/>
			<polygon fill="#4A3025" stroke="#FFFFFF" stroke-width="0.9119" stroke-miterlimit="10" points="312.8,398.2 308.2,398.9 
				303.1,389.8 307.7,387.8 			"/>
			<polygon fill="#565B63" stroke="#FFFFFF" stroke-width="0.9119" stroke-miterlimit="10" points="316.9,383.9 312.8,398.1 
				307.7,387.8 313.1,385.6 			"/>
			<polygon fill="#565B63" stroke="#FFFFFF" stroke-width="0.9119" stroke-miterlimit="10" points="232.7,294.1 244.9,261 
				236.3,293.5 			"/>
			<polygon fill="#565B63" stroke="#FFFFFF" stroke-width="0.9119" stroke-miterlimit="10" points="360.5,516.4 347.4,515.3 
				350.7,505.7 356.5,473.6 			"/>
			<polygon fill="#8B0E04" stroke="#FFFFFF" stroke-width="0.9235" stroke-miterlimit="10" points="310.5,373.6 302,370.3 
				284.1,397.4 319.9,287.3 			"/>
			<polygon fill="#565B63" stroke="#FFFFFF" stroke-width="0.9119" stroke-miterlimit="10" points="327.9,297.6 330.7,325.2 
				310.5,373.6 319.9,287.3 			"/>
			<polygon fill="#984922" stroke="#FFFFFF" stroke-width="0.9119" stroke-miterlimit="10" points="319.9,287.3 284.1,397.4 
				289.3,284.8 			"/>
			<polygon fill="#231F20" stroke="#FFFFFF" stroke-width="0.9119" stroke-miterlimit="10" points="306.3,384.9 303.1,389.8 
				307.7,387.8 313.1,385.5 313.1,382.5 			"/>
			<polygon fill="#565B63" stroke="#FFFFFF" stroke-width="0.9119" stroke-miterlimit="10" points="378.3,484.3 378.3,425.2 
				393.2,431.5 			"/>
			<polygon fill="#7E716D" stroke="#FFFFFF" stroke-width="0.9119" stroke-miterlimit="10" points="382.2,503.1 367.2,503.8 
				376.5,500.3 378.3,496.3 385.7,495.4 			"/>
			<path fill="#7A712E" stroke="#FFFFFF" stroke-width="0.9235" stroke-miterlimit="10" d="M358.8,491.7l0.6-33.5
				c0,0-2.4-6-5.4-13.2l2.6,28.7l3.9,42.8l1.1-1.9L358.8,491.7z"/>
			<polygon fill="#B09430" stroke="#FFFFFF" stroke-width="0.9119" stroke-miterlimit="10" points="378.3,425.2 365.1,432.9 
				368.9,394.4 			"/>
			<polygon fill="#B09430" stroke="#FFFFFF" stroke-width="0.9119" stroke-miterlimit="10" points="393.2,431.5 378.3,425.2 
				396.7,419.4 			"/>
			<polygon fill="#7E716D" stroke="#FFFFFF" stroke-width="0.9119" stroke-miterlimit="10" points="372.4,360.2 380.6,356.7 
				378.3,425.2 368.9,394.4 			"/>
			<polygon fill="#4A3025" stroke="#FFFFFF" stroke-width="0.9119" stroke-miterlimit="10" points="394.7,475.7 391.8,482.2 
				388.8,488.8 378.3,484.3 			"/>
			<polygon fill="#A2A437" stroke="#FFFFFF" stroke-width="0.9119" stroke-miterlimit="10" points="274.6,259 292.7,249.9 
				279.6,268.2 			"/>
			<polygon fill="#565B63" stroke="#FFFFFF" stroke-width="0.9119" stroke-miterlimit="10" points="255.2,307.7 245.9,329.1 
				256.6,352 278.7,345.3 			"/>
			<polygon fill="#AA6728" stroke="#FFFFFF" stroke-width="0.9119" stroke-miterlimit="10" points="292.7,249.9 286.3,280.6 
				279.6,268.2 			"/>
			<polygon fill="#7E716D" stroke="#FFFFFF" stroke-width="0.9119" stroke-miterlimit="10" points="272.7,277.8 286.3,280.6 
				272.9,288.3 			"/>
			<polygon fill="#4A3025" stroke="#FFFFFF" stroke-width="0.9119" stroke-miterlimit="10" points="289.2,284.8 284,397.4 
				272.9,288.3 286.3,280.6 			"/>
			<path fill="#4A3025" stroke="#FFFFFF" stroke-width="0.9119" stroke-miterlimit="10" d="M262.9,395.2c0.2,0,0.2,0,0.2,0
				C263,395.2,262.9,395.2,262.9,395.2c-2.7-0.6-32.3-10.8-32.3-10.8l5.6-12.4l41.8,36.1l-18-8.5C260,399.7,262,395.5,262.9,395.2z"
				/>
			<path fill="#231F20" stroke="#FFFFFF" stroke-width="0.9119" stroke-miterlimit="10" d="M230.5,384.4c0,0,29.6,10.2,32.3,10.8
				c-0.8,0.3-2.8,4.4-2.8,4.4l-14.6-9.4L230.5,384.4z"/>
			<path fill="none" stroke="#FFFFFF" stroke-width="0.9235" stroke-miterlimit="10" d="M263.1,395.3c0,0,0,0-0.2,0
				C262.9,395.2,263,395.2,263.1,395.3z"/>
			<polygon fill="#565B63" stroke="#FFFFFF" stroke-width="0.9119" stroke-miterlimit="10" points="249.9,359.1 255.1,356.8 
				256.6,352 284.1,397.4 236.2,372 			"/>
			<polygon fill="#B09430" stroke="#FFFFFF" stroke-width="0.9119" stroke-miterlimit="10" points="278.7,345.3 255.2,307.7 
				272.9,288.3 284.1,397.4 256.6,352 			"/>
			<polygon fill="#F3F3F3" stroke="#FFFFFF" stroke-width="0.9235" stroke-miterlimit="10" points="296.6,406.2 278,408.2 
				236.2,372 284.1,397.4 			"/>
			<polygon fill="#4A3025" stroke="#FFFFFF" stroke-width="0.9119" stroke-miterlimit="10" points="243,318.3 236.3,293.5 
				247.8,316.1 			"/>
			<polygon fill="#B09430" stroke="#FFFFFF" stroke-width="0.9119" stroke-miterlimit="10" points="236.3,293.5 244.9,261 
				247.8,316.1 			"/>
			<polygon fill="#231F20" stroke="#FFFFFF" stroke-width="0.9119" stroke-miterlimit="10" points="247.8,316.1 244.9,261 
				253.4,287.4 			"/>
			<polygon fill="#4A3025" stroke="#FFFFFF" stroke-width="0.9119" stroke-miterlimit="10" points="271.6,253.4 281.4,234.3 
				292.7,249.9 274.6,259 			"/>
			<polygon fill="#565B63" stroke="#FFFFFF" stroke-width="0.9119" stroke-miterlimit="10" points="244.9,261 244.3,254.5 
				254.2,242.2 253.4,287.4 			"/>
			<polygon fill="#231F20" stroke="#FFFFFF" stroke-width="0.9119" stroke-miterlimit="10" points="231.9,333.3 235.5,316.9 
				243,318.3 			"/>
			<polygon fill="#565B63" stroke="#FFFFFF" stroke-width="0.9119" stroke-miterlimit="10" points="235.5,316.9 236.3,293.5 
				243,318.3 			"/>
			<polygon fill="#8B0E04" stroke="#FFFFFF" stroke-width="0.9235" stroke-miterlimit="10" points="258.9,229.8 263,265.4 
				266.6,263.1 271.6,253.4 281.4,234.3 			"/>
			<polygon fill="#565B63" stroke="#FFFFFF" stroke-width="0.9119" stroke-miterlimit="10" points="274.6,259 266.6,263.1 
				271.6,253.4 			"/>
			<polygon fill="#4A3025" stroke="#FFFFFF" stroke-width="0.9119" stroke-miterlimit="10" points="231.9,319.4 236.3,293.5 
				235.5,316.9 			"/>
			<polygon fill="#565B63" stroke="#FFFFFF" stroke-width="0.9119" stroke-miterlimit="10" points="254.2,242.2 258.9,229.8 
				263,265.4 			"/>
			<polygon fill="#4A3025" stroke="#FFFFFF" stroke-width="0.9119" stroke-miterlimit="10" points="259.1,280.8 253.4,287.4 
				254.2,242.2 263,265.4 			"/>
			<polygon fill="#AA6728" stroke="#FFFFFF" stroke-width="0.9119" stroke-miterlimit="10" points="279.6,268.2 274.6,259 
				266.6,263.1 272.7,277.8 286.3,280.6 			"/>
			<polygon fill="#B09430" stroke="#FFFFFF" stroke-width="0.9119" stroke-miterlimit="10" points="388.9,344.1 387.7,338.3 
				390.5,321.8 382.1,310.7 377.9,305 375.2,331.9 381.2,337.3 			"/>
			<polygon fill="#B09430" stroke="#FFFFFF" stroke-width="0.9119" stroke-miterlimit="10" points="388.8,488.8 378.3,484.3 
				375.1,495.3 378.3,496.3 385.7,495.4 400.3,493.7 			"/>
			<polygon fill="#7A722E" stroke="#FFFFFF" stroke-width="0.9119" stroke-miterlimit="10" points="384.1,253.5 389.5,258.2 
				390.7,287.8 391.8,317.5 390.5,321.8 382.5,298.9 			"/>
			<polygon fill="#7A722E" stroke="#FFFFFF" stroke-width="0.9119" stroke-miterlimit="10" points="384.6,238.3 384.8,247.8 
				389.5,258.2 384.1,253.5 			"/>
			<polygon fill="#565B63" stroke="#FFFFFF" stroke-width="0.9119" stroke-miterlimit="10" points="403.8,493.3 400.3,493.7 
				388.8,488.8 391.8,482.2 403.1,480.4 			"/>
			<polygon fill="#A2A437" stroke="#FFFFFF" stroke-width="0.9119" stroke-miterlimit="10" points="414.8,478.6 416.8,491.8 
				403.8,493.3 403.1,480.4 			"/>
			<polygon fill="#7E716D" stroke="#FFFFFF" stroke-width="0.9119" stroke-miterlimit="10" points="365.9,237.7 384.6,238.3 
				383.1,252.7 			"/>
			<path fill="#565B63" stroke="#FFFFFF" stroke-width="0.9119" stroke-miterlimit="10" d="M357,225.5l7.1-9.2c0,0,5.1,2.9,5.8,2.9
				l-12.6,6.2L357,225.5z"/>
			<polygon fill="#4A3025" stroke="#FFFFFF" stroke-width="0.9119" stroke-miterlimit="10" points="382.2,503.1 367.2,503.8 
				366.5,508.2 375.7,517.3 404.3,502.1 			"/>
			<path fill="#B09430" stroke="#FFFFFF" stroke-width="0.9119" stroke-miterlimit="10" d="M359.3,225.5l-1.9,0l12.6-6.2
				c0.1,0,0.1,0,0.1,0l14.5,19.1l-26.2-12.2L359.3,225.5z"/>
			<polygon fill="none" stroke="#FFFFFF" stroke-width="0.9235" stroke-miterlimit="10" points="357.2,225.5 357,225.5 357,225.5 
				357.4,225.5 			"/>
			<polygon fill="#565B63" stroke="#FFFFFF" stroke-width="0.9119" stroke-miterlimit="10" points="324.9,202.2 342.9,203.9 
				337.5,213.1 			"/>
			<polygon fill="#565B63" stroke="#FFFFFF" stroke-width="0.9119" stroke-miterlimit="10" points="394.7,475.7 401.9,459.9 
				402.6,471.6 403.1,480.4 391.8,482.2 			"/>
			<polygon fill="#B09430" stroke="#FFFFFF" stroke-width="0.9119" stroke-miterlimit="10" points="357,225.5 357,225.5 
				351.7,225.5 330.2,225.4 341.9,237 355,228.3 357.4,226.7 			"/>
			<polygon fill="#565B63" stroke="#FFFFFF" stroke-width="0.9119" stroke-miterlimit="10" points="337.5,213.1 342.9,203.9 
				357,225.5 351.7,225.5 			"/>
			<polygon fill="#4A3025" stroke="#FFFFFF" stroke-width="0.9119" stroke-miterlimit="10" points="330.2,225.4 324.9,202.2 
				337.5,213.1 			"/>
			<polygon fill="#565B63" stroke="#FFFFFF" stroke-width="0.9119" stroke-miterlimit="10" points="402.8,397.7 410.1,372 
				411.6,378.8 413.9,388.1 424.3,410.9 405.6,416.7 			"/>
			<polygon fill="#565B63" stroke="#FFFFFF" stroke-width="0.9119" stroke-miterlimit="10" points="451.4,469.9 438.3,450.7 
				437.8,453.2 432.5,475.8 440.1,474.6 440,470.3 			"/>
			<polygon fill="#565B63" stroke="#FFFFFF" stroke-width="0.9119" stroke-miterlimit="10" points="424.3,410.9 438.3,450.7 
				411.4,439.2 			"/>
			<polygon fill="#A2A437" stroke="#FFFFFF" stroke-width="0.9119" stroke-miterlimit="10" points="440.1,474.6 429.1,490.3 
				432.5,475.8 			"/>
			<polygon fill="#B09430" stroke="#FFFFFF" stroke-width="0.9119" stroke-miterlimit="10" points="413,466.2 409.6,443.2 
				411.4,439.2 438.3,450.7 437.8,453.2 			"/>
			<polygon fill="#231F20" stroke="#FFFFFF" stroke-width="0.9119" stroke-miterlimit="10" points="418.2,501.3 404.3,502.1 
				403.9,495.2 			"/>
			<polygon fill="#B09430" stroke="#FFFFFF" stroke-width="0.9119" stroke-miterlimit="10" points="385.7,495.4 400.3,493.7 
				403.9,495.2 404.3,502.1 382.2,503.1 			"/>
			<polygon fill="#89181A" stroke="#FFFFFF" stroke-width="0.9119" stroke-miterlimit="10" points="414.8,478.6 432.5,475.8 
				429.1,490.3 416.8,491.8 			"/>
			<polygon fill="#B09430" stroke="#FFFFFF" stroke-width="0.9119" stroke-miterlimit="10" points="429.1,490.3 418.2,501.3 
				416.8,491.8 			"/>
			<polygon fill="#89181A" stroke="#FFFFFF" stroke-width="0.9119" stroke-miterlimit="10" points="404.3,367.8 412.1,367.1 
				411.6,372.8 410.1,372 			"/>
			<polygon fill="#984922" stroke="#FFFFFF" stroke-width="0.9119" stroke-miterlimit="10" points="400.5,434.6 400.5,434.6 
				399.6,418.5 399.2,410.6 396.7,419.4 393.2,431.5 393.2,431.5 378.3,484.3 394.7,475.7 401.9,459.9 			"/>
			<polygon fill="#4A3025" stroke="#FFFFFF" stroke-width="0.9119" stroke-miterlimit="10" points="424.3,410.9 411.4,439.2 
				409.6,443.2 408.8,438.2 405.6,416.7 			"/>
			<polygon fill="#4A3025" stroke="#FFFFFF" stroke-width="0.9119" stroke-miterlimit="10" points="414.8,478.6 403.1,480.4 
				402.6,471.6 401.9,459.9 400.5,434.6 399.6,418.5 399.2,410.6 395.8,350.2 404.2,367.8 410.1,372 402.8,397.7 405.7,416.6 
				408.8,438.2 409.6,443.2 413,466.2 			"/>
			<polygon fill="#984922" stroke="#FFFFFF" stroke-width="0.9119" stroke-miterlimit="10" points="417.7,376 411.6,378.8 
				410.1,372 			"/>
			<polygon fill="#565B63" stroke="#FFFFFF" stroke-width="0.9119" stroke-miterlimit="10" points="437.4,437.3 438.3,450.7 
				424.3,410.9 			"/>
			<polygon fill="#4A3025" stroke="#FFFFFF" stroke-width="0.9119" stroke-miterlimit="10" points="355.2,274.8 341.9,237 
				342.6,258 345.2,286.7 375.2,331.9 			"/>
			<polygon fill="#A3A510" stroke="#FFFFFF" stroke-width="0.9235" stroke-miterlimit="10" points="383.1,252.7 383.1,252.7 
				379.4,289.9 377.9,305 382.1,310.7 382.5,298.9 384.1,253.5 384.6,238.3 			"/>
			<polygon fill="none" stroke="#FFFFFF" stroke-width="0.9235" stroke-miterlimit="10" points="375.2,331.9 375.2,331.9 
				375.2,331.9 			"/>
			<polygon fill="#565B63" stroke="#FFFFFF" stroke-width="0.9119" stroke-miterlimit="10" points="379.4,289.9 377.9,305 
				355.2,274.8 342,237 355,228.3 357.4,226.7 359.3,232 361.2,237.5 			"/>
			<polygon fill="none" stroke="#FFFFFF" stroke-width="0.9235" stroke-miterlimit="10" points="357.2,225.5 357.2,225.5 
				357.2,225.5 358.4,226.1 357.4,226.7 357,225.5 			"/>
			<polygon fill="#A3A510" stroke="#FFFFFF" stroke-width="0.9235" stroke-miterlimit="10" points="382.5,298.9 390.5,321.8 
				382.1,310.7 			"/>
			<polygon fill="#B09430" stroke="#FFFFFF" stroke-width="0.9119" stroke-miterlimit="10" points="358.4,226.1 357.4,226.7 
				359.3,232 361.2,237.6 365.9,237.7 384.6,238.3 			"/>
			<polygon fill="#89181A" stroke="#FFFFFF" stroke-width="0.9119" stroke-miterlimit="10" points="403.8,493.3 416.7,491.8 
				418.2,501.3 403.9,495.2 400.3,493.7 			"/>
			<polygon fill="#7E716D" stroke="#FFFFFF" stroke-width="0.9119" stroke-miterlimit="10" points="395.8,350.2 399.2,410.6 
				396.7,419.4 378.3,425.2 380.6,356.7 			"/>
			<polygon fill="#7E716D" stroke="#FFFFFF" stroke-width="0.9119" stroke-miterlimit="10" points="395.8,350.2 380.6,356.7 
				372.4,360.2 360.2,365.4 347.1,371 346.6,365.9 340.7,301.4 375.2,331.9 381.3,337.3 			"/>
			<polygon fill="#4A3025" stroke="#FFFFFF" stroke-width="0.9119" stroke-miterlimit="10" points="334.7,322.4 340.7,301.4 
				346.6,365.9 			"/>
			<polygon fill="#565B63" stroke="#FFFFFF" stroke-width="0.9119" stroke-miterlimit="10" points="316.9,383.9 331.6,333.1 
				336,375.7 			"/>
			<polygon fill="#984922" stroke="#FFFFFF" stroke-width="0.9119" stroke-miterlimit="10" points="437.8,453.2 432.5,475.8 
				414.8,478.6 413,466.2 			"/>
			<polygon fill="#A3A510" stroke="#FFFFFF" stroke-width="0.9235" stroke-miterlimit="10" points="355.2,274.8 377.9,305 
				375.2,331.9 			"/>
			<polygon fill="#565B63" stroke="#FFFFFF" stroke-width="0.9119" stroke-miterlimit="10" points="351.7,225.5 330.2,225.4 
				337.5,213.1 			"/>
			<path fill="#565B63" stroke="#FFFFFF" stroke-width="0.9119" stroke-miterlimit="10" d="M356.5,473.6l-5.8,32.1l-1.4-20.1
				l-0.7-12.4l0-0.4l0-0.1L334.7,430l6.3-7.1l1-1.2l-1.4-1.8l-8.4-11.3l-4.4-5.9l9.9-9.5l10.4-9.9l0.5,5.5l5.2,56.2c0,0,0,0.1,0,0.1
				L356.5,473.6z"/>
			<path fill="#A2A437" stroke="#FFFFFF" stroke-width="0.9119" stroke-miterlimit="10" d="M372.4,360.2l-3.4,34.2l-3.8,38.5
				l-5.8,25.3c0,0-2.4-6-5.4-13.2l-5.2-56.3l-0.5-5.5l2.5-2.4L372.4,360.2z"/>
			<polygon fill="#7D706D" stroke="#FFFFFF" stroke-width="0.9235" stroke-miterlimit="10" points="372.4,360.2 350.8,380.8 
				348.2,383.3 337.9,393.1 327.9,402.6 324.3,404.8 320.5,420 313.8,409.4 312.8,398.1 316.9,383.9 336.1,375.7 347.1,371 
				347.9,370.6 360.1,365.4 			"/>
		</g>
	</g>
</g>
</svg>
