<?xml version="1.0" encoding="utf-8"?>
<!-- Generator: Adobe Illustrator 18.1.1, SVG Export Plug-In . SVG Version: 6.00 Build 0)  -->
<svg version="1.1" baseProfile="basic" xmlns="http://www.w3.org/2000/svg" xmlns:xlink="http://www.w3.org/1999/xlink" x="0px"
	 y="0px" width="792px" height="612px" viewBox="0 0 792 612" xml:space="preserve">
<g id="Layer_1">
</g>
<g id="background">
</g>
<g id="Artwork">
	<g opacity="0.87">
		<g>
			<g>
				<polygon fill="none" stroke="#8B0E04" stroke-width="0.9489" stroke-miterlimit="10" points="197.4,370.7 204.5,344 
					231.2,336.9 250.7,356.4 243.5,383 216.9,390.2 				"/>
				<polygon fill="none" stroke="#8B0E04" stroke-width="0.9489" stroke-miterlimit="10" points="244,383.5 251.1,356.9 
					277.8,349.7 297.3,369.2 290.2,395.9 263.5,403 				"/>
				<polygon fill="none" stroke="#8B0E04" stroke-width="0.9489" stroke-miterlimit="10" points="337,408.3 344.2,381.6 
					370.8,374.5 390.3,394 383.2,420.6 356.5,427.8 				"/>
			</g>
			<g>
				<polygon fill="none" stroke="#8B0E04" stroke-width="0.9489" stroke-miterlimit="10" points="116.3,217.9 123.4,191.3 
					150.1,184.1 169.6,203.6 162.5,230.3 135.8,237.4 				"/>
				<polygon fill="none" stroke="#8B0E04" stroke-width="0.9489" stroke-miterlimit="10" points="209.3,242.7 216.5,216 
					243.1,208.9 262.6,228.4 255.5,255.1 228.8,262.2 				"/>
			</g>
			<polygon fill="none" stroke="#8B0E04" stroke-width="0.9489" stroke-miterlimit="10" points="231.5,336.5 238.6,309.9 
				265.3,302.7 284.8,322.2 277.7,348.9 251,356 			"/>
			<polygon fill="none" stroke="#8B0E04" stroke-width="0.9489" stroke-miterlimit="10" points="342.2,481 349.3,454.3 376,447.2 
				395.5,466.7 388.3,493.4 361.7,500.5 			"/>
			<polygon fill="none" stroke="#8B0E04" stroke-width="0.9489" stroke-miterlimit="10" points="324.5,361.3 331.7,334.6 
				358.3,327.5 377.8,347 370.7,373.7 344,380.8 			"/>
			<polygon fill="none" stroke="#8B0E04" stroke-width="0.9489" stroke-miterlimit="10" points="321.7,187.7 328.8,161.1 
				355.4,153.9 375,173.4 367.8,200.1 341.2,207.2 			"/>
			<polygon fill="none" stroke="#8B0E04" stroke-width="0.9489" stroke-miterlimit="10" points="355.8,153.6 362.9,126.9 
				389.6,119.8 409.1,139.3 402,166 375.3,173.1 			"/>
			<polygon fill="none" stroke="#8B0E04" stroke-width="0.9489" stroke-miterlimit="10" points="310.1,142.1 317.3,115.4 
				343.9,108.3 363.4,127.8 356.3,154.4 329.6,161.6 			"/>
			<polygon fill="none" stroke="#8B0E04" stroke-width="0.9489" stroke-miterlimit="10" points="344.3,107.9 351.4,81.3 378.1,74.1 
				397.6,93.6 390.4,120.3 363.8,127.4 			"/>
			<polygon fill="none" stroke="#8B0E04" stroke-width="0.9489" stroke-miterlimit="10" points="229.9,164.6 237,137.9 263.7,130.8 
				283.2,150.3 276.1,177 249.4,184.1 			"/>
			<polygon fill="none" stroke="#8B0E04" stroke-width="0.9489" stroke-miterlimit="10" points="183.3,151.8 190.4,125.1 217.1,118 
				236.6,137.5 229.5,164.1 202.8,171.3 			"/>
			<polygon fill="none" stroke="#8B0E04" stroke-width="0.9489" stroke-miterlimit="10" points="298.3,96.1 305.5,69.5 332.1,62.3 
				351.7,81.9 344.5,108.5 317.9,115.7 			"/>
			<polygon fill="none" stroke="#8B0E04" stroke-width="0.9489" stroke-miterlimit="10" points="312.3,315.2 319.4,288.6 
				346.1,281.4 365.6,301 358.4,327.6 331.8,334.7 			"/>
			<polygon fill="none" stroke="#8B0E04" stroke-width="0.9489" stroke-miterlimit="10" points="358.7,327.2 365.8,300.5 
				392.5,293.4 412,312.9 404.8,339.5 378.2,346.7 			"/>
			<polygon fill="none" stroke="#8B0E04" stroke-width="0.9489" stroke-miterlimit="10" points="405.3,340 412.5,313.3 439.1,306.2 
				458.6,325.7 451.5,352.4 424.8,359.5 			"/>
			<g>
				<polygon fill="none" stroke="#8B0E04" stroke-width="0.9489" stroke-miterlimit="10" points="299.8,268.3 306.9,241.6 
					333.6,234.5 353.1,254 345.9,280.6 319.3,287.8 				"/>
				<polygon fill="none" stroke="#8B0E04" stroke-width="0.9489" stroke-miterlimit="10" points="376,447.2 383.1,420.5 
					409.8,413.4 429.3,432.9 422.1,459.6 395.5,466.7 				"/>
				<polygon fill="none" stroke="#8B0E04" stroke-width="0.9489" stroke-miterlimit="10" points="439.4,305.9 446.6,279.2 
					473.2,272.1 492.8,291.6 485.6,318.2 459,325.4 				"/>
			</g>
			<g>
				<polygon fill="none" stroke="#8B0E04" stroke-width="0.9489" stroke-miterlimit="10" points="417.1,385.6 424.3,358.9 
					450.9,351.8 470.4,371.3 463.3,398 436.6,405.1 				"/>
				<polygon fill="none" stroke="#8B0E04" stroke-width="0.9489" stroke-miterlimit="10" points="463.8,398.4 470.9,371.8 
					497.5,364.6 517.1,384.2 509.9,410.8 483.3,418 				"/>
			</g>
			<g>
				<polygon fill="none" stroke="#8B0E04" stroke-width="0.9489" stroke-miterlimit="10" points="333.9,234.1 341.1,207.5 
					367.7,200.3 387.2,219.8 380.1,246.5 353.4,253.6 				"/>
				<polygon fill="none" stroke="#8B0E04" stroke-width="0.9489" stroke-miterlimit="10" points="380.6,247 387.7,220.3 
					414.3,213.2 433.9,232.7 426.7,259.3 400.1,266.5 				"/>
				<polygon fill="none" stroke="#8B0E04" stroke-width="0.9489" stroke-miterlimit="10" points="473.6,271.7 480.7,245.1 
					507.4,237.9 526.9,257.4 519.8,284.1 493.1,291.2 				"/>
			</g>
		</g>
		<polygon fill="none" stroke="#8B0E04" stroke-width="0.9489" stroke-miterlimit="10" points="378.1,74.1 385.2,47.5 411.9,40.3 
			431.4,59.8 424.2,86.5 397.6,93.6 		"/>
	</g>
	<g opacity="0.58">
		<polygon fill="none" stroke="#8B0E04" stroke-width="0.3923" stroke-miterlimit="10" points="96.2,280.8 492.4,311.2 453.5,430.1 
			96.2,403 		"/>
		<polygon fill="none" stroke="#8B0E04" stroke-width="0.3923" stroke-miterlimit="10" points="253.2,452.9 123.5,204.8 
			237.5,161.4 		"/>
		<polygon fill="none" stroke="#8B0E04" stroke-width="0.3923" stroke-miterlimit="10" points="171.4,409.7 517.5,214.3 
			551.2,334.7 		"/>
		<polygon fill="none" stroke="#8B0E04" stroke-width="0.3923" stroke-miterlimit="10" points="313.8,193.3 474.1,223.7 
			458.3,342.6 313.8,315.5 		"/>
		<polygon fill="none" stroke="#8B0E04" stroke-width="0.3923" stroke-miterlimit="10" points="188.7,470.5 290,342.6 387.9,411.6 
			296.9,527.1 		"/>
		<polygon fill="none" stroke="#8B0E04" stroke-width="0.3923" stroke-miterlimit="10" points="120.9,325 175.4,256.1 228.2,293.3 
			179.2,355.5 		"/>
		<polygon fill="none" stroke="#8B0E04" stroke-width="0.3923" stroke-miterlimit="10" points="247.8,285.5 287.3,235.5 
			325.6,262.5 290,307.6 		"/>
	</g>
	<g opacity="0.58">
		<polygon fill="none" stroke="#FFFFFF" stroke-width="0.3284" stroke-miterlimit="10" points="443.9,395.9 469.4,64.2 568.8,96.9 
			546.2,395.9 		"/>
		<polygon fill="none" stroke="#FFFFFF" stroke-width="0.3284" stroke-miterlimit="10" points="588,264.5 380.3,373.1 343.9,277.7 
					"/>
		<polygon fill="none" stroke="#FFFFFF" stroke-width="0.3284" stroke-miterlimit="10" points="551.8,333 388.2,43.3 489,15 		"/>
		<polygon fill="none" stroke="#FFFFFF" stroke-width="0.3284" stroke-miterlimit="10" points="370.7,213.8 396.1,79.6 495.6,92.8 
			472.9,213.8 		"/>
		<polygon fill="none" stroke="#FFFFFF" stroke-width="0.3284" stroke-miterlimit="10" points="602.7,318.5 495.6,233.7 
			553.4,151.7 650.1,227.9 		"/>
		<polygon fill="none" stroke="#FFFFFF" stroke-width="0.3284" stroke-miterlimit="10" points="480.8,375.3 423.2,329.6 
			454.3,285.4 506.4,326.5 		"/>
		<polygon fill="none" stroke="#FFFFFF" stroke-width="0.3284" stroke-miterlimit="10" points="447.8,269.1 406,235.9 428.6,203.9 
			466.3,233.7 		"/>
	</g>
	<g opacity="0.31">
		<polygon fill="none" stroke="#FFFFFF" stroke-width="0.3284" stroke-miterlimit="10" points="594.9,568.2 378.3,315.6 
			471.7,268.3 667.2,495.9 		"/>
		<polygon fill="none" stroke="#FFFFFF" stroke-width="0.3284" stroke-miterlimit="10" points="603.8,373.4 533.7,597 440.6,555.3 
					"/>
		<polygon fill="none" stroke="#FFFFFF" stroke-width="0.3284" stroke-miterlimit="10" points="626.7,447.4 306.2,358.2 
			357.4,266.9 		"/>
		<polygon fill="none" stroke="#FFFFFF" stroke-width="0.3284" stroke-miterlimit="10" points="414.3,491.2 337.4,378.3 
			417.1,317.3 486.6,418.9 		"/>
		<polygon fill="none" stroke="#FFFFFF" stroke-width="0.3284" stroke-miterlimit="10" points="652.4,401.2 516.7,416.9 499.6,318 
			621.9,303.6 		"/>
		<polygon fill="none" stroke="#FFFFFF" stroke-width="0.3284" stroke-miterlimit="10" points="606.4,527.5 533.3,535.9 
			524.1,482.7 589.9,474.9 		"/>
		<polygon fill="none" stroke="#FFFFFF" stroke-width="0.3284" stroke-miterlimit="10" points="507.9,475.7 454.9,481.9 
			448.2,443.2 496,437.6 		"/>
	</g>
</g>
</svg>
