<?xml version="1.0" encoding="utf-8"?>
<!-- Generator: Adobe Illustrator 18.1.1, SVG Export Plug-In . SVG Version: 6.00 Build 0)  -->
<svg version="1.1" baseProfile="basic" xmlns="http://www.w3.org/2000/svg" xmlns:xlink="http://www.w3.org/1999/xlink" x="0px"
	 y="0px" width="168.9px" height="153.2px" viewBox="0 0 168.9 153.2" xml:space="preserve">
<g id="Layer_1">
</g>
<g id="facets">
	<g>
		<g>
			<path fill="#A3A510" d="M31.2,106.2l2.4-16.1h5.1l-4.6,25.6H29l-3-15.1l-3,15.1h-5.2l-4.6-25.6h5.2l2.4,16.1l3-16.1h4.3
				L31.2,106.2z"/>
			<path fill="#A3A510" d="M47.4,101.6l3.8-11.5h5.6L50,106.4v9.3h-5.2v-9.3l-6.9-16.3h5.6L47.4,101.6z"/>
			<path fill="#A3A510" d="M73.5,105.2c0,3.4-0.8,6.1-2.4,8s-3.9,2.8-6.8,2.8c-2.9,0-5.1-0.9-6.8-2.8s-2.5-4.5-2.5-7.9v-4.4
				c0-3.5,0.8-6.3,2.4-8.2s3.9-3,6.8-3c2.8,0,5.1,1,6.7,2.9s2.5,4.7,2.5,8.2V105.2z M68.3,100.9c0-2.3-0.3-4-1-5.2s-1.7-1.7-3.1-1.7
				c-1.4,0-2.4,0.5-3,1.6s-1,2.7-1,4.9v4.6c0,2.2,0.3,3.9,1,4.9s1.7,1.6,3.1,1.6c1.3,0,2.3-0.5,3-1.6s1-2.6,1-4.8V100.9z"/>
		</g>
		<g>
			<path fill="#A3A510" d="M48.4,119.4v25.4h-1.5v-13.1h-7.3v13.1h-1.5v-25.4h1.5v11.3h7.3v-11.3H48.4z"/>
			<path fill="#A3A510" d="M60.2,136.4h-5.7l-1.5,8.4h-1.4l4.7-25.4h0.8h0.5h0.8l4.7,25.4h-1.4L60.2,136.4z M60,135.3l-2.6-14.6
				l-2.7,14.6H60z"/>
			<path fill="#A3A510" d="M74.6,127.4v-4.7c0-1.1-0.7-2.3-1.8-2.3h-3.3c-1.1,0-1.8,1.2-1.8,2.3v18.9c0,1.1,0.7,2.2,1.8,2.2h3.3
				c1.1,0,1.8-1.1,1.8-2.2v-5.4H76v5.4c0,1.8-1.4,3.4-3.1,3.4h-3.4c-1.8,0-3.3-1.6-3.3-3.4v-18.9c0-1.8,1.5-3.4,3.3-3.4h3.3
				c1.8,0,3.3,1.6,3.3,3.4v4.7H74.6z"/>
			<path fill="#A3A510" d="M83.1,131.2l-2,3.9v9.6h-1.4v-25.4H81v12.9l6.6-12.9h1.5l-5.3,10.3l5.7,15.1H88L83.1,131.2z"/>
			<path fill="#A3A510" d="M100.6,136.4h-5.7l-1.5,8.4H92l4.7-25.4h0.8h0.5h0.8l4.7,25.4h-1.4L100.6,136.4z M100.4,135.3l-2.6-14.6
				l-2.7,14.6H100.4z"/>
			<path fill="#A3A510" d="M114.6,120.5h-4.7v24.3h-1.4v-24.3h-4.8v-1.1h4.8h1.4h4.7V120.5z"/>
			<path fill="#A3A510" d="M127.7,119.4v25.4h-1.5v-13.1h-7.3v13.1h-1.5v-25.4h1.5v11.3h7.3v-11.3H127.7z"/>
			<path fill="#A3A510" d="M141.6,122.7v18.9c0,1.8-1.5,3.4-3.3,3.4h-3.6c-1.8,0-3.3-1.6-3.3-3.4v-18.9c0-1.8,1.5-3.4,3.3-3.4h3.6
				C140.2,119.3,141.6,120.9,141.6,122.7z M140.2,141.5v-18.9c0-1.1-0.8-2.3-1.8-2.3h-3.6c-1.1,0-1.8,1.2-1.8,2.3v18.9
				c0,1.1,0.7,2.3,1.8,2.3h3.6C139.4,143.8,140.2,142.6,140.2,141.5z"/>
			<path fill="#A3A510" d="M155.6,119.4v25.4h-1.2h-0.2h-1.5l-5.8-24.1v24.1h-1.5v-25.4h1.2h0.3h1.1l6.2,24.5v-24.5H155.6z"/>
		</g>
		<g>
			<path fill="#565A62" d="M19.4,130.5v-1.6l1.2-1.5c1.5-1.9,2.8-3.5,2.8-5.2c0-1-0.5-1.6-1.5-1.6c-0.7,0-1.3,0.3-1.7,0.6l-0.4-1.8
				c0.5-0.4,1.5-0.7,2.6-0.7c2.6,0,3.4,1.7,3.4,3.4c0,2.2-1.4,4-2.7,5.5l-0.7,0.8v0h3.6v2.1H19.4z"/>
			<path fill="#565A62" d="M34.2,124.6c0,4.2-1.5,6-3.4,6c-2.6,0-3.4-2.9-3.4-5.9c0-3.4,1.1-6,3.5-6
				C33.6,118.7,34.2,121.8,34.2,124.6z M29.8,124.7c0,2.7,0.3,4,1.1,4c0.7,0,1-1.3,1-4c0-2.5-0.2-4-1-4
				C30.1,120.7,29.8,121.9,29.8,124.7z"/>
			<path fill="#565A62" d="M19.4,144.9v-1.6l1.2-1.5c1.5-1.9,2.8-3.5,2.8-5.2c0-1-0.5-1.6-1.5-1.6c-0.7,0-1.3,0.3-1.7,0.6l-0.4-1.8
				c0.5-0.4,1.5-0.7,2.6-0.7c2.6,0,3.4,1.7,3.4,3.4c0,2.2-1.4,4-2.7,5.5l-0.7,0.8v0h3.6v2.1H19.4z"/>
			<path fill="#565A62" d="M34.2,139c0,4.2-1.5,6-3.4,6c-2.6,0-3.4-2.9-3.4-5.9c0-3.4,1.1-6,3.5-6C33.6,133.1,34.2,136.2,34.2,139z
				 M29.8,139.1c0,2.7,0.3,4,1.1,4c0.7,0,1-1.3,1-4c0-2.5-0.2-4-1-4C30.1,135.1,29.8,136.3,29.8,139.1z"/>
		</g>
		<g>
			<polygon fill="none" stroke="#FFFFFF" stroke-width="0.25" stroke-miterlimit="10" points="78.6,91.7 78.5,91.7 78.6,91.6 
				78.6,91.7 			"/>
			<polygon fill="none" stroke="#FFFFFF" stroke-width="0.25" stroke-miterlimit="10" points="97.6,30.1 97.6,30.1 97.6,30.1 			"/>
			<path fill="none" stroke="#FFFFFF" stroke-width="0.25" stroke-miterlimit="10" d="M101.1,28.4L101.1,28.4
				C101.1,28.4,101.1,28.4,101.1,28.4z"/>
			<polygon fill="#565A62" stroke="#FFFFFF" stroke-width="0.25" stroke-miterlimit="10" points="104.9,9 103.2,9.2 103.7,13.7 
				103.8,14.1 105.5,13.5 			"/>
			<polygon fill="#565A62" stroke="#FFFFFF" stroke-width="0.25" stroke-miterlimit="10" points="97.9,15.5 96.6,14.5 93.8,14.8 
				95.9,17.2 97.6,16.6 98.6,16.2 			"/>
			<polygon fill="#7D706D" stroke="#FFFFFF" stroke-width="0.25" stroke-miterlimit="10" points="100.7,14 99.6,13.6 99.3,11.5 
				103.2,9.2 103.7,13.7 			"/>
			<polygon fill="#492F24" stroke="#FFFFFF" stroke-width="0.25" stroke-miterlimit="10" points="102,8.1 99.1,10.3 98.7,11.8 
				99.3,11.5 103.2,9.2 			"/>
			<polygon fill="#565A62" stroke="#FFFFFF" stroke-width="0.25" stroke-miterlimit="10" points="92.5,11 93.8,14.8 95.7,13.7 
				97.2,12.8 			"/>
			<polygon fill="#565A62" stroke="#FFFFFF" stroke-width="0.25" stroke-miterlimit="10" points="100.1,17.4 98.6,16.2 99.9,15.7 
							"/>
			<polygon fill="#8B0E04" stroke="#FFFFFF" stroke-width="0.25" stroke-miterlimit="10" points="103.8,14.1 105.5,13.5 109.4,17.2 
				103.9,15.2 			"/>
			<polygon fill="#837773" stroke="#FFFFFF" stroke-width="0.25" stroke-miterlimit="10" points="100.7,14 102.5,14.7 99.9,15.7 
				99.7,14.2 			"/>
			<polygon fill="#A3A510" stroke="#FFFFFF" stroke-width="0.25" stroke-miterlimit="10" points="103.8,14.1 103.7,13.7 100.7,14 
				102.5,14.7 103.9,15.2 			"/>
			<path fill="#565A62" stroke="#FFFFFF" stroke-width="0.2468" stroke-miterlimit="10" d="M100.5,26.6l1.6,0.6l1.1,2.4l1.8,4
				l-3.9-5.2C101.1,28.3,100.5,26.6,100.5,26.6z"/>
			<polygon fill="#A3A510" stroke="#FFFFFF" stroke-width="0.2468" stroke-miterlimit="10" points="107.6,32 107.9,32.8 105.1,33.6 
				103.2,29.5 			"/>
			<polygon fill="#565A62" stroke="#FFFFFF" stroke-width="0.25" stroke-miterlimit="10" points="97.4,17.7 95.9,17.2 97.6,16.6 			
				"/>
			<polygon fill="#7A6F00" stroke="#FFFFFF" stroke-width="0.25" stroke-miterlimit="10" points="98.7,11.8 99.3,11.5 99.6,13.6 
				98.4,13.2 			"/>
			<polygon fill="#565A62" stroke="#FFFFFF" stroke-width="0.25" stroke-miterlimit="10" points="99.6,13.6 98.4,13.2 98.2,14.3 
				99.7,14.2 100.7,14 			"/>
			<polygon fill="#565A62" stroke="#FFFFFF" stroke-width="0.25" stroke-miterlimit="10" points="96.7,9.8 92.5,11 97.2,12.8 
				98.4,13.2 98.7,11.8 99.1,10.3 			"/>
			<polygon fill="#9A311B" stroke="#FFFFFF" stroke-width="0.25" stroke-miterlimit="10" points="95.7,13.7 97.2,12.8 98.4,13.2 
				98.2,14.3 96.6,14.5 93.8,14.8 			"/>
			<polygon fill="#A3551C" stroke="#FFFFFF" stroke-width="0.25" stroke-miterlimit="10" points="98.2,14.3 99.7,14.2 99.9,15.7 
				98.6,16.2 97.9,15.5 96.6,14.5 			"/>
			<polygon fill="none" stroke="#FFFFFF" stroke-width="0.25" stroke-miterlimit="10" points="97.7,30.1 98.2,30.1 98,30.3 
				97.6,30.1 			"/>
			<polygon fill="#492F24" stroke="#FFFFFF" stroke-width="0.2468" stroke-miterlimit="10" points="93.2,50.6 91.5,56.3 90.7,59.2 
				86.7,73 85.7,73.4 85.7,72.6 85,70.2 90.5,57.1 91.3,55.3 			"/>
			<polygon fill="#7D706D" stroke="#FFFFFF" stroke-width="0.2468" stroke-miterlimit="10" points="98.7,33.4 100,33.4 104.7,37.5 
				103.7,47.5 			"/>
			<polygon stroke="#FFFFFF" stroke-width="0.2468" stroke-miterlimit="10" points="93.2,50.6 91.3,55.3 90.5,57.1 89.7,49.6 
				91,49.5 			"/>
			<polygon fill="#8B0E04" stroke="#FFFFFF" stroke-width="0.25" stroke-miterlimit="10" points="95.8,18.1 93.8,24.3 88.9,23.8 			
				"/>
			<polygon fill="#492F24" stroke="#FFFFFF" stroke-width="0.2468" stroke-miterlimit="10" points="96.4,21.6 93.8,24.3 95.8,18.1 
							"/>
			<polygon fill="#565A62" stroke="#FFFFFF" stroke-width="0.25" stroke-miterlimit="10" points="95.9,17.2 97.4,17.7 96.4,21.6 
				95.8,18.1 			"/>
			<polygon fill="#492F24" stroke="#FFFFFF" stroke-width="0.25" stroke-miterlimit="10" points="100.1,17.4 98.6,16.2 97.6,16.6 
				97.4,17.7 100.3,18.8 104.6,21.3 			"/>
			<polygon fill="#565A62" stroke="#FFFFFF" stroke-width="0.25" stroke-miterlimit="10" points="99.9,15.7 102.5,14.7 103.9,15.2 
				104.6,21.3 100.1,17.4 			"/>
			<polygon fill="#492F24" stroke="#FFFFFF" stroke-width="0.2468" stroke-miterlimit="10" points="92.8,42.2 93.7,38.9 94.4,46.7 
							"/>
			<polygon fill="#B09531" stroke="#FFFFFF" stroke-width="0.2468" stroke-miterlimit="10" points="94.8,68.1 94.9,69.5 91.9,70.8 
				90.7,59.2 91.5,56.3 			"/>
			<polygon fill="#A5472F" stroke="#FFFFFF" stroke-width="0.25" stroke-miterlimit="10" points="109.4,17.2 109.6,19 104.6,21.3 
				103.9,15.2 			"/>
			<polygon opacity="0.4" fill="#AB650D" stroke="#FFFFFF" stroke-width="0.2468" stroke-miterlimit="10" points="76.4,87.6 
				69.7,80.4 75.8,82.1 			"/>
			<polygon fill="#492F24" stroke="#FFFFFF" stroke-width="0.2468" stroke-miterlimit="10" points="95.8,113 95,108.6 98.5,108.9 
							"/>
			<polygon stroke="#FFFFFF" stroke-width="0.2468" stroke-miterlimit="10" points="100.2,116.1 95.8,113 98.5,108.9 			"/>
			<polygon stroke="#FFFFFF" stroke-width="0.2468" stroke-miterlimit="10" points="100,102.5 99.7,104.3 102.5,103.1 103.4,100.2 
							"/>
			<polygon fill="#183B61" stroke="#FFFFFF" stroke-width="0.2468" stroke-miterlimit="10" points="77.4,81.1 76.2,79.6 81.2,79 			
				"/>
			<polygon fill="#8B0E04" stroke="#FFFFFF" stroke-width="0.2468" stroke-miterlimit="10" points="119.5,81.6 115.8,80.3 113,74.1 
							"/>
			<polygon fill="#8B0E04" stroke="#FFFFFF" stroke-width="0.2468" stroke-miterlimit="10" points="124.2,87.6 120.7,86.6 
				123.1,86.1 			"/>
			<polygon fill="#7D706D" stroke="#FFFFFF" stroke-width="0.2468" stroke-miterlimit="10" points="123,86 123.1,86.1 120.7,86.6 
				115.8,80.3 			"/>
			<polygon fill="#492F24" stroke="#FFFFFF" stroke-width="0.2468" stroke-miterlimit="10" points="120.7,86.6 119.3,87.5 
				115.8,80.3 			"/>
			<polygon fill="#565A62" stroke="#FFFFFF" stroke-width="0.2468" stroke-miterlimit="10" points="125,93.3 119.6,91.1 119.3,87.5 
							"/>
			<polygon fill="#AB650D" stroke="#FFFFFF" stroke-width="0.2468" stroke-miterlimit="10" points="78.9,81.4 77.4,81.1 81.2,79 			
				"/>
			<polygon fill="#8B0E04" stroke="#FFFFFF" stroke-width="0.2468" stroke-miterlimit="10" points="123.2,96.3 123.5,98.3 
				121.9,96.7 120.1,96.4 123.1,96.3 			"/>
			<polygon fill="#492F24" stroke="#FFFFFF" stroke-width="0.2468" stroke-miterlimit="10" points="124.2,99.9 117.1,101.8 
				120.1,97.6 			"/>
			<polygon fill="none" stroke="#FFFFFF" stroke-width="0.25" stroke-miterlimit="10" points="78.7,91.7 78.6,91.7 78.6,91.7 			"/>
			<path fill="#7A6F00" stroke="#FFFFFF" stroke-width="0.2468" stroke-miterlimit="10" d="M82,92.6l-3.4-0.9l0,0l-0.1-0.1l2.8-1.7
				C81.4,89.9,82,92.5,82,92.6z"/>
			<polygon opacity="0.75" fill="#AB650D" stroke="#FFFFFF" stroke-width="0.2468" stroke-miterlimit="10" points="78.6,91.6 
				76.8,89.8 76.8,89.7 81.4,89.9 			"/>
			<polygon stroke="#FFFFFF" stroke-width="0.2468" stroke-miterlimit="10" points="80.7,97.7 79.1,94.6 77.4,93 78.6,91.7 
				78.7,91.7 			"/>
			<polygon opacity="0.4" fill="#183B61" stroke="#FFFFFF" stroke-width="0.2468" stroke-miterlimit="10" points="76.8,89.7 
				76.4,87.6 81.4,89.9 			"/>
			<path fill="#492F24" stroke="#FFFFFF" stroke-width="0.2468" stroke-miterlimit="10" d="M82,92.6c0,0.1-1,5.6-1,5.6l-0.3-0.6
				l-2-6L82,92.6z"/>
			<polygon fill="#FFFFFF" stroke="#FFFFFF" stroke-width="0.25" stroke-miterlimit="10" points="82.2,84.5 78.9,81.4 81.2,79 			
				"/>
			<polygon stroke="#FFFFFF" stroke-width="0.2468" stroke-miterlimit="10" points="81.8,87 78,83.3 82.2,84.5 			"/>
			<polygon fill="#492F24" stroke="#FFFFFF" stroke-width="0.2468" stroke-miterlimit="10" points="78,83.3 78.9,81.4 82.2,84.5 			
				"/>
			<polygon fill="#7A6F00" stroke="#FFFFFF" stroke-width="0.2468" stroke-miterlimit="10" points="69.7,80.4 71.3,77.3 76.2,79.6 
							"/>
			<polygon opacity="0.4" fill="#183B61" stroke="#FFFFFF" stroke-width="0.2468" stroke-miterlimit="10" points="81.4,89.9 
				76.4,87.6 75.8,82.1 			"/>
			<polygon fill="#492F24" stroke="#FFFFFF" stroke-width="0.2468" stroke-miterlimit="10" points="102.5,58.9 93.2,50.7 93.3,47.7 
				94.4,46.7 102.5,58.9 			"/>
			<polygon opacity="0.52" fill="#AB650D" stroke="#FFFFFF" stroke-width="0.2468" stroke-miterlimit="10" points="75.8,82.1 
				69.7,80.4 76.2,79.6 			"/>
			<polygon fill="#8B0E04" stroke="#FFFFFF" stroke-width="0.2468" stroke-miterlimit="10" points="105.1,24.7 106.6,24.8 
				110.3,24.4 106.7,27.1 112.2,26.4 113.7,27.5 113.7,28.2 106.5,27.1 			"/>
			<polygon fill="#AB650D" stroke="#FFFFFF" stroke-width="0.2468" stroke-miterlimit="10" points="110.3,24.4 112.4,25.8 
				112.2,26.4 106.7,27.1 			"/>
			<polygon fill="#994708" stroke="#FFFFFF" stroke-width="0.2468" stroke-miterlimit="10" points="105.9,27 105.1,24.7 104.8,25.9 
				103.5,26.7 106,27.3 			"/>
			<polygon fill="#B09531" stroke="#FFFFFF" stroke-width="0.2468" stroke-miterlimit="10" points="106.7,29.4 103.9,29.3 
				103.5,26.7 106,27.3 			"/>
			<polygon fill="#A3A510" stroke="#FFFFFF" stroke-width="0.2468" stroke-miterlimit="10" points="108.2,30 114.4,31 109.6,32.4 
							"/>
			<polygon fill="#183B61" stroke="#FFFFFF" stroke-width="0.2468" stroke-miterlimit="10" points="114.4,31 112.3,33.4 111.5,32.7 
				110.2,33.4 109.6,32.4 			"/>
			<polygon fill="#AB650D" stroke="#FFFFFF" stroke-width="0.25" stroke-miterlimit="10" points="109.6,32.4 110.2,33.4 108.7,32.6 
							"/>
			<polygon fill="#AB650D" stroke="#FFFFFF" stroke-width="0.2468" stroke-miterlimit="10" points="106.7,27.5 114.7,29.5 
				107.9,29.4 			"/>
			<polygon fill="#7D706D" stroke="#FFFFFF" stroke-width="0.2468" stroke-miterlimit="10" points="106.5,27.1 113.7,28.2 
				114.7,29.5 106.7,27.5 			"/>
			<polygon fill="#7A6F00" stroke="#FFFFFF" stroke-width="0.2468" stroke-miterlimit="10" points="107.9,29.4 114.7,29.5 114.4,31 
				108.2,30 			"/>
			<polygon fill="#A3A510" stroke="#FFFFFF" stroke-width="0.2468" stroke-miterlimit="10" points="116.5,75.6 113,74.1 112.4,71.6 
							"/>
			<polygon stroke="#FFFFFF" stroke-width="0.2468" stroke-miterlimit="10" points="108.5,58.2 108.1,60.2 106.7,56.2 			"/>
			<polygon stroke="#FFFFFF" stroke-width="0.2468" stroke-miterlimit="10" points="110.5,57.4 109.3,55.2 108.5,58.2 110.7,59.8 
							"/>
			<polygon stroke="#FFFFFF" stroke-width="0.2468" stroke-miterlimit="10" points="109.3,55.2 108.5,58.2 106.7,56.2 			"/>
			<polygon fill="#A3A510" stroke="#FFFFFF" stroke-width="0.2468" stroke-miterlimit="10" points="110.7,62.4 112.5,68.4 
				110.4,68.6 			"/>
			<polygon fill="#A3A510" stroke="#FFFFFF" stroke-width="0.2468" stroke-miterlimit="10" points="114.8,73.4 112.4,71.6 114,70.9 
							"/>
			<polygon fill="#A3A510" stroke="#FFFFFF" stroke-width="0.2468" stroke-miterlimit="10" points="107.9,32.8 107.6,32 108.7,32.6 
							"/>
			<polygon fill="#994708" stroke="#FFFFFF" stroke-width="0.25" stroke-miterlimit="10" points="108.7,32.6 107.9,32.8 105.1,33.6 
				105.8,35.1 108.2,33.8 109.1,35 110.2,33.4 			"/>
			<polygon fill="#AB650D" stroke="#FFFFFF" stroke-width="0.2468" stroke-miterlimit="10" points="103.9,29.3 106.7,29.4 
				106.9,29.8 107.6,32 103.2,29.5 			"/>
			<polygon fill="#7A6F00" stroke="#FFFFFF" stroke-width="0.2468" stroke-miterlimit="10" points="108.2,30 107.9,29.4 106.7,27.5 
				106.5,27.1 105.1,24.7 105.9,27 106,27.3 106.7,29.4 106.9,29.8 107.6,32 108.7,32.6 109.6,32.4 			"/>
			<polygon fill="#565A62" stroke="#FFFFFF" stroke-width="0.2468" stroke-miterlimit="10" points="108.1,60.2 105.9,60.7 
				106.7,56.2 			"/>
			<polygon fill="#565A62" stroke="#FFFFFF" stroke-width="0.25" stroke-miterlimit="10" points="100.3,18.8 100.3,20.2 96.4,21.6 
				97.4,17.7 			"/>
			<polygon fill="#492F24" stroke="#FFFFFF" stroke-width="0.2468" stroke-miterlimit="10" points="85.6,76.9 84.4,77 83,74.6 
				84.3,74.1 			"/>
			<polygon fill="#565A62" stroke="#FFFFFF" stroke-width="0.2468" stroke-miterlimit="10" points="86.7,73 85.6,76.8 84.3,74.1 
				85.7,73.4 			"/>
			<polygon fill="#565A62" stroke="#FFFFFF" stroke-width="0.2468" stroke-miterlimit="10" points="64,48.7 67.2,39.7 64.9,48.5 			
				"/>
			<polygon fill="#565A62" stroke="#FFFFFF" stroke-width="0.2468" stroke-miterlimit="10" points="98.5,108.9 95,108.6 95.9,106 
				97.5,97.3 			"/>
			<polygon fill="#8B0E04" stroke="#FFFFFF" stroke-width="0.25" stroke-miterlimit="10" points="85,70.2 82.7,69.3 77.8,76.6 
				87.5,46.8 			"/>
			<polygon fill="#565A62" stroke="#FFFFFF" stroke-width="0.2468" stroke-miterlimit="10" points="89.7,49.6 90.5,57.1 85,70.2 
				87.5,46.8 			"/>
			<polygon fill="#994708" stroke="#FFFFFF" stroke-width="0.2468" stroke-miterlimit="10" points="87.5,46.8 77.8,76.6 79.3,46.2 
							"/>
			<polygon stroke="#FFFFFF" stroke-width="0.2468" stroke-miterlimit="10" points="83.9,73.3 83,74.6 84.3,74.1 85.7,73.4 
				85.7,72.6 			"/>
			<polygon fill="#565A62" stroke="#FFFFFF" stroke-width="0.2468" stroke-miterlimit="10" points="103.4,100.2 103.4,84.2 
				107.4,85.9 			"/>
			<polygon fill="#7D706D" stroke="#FFFFFF" stroke-width="0.2468" stroke-miterlimit="10" points="104.4,105.3 100.4,105.4 
				102.9,104.5 103.4,103.4 105.4,103.2 			"/>
			<path fill="#7A6F00" stroke="#FFFFFF" stroke-width="0.25" stroke-miterlimit="10" d="M98.1,102.2l0.1-9.1c0,0-0.6-1.6-1.5-3.6
				l0.7,7.8l1.1,11.6l0.3-0.5L98.1,102.2z"/>
			<polygon fill="#B09531" stroke="#FFFFFF" stroke-width="0.2468" stroke-miterlimit="10" points="103.4,84.2 99.8,86.3 
				100.8,75.8 			"/>
			<polygon fill="#B09531" stroke="#FFFFFF" stroke-width="0.2468" stroke-miterlimit="10" points="107.4,85.9 103.4,84.2 
				108.3,82.6 			"/>
			<polygon fill="#7D706D" stroke="#FFFFFF" stroke-width="0.2468" stroke-miterlimit="10" points="101.8,66.6 104,65.6 103.4,84.2 
				100.8,75.8 			"/>
			<polygon fill="#492F24" stroke="#FFFFFF" stroke-width="0.2468" stroke-miterlimit="10" points="107.8,97.8 107,99.6 
				106.2,101.4 103.4,100.2 			"/>
			<polygon fill="#A3A510" stroke="#FFFFFF" stroke-width="0.2468" stroke-miterlimit="10" points="75.3,39.2 80.2,36.7 76.6,41.7 
							"/>
			<polygon fill="#565A62" stroke="#FFFFFF" stroke-width="0.2468" stroke-miterlimit="10" points="70,52.4 67.5,58.2 70.4,64.4 
				76.4,62.5 			"/>
			<polygon fill="#AB650D" stroke="#FFFFFF" stroke-width="0.2468" stroke-miterlimit="10" points="80.2,36.7 78.4,45 76.6,41.7 			
				"/>
			<polygon fill="#7D706D" stroke="#FFFFFF" stroke-width="0.2468" stroke-miterlimit="10" points="74.8,44.3 78.4,45 74.8,47.1 			
				"/>
			<polygon fill="#492F24" stroke="#FFFFFF" stroke-width="0.2468" stroke-miterlimit="10" points="79.3,46.2 77.8,76.6 74.8,47.1 
				78.4,45 			"/>
			<path fill="#492F24" stroke="#FFFFFF" stroke-width="0.2468" stroke-miterlimit="10" d="M72.1,76.1
				C72.2,76.1,72.2,76.1,72.1,76.1C72.1,76.1,72.1,76.1,72.1,76.1c-0.7-0.2-8.8-2.9-8.8-2.9l1.5-3.4l11.3,9.8l-4.9-2.3
				C71.3,77.3,71.9,76.1,72.1,76.1z"/>
			<path stroke="#FFFFFF" stroke-width="0.2468" stroke-miterlimit="10" d="M63.4,73.1c0,0,8,2.7,8.8,2.9c-0.2,0.1-0.8,1.2-0.8,1.2
				l-4-2.6L63.4,73.1z"/>
			<path fill="none" stroke="#FFFFFF" stroke-width="0.25" stroke-miterlimit="10" d="M72.2,76.1C72.2,76.1,72.2,76.1,72.2,76.1
				C72.1,76.1,72.1,76.1,72.2,76.1z"/>
			<polygon fill="#565A62" stroke="#FFFFFF" stroke-width="0.2468" stroke-miterlimit="10" points="68.6,66.3 70,65.7 70.4,64.4 
				77.8,76.6 64.9,69.8 			"/>
			<polygon fill="#B09531" stroke="#FFFFFF" stroke-width="0.2468" stroke-miterlimit="10" points="76.4,62.5 70,52.4 74.8,47.1 
				77.8,76.6 70.4,64.4 			"/>
			<polygon fill="#FFFFFF" stroke="#FFFFFF" stroke-width="0.25" stroke-miterlimit="10" points="81.2,79 76.2,79.6 64.9,69.8 
				77.9,76.6 			"/>
			<polygon fill="#492F24" stroke="#FFFFFF" stroke-width="0.2468" stroke-miterlimit="10" points="66.7,55.2 64.9,48.5 68,54.6 			
				"/>
			<polygon fill="#B09531" stroke="#FFFFFF" stroke-width="0.2468" stroke-miterlimit="10" points="64.9,48.5 67.2,39.7 68,54.6 			
				"/>
			<polygon stroke="#FFFFFF" stroke-width="0.2468" stroke-miterlimit="10" points="68,54.6 67.2,39.7 69.5,46.9 			"/>
			<polygon fill="#492F24" stroke="#FFFFFF" stroke-width="0.2468" stroke-miterlimit="10" points="74.5,37.7 77.1,32.5 80.2,36.7 
				75.3,39.2 			"/>
			<polygon fill="#565A62" stroke="#FFFFFF" stroke-width="0.2468" stroke-miterlimit="10" points="67.2,39.7 67.1,38 69.8,34.6 
				69.5,46.9 			"/>
			<polygon stroke="#FFFFFF" stroke-width="0.2468" stroke-miterlimit="10" points="63.7,59.3 64.7,54.8 66.7,55.2 			"/>
			<polygon fill="#565A62" stroke="#FFFFFF" stroke-width="0.2468" stroke-miterlimit="10" points="64.7,54.8 64.9,48.5 66.7,55.2 
							"/>
			<polygon fill="#8B0E04" stroke="#FFFFFF" stroke-width="0.25" stroke-miterlimit="10" points="71,31.3 72.2,40.9 73.1,40.3 
				74.5,37.7 77.1,32.5 			"/>
			<polygon fill="#565A62" stroke="#FFFFFF" stroke-width="0.2468" stroke-miterlimit="10" points="75.3,39.2 73.1,40.3 74.5,37.7 
							"/>
			<polygon fill="#492F24" stroke="#FFFFFF" stroke-width="0.2468" stroke-miterlimit="10" points="63.7,55.5 64.9,48.5 64.7,54.8 
							"/>
			<polygon fill="#565A62" stroke="#FFFFFF" stroke-width="0.2468" stroke-miterlimit="10" points="69.8,34.6 71,31.3 72.2,40.9 			
				"/>
			<polygon fill="#492F24" stroke="#FFFFFF" stroke-width="0.2468" stroke-miterlimit="10" points="71.1,45.1 69.5,46.9 69.8,34.6 
				72.2,40.9 			"/>
			<polygon fill="#AB650D" stroke="#FFFFFF" stroke-width="0.2468" stroke-miterlimit="10" points="76.6,41.7 75.3,39.2 73.1,40.3 
				74.8,44.3 78.4,45 			"/>
			<polygon fill="#B09531" stroke="#FFFFFF" stroke-width="0.2468" stroke-miterlimit="10" points="106.2,62.2 105.9,60.7 
				106.7,56.2 104.4,53.2 103.2,51.6 102.5,58.9 104.2,60.4 			"/>
			<polygon fill="#B09531" stroke="#FFFFFF" stroke-width="0.2468" stroke-miterlimit="10" points="106.2,101.4 103.4,100.2 
				102.5,103.1 103.4,103.4 105.4,103.2 109.3,102.7 			"/>
			<polygon fill="#7A6F00" stroke="#FFFFFF" stroke-width="0.2468" stroke-miterlimit="10" points="104.9,37.7 106.4,39 106.7,47 
				107,55 106.7,56.2 104.5,50 			"/>
			<polygon fill="#7A6F00" stroke="#FFFFFF" stroke-width="0.2468" stroke-miterlimit="10" points="105.1,33.6 105.1,36.2 106.4,39 
				104.9,37.7 			"/>
			<polygon fill="#565A62" stroke="#FFFFFF" stroke-width="0.2468" stroke-miterlimit="10" points="110.3,102.6 109.3,102.7 
				106.2,101.4 107,99.6 110.1,99.1 			"/>
			<polygon fill="#A3A510" stroke="#FFFFFF" stroke-width="0.2468" stroke-miterlimit="10" points="113.2,98.6 113.8,102.2 
				110.3,102.6 110.1,99.1 			"/>
			<polygon fill="#7D706D" stroke="#FFFFFF" stroke-width="0.2468" stroke-miterlimit="10" points="100,33.4 105.1,33.6 104.7,37.5 
							"/>
			<path fill="#565A62" stroke="#FFFFFF" stroke-width="0.2468" stroke-miterlimit="10" d="M97.6,30.1l1.9-2.5c0,0,1.4,0.8,1.6,0.8
				l-3.4,1.7L97.6,30.1z"/>
			<polygon fill="#492F24" stroke="#FFFFFF" stroke-width="0.2468" stroke-miterlimit="10" points="104.4,105.3 100.4,105.4 
				100.2,106.6 102.7,109.1 110.4,105 			"/>
			<path fill="#B09531" stroke="#FFFFFF" stroke-width="0.2468" stroke-miterlimit="10" d="M98.2,30.1l-0.5,0l3.4-1.7c0,0,0,0,0,0
				l3.9,5.2L98,30.3L98.2,30.1z"/>
			<polygon fill="none" stroke="#FFFFFF" stroke-width="0.25" stroke-miterlimit="10" points="97.6,30.1 97.6,30.1 97.6,30.1 
				97.7,30.1 			"/>
			<polygon fill="#565A62" stroke="#FFFFFF" stroke-width="0.2468" stroke-miterlimit="10" points="88.9,23.8 93.8,24.3 92.3,26.8 
							"/>
			<polygon fill="#565A62" stroke="#FFFFFF" stroke-width="0.2468" stroke-miterlimit="10" points="107.8,97.8 109.7,93.6 
				109.9,96.7 110.1,99.1 107,99.6 			"/>
			<polygon fill="#B09531" stroke="#FFFFFF" stroke-width="0.2468" stroke-miterlimit="10" points="97.6,30.1 97.6,30.1 96.2,30.1 
				90.3,30.1 93.5,33.2 97.1,30.9 97.7,30.4 			"/>
			<polygon fill="#565A62" stroke="#FFFFFF" stroke-width="0.2468" stroke-miterlimit="10" points="92.3,26.8 93.8,24.3 97.6,30.1 
				96.2,30.1 			"/>
			<polygon fill="#492F24" stroke="#FFFFFF" stroke-width="0.2468" stroke-miterlimit="10" points="90.3,30.1 88.9,23.8 92.3,26.8 
							"/>
			<polygon fill="#565A62" stroke="#FFFFFF" stroke-width="0.2468" stroke-miterlimit="10" points="110,76.7 112,69.8 112.4,71.6 
				113,74.1 115.8,80.3 110.8,81.9 			"/>
			<polygon fill="#565A62" stroke="#FFFFFF" stroke-width="0.2468" stroke-miterlimit="10" points="123.1,96.3 119.6,91.1 
				119.5,91.8 118,97.9 120.1,97.6 120.1,96.4 			"/>
			<polygon fill="#565A62" stroke="#FFFFFF" stroke-width="0.2468" stroke-miterlimit="10" points="115.8,80.3 119.6,91.1 112.3,88 
							"/>
			<polygon fill="#A3A510" stroke="#FFFFFF" stroke-width="0.2468" stroke-miterlimit="10" points="120.1,97.6 117.1,101.8 
				118,97.9 			"/>
			<polygon fill="#B09531" stroke="#FFFFFF" stroke-width="0.2468" stroke-miterlimit="10" points="112.7,95.3 111.8,89 112.3,88 
				119.6,91.1 119.5,91.8 			"/>
			<polygon stroke="#FFFFFF" stroke-width="0.2468" stroke-miterlimit="10" points="114.1,104.8 110.4,105 110.3,103.1 			"/>
			<polygon fill="#B09531" stroke="#FFFFFF" stroke-width="0.2468" stroke-miterlimit="10" points="105.4,103.2 109.3,102.7 
				110.3,103.1 110.4,105 104.4,105.3 			"/>
			<polygon fill="#8B0E04" stroke="#FFFFFF" stroke-width="0.2468" stroke-miterlimit="10" points="113.2,98.6 118,97.9 
				117.1,101.8 113.8,102.2 			"/>
			<polygon fill="#B09531" stroke="#FFFFFF" stroke-width="0.2468" stroke-miterlimit="10" points="117.1,101.8 114.1,104.8 
				113.8,102.2 			"/>
			<polygon fill="#8B0E04" stroke="#FFFFFF" stroke-width="0.2468" stroke-miterlimit="10" points="110.4,68.6 112.5,68.4 112.4,70 
				112,69.8 			"/>
			<polygon fill="#994708" stroke="#FFFFFF" stroke-width="0.2468" stroke-miterlimit="10" points="109.4,86.7 109.4,86.7 
				109.1,82.4 109,80.2 108.3,82.6 107.4,85.9 107.4,85.9 103.4,100.2 107.8,97.8 109.7,93.6 			"/>
			<polygon fill="#492F24" stroke="#FFFFFF" stroke-width="0.2468" stroke-miterlimit="10" points="115.8,80.3 112.3,88 111.8,89 
				111.6,87.7 110.8,81.9 			"/>
			<polygon fill="#492F24" stroke="#FFFFFF" stroke-width="0.2468" stroke-miterlimit="10" points="113.2,98.6 110.1,99.1 
				109.9,96.7 109.7,93.6 109.4,86.7 109.1,82.4 109,80.2 108.1,63.9 110.4,68.6 112,69.8 110,76.7 110.8,81.9 111.6,87.7 111.8,89 
				112.7,95.3 			"/>
			<polygon fill="#994708" stroke="#FFFFFF" stroke-width="0.2468" stroke-miterlimit="10" points="114,70.9 112.4,71.6 112,69.8 
							"/>
			<polygon fill="#565A62" stroke="#FFFFFF" stroke-width="0.2468" stroke-miterlimit="10" points="119.3,87.5 119.6,91.1 
				115.8,80.3 			"/>
			<polygon fill="#492F24" stroke="#FFFFFF" stroke-width="0.2468" stroke-miterlimit="10" points="97.1,43.5 93.5,33.2 93.7,38.9 
				94.4,46.7 102.5,58.9 			"/>
			<polygon fill="#A3A510" stroke="#FFFFFF" stroke-width="0.25" stroke-miterlimit="10" points="104.7,37.5 104.7,37.5 103.7,47.5 
				103.2,51.6 104.4,53.2 104.5,50 104.9,37.7 105.1,33.6 			"/>
			<polygon fill="none" stroke="#FFFFFF" stroke-width="0.25" stroke-miterlimit="10" points="102.5,58.9 102.5,58.9 102.5,58.9 			
				"/>
			<polygon fill="#565A62" stroke="#FFFFFF" stroke-width="0.2468" stroke-miterlimit="10" points="103.7,47.5 103.2,51.6 
				97.1,43.5 93.5,33.2 97.1,30.9 97.7,30.4 98.2,31.9 98.7,33.4 			"/>
			<polygon fill="none" stroke="#FFFFFF" stroke-width="0.25" stroke-miterlimit="10" points="97.6,30.1 97.6,30.1 97.6,30.1 
				98,30.3 97.7,30.4 97.6,30.1 			"/>
			<polygon fill="#A3A510" stroke="#FFFFFF" stroke-width="0.25" stroke-miterlimit="10" points="104.5,50 106.7,56.2 104.4,53.2 
							"/>
			<polygon fill="#B09531" stroke="#FFFFFF" stroke-width="0.2468" stroke-miterlimit="10" points="98,30.3 97.7,30.4 98.2,31.9 
				98.7,33.4 100,33.4 105.1,33.6 			"/>
			<polygon fill="#8B0E04" stroke="#FFFFFF" stroke-width="0.2468" stroke-miterlimit="10" points="110.3,102.6 113.8,102.2 
				114.1,104.8 110.3,103.1 109.3,102.7 			"/>
			<polygon fill="#7D706D" stroke="#FFFFFF" stroke-width="0.2468" stroke-miterlimit="10" points="108.1,63.9 109,80.2 108.3,82.6 
				103.4,84.2 104,65.6 			"/>
			<polygon fill="#7D706D" stroke="#FFFFFF" stroke-width="0.2468" stroke-miterlimit="10" points="108.1,63.9 104,65.6 101.8,66.6 
				98.5,68 94.9,69.5 94.8,68.1 93.2,50.6 102.5,58.9 104.2,60.4 			"/>
			<polygon fill="#492F24" stroke="#FFFFFF" stroke-width="0.2468" stroke-miterlimit="10" points="91.5,56.3 93.2,50.7 94.8,68.1 
							"/>
			<polygon fill="#565A62" stroke="#FFFFFF" stroke-width="0.2468" stroke-miterlimit="10" points="86.7,73 90.7,59.2 91.9,70.8 			
				"/>
			<polygon fill="#994708" stroke="#FFFFFF" stroke-width="0.2468" stroke-miterlimit="10" points="119.5,91.8 118,97.9 113.2,98.6 
				112.7,95.3 			"/>
			<polygon fill="#A3A510" stroke="#FFFFFF" stroke-width="0.25" stroke-miterlimit="10" points="97.1,43.5 103.2,51.6 102.5,58.9 
							"/>
			<polygon fill="#565A62" stroke="#FFFFFF" stroke-width="0.2468" stroke-miterlimit="10" points="96.2,30.1 90.3,30.1 92.3,26.8 
							"/>
			<path fill="#565A62" stroke="#FFFFFF" stroke-width="0.2468" stroke-miterlimit="10" d="M97.5,97.3l-1.6,8.7l-0.4-5.4l-0.2-3.3
				l0-0.1l0,0l-3.7-11.6l1.7-1.9l0.3-0.3l-0.4-0.5l-2.3-3.1l-1.2-1.6l2.7-2.6l2.8-2.7l0.1,1.5l1.4,15.2c0,0,0,0,0,0L97.5,97.3z"/>
			<path fill="#A3A510" stroke="#FFFFFF" stroke-width="0.2468" stroke-miterlimit="10" d="M101.8,66.6l-0.9,9.3l-1,10.4l-1.6,6.8
				c0,0-0.6-1.6-1.5-3.6l-1.4-15.2l-0.1-1.5l0.7-0.7L101.8,66.6z"/>
			<polygon fill="#7D706D" stroke="#FFFFFF" stroke-width="0.25" stroke-miterlimit="10" points="101.8,66.6 95.9,72.2 95.2,72.8 
				92.4,75.5 89.7,78.1 88.7,78.6 87.7,82.8 85.9,79.9 85.6,76.8 86.7,73 91.9,70.8 94.9,69.5 95.1,69.4 98.4,68 			"/>
		</g>
	</g>
</g>
<g id="Layer_3">
</g>
<g id="Isolation_Mode">
</g>
<g id="Layer_4">
</g>
<g id="logo">
</g>
</svg>
