<?xml version="1.0" encoding="utf-8"?>
<!-- Generator: Adobe Illustrator 23.0.4, SVG Export Plug-In . SVG Version: 6.00 Build 0)  -->
<svg version="1.1" id="Layer_1" xmlns="http://www.w3.org/2000/svg" xmlns:xlink="http://www.w3.org/1999/xlink" x="0px" y="0px"
	 viewBox="0 0 300 153.2" style="enable-background:new 0 0 300 153.2;" xml:space="preserve">
<style type="text/css">
	.st0{fill:#A3A510;}
	.st1{fill:#565A62;}
	.st2{fill:none;stroke:#FFFFFF;stroke-width:0.25;stroke-miterlimit:10;}
	.st3{fill:#565A62;stroke:#FFFFFF;stroke-width:0.25;stroke-miterlimit:10;}
	.st4{fill:#7D706D;stroke:#FFFFFF;stroke-width:0.25;stroke-miterlimit:10;}
	.st5{fill:#492F24;stroke:#FFFFFF;stroke-width:0.25;stroke-miterlimit:10;}
	.st6{fill:#8B0E04;stroke:#FFFFFF;stroke-width:0.25;stroke-miterlimit:10;}
	.st7{fill:#837773;stroke:#FFFFFF;stroke-width:0.25;stroke-miterlimit:10;}
	.st8{fill:#A3A510;stroke:#FFFFFF;stroke-width:0.25;stroke-miterlimit:10;}
	.st9{fill:#565A62;stroke:#FFFFFF;stroke-width:0.2468;stroke-miterlimit:10;}
	.st10{fill:#A3A510;stroke:#FFFFFF;stroke-width:0.2468;stroke-miterlimit:10;}
	.st11{fill:#7A6F00;stroke:#FFFFFF;stroke-width:0.25;stroke-miterlimit:10;}
	.st12{fill:#9A311B;stroke:#FFFFFF;stroke-width:0.25;stroke-miterlimit:10;}
	.st13{fill:#A3551C;stroke:#FFFFFF;stroke-width:0.25;stroke-miterlimit:10;}
	.st14{fill:#492F24;stroke:#FFFFFF;stroke-width:0.2468;stroke-miterlimit:10;}
	.st15{fill:#7D706D;stroke:#FFFFFF;stroke-width:0.2468;stroke-miterlimit:10;}
	.st16{stroke:#FFFFFF;stroke-width:0.2468;stroke-miterlimit:10;}
	.st17{fill:#B09531;stroke:#FFFFFF;stroke-width:0.2468;stroke-miterlimit:10;}
	.st18{fill:#A5472F;stroke:#FFFFFF;stroke-width:0.25;stroke-miterlimit:10;}
	.st19{opacity:0.4;fill:#AB650D;stroke:#FFFFFF;stroke-width:0.2468;stroke-miterlimit:10;enable-background:new    ;}
	.st20{fill:#183B61;stroke:#FFFFFF;stroke-width:0.2468;stroke-miterlimit:10;}
	.st21{fill:#8B0E04;stroke:#FFFFFF;stroke-width:0.2468;stroke-miterlimit:10;}
	.st22{fill:#AB650D;stroke:#FFFFFF;stroke-width:0.2468;stroke-miterlimit:10;}
	.st23{fill:#7A6F00;stroke:#FFFFFF;stroke-width:0.2468;stroke-miterlimit:10;}
	.st24{opacity:0.75;fill:#AB650D;stroke:#FFFFFF;stroke-width:0.2468;stroke-miterlimit:10;enable-background:new    ;}
	.st25{opacity:0.4;fill:#183B61;stroke:#FFFFFF;stroke-width:0.2468;stroke-miterlimit:10;enable-background:new    ;}
	.st26{fill:#FFFFFF;stroke:#FFFFFF;stroke-width:0.25;stroke-miterlimit:10;}
	.st27{opacity:0.52;fill:#AB650D;stroke:#FFFFFF;stroke-width:0.2468;stroke-miterlimit:10;enable-background:new    ;}
	.st28{fill:#994708;stroke:#FFFFFF;stroke-width:0.2468;stroke-miterlimit:10;}
	.st29{fill:#AB650D;stroke:#FFFFFF;stroke-width:0.25;stroke-miterlimit:10;}
	.st30{fill:#994708;stroke:#FFFFFF;stroke-width:0.25;stroke-miterlimit:10;}
</style>
<g id="facets">
	<g>
		<g>
			<path class="st0" d="M35,102.7l2.4-16.1h5.1L38,112.2h-5.1l-3-15.1l-3,15.1h-5.2L17,86.6h5.2l2.4,16.1l3-16.1h4.3L35,102.7z"/>
			<path class="st0" d="M51.2,98.1L55,86.6h5.6l-6.8,16.3v9.3h-5.2v-9.3l-6.9-16.3h5.6L51.2,98.1z"/>
			<path class="st0" d="M77.3,101.7c0,3.4-0.8,6.1-2.4,8s-3.9,2.8-6.8,2.8s-5.1-0.9-6.8-2.8s-2.5-4.5-2.5-7.9v-4.4
				c0-3.5,0.8-6.3,2.4-8.2s3.9-3,6.8-3c2.8,0,5.1,1,6.7,2.9s2.5,4.7,2.5,8.2v4.4H77.3z M72.2,97.4c0-2.3-0.3-4-1-5.2
				s-1.7-1.7-3.1-1.7s-2.4,0.5-3,1.6s-1,2.7-1,4.9v4.6c0,2.2,0.3,3.9,1,4.9c0.7,1,1.7,1.6,3.1,1.6c1.3,0,2.3-0.5,3-1.6s1-2.6,1-4.8
				V97.4z"/>
		</g>
		<g>
			<path class="st0" d="M52.2,115.9v25.4h-1.5v-13.1h-7.3v13.1H42v-25.4h1.5v11.3h7.3v-11.3C50.8,115.9,52.2,115.9,52.2,115.9z"/>
			<path class="st0" d="M64.1,132.9h-5.7l-1.5,8.4h-1.4l4.7-25.4h0.8h0.5h0.8l4.7,25.4h-1.4L64.1,132.9z M63.8,131.9l-2.6-14.6
				l-2.7,14.6H63.8z"/>
			<path class="st0" d="M78.4,123.9v-4.7c0-1.1-0.7-2.3-1.8-2.3h-3.3c-1.1,0-1.8,1.2-1.8,2.3v18.9c0,1.1,0.7,2.2,1.8,2.2h3.3
				c1.1,0,1.8-1.1,1.8-2.2v-5.4h1.4v5.4c0,1.8-1.4,3.4-3.1,3.4h-3.4c-1.8,0-3.3-1.6-3.3-3.4v-18.9c0-1.8,1.5-3.4,3.3-3.4h3.3
				c1.8,0,3.3,1.6,3.3,3.4v4.7H78.4z"/>
			<path class="st0" d="M86.9,127.7l-2,3.9v9.6h-1.4v-25.4h1.3v12.9l6.6-12.9h1.5l-5.3,10.3l5.7,15.1h-1.5L86.9,127.7z"/>
			<path class="st0" d="M104.4,132.9h-5.7l-1.5,8.4h-1.4l4.7-25.4h0.8h0.5h0.8l4.7,25.4h-1.4L104.4,132.9z M104.2,131.9l-2.6-14.6
				L99,131.9H104.2z"/>
			<path class="st0" d="M118.4,117h-4.7v24.3h-1.4V117h-4.8v-1.1h4.8h1.4h4.7V117z"/>
			<path class="st0" d="M131.6,115.9v25.4h-1.5v-13.1h-7.3v13.1h-1.5v-25.4h1.5v11.3h7.3v-11.3C130.1,115.9,131.6,115.9,131.6,115.9
				z"/>
			<path class="st0" d="M145.5,119.2v18.9c0,1.8-1.5,3.4-3.3,3.4h-3.6c-1.8,0-3.3-1.6-3.3-3.4v-18.9c0-1.8,1.5-3.4,3.3-3.4h3.6
				C144.1,115.8,145.5,117.4,145.5,119.2z M144.1,138.1v-18.9c0-1.1-0.8-2.3-1.8-2.3h-3.6c-1.1,0-1.8,1.2-1.8,2.3v18.9
				c0,1.1,0.7,2.3,1.8,2.3h3.6C143.2,140.4,144.1,139.2,144.1,138.1z"/>
			<path class="st0" d="M159.5,115.9v25.4h-1.2h-0.2h-1.5l-5.8-24.1v24.1h-1.5v-25.4h1.2h0.3h1.1l6.2,24.5v-24.5
				C158.1,115.9,159.5,115.9,159.5,115.9z"/>
		</g>
		<g>
			<path class="st1" d="M23.2,127v-1.6l1.2-1.5c1.5-1.9,2.8-3.5,2.8-5.2c0-1-0.5-1.6-1.5-1.6c-0.7,0-1.3,0.3-1.7,0.6l-0.4-1.8
				c0.5-0.4,1.5-0.7,2.6-0.7c2.6,0,3.4,1.7,3.4,3.4c0,2.2-1.4,4-2.7,5.5l-0.7,0.8l0,0h3.6v2.1H23.2z"/>
			<path class="st1" d="M38,121.1c0,4.2-1.5,6-3.4,6c-2.6,0-3.4-2.9-3.4-5.9c0-3.4,1.1-6,3.5-6C37.4,115.2,38,118.3,38,121.1z
				 M33.6,121.2c0,2.7,0.3,4,1.1,4c0.7,0,1-1.3,1-4c0-2.5-0.2-4-1-4S33.6,118.4,33.6,121.2z"/>
			<path class="st1" d="M23.2,141.4v-1.6l1.2-1.5c1.5-1.9,2.8-3.5,2.8-5.2c0-1-0.5-1.6-1.5-1.6c-0.7,0-1.3,0.3-1.7,0.6l-0.4-1.8
				c0.5-0.4,1.5-0.7,2.6-0.7c2.6,0,3.4,1.7,3.4,3.4c0,2.2-1.4,4-2.7,5.5l-0.7,0.8l0,0h3.6v2.1H23.2z"/>
			<path class="st1" d="M38,135.6c0,4.2-1.5,6-3.4,6c-2.6,0-3.4-2.9-3.4-5.9c0-3.4,1.1-6,3.5-6C37.4,129.7,38,132.8,38,135.6z
				 M33.6,135.7c0,2.7,0.3,4,1.1,4c0.7,0,1-1.3,1-4c0-2.5-0.2-4-1-4S33.6,132.9,33.6,135.7z"/>
		</g>
		<g>
			<polygon class="st2" points="82.4,88.2 82.3,88.2 82.4,88.1 			"/>
			<path class="st2" d="M101.4,26.6L101.4,26.6L101.4,26.6z"/>
			<path class="st2" d="M104.9,24.9L104.9,24.9L104.9,24.9z"/>
			<polygon class="st3" points="108.8,5.5 107,5.7 107.5,10.2 107.7,10.6 109.3,10 			"/>
			<polygon class="st3" points="101.8,12 100.4,11 97.7,11.3 99.8,13.7 101.4,13.1 102.4,12.7 			"/>
			<polygon class="st4" points="104.5,10.5 103.4,10.1 103.2,8 107,5.7 107.5,10.2 			"/>
			<polygon class="st5" points="105.8,4.6 102.9,6.8 102.5,8.3 103.2,8 107,5.7 			"/>
			<polygon class="st3" points="96.3,7.5 97.7,11.3 99.5,10.2 101,9.3 			"/>
			<polygon class="st3" points="103.9,13.9 102.4,12.7 103.8,12.2 			"/>
			<polygon class="st6" points="107.7,10.6 109.3,10 113.2,13.7 107.8,11.7 			"/>
			<polygon class="st7" points="104.5,10.5 106.3,11.2 103.8,12.2 103.5,10.7 			"/>
			<polygon class="st8" points="107.7,10.6 107.5,10.2 104.5,10.5 106.3,11.2 107.8,11.7 			"/>
			<path class="st9" d="M104.3,23.1l1.6,0.6l1.1,2.4l1.8,4l-3.9-5.2C104.9,24.8,104.3,23.1,104.3,23.1z"/>
			<polygon class="st10" points="111.4,28.5 111.8,29.3 108.9,30.1 107,26 			"/>
			<polygon class="st3" points="101.2,14.2 99.8,13.7 101.4,13.1 			"/>
			<polygon class="st11" points="102.5,8.3 103.2,8 103.4,10.1 102.2,9.7 			"/>
			<polygon class="st3" points="103.4,10.1 102.2,9.7 102,10.8 103.5,10.7 104.5,10.5 			"/>
			<polygon class="st3" points="100.5,6.3 96.3,7.5 101,9.3 102.2,9.7 102.5,8.3 102.9,6.8 			"/>
			<polygon class="st12" points="99.5,10.2 101,9.3 102.2,9.7 102,10.8 100.4,11 97.7,11.3 			"/>
			<polygon class="st13" points="102,10.8 103.5,10.7 103.8,12.2 102.4,12.7 101.8,12 100.4,11 			"/>
			<polygon class="st2" points="101.5,26.6 102,26.6 101.8,26.8 101.4,26.6 			"/>
			<polygon class="st14" points="97,47.1 95.3,52.8 94.5,55.8 90.5,69.5 89.5,69.9 89.5,69.1 88.8,66.7 94.3,53.6 95.2,51.8 			"/>
			<polygon class="st15" points="102.5,30 103.8,30 108.5,34 107.5,44 			"/>
			<polygon class="st16" points="97,47.1 95.2,51.8 94.3,53.6 93.5,46.1 94.8,46 			"/>
			<polygon class="st6" points="99.7,14.6 97.7,20.8 92.8,20.3 			"/>
			<polygon class="st14" points="100.2,18.1 97.7,20.8 99.7,14.6 			"/>
			<polygon class="st3" points="99.8,13.7 101.2,14.2 100.2,18.1 99.7,14.6 			"/>
			<polygon class="st5" points="103.9,13.9 102.4,12.7 101.4,13.1 101.2,14.2 104.2,15.3 108.4,17.8 			"/>
			<polygon class="st3" points="103.8,12.2 106.3,11.2 107.8,11.7 108.4,17.8 103.9,13.9 			"/>
			<polygon class="st14" points="96.7,38.8 97.5,35.5 98.2,43.2 			"/>
			<polygon class="st17" points="98.7,64.6 98.8,66 95.8,67.3 94.5,55.8 95.3,52.8 			"/>
			<polygon class="st18" points="113.2,13.7 113.4,15.5 108.4,17.8 107.8,11.7 			"/>
			<polygon class="st19" points="80.2,84.1 73.5,76.9 79.7,78.6 			"/>
			<polygon class="st14" points="99.7,109.5 98.8,105.1 102.3,105.4 			"/>
			<polygon class="st16" points="104,112.6 99.7,109.5 102.3,105.4 			"/>
			<polygon class="st16" points="103.8,99 103.5,100.8 106.3,99.6 107.2,96.7 			"/>
			<polygon class="st20" points="81.2,77.6 80,76.1 85,75.5 			"/>
			<polygon class="st21" points="123.3,78.1 119.7,76.8 116.8,70.6 			"/>
			<polygon class="st21" points="128.1,84.1 124.5,83.1 126.9,82.6 			"/>
			<polygon class="st15" points="126.8,82.5 126.9,82.6 124.5,83.1 119.7,76.8 			"/>
			<polygon class="st14" points="124.5,83.1 123.2,84 119.7,76.8 			"/>
			<polygon class="st9" points="128.9,89.8 123.4,87.6 123.2,84 			"/>
			<polygon class="st22" points="82.8,77.9 81.2,77.6 85,75.5 			"/>
			<polygon class="st21" points="127,92.8 127.3,94.8 125.8,93.2 123.9,92.9 126.9,92.8 			"/>
			<polygon class="st14" points="128.1,96.4 120.9,98.3 123.9,94.1 			"/>
			<polygon class="st2" points="82.5,88.2 82.4,88.2 82.4,88.2 			"/>
			<path class="st23" d="M85.8,89.1l-3.4-0.9l0,0l-0.1-0.1l2.8-1.7C85.2,86.4,85.8,89,85.8,89.1z"/>
			<polygon class="st24" points="82.4,88.1 80.7,86.3 80.7,86.2 85.2,86.4 			"/>
			<polygon class="st16" points="84.5,94.2 82.9,91.1 81.2,89.5 82.4,88.2 82.5,88.2 			"/>
			<polygon class="st25" points="80.7,86.2 80.2,84.1 85.2,86.4 			"/>
			<path class="st14" d="M85.8,89.1c0,0.1-1,5.6-1,5.6l-0.3-0.6l-2-6L85.8,89.1z"/>
			<polygon class="st26" points="86,81 82.8,77.9 85,75.5 			"/>
			<polygon class="st16" points="85.7,83.5 81.8,79.8 86,81 			"/>
			<polygon class="st14" points="81.8,79.8 82.8,77.9 86,81 			"/>
			<polygon class="st23" points="73.5,76.9 75.2,73.8 80,76.1 			"/>
			<polygon class="st25" points="85.2,86.4 80.2,84.1 79.7,78.6 			"/>
			<polygon class="st14" points="106.3,55.5 97,47.2 97.2,44.2 98.2,43.2 			"/>
			<polygon class="st27" points="79.7,78.6 73.5,76.9 80,76.1 			"/>
			<polygon class="st21" points="108.9,21.2 110.4,21.3 114.2,20.9 110.5,23.6 116,22.9 117.5,24 117.5,24.8 110.3,23.6 			"/>
			<polygon class="st22" points="114.2,20.9 116.2,22.3 116,22.9 110.5,23.6 			"/>
			<polygon class="st28" points="109.8,23.5 108.9,21.2 108.7,22.4 107.3,23.2 109.8,23.8 			"/>
			<polygon class="st17" points="110.5,25.9 107.8,25.8 107.3,23.2 109.8,23.8 			"/>
			<polygon class="st10" points="112,26.5 118.2,27.5 113.4,29 			"/>
			<polygon class="st20" points="118.2,27.5 116.2,30 115.3,29.2 114,30 113.4,29 			"/>
			<polygon class="st29" points="113.4,29 114,30 112.5,29.1 			"/>
			<polygon class="st22" points="110.5,24 118.5,26 111.8,25.9 			"/>
			<polygon class="st15" points="110.3,23.6 117.5,24.8 118.5,26 110.5,24 			"/>
			<polygon class="st23" points="111.8,25.9 118.5,26 118.2,27.5 112,26.5 			"/>
			<polygon class="st10" points="120.3,72.1 116.8,70.6 116.2,68.1 			"/>
			<polygon class="st16" points="112.3,54.8 111.9,56.8 110.5,52.8 			"/>
			<polygon class="st16" points="114.3,54 113.2,51.8 112.3,54.8 114.5,56.3 			"/>
			<polygon class="st16" points="113.2,51.8 112.3,54.8 110.5,52.8 			"/>
			<polygon class="st10" points="114.5,59 116.3,64.9 114.2,65.1 			"/>
			<polygon class="st10" points="118.7,69.9 116.2,68.1 117.8,67.4 			"/>
			<polygon class="st10" points="111.8,29.3 111.4,28.5 112.5,29.1 			"/>
			<polygon class="st30" points="112.5,29.1 111.8,29.3 108.9,30.1 109.7,31.6 112,30.3 112.9,31.5 114,30 			"/>
			<polygon class="st22" points="107.8,25.8 110.5,25.9 110.8,26.3 111.4,28.5 107,26 			"/>
			<polygon class="st23" points="112,26.5 111.8,25.9 110.5,24 110.3,23.6 108.9,21.2 109.8,23.5 109.8,23.8 110.5,25.9 110.8,26.3 
				111.4,28.5 112.5,29.1 113.4,29 			"/>
			<polygon class="st9" points="111.9,56.8 109.8,57.2 110.5,52.8 			"/>
			<polygon class="st3" points="104.2,15.3 104.2,16.8 100.2,18.1 101.2,14.2 			"/>
			<polygon class="st14" points="89.4,73.4 88.2,73.5 86.8,71.1 88.2,70.6 			"/>
			<polygon class="st9" points="90.5,69.5 89.4,73.3 88.2,70.6 89.5,69.9 			"/>
			<polygon class="st9" points="67.8,45.2 71,36.2 68.8,45 			"/>
			<polygon class="st9" points="102.3,105.4 98.8,105.1 99.8,102.5 101.3,93.8 			"/>
			<polygon class="st6" points="88.8,66.7 86.5,65.8 81.7,73.1 91.3,43.3 			"/>
			<polygon class="st9" points="93.5,46.1 94.3,53.6 88.8,66.7 91.3,43.3 			"/>
			<polygon class="st28" points="91.3,43.3 81.7,73.1 83.2,42.8 			"/>
			<polygon class="st16" points="87.8,69.8 86.8,71.1 88.2,70.6 89.5,69.9 89.5,69.1 			"/>
			<polygon class="st9" points="107.2,96.7 107.2,80.7 111.2,82.4 			"/>
			<polygon class="st15" points="108.2,101.8 104.2,101.9 106.8,101 107.2,99.9 109.2,99.7 			"/>
			<path class="st11" d="M101.9,98.7l0.1-9.1c0,0-0.6-1.6-1.5-3.6l0.7,7.8l1.1,11.6l0.3-0.5L101.9,98.7z"/>
			<polygon class="st17" points="107.2,80.7 103.7,82.8 104.7,72.3 			"/>
			<polygon class="st17" points="111.2,82.4 107.2,80.7 112.2,79.1 			"/>
			<polygon class="st15" points="105.7,63.1 107.8,62.1 107.2,80.7 104.7,72.3 			"/>
			<polygon class="st14" points="111.7,94.3 110.8,96.1 110,97.9 107.2,96.7 			"/>
			<polygon class="st10" points="79.2,35.8 84,33.2 80.4,38.2 			"/>
			<polygon class="st9" points="73.8,49 71.3,54.8 74.2,61 80.2,59 			"/>
			<polygon class="st22" points="84,33.2 82.2,41.5 80.4,38.2 			"/>
			<polygon class="st15" points="78.7,40.8 82.2,41.5 78.7,43.6 			"/>
			<polygon class="st14" points="83.2,42.8 81.7,73.1 78.7,43.6 82.2,41.5 			"/>
			<path class="st14" d="M75.9,72.6C76,72.6,76,72.6,75.9,72.6L75.9,72.6c-0.7-0.2-8.8-2.9-8.8-2.9l1.5-3.4L80,76.1l-4.9-2.3
				C75.2,73.8,75.8,72.6,75.9,72.6z"/>
			<path class="st16" d="M67.2,69.6c0,0,8,2.7,8.8,2.9c-0.2,0.1-0.8,1.2-0.8,1.2l-4-2.6L67.2,69.6z"/>
			<path class="st2" d="M76,72.6L76,72.6C75.9,72.6,75.9,72.6,76,72.6z"/>
			<polygon class="st9" points="72.4,62.9 73.8,62.2 74.2,61 81.7,73.1 68.8,66.3 			"/>
			<polygon class="st17" points="80.2,59 73.8,49 78.7,43.6 81.7,73.1 74.2,61 			"/>
			<polygon class="st26" points="85,75.5 80,76.1 68.8,66.3 81.8,73.1 			"/>
			<polygon class="st14" points="70.5,51.8 68.8,45 71.8,51.1 			"/>
			<polygon class="st17" points="68.8,45 71,36.2 71.8,51.1 			"/>
			<polygon class="st16" points="71.8,51.1 71,36.2 73.3,43.5 			"/>
			<polygon class="st14" points="78.3,34.2 80.9,29 84,33.2 79.2,35.8 			"/>
			<polygon class="st9" points="71,36.2 70.9,34.5 73.7,31.1 73.3,43.5 			"/>
			<polygon class="st16" points="67.6,55.8 68.5,51.3 70.5,51.8 			"/>
			<polygon class="st9" points="68.5,51.3 68.8,45 70.5,51.8 			"/>
			<polygon class="st6" points="74.8,27.8 76,37.5 76.9,36.8 78.3,34.2 80.9,29 			"/>
			<polygon class="st9" points="79.2,35.8 76.9,36.8 78.3,34.2 			"/>
			<polygon class="st14" points="67.6,52 68.8,45 68.5,51.3 			"/>
			<polygon class="st9" points="73.7,31.1 74.8,27.8 76,37.5 			"/>
			<polygon class="st14" points="74.9,41.6 73.3,43.5 73.7,31.1 76,37.5 			"/>
			<polygon class="st22" points="80.4,38.2 79.2,35.8 76.9,36.8 78.7,40.8 82.2,41.5 			"/>
			<polygon class="st17" points="110,58.8 109.8,57.2 110.5,52.8 108.2,49.8 107,48.1 106.3,55.5 108,57 			"/>
			<polygon class="st17" points="110,97.9 107.2,96.7 106.3,99.6 107.2,99.9 109.2,99.7 113.2,99.2 			"/>
			<polygon class="st23" points="108.8,34.2 110.2,35.5 110.5,43.5 110.8,51.5 110.5,52.8 108.3,46.5 			"/>
			<polygon class="st23" points="108.9,30.1 108.9,32.8 110.2,35.5 108.8,34.2 			"/>
			<polygon class="st9" points="114.2,99.1 113.2,99.2 110,97.9 110.8,96.1 113.9,95.6 			"/>
			<polygon class="st10" points="117,95.1 117.7,98.7 114.2,99.1 113.9,95.6 			"/>
			<polygon class="st15" points="103.8,30 108.9,30.1 108.5,34 			"/>
			<path class="st9" d="M101.4,26.6l1.9-2.5c0,0,1.4,0.8,1.6,0.8L101.4,26.6L101.4,26.6z"/>
			<polygon class="st14" points="108.2,101.8 104.2,101.9 104,103.1 106.5,105.6 114.2,101.5 			"/>
			<path class="st17" d="M102,26.6h-0.5l3.4-1.7l0,0l3.9,5.2l-7-3.3L102,26.6z"/>
			<polygon class="st2" points="101.4,26.6 101.4,26.6 101.4,26.6 101.5,26.6 			"/>
			<polygon class="st9" points="92.8,20.3 97.7,20.8 96.2,23.3 			"/>
			<polygon class="st9" points="111.7,94.3 113.5,90.1 113.8,93.2 113.9,95.6 110.8,96.1 			"/>
			<polygon class="st17" points="101.4,26.6 101.4,26.6 100,26.6 94.2,26.6 97.3,29.8 100.9,27.4 101.5,26.9 			"/>
			<polygon class="st9" points="96.2,23.3 97.7,20.8 101.4,26.6 100,26.6 			"/>
			<polygon class="st14" points="94.2,26.6 92.8,20.3 96.2,23.3 			"/>
			<polygon class="st9" points="113.8,73.2 115.8,66.3 116.2,68.1 116.8,70.6 119.7,76.8 114.7,78.4 			"/>
			<polygon class="st9" points="126.9,92.8 123.4,87.6 123.3,88.3 121.8,94.4 123.9,94.1 123.9,92.9 			"/>
			<polygon class="st9" points="119.7,76.8 123.4,87.6 116.2,84.5 			"/>
			<polygon class="st10" points="123.9,94.1 120.9,98.3 121.8,94.4 			"/>
			<polygon class="st17" points="116.5,91.8 115.7,85.5 116.2,84.5 123.4,87.6 123.3,88.3 			"/>
			<polygon class="st16" points="117.9,101.3 114.2,101.5 114.2,99.6 			"/>
			<polygon class="st17" points="109.2,99.7 113.2,99.2 114.2,99.6 114.2,101.5 108.2,101.8 			"/>
			<polygon class="st21" points="117,95.1 121.8,94.4 120.9,98.3 117.7,98.7 			"/>
			<polygon class="st17" points="120.9,98.3 117.9,101.3 117.7,98.7 			"/>
			<polygon class="st21" points="114.2,65.1 116.3,64.9 116.2,66.5 115.8,66.3 			"/>
			<polygon class="st28" points="113.2,83.2 113.2,83.2 112.9,78.9 112.8,76.7 112.2,79.1 111.2,82.4 111.2,82.4 107.2,96.7 
				111.7,94.3 113.5,90.1 			"/>
			<polygon class="st14" points="119.7,76.8 116.2,84.5 115.7,85.5 115.4,84.2 114.7,78.4 			"/>
			<polygon class="st14" points="117,95.1 113.9,95.6 113.8,93.2 113.5,90.1 113.2,83.2 112.9,78.9 112.8,76.7 111.9,60.5 
				114.2,65.1 115.8,66.3 113.8,73.2 114.7,78.4 115.4,84.2 115.7,85.5 116.5,91.8 			"/>
			<polygon class="st28" points="117.8,67.4 116.2,68.1 115.8,66.3 			"/>
			<polygon class="st9" points="123.2,84 123.4,87.6 119.7,76.8 			"/>
			<polygon class="st14" points="100.9,40 97.3,29.8 97.5,35.5 98.2,43.2 106.3,55.5 			"/>
			<polygon class="st8" points="108.5,34 108.5,34 107.5,44 107,48.1 108.2,49.8 108.3,46.5 108.8,34.2 108.9,30.1 			"/>
			<path class="st2" d="M106.3,55.5L106.3,55.5L106.3,55.5z"/>
			<polygon class="st9" points="107.5,44 107,48.1 100.9,40 97.3,29.8 100.9,27.4 101.5,26.9 102,28.4 102.5,30 			"/>
			<polygon class="st2" points="101.4,26.6 101.4,26.6 101.4,26.6 101.8,26.8 101.5,26.9 			"/>
			<polygon class="st8" points="108.3,46.5 110.5,52.8 108.2,49.8 			"/>
			<polygon class="st17" points="101.8,26.8 101.5,26.9 102,28.4 102.5,30 103.8,30 108.9,30.1 			"/>
			<polygon class="st21" points="114.2,99.1 117.7,98.7 117.9,101.3 114.2,99.6 113.2,99.2 			"/>
			<polygon class="st15" points="111.9,60.5 112.8,76.7 112.2,79.1 107.2,80.7 107.8,62.1 			"/>
			<polygon class="st15" points="111.9,60.5 107.8,62.1 105.7,63.1 102.3,64.5 98.8,66 98.7,64.6 97,47.1 106.3,55.5 108,57 			"/>
			<polygon class="st14" points="95.3,52.8 97,47.2 98.7,64.6 			"/>
			<polygon class="st9" points="90.5,69.5 94.5,55.8 95.8,67.3 			"/>
			<polygon class="st28" points="123.3,88.3 121.8,94.4 117,95.1 116.5,91.8 			"/>
			<polygon class="st8" points="100.9,40 107,48.1 106.3,55.5 			"/>
			<polygon class="st9" points="100,26.6 94.2,26.6 96.2,23.3 			"/>
			<path class="st9" d="M101.3,93.8l-1.6,8.7l-0.4-5.4l-0.2-3.3v-0.1l0,0l-3.7-11.6l1.7-1.9l0.3-0.3l-0.4-0.5l-2.3-3.1l-1.2-1.6
				l2.7-2.6l2.8-2.7l0.1,1.5l1.4,15.2l0,0L101.3,93.8z"/>
			<path class="st10" d="M105.7,63.1l-0.9,9.3l-1,10.4l-1.6,6.8c0,0-0.6-1.6-1.5-3.6l-1.4-15.2l-0.1-1.5l0.7-0.7L105.7,63.1z"/>
			<polygon class="st4" points="105.7,63.1 99.8,68.7 99,69.3 96.2,72 93.5,74.6 92.5,75.1 91.5,79.3 89.8,76.4 89.4,73.3 
				90.5,69.5 95.8,67.3 98.8,66 98.9,65.9 102.2,64.5 			"/>
		</g>
	</g>
</g>
<g id="Layer_3">
</g>
<g id="Isolation_Mode">
</g>
<g id="Layer_4">
</g>
<g id="logo">
</g>
<image style="overflow:visible;" width="1377" height="518" xlink:href="../../../../Desktop/breakin.png"  transform="matrix(7.590416e-02 0 0 7.590416e-02 174.2223 58.25)">
</image>
</svg>
